<svg width="52" height="52" viewBox="0 0 52 52" fill="none" xmlns="http://www.w3.org/2000/svg">
<circle cx="26" cy="26" r="25" fill="#FBDF73" stroke="#663E2A" stroke-width="2"/>
<g clip-path="url(#clip0_184_42)">
<path d="M28.0385 43.3757C25.772 42.894 27.6252 38.9924 26.084 38.5424C26.0301 38.1491 25.7591 37.9766 25.4938 37.9766C25.2285 37.9766 24.9575 38.1491 24.9036 38.5424C23.3624 38.9917 25.2149 42.894 22.9491 43.3757C22.9081 43.3843 22.8887 43.4325 22.9145 43.4656L23.3027 43.9782C23.3157 43.9954 23.338 44.0041 23.3588 43.9997C26.1544 43.4742 24.0597 39.7667 25.0524 38.9464C25.1595 39.0693 25.3177 39.1477 25.4938 39.1477C25.6699 39.1477 25.8273 39.0693 25.9352 38.9464C26.9279 39.7667 24.8332 43.4749 27.6288 43.9997C27.6504 44.0041 27.6719 43.9954 27.6849 43.9782L28.073 43.4656C28.0982 43.4318 28.0795 43.3843 28.0385 43.3757Z" fill="#FFEFB3"/>
<path d="M25.5069 38.3507C25.5069 38.3507 25.2093 38.3492 24.8168 38.3471C24.7183 38.3471 24.6148 38.3456 24.5077 38.3449C24.402 38.3406 24.2956 38.3312 24.1885 38.3248C23.9743 38.3097 23.7615 38.2946 23.5746 38.2809C23.5279 38.2809 23.392 38.2594 23.1778 38.2292C23.0707 38.2141 22.9442 38.1961 22.7997 38.1752C22.7271 38.1652 22.6502 38.1537 22.5689 38.1422C22.4884 38.1278 22.4036 38.1091 22.3152 38.0911C22.1376 38.0545 21.9435 38.0149 21.7343 37.9725C21.6287 37.9538 21.523 37.9222 21.4123 37.8934C21.3016 37.8639 21.188 37.833 21.0708 37.8014C20.9537 37.7698 20.8329 37.7367 20.7092 37.7029C20.5878 37.6619 20.4627 37.6202 20.3354 37.5771C20.2075 37.534 20.0767 37.4901 19.9437 37.4455C19.9106 37.434 19.8768 37.424 19.843 37.411C19.81 37.3974 19.7769 37.3844 19.7438 37.3708C19.677 37.3434 19.6101 37.3168 19.5418 37.2888C18.4506 36.8603 17.2465 36.2241 16.087 35.37C15.9375 35.2693 15.7995 35.1514 15.6564 35.0378C15.5141 34.9235 15.3696 34.8099 15.2273 34.692C15.09 34.5691 14.9512 34.4447 14.8125 34.3204C14.7428 34.2578 14.673 34.196 14.6033 34.1334C14.535 34.0694 14.4696 34.0019 14.4027 33.9357C14.2698 33.8027 14.136 33.6697 14.0016 33.536C13.8694 33.4008 13.7457 33.2563 13.617 33.1169C13.3561 32.8408 13.121 32.5403 12.8795 32.2455L12.7889 32.1348C12.7594 32.0974 12.7321 32.0586 12.7034 32.0205L12.5337 31.7912C12.4223 31.6373 12.3051 31.4878 12.198 31.3311C12.0931 31.1736 11.9881 31.0162 11.8832 30.8594C11.8307 30.7811 11.7789 30.7027 11.7272 30.6243C11.679 30.5438 11.6301 30.464 11.582 30.3835C11.4856 30.2232 11.3893 30.0636 11.2937 29.9054C11.2002 29.7458 11.1154 29.5819 11.027 29.4216C10.9832 29.3411 10.9393 29.2613 10.8962 29.1807C10.8523 29.1009 10.8092 29.0211 10.7704 28.9399C10.6913 28.7774 10.6122 28.6164 10.5339 28.4568C9.91781 27.1742 9.47428 25.9204 9.16589 24.8291C9.12276 24.6939 9.08969 24.5588 9.05662 24.4272C9.02284 24.2956 8.98977 24.1677 8.95814 24.0426C8.92723 23.9175 8.892 23.796 8.86684 23.6766C8.84097 23.5573 8.81581 23.4408 8.79208 23.3287C8.76764 23.2165 8.74464 23.1072 8.72164 23.0023C8.69863 22.8973 8.67635 22.7959 8.66053 22.6975C8.62603 22.5012 8.5944 22.3215 8.56564 22.159C8.50382 21.8347 8.47579 21.5766 8.45063 21.4019C8.42691 21.2272 8.41397 21.1338 8.41397 21.1338L8.21484 21.1582C8.21484 21.1582 8.22706 21.2524 8.24935 21.4293C8.27379 21.6054 8.29895 21.8657 8.35861 22.1935C8.38593 22.3574 8.41612 22.5393 8.44919 22.7377C8.46429 22.8369 8.48585 22.939 8.50814 23.0454C8.5297 23.1518 8.55271 23.2618 8.57643 23.3754C8.60015 23.489 8.62387 23.6062 8.64903 23.7277C8.67275 23.8485 8.70726 23.9714 8.73745 24.0979C8.76836 24.2245 8.80071 24.3546 8.83378 24.4876C8.86684 24.6206 8.89847 24.7572 8.94089 24.8938C9.24137 25.9988 9.67843 27.2698 10.2895 28.574C10.3671 28.7364 10.4454 28.9004 10.5238 29.0657C10.5619 29.1491 10.605 29.2303 10.6489 29.3109C10.692 29.3921 10.7359 29.4741 10.779 29.556C10.8674 29.7192 10.9515 29.886 11.045 30.0492C11.1406 30.211 11.2369 30.3734 11.3332 30.5366C11.3814 30.6186 11.4296 30.6998 11.4784 30.7825C11.5302 30.8623 11.5827 30.9421 11.6344 31.0226C11.7394 31.183 11.8443 31.3433 11.95 31.5043C12.0571 31.6639 12.1743 31.8178 12.2864 31.9752L12.4568 32.2103C12.4856 32.2491 12.5129 32.2894 12.5423 32.3275L12.6329 32.4411C12.8759 32.7423 13.1124 33.0507 13.3755 33.3347C13.5049 33.4785 13.6293 33.6266 13.763 33.7653C13.8981 33.9027 14.0333 34.04 14.1677 34.1766C14.2352 34.2441 14.3007 34.3146 14.3704 34.38C14.4408 34.4447 14.5113 34.5087 14.5817 34.5727C14.7226 34.7014 14.8621 34.8286 15.0015 34.9559C15.146 35.0774 15.292 35.1946 15.4365 35.3132C15.5817 35.4304 15.7218 35.5519 15.8728 35.6568C17.0496 36.5418 18.2781 37.2061 19.3937 37.6569C19.4635 37.6857 19.5318 37.7144 19.6001 37.7424C19.6338 37.7568 19.6683 37.7705 19.7014 37.7849C19.7352 37.7978 19.7704 37.8093 19.8042 37.8215C19.9408 37.869 20.0745 37.915 20.2053 37.9603C20.3362 38.0056 20.4641 38.0494 20.5885 38.0926C20.715 38.1285 20.8386 38.163 20.9587 38.1975C21.0787 38.2313 21.1952 38.2637 21.3088 38.2953C21.4216 38.3269 21.5309 38.36 21.6387 38.3801C21.8529 38.4261 22.0521 38.4693 22.2339 38.5088C22.3252 38.5282 22.4115 38.5484 22.4942 38.5635C22.5776 38.5764 22.6559 38.5886 22.7307 38.6001C22.8788 38.6231 23.0089 38.6433 23.1188 38.6598C23.3388 38.6929 23.4776 38.7166 23.5264 38.7187C23.7198 38.7389 23.9412 38.7619 24.1633 38.7849C24.274 38.7957 24.3869 38.8101 24.4947 38.8187C24.6018 38.8244 24.7054 38.8295 24.8038 38.8345C25.1963 38.8553 25.4932 38.8712 25.4932 38.8712L25.5083 38.3499L25.5069 38.3507Z" fill="#FFEFB3"/>
<path d="M6.53045 21.0544C6.81871 21.1752 7.09332 21.3377 7.33557 21.5332C7.5807 21.7288 7.78917 21.9574 7.98541 22.209C8.08174 22.3356 8.16944 22.4678 8.2478 22.6066C8.32687 22.7453 8.39516 22.8899 8.46345 23.0379C8.52959 23.1868 8.58638 23.3406 8.6331 23.4995C8.67911 23.6584 8.71433 23.823 8.74884 23.9891C8.58925 23.9682 8.43182 23.9316 8.28014 23.8791C8.13134 23.8266 7.98685 23.759 7.84955 23.6771C7.57567 23.5132 7.32263 23.2946 7.11776 23.0308C6.91792 22.7662 6.75617 22.4578 6.64906 22.1228C6.55346 21.7863 6.50529 21.424 6.52973 21.0537L6.53045 21.0544Z" fill="#FFEFB3"/>
<path d="M8.18457 27.7939C8.33984 27.8148 8.49224 27.8479 8.64104 27.8917C8.79128 27.9349 8.94152 27.9866 9.08529 28.0492C9.37499 28.1735 9.64097 28.3382 9.89113 28.5316C10.147 28.7228 10.3756 28.9478 10.5769 29.2016C10.7897 29.4496 10.9651 29.7315 11.1161 30.037C10.794 30.0888 10.4799 30.0665 10.1672 29.986C10.0119 29.945 9.85806 29.8889 9.70926 29.8177C9.63522 29.7818 9.56046 29.7437 9.48929 29.7005C9.41956 29.6567 9.35127 29.6092 9.28442 29.5589C9.15071 29.4575 9.02419 29.3432 8.90558 29.2174C8.84592 29.1542 8.78913 29.088 8.73449 29.0197C8.67986 28.9507 8.63314 28.8774 8.58569 28.8026C8.49296 28.6523 8.41029 28.492 8.34128 28.3238C8.30678 28.2397 8.27443 28.1541 8.24783 28.0657C8.22339 27.9766 8.20182 27.886 8.18457 27.7939Z" fill="#FFEFB3"/>
<path d="M11.8528 34.0241C12.1626 33.9659 12.4846 33.9494 12.7973 33.9767C12.9541 33.9904 13.1093 34.0141 13.2617 34.0479C13.4148 34.0817 13.573 34.1176 13.7239 34.1672C14.0287 34.2643 14.3134 34.4059 14.6002 34.5641C14.7411 34.646 14.8777 34.7373 15.0085 34.8387C15.074 34.8897 15.1401 34.9408 15.2069 34.9918C15.2731 35.0443 15.3371 35.0989 15.4003 35.1565C15.2609 35.2363 15.1135 35.3017 14.9604 35.3513C14.808 35.4002 14.6455 35.4376 14.4881 35.4505C14.1689 35.4793 13.8354 35.4447 13.504 35.3498C13.1783 35.2499 12.8664 35.0795 12.5759 34.861C12.4336 34.7495 12.3049 34.6187 12.1827 34.4792C12.062 34.3383 11.9469 34.1888 11.8521 34.0241H11.8528Z" fill="#FFEFB3"/>
<path d="M20.9614 39.1324C21.0951 38.9937 21.2475 38.8779 21.4129 38.7859C21.5796 38.6867 21.7593 38.609 21.9462 38.5566C22.1339 38.5026 22.328 38.4782 22.5264 38.4725C22.7269 38.4595 22.9311 38.4732 23.1359 38.5163C23.0403 38.6881 22.9117 38.8384 22.7564 38.9613C22.6788 39.0224 22.5946 39.0778 22.5055 39.1252C22.4609 39.149 22.4149 39.1705 22.3675 39.1907C22.3208 39.2094 22.2726 39.2245 22.2237 39.2381C22.0282 39.2928 21.8161 39.315 21.6005 39.3014C21.4926 39.2942 21.3834 39.2805 21.2763 39.2532C21.1699 39.2223 21.0642 39.182 20.9607 39.1324H20.9614Z" fill="#FFEFB3"/>
<path d="M6 23.3203C6.45575 23.4749 6.88419 23.6942 7.27381 23.9623C7.46574 24.0975 7.66199 24.2413 7.8417 24.398C8.02286 24.554 8.19322 24.7222 8.35281 24.8991C9.012 25.6051 9.51592 26.4563 9.84443 27.4311C9.36208 27.4398 8.88548 27.3449 8.43188 27.1529C8.20257 27.058 7.98979 26.9358 7.78563 26.7927C7.58076 26.6489 7.38523 26.4836 7.20192 26.2988C7.0258 26.1119 6.86406 25.9056 6.7167 25.6827C6.64409 25.5713 6.57149 25.4562 6.50967 25.3362C6.44856 25.2161 6.39249 25.0925 6.34002 24.9659C6.28826 24.8394 6.24082 24.7093 6.1984 24.577C6.17756 24.5109 6.15671 24.444 6.13946 24.3764C6.12292 24.3081 6.10855 24.2398 6.09489 24.1708C6.04097 23.8947 6.00791 23.61 6 23.3218V23.3203Z" fill="#FFEFB3"/>
<path d="M8.31029 30.1914C8.54607 30.2072 8.78905 30.2367 9.02411 30.2827C9.2599 30.3287 9.49137 30.3905 9.71709 30.466C9.83067 30.5034 9.93993 30.5458 10.0528 30.5897C10.1657 30.6328 10.2778 30.6796 10.3871 30.7292C10.6063 30.8284 10.8191 30.9412 11.0225 31.0663C11.8614 31.5559 12.5961 32.2152 13.2179 33.0355C12.9857 33.1196 12.755 33.1721 12.5149 33.2008C12.2755 33.2296 12.0318 33.2325 11.7852 33.2095C11.6623 33.198 11.5379 33.1807 11.4143 33.1563C11.2935 33.1297 11.1735 33.0973 11.0527 33.0585C10.8126 32.9808 10.574 32.878 10.3403 32.7529C10.1132 32.6235 9.89608 32.469 9.68618 32.295C9.58266 32.2073 9.47627 32.1167 9.38354 32.0168C9.28937 31.9168 9.19807 31.8126 9.11037 31.704C8.93569 31.4862 8.77036 31.2525 8.6424 30.9959C8.57627 30.8686 8.51444 30.7378 8.45837 30.6041C8.40302 30.4696 8.34695 30.3345 8.30957 30.1921L8.31029 30.1914Z" fill="#FFEFB3"/>
<path d="M13.5171 36.4955C13.617 36.4624 13.7169 36.4344 13.8197 36.4078C13.9232 36.3805 14.0268 36.356 14.131 36.3359C14.3395 36.2949 14.5501 36.2676 14.76 36.2539C15.1755 36.2324 15.6104 36.2367 16.028 36.2992C16.1337 36.3136 16.2351 36.3359 16.3415 36.3532C16.4479 36.3704 16.5528 36.3913 16.6578 36.415C16.8677 36.4617 17.0711 36.5264 17.276 36.5962C17.6929 36.7227 18.0868 36.9168 18.488 37.1267C18.3327 37.2727 18.1623 37.4013 17.9776 37.5113C17.8856 37.566 17.79 37.6163 17.6915 37.6616C17.5944 37.704 17.4945 37.7407 17.3924 37.773C17.1876 37.837 16.9712 37.8816 16.7469 37.9053C16.6348 37.9168 16.5205 37.924 16.4062 37.9247C16.2933 37.9219 16.1797 37.9139 16.0647 37.9003C15.8347 37.8737 15.601 37.8262 15.3674 37.7587C15.1388 37.6846 14.9145 37.5847 14.6939 37.4682C14.5839 37.4093 14.4739 37.3474 14.3689 37.277C14.2661 37.2044 14.1655 37.1267 14.067 37.0448C13.9685 36.9628 13.8729 36.8765 13.7802 36.7859C13.6875 36.6954 13.5969 36.6012 13.5178 36.4962L13.5171 36.4955Z" fill="#FFEFB3"/>
<path d="M17.5183 38.3914C17.7656 38.2275 18.033 38.1017 18.3105 38.0126C18.3802 37.9903 18.4499 37.9709 18.5204 37.9529C18.5915 37.9364 18.6634 37.9198 18.7353 37.9033C18.8805 37.8717 19.0272 37.8494 19.1753 37.8357C19.3226 37.8228 19.4707 37.8192 19.6188 37.8249C19.6921 37.83 19.7683 37.8292 19.8438 37.8335C19.9193 37.8379 19.9947 37.8443 20.0695 37.853C20.2198 37.8709 20.37 37.899 20.5188 37.9371C20.5562 37.9464 20.5936 37.9572 20.6302 37.968C20.6676 37.9773 20.7057 37.9867 20.7438 37.9967C20.8193 38.0169 20.8948 38.0392 20.9695 38.0643C20.8797 38.1844 20.7783 38.2944 20.6654 38.3929C20.6094 38.4425 20.5504 38.4892 20.4886 38.5331C20.4275 38.5769 20.365 38.6136 20.2988 38.6495C20.0372 38.7912 19.7396 38.8846 19.4218 38.9249C19.2615 38.9486 19.1034 38.9421 18.9395 38.9292C18.777 38.9148 18.6117 38.8868 18.4478 38.8451C18.3665 38.8235 18.2832 38.8019 18.2041 38.7696C18.125 38.738 18.0459 38.702 17.9683 38.6632C17.813 38.5855 17.6613 38.4942 17.5176 38.3893L17.5183 38.3914Z" fill="#FFEFB3"/>
<path d="M10.0709 20.6611C9.81069 20.8229 9.59072 21.0242 9.40382 21.2586C9.21907 21.4929 9.06236 21.7611 8.96747 22.0494C8.91787 22.1939 8.87834 22.3441 8.84958 22.498C8.82083 22.6526 8.80142 22.8107 8.80214 22.9703C8.8007 23.1299 8.81076 23.2924 8.83233 23.4556C8.85318 23.6188 8.8848 23.7827 8.938 23.9438C9.07027 23.8532 9.19176 23.7525 9.30462 23.6432C9.41963 23.5332 9.52387 23.4153 9.61804 23.2902C9.8071 23.0408 9.94799 22.7676 10.0479 22.48C10.1536 22.191 10.2082 21.8905 10.2097 21.5857C10.2226 21.2787 10.1744 20.9688 10.0695 20.6611H10.0709Z" fill="#FFEFB3"/>
<path d="M11.4985 26.49C11.3943 26.6014 11.2994 26.7208 11.216 26.8466C11.1333 26.9724 11.0658 27.1025 11.0068 27.2391C10.8918 27.5116 10.8156 27.8099 10.794 28.1155C10.7782 28.4181 10.8063 28.733 10.8839 29.045C10.973 29.3506 11.101 29.6576 11.285 29.9408C11.4849 29.695 11.6488 29.4131 11.758 29.1241C11.8134 28.9789 11.8572 28.8315 11.8881 28.6834C11.904 28.6087 11.9155 28.5353 11.9262 28.4598C11.9385 28.3836 11.9471 28.3081 11.9528 28.2319C11.9931 27.6273 11.8515 27.0263 11.4978 26.4893L11.4985 26.49Z" fill="#FFEFB3"/>
<path d="M14.5716 31.7224C14.4437 31.9985 14.3725 32.2839 14.3474 32.5808C14.3351 32.7289 14.3359 32.8792 14.3488 33.0301C14.3617 33.1804 14.3941 33.3242 14.4351 33.4715C14.5192 33.762 14.645 34.056 14.8355 34.3105C14.9282 34.4399 15.031 34.5658 15.1446 34.6851C15.1999 34.7462 15.2625 34.8001 15.3264 34.8526C15.3904 34.9058 15.4573 34.9569 15.5256 35.0057C15.5759 34.8533 15.6125 34.6988 15.637 34.5449C15.6621 34.3896 15.67 34.2401 15.6751 34.0819C15.6808 33.7699 15.6413 33.4665 15.5557 33.1847C15.4752 32.8971 15.3588 32.6211 15.1899 32.3817C15.1079 32.2594 15.0202 32.1372 14.9167 32.0279C14.8146 31.9172 14.6967 31.8173 14.5716 31.7217V31.7224Z" fill="#FFEFB3"/>
<path d="M21.5403 36.9521C21.5748 37.1369 21.6395 37.3123 21.7315 37.4748C21.8249 37.6301 21.9457 37.7696 22.0881 37.8918C22.2311 38.0126 22.395 38.1197 22.5762 38.1959C22.7587 38.2649 22.9564 38.3109 23.1627 38.3296C23.1189 38.1369 23.042 37.9565 22.9413 37.7955C22.891 37.7149 22.8342 37.6394 22.7724 37.5697C22.7415 37.5345 22.7091 37.5014 22.6761 37.4691C22.643 37.4353 22.6092 37.4022 22.5733 37.3706C22.4317 37.2455 22.2728 37.1448 22.0988 37.0765C22.0119 37.0413 21.9206 37.0176 21.8278 36.9967C21.7351 36.973 21.6395 36.9579 21.541 36.9521H21.5403Z" fill="#FFEFB3"/>
<path d="M11.1916 22.3301C10.8235 22.5954 10.5101 22.9196 10.2556 23.292C10.1255 23.4789 10.0241 23.6745 9.93356 23.8808C9.8437 24.0871 9.76894 24.3043 9.71215 24.5286C9.50296 25.4186 9.59426 26.4316 10.0306 27.3554C10.3886 27.0232 10.6826 26.6408 10.9083 26.2374C11.0183 26.0369 11.1218 25.8269 11.2066 25.6141C11.2908 25.4013 11.3576 25.1857 11.4058 24.9693C11.6178 24.0929 11.5682 23.1971 11.1923 22.3301H11.1916Z" fill="#FFEFB3"/>
<path d="M13.0304 27.8125C12.8838 27.9922 12.763 28.1763 12.6566 28.3725C12.551 28.5681 12.4626 28.773 12.3914 28.9851C12.3569 29.0908 12.3238 29.2007 12.3001 29.3086C12.2771 29.4164 12.2584 29.5257 12.2447 29.6371C12.2167 29.8593 12.2074 30.0865 12.216 30.3172C12.2706 31.2245 12.6624 32.167 13.3705 32.9039C13.5998 32.4798 13.7651 32.0211 13.8564 31.5725C13.8794 31.4596 13.8981 31.3482 13.9132 31.236C13.9312 31.1217 13.9441 31.0081 13.9535 30.8953C13.9714 30.6695 13.9729 30.4474 13.9563 30.2303C13.9082 29.3453 13.6192 28.5264 13.0297 27.8132L13.0304 27.8125Z" fill="#FFEFB3"/>
<path d="M16.5785 32.9766C16.5491 33.0722 16.5225 33.1707 16.5023 33.2663C16.4829 33.3612 16.4678 33.4575 16.4571 33.5539C16.4355 33.7465 16.4312 33.9406 16.4448 34.1355C16.4671 34.5316 16.5785 34.9018 16.7503 35.2671C16.7942 35.3569 16.8388 35.4511 16.8927 35.5345C16.9466 35.6193 17.0041 35.702 17.0659 35.784C17.1896 35.9465 17.3254 36.1082 17.4793 36.2527C17.7948 36.5295 18.1557 36.7869 18.5741 36.9472C18.5928 36.7351 18.5935 36.5245 18.5791 36.3196C18.5719 36.2168 18.5611 36.1154 18.5468 36.0155C18.5338 35.9119 18.518 35.8106 18.4986 35.7099C18.4598 35.5093 18.4073 35.316 18.3433 35.1312C18.311 35.0384 18.2758 34.9493 18.2377 34.8609C18.2017 34.7688 18.1629 34.6797 18.1212 34.5927C18.0371 34.4194 17.9415 34.257 17.8329 34.1067C17.7287 33.95 17.6151 33.7997 17.4865 33.6667C17.4225 33.5992 17.3542 33.5366 17.2845 33.4748C17.2169 33.4094 17.1457 33.3475 17.071 33.2893C16.9962 33.2311 16.9178 33.1764 16.8352 33.1254C16.7525 33.0743 16.6655 33.0283 16.5807 32.9773L16.5785 32.9766Z" fill="#FFEFB3"/>
<path d="M19.0177 35.4277C19.0084 35.7067 19.0479 35.9806 19.1327 36.2444C19.1543 36.3106 19.178 36.3753 19.2053 36.44C19.219 36.4723 19.2326 36.504 19.2477 36.5363C19.2628 36.5672 19.2794 36.5967 19.2966 36.6262C19.3642 36.7455 19.4425 36.8598 19.531 36.9698C19.6194 37.0798 19.7179 37.1848 19.825 37.2833C19.8782 37.3343 19.9357 37.376 19.9953 37.4184C20.055 37.4601 20.1161 37.5004 20.1794 37.5392C20.3059 37.6161 20.4403 37.6852 20.5805 37.7448C20.6157 37.7599 20.6509 37.7743 20.6869 37.7887C20.7228 37.8016 20.7602 37.8117 20.7969 37.8225C20.8709 37.8433 20.9464 37.8627 21.0233 37.8786C21.0104 37.7305 20.9845 37.586 20.9485 37.4458C20.9306 37.376 20.9097 37.307 20.886 37.2401C20.863 37.1726 20.8386 37.1021 20.8105 37.036C20.7013 36.7678 20.556 36.5234 20.3799 36.3149C20.2908 36.2142 20.2002 36.105 20.0996 36.0129C19.9997 35.9195 19.8925 35.8361 19.7782 35.7635C19.7215 35.7261 19.6611 35.6959 19.6021 35.6607C19.5432 35.6262 19.4821 35.5938 19.4188 35.565C19.293 35.5068 19.1593 35.4608 19.0177 35.4277Z" fill="#FFEFB3"/>
<path d="M8.14225 18.0005C8.36869 18.2737 8.53834 18.5655 8.6512 18.8668C8.76909 19.168 8.84386 19.4771 8.85751 19.7863C8.85967 19.8251 8.86039 19.8632 8.86039 19.902C8.86183 19.9408 8.86255 19.9789 8.86255 20.0171C8.86255 20.094 8.85895 20.1709 8.85248 20.2471C8.83882 20.3995 8.81151 20.5512 8.77053 20.7C8.7274 20.8489 8.67996 20.9941 8.61742 21.1357C8.55488 21.2773 8.47868 21.4146 8.38954 21.5462C8.26877 21.4434 8.15951 21.3291 8.06174 21.204C7.96398 21.0796 7.877 20.9452 7.81086 20.8021C7.74257 20.6598 7.68722 20.5095 7.64409 20.3542C7.62252 20.2766 7.60455 20.1982 7.58945 20.1184C7.58227 20.0789 7.5758 20.0386 7.57005 19.9984C7.56573 19.9581 7.56214 19.9178 7.55998 19.8769C7.54057 19.5519 7.56861 19.219 7.66565 18.8991C7.76701 18.5785 7.92516 18.2722 8.14153 17.999L8.14225 18.0005Z" fill="#FFEFB3"/>
<path d="M25.5068 38.8273C25.5068 38.8273 25.8037 38.8114 26.1962 38.7906C26.294 38.7856 26.3982 38.7805 26.5053 38.7748C26.6131 38.7661 26.7245 38.7518 26.8353 38.741C27.0567 38.718 27.2766 38.695 27.47 38.6756C27.5189 38.6741 27.6576 38.6504 27.8769 38.6166C27.9861 38.6001 28.1155 38.5799 28.2636 38.5569C28.3377 38.5454 28.416 38.5332 28.4994 38.521C28.5821 38.5059 28.6683 38.485 28.7589 38.4663C28.9401 38.4275 29.1385 38.3844 29.3527 38.3384C29.4605 38.3183 29.5691 38.2852 29.6812 38.2535C29.7941 38.2219 29.9105 38.1896 30.0298 38.1558C30.1492 38.122 30.2728 38.0875 30.3993 38.0515C30.5237 38.0084 30.6509 37.9645 30.781 37.9192C30.9112 37.874 31.0449 37.8279 31.1807 37.7805C31.2145 37.7683 31.249 37.7575 31.2835 37.7445C31.3173 37.7309 31.3511 37.7165 31.3849 37.7021C31.4532 37.6741 31.5215 37.6453 31.5905 37.6166C32.7025 37.1672 33.9275 36.5044 35.1014 35.6223C35.2523 35.518 35.3925 35.3965 35.537 35.2793C35.6808 35.1614 35.8267 35.0443 35.9705 34.9228C36.1092 34.7962 36.2486 34.6683 36.3895 34.5403C36.46 34.4763 36.5297 34.4123 36.6002 34.3476C36.6692 34.2822 36.7346 34.2125 36.8022 34.1449C36.9366 34.0083 37.071 33.8717 37.2062 33.7351C37.3399 33.5963 37.4635 33.449 37.5929 33.3052C37.8553 33.0219 38.0911 32.7149 38.3333 32.4137L38.4239 32.3008C38.4534 32.2627 38.4807 32.2232 38.5094 32.1844L38.6791 31.95C38.7912 31.7933 38.9077 31.6401 39.0148 31.4805C39.1197 31.3202 39.2247 31.1599 39.3297 31.0003C39.3814 30.9205 39.4339 30.8407 39.4856 30.7609C39.5338 30.6789 39.582 30.5977 39.6301 30.5157C39.7265 30.3525 39.8221 30.1908 39.9177 30.029C40.0104 29.8665 40.0945 29.6998 40.1829 29.5366C40.2261 29.4546 40.2699 29.3734 40.313 29.2921C40.3569 29.2109 40.4 29.1304 40.4374 29.047C40.5158 28.8823 40.5941 28.7184 40.6718 28.5567C41.2821 27.2547 41.7177 25.9858 42.0182 24.8829C42.0599 24.7463 42.0922 24.6097 42.1246 24.4775C42.1576 24.3445 42.1893 24.2151 42.2202 24.0885C42.2504 23.962 42.2849 23.8398 42.3086 23.719C42.3337 23.5982 42.3575 23.481 42.3812 23.3674C42.4049 23.2539 42.4272 23.1439 42.4488 23.0382C42.471 22.9325 42.4926 22.8304 42.5077 22.7312C42.5408 22.5335 42.571 22.3523 42.5983 22.1884C42.6572 21.8613 42.6831 21.6018 42.7076 21.4256C42.7298 21.2495 42.7421 21.1553 42.7421 21.1553L42.5429 21.1309C42.5429 21.1309 42.53 21.2236 42.5063 21.399C42.4804 21.5737 42.4531 21.8311 42.3913 22.1546C42.3625 22.3171 42.3309 22.4968 42.2964 22.6924C42.2806 22.7909 42.2583 22.8915 42.2353 22.9965C42.213 23.1014 42.1893 23.21 42.1648 23.3221C42.1404 23.4343 42.1159 23.55 42.0901 23.6694C42.0656 23.7887 42.0304 23.9095 41.9995 24.0346C41.9671 24.1597 41.9348 24.2877 41.901 24.4185C41.8672 24.5494 41.8341 24.6845 41.7917 24.8197C41.4841 25.9088 41.0412 27.1605 40.4266 28.4409C40.349 28.6005 40.2699 28.7608 40.1908 28.9233C40.1527 29.0053 40.1096 29.0843 40.0658 29.1642C40.0226 29.244 39.9788 29.3238 39.9349 29.4043C39.8465 29.5639 39.7624 29.7278 39.669 29.8874C39.5733 30.0456 39.4777 30.2044 39.3807 30.3648C39.3325 30.4446 39.2844 30.5244 39.2355 30.6049C39.1837 30.6825 39.132 30.7609 39.0795 30.8393C38.9753 30.9953 38.8703 31.1527 38.7654 31.3094C38.659 31.4654 38.5418 31.615 38.4304 31.7681L38.2614 31.9967C38.2327 32.0348 38.2061 32.0736 38.1759 32.111L38.086 32.221C37.8445 32.5144 37.6109 32.8141 37.3499 33.0902C37.2213 33.2297 37.0991 33.3735 36.9668 33.5086C36.8331 33.6416 36.7001 33.7746 36.5671 33.9069C36.5002 33.9723 36.4355 34.0406 36.3673 34.1039C36.2975 34.1664 36.2285 34.2283 36.1588 34.2908C36.0201 34.4152 35.882 34.5389 35.7454 34.6618C35.6031 34.779 35.4593 34.8918 35.3177 35.0062C35.1754 35.119 35.0374 35.2369 34.8886 35.3369C33.7327 36.1888 32.5315 36.8229 31.4438 37.2499C31.3763 37.2772 31.3087 37.3046 31.2425 37.3312C31.2095 37.3448 31.1764 37.3578 31.1433 37.3714C31.1103 37.3836 31.0765 37.3944 31.0434 37.4059C30.9104 37.4505 30.7796 37.4944 30.6524 37.5368C30.5251 37.5792 30.4008 37.6216 30.2793 37.6619C30.1556 37.6957 30.0356 37.728 29.9184 37.7596C29.8012 37.7913 29.6877 37.8215 29.5777 37.8509C29.4677 37.8804 29.362 37.9113 29.2564 37.93C29.0479 37.9724 28.8545 38.012 28.677 38.0487C28.5885 38.0659 28.5044 38.0853 28.4239 38.099C28.3427 38.1105 28.2665 38.1213 28.1939 38.1313C28.0494 38.1522 27.9236 38.1694 27.8165 38.1852C27.603 38.2154 27.4671 38.2363 27.4211 38.237C27.2349 38.25 27.0229 38.265 26.8101 38.2801C26.703 38.2866 26.5973 38.296 26.4916 38.3003C26.3845 38.301 26.2803 38.3017 26.1825 38.3024C25.79 38.3046 25.4924 38.306 25.4924 38.306L25.5075 38.8273H25.5068Z" fill="#FFEFB3"/>
<path d="M40.9299 20.6611C41.1901 20.8229 41.4101 21.0242 41.597 21.2586C41.7817 21.4929 41.9384 21.7611 42.0333 22.0494C42.0829 22.1939 42.1224 22.3441 42.1512 22.498C42.1799 22.6526 42.1994 22.8107 42.1986 22.9703C42.2001 23.1299 42.19 23.2924 42.1684 23.4556C42.1476 23.6188 42.116 23.7827 42.0628 23.9438C41.9305 23.8532 41.809 23.7525 41.6962 23.6432C41.5811 23.5332 41.4769 23.4153 41.3827 23.2902C41.1937 23.0408 41.0528 22.7676 40.9529 22.48C40.8472 22.191 40.7926 21.8905 40.7911 21.5857C40.7782 21.2787 40.8263 20.9688 40.9313 20.6611H40.9299Z" fill="#FFEFB3"/>
<path d="M39.5015 26.49C39.6057 26.6014 39.7006 26.7208 39.784 26.8466C39.8667 26.9724 39.9342 27.1025 39.9932 27.2391C40.1082 27.5116 40.1844 27.8099 40.2059 28.1155C40.2218 28.4181 40.1937 28.733 40.1161 29.045C40.027 29.3506 39.899 29.6576 39.715 29.9408C39.5151 29.695 39.3512 29.4131 39.242 29.1241C39.1866 28.9789 39.1428 28.8315 39.1111 28.6834C39.0953 28.6087 39.0838 28.5353 39.073 28.4598C39.0608 28.3836 39.0522 28.3081 39.0464 28.2319C39.0062 27.6273 39.1478 27.0263 39.5015 26.4893V26.49Z" fill="#FFEFB3"/>
<path d="M36.4292 31.7224C36.5571 31.9985 36.6283 32.2839 36.6535 32.5808C36.6657 32.7289 36.665 32.8792 36.652 33.0301C36.6391 33.1804 36.6067 33.3242 36.5658 33.4715C36.4817 33.762 36.3559 34.056 36.1654 34.3105C36.0726 34.4399 35.9698 34.5658 35.8563 34.6851C35.8009 34.7462 35.7384 34.8001 35.6744 34.8526C35.6104 34.9058 35.5436 34.9569 35.4753 35.0057C35.4249 34.8533 35.3883 34.6988 35.3638 34.5449C35.3387 34.3896 35.3308 34.2401 35.3257 34.0819C35.32 33.7699 35.3595 33.4665 35.4451 33.1847C35.5256 32.8971 35.642 32.6211 35.811 32.3817C35.8929 32.2594 35.9806 32.1372 36.0841 32.0279C36.1862 31.9172 36.3041 31.8173 36.4292 31.7217V31.7224Z" fill="#FFEFB3"/>
<path d="M29.4599 36.9512C29.4254 37.1359 29.3607 37.3114 29.2694 37.4738C29.1759 37.6291 29.0552 37.7686 28.9128 37.8908C28.7698 38.0116 28.6059 38.1187 28.4247 38.1949C28.2421 38.2639 28.0444 38.3099 27.8381 38.3286C27.882 38.136 27.9589 37.9555 28.0595 37.7945C28.1099 37.714 28.1667 37.6385 28.2285 37.5687C28.2594 37.5335 28.2917 37.5004 28.3248 37.4681C28.3579 37.4343 28.3917 37.4012 28.4276 37.3696C28.5692 37.2445 28.7281 37.1438 28.902 37.0755C28.989 37.0403 29.0803 37.0166 29.173 36.9957C29.2658 36.972 29.3614 36.9569 29.4599 36.9512Z" fill="#FFEFB3"/>
<path d="M39.8083 22.3291C40.1764 22.5944 40.4898 22.9186 40.7443 23.291C40.8744 23.4779 40.9758 23.6735 41.0663 23.8798C41.1562 24.0862 41.231 24.3033 41.2877 24.5276C41.4969 25.4176 41.4056 26.4306 40.9693 27.3544C40.6113 27.0223 40.3173 26.6398 40.0916 26.2365C39.9816 26.0359 39.8781 25.826 39.7932 25.6132C39.7091 25.4004 39.6423 25.1847 39.5941 24.9683C39.3821 24.0919 39.4317 23.1961 39.8076 22.3291H39.8083Z" fill="#FFEFB3"/>
<path d="M37.9704 27.8125C38.117 27.9922 38.2378 28.1763 38.3442 28.3725C38.4499 28.5681 38.5383 28.773 38.6095 28.9851C38.644 29.0908 38.677 29.2007 38.7008 29.3086C38.7238 29.4164 38.7424 29.5257 38.7561 29.6371C38.7841 29.8593 38.7935 30.0865 38.7849 30.3172C38.7302 31.2245 38.3385 32.167 37.6304 32.9039C37.4011 32.4798 37.2357 32.0211 37.1444 31.5725C37.1214 31.4596 37.1027 31.3482 37.0876 31.236C37.0697 31.1217 37.0567 31.0081 37.0474 30.8953C37.0294 30.6695 37.028 30.4474 37.0445 30.2303C37.0927 29.3453 37.3817 28.5264 37.9711 27.8132L37.9704 27.8125Z" fill="#FFEFB3"/>
<path d="M34.4222 32.9756C34.4516 33.0712 34.4782 33.1697 34.4984 33.2653C34.5178 33.3602 34.5329 33.4565 34.5437 33.5529C34.5652 33.7456 34.5695 33.9397 34.5559 34.1345C34.5336 34.5306 34.4222 34.9009 34.2504 35.2661C34.2065 35.356 34.1619 35.4501 34.108 35.5335C34.0541 35.6184 33.9966 35.701 33.9348 35.783C33.8111 35.9455 33.6753 36.1072 33.5214 36.2517C33.2059 36.5285 32.845 36.7859 32.4266 36.9462C32.4079 36.7341 32.4072 36.5235 32.4216 36.3186C32.4288 36.2158 32.4396 36.1144 32.4539 36.0145C32.4669 35.911 32.4827 35.8096 32.5021 35.7089C32.5409 35.5084 32.5934 35.315 32.6574 35.1302C32.6897 35.0375 32.725 34.9483 32.7631 34.8599C32.799 34.7679 32.8378 34.6787 32.8795 34.5917C32.9636 34.4185 33.0592 34.256 33.1678 34.1057C33.272 33.949 33.3856 33.7988 33.5143 33.6658C33.5782 33.5982 33.6465 33.5356 33.7163 33.4738C33.7838 33.4084 33.855 33.3466 33.9298 33.2883C34.0045 33.2301 34.0829 33.1754 34.1655 33.1244C34.2482 33.0734 34.3352 33.0273 34.42 32.9763L34.4222 32.9756Z" fill="#FFEFB3"/>
<path d="M31.9829 35.4277C31.9922 35.7067 31.9527 35.9806 31.8679 36.2444C31.8463 36.3106 31.8226 36.3753 31.7953 36.44C31.7816 36.4723 31.768 36.504 31.7529 36.5363C31.7378 36.5672 31.7212 36.5967 31.704 36.6262C31.6364 36.7455 31.5581 36.8606 31.4696 36.9698C31.3812 37.0798 31.2827 37.1848 31.1756 37.2833C31.1224 37.3343 31.0649 37.376 31.0053 37.4184C30.9456 37.4601 30.8845 37.5004 30.8212 37.5392C30.6947 37.6161 30.5603 37.6852 30.4201 37.7448C30.3849 37.7599 30.3497 37.7743 30.3137 37.7887C30.2778 37.8016 30.2404 37.8117 30.2037 37.8225C30.1297 37.8433 30.0542 37.8627 29.9773 37.8786C29.9902 37.7305 30.0161 37.586 30.0521 37.4458C30.07 37.376 30.0909 37.307 30.1146 37.2401C30.1376 37.1726 30.162 37.1021 30.1901 37.036C30.2993 36.7678 30.4446 36.5234 30.6207 36.3149C30.7098 36.2142 30.8004 36.105 30.901 36.0129C31.0009 35.9195 31.1081 35.8361 31.2224 35.7635C31.2791 35.7261 31.3395 35.6959 31.3985 35.6607C31.4574 35.6262 31.5185 35.5938 31.5818 35.565C31.7076 35.5068 31.8413 35.4608 31.9829 35.4277Z" fill="#FFEFB3"/>
<path d="M44.4694 21.0544C44.1811 21.1752 43.9065 21.3377 43.6642 21.5332C43.4191 21.7288 43.2106 21.9574 43.0144 22.209C42.9188 22.3356 42.8304 22.4678 42.752 22.6066C42.6729 22.7453 42.6047 22.8899 42.5364 23.0379C42.4702 23.1868 42.4134 23.3406 42.3667 23.4995C42.3207 23.6584 42.2855 23.823 42.251 23.9891C42.4106 23.9682 42.568 23.9316 42.7197 23.8791C42.8685 23.8266 43.013 23.759 43.1503 23.6771C43.4241 23.5132 43.6772 23.2946 43.8821 23.0308C44.0819 22.7662 44.2436 22.4578 44.3507 22.1228C44.4464 21.7863 44.4945 21.424 44.4701 21.0537L44.4694 21.0544Z" fill="#FFEFB3"/>
<path d="M42.816 27.7939C42.6607 27.8148 42.5083 27.8479 42.3595 27.8917C42.2093 27.9349 42.0591 27.9866 41.9153 28.0492C41.6256 28.1735 41.3596 28.3382 41.1094 28.5316C40.8535 28.7228 40.6249 28.9478 40.4237 29.2016C40.2109 29.4496 40.0355 29.7315 39.8845 30.037C40.2066 30.0888 40.5207 30.0665 40.8334 29.986C40.9887 29.945 41.1425 29.8889 41.2913 29.8177C41.3654 29.7818 41.4401 29.7437 41.5113 29.7005C41.581 29.6567 41.6493 29.6092 41.7162 29.5589C41.8499 29.4575 41.9764 29.3432 42.095 29.2174C42.1539 29.1542 42.2115 29.088 42.2661 29.0197C42.3207 28.9507 42.3674 28.8774 42.4149 28.8026C42.5076 28.6523 42.5903 28.492 42.6593 28.3238C42.6938 28.2397 42.7262 28.1541 42.7527 28.0657C42.7772 27.9766 42.7988 27.886 42.816 27.7939Z" fill="#FFEFB3"/>
<path d="M39.1471 34.0241C38.8373 33.9659 38.5153 33.9494 38.2026 33.9767C38.0459 33.9904 37.8906 34.0141 37.7382 34.0479C37.5851 34.0817 37.4269 34.1176 37.276 34.1672C36.9712 34.2643 36.6865 34.4059 36.3997 34.5641C36.2588 34.646 36.1222 34.7373 35.9907 34.8387C35.9252 34.8897 35.8591 34.9408 35.7922 34.9918C35.7261 35.0443 35.6621 35.0989 35.5989 35.1565C35.7383 35.2363 35.8857 35.3017 36.0388 35.3513C36.1912 35.4002 36.3537 35.4376 36.5111 35.4505C36.8303 35.4793 37.1638 35.4447 37.4952 35.3498C37.8209 35.2499 38.1328 35.0795 38.4233 34.861C38.5656 34.7495 38.6943 34.6187 38.8165 34.4792C38.9372 34.3383 39.0523 34.1888 39.1471 34.0241Z" fill="#FFEFB3"/>
<path d="M30.0385 39.1324C29.9048 38.9937 29.7524 38.8779 29.5871 38.7859C29.4203 38.6867 29.2406 38.609 29.0537 38.5566C28.8661 38.5026 28.6727 38.4782 28.4736 38.4725C28.273 38.4595 28.0689 38.4732 27.864 38.5163C27.9596 38.6881 28.0883 38.8384 28.2436 38.9613C28.3212 39.0232 28.4053 39.0778 28.4945 39.1252C28.539 39.149 28.585 39.1705 28.6325 39.1907C28.6792 39.2094 28.7274 39.2245 28.7762 39.2381C28.9718 39.2928 29.1838 39.315 29.3995 39.3014C29.5073 39.2942 29.6166 39.2805 29.7237 39.2532C29.8301 39.2223 29.9358 39.182 30.0393 39.1324H30.0385Z" fill="#FFEFB3"/>
<path d="M45 23.3203C44.5442 23.4749 44.1158 23.6942 43.7261 23.9623C43.5342 24.0975 43.338 24.2413 43.1582 24.398C42.9771 24.554 42.8067 24.7222 42.6471 24.8991C41.988 25.6051 41.484 26.4563 41.1555 27.4311C41.6379 27.4398 42.1145 27.3449 42.5681 27.1529C42.7974 27.058 43.0102 26.9358 43.2143 26.7927C43.4192 26.6489 43.6147 26.4836 43.798 26.2988C43.9741 26.1119 44.1359 25.9056 44.2833 25.6827C44.3559 25.5713 44.4285 25.4562 44.4903 25.3362C44.5514 25.2161 44.6075 25.0925 44.6599 24.9659C44.7117 24.8394 44.7591 24.7093 44.8015 24.577C44.8224 24.5109 44.8432 24.444 44.8605 24.3764C44.877 24.3081 44.8914 24.2398 44.9051 24.1708C44.959 23.8947 44.992 23.61 45 23.3218V23.3203Z" fill="#FFEFB3"/>
<path d="M42.6903 30.1904C42.4545 30.2062 42.2116 30.2357 41.9765 30.2817C41.7407 30.3277 41.5093 30.3896 41.2835 30.4651C41.17 30.5024 41.0607 30.5449 40.9478 30.5887C40.835 30.6319 40.7228 30.6786 40.6136 30.7282C40.3943 30.8274 40.1815 30.9403 39.9781 31.0654C39.1392 31.555 38.4045 32.2142 37.7827 33.0345C38.0149 33.1186 38.2457 33.1711 38.4858 33.1999C38.7251 33.2286 38.9688 33.2315 39.2154 33.2085C39.3383 33.197 39.4627 33.1797 39.5863 33.1553C39.7071 33.1287 39.8271 33.0963 39.9479 33.0575C40.188 32.9799 40.4267 32.8771 40.6603 32.752C40.8874 32.6226 41.1045 32.468 41.3144 32.294C41.418 32.2063 41.5244 32.1157 41.6171 32.0158C41.7113 31.9159 41.8025 31.8116 41.8902 31.7031C42.0649 31.4852 42.2303 31.2516 42.3582 30.9949C42.4244 30.8677 42.4862 30.7368 42.5422 30.6031C42.5976 30.4687 42.6537 30.3335 42.6911 30.1911L42.6903 30.1904Z" fill="#FFEFB3"/>
<path d="M37.4836 36.4955C37.3836 36.4624 37.2837 36.4344 37.1809 36.4078C37.0774 36.3805 36.9739 36.356 36.8697 36.3359C36.6612 36.2949 36.4506 36.2676 36.2407 36.2539C35.8252 36.2324 35.3903 36.2367 34.9719 36.2992C34.8662 36.3136 34.7649 36.3359 34.6585 36.3532C34.5521 36.3704 34.4471 36.3913 34.3422 36.415C34.1323 36.4617 33.9288 36.5264 33.724 36.5962C33.307 36.7227 32.9131 36.9168 32.512 37.1267C32.6672 37.2727 32.8376 37.4013 33.0223 37.5113C33.1144 37.566 33.21 37.6163 33.3085 37.6616C33.4055 37.704 33.5054 37.7407 33.6075 37.773C33.8124 37.837 34.0287 37.8816 34.253 37.9053C34.3652 37.9168 34.4795 37.924 34.5938 37.9247C34.7066 37.9219 34.8202 37.9139 34.9352 37.9003C35.1653 37.8737 35.3989 37.8262 35.6325 37.7587C35.8611 37.6846 36.0854 37.5847 36.3061 37.4682C36.4161 37.4093 36.526 37.3474 36.631 37.277C36.7338 37.2044 36.8344 37.1267 36.9329 37.0448C37.0314 36.9628 37.127 36.8765 37.2197 36.7859C37.3125 36.6954 37.403 36.6019 37.4821 36.4962L37.4836 36.4955Z" fill="#FFEFB3"/>
<path d="M33.4817 38.3905C33.2344 38.2265 32.967 38.1007 32.6896 38.0116C32.6198 37.9893 32.5501 37.9699 32.4797 37.9519C32.4085 37.9354 32.3366 37.9188 32.2647 37.9023C32.1195 37.8707 31.9729 37.8484 31.8248 37.8347C31.6774 37.8218 31.5293 37.8182 31.3812 37.8239C31.3079 37.829 31.2317 37.8283 31.1562 37.8326C31.0808 37.8369 31.0053 37.8434 30.9305 37.852C30.7803 37.87 30.63 37.898 30.4812 37.9361C30.4439 37.9454 30.4065 37.9562 30.3698 37.967C30.3324 37.9764 30.2943 37.9857 30.2562 37.9958C30.1808 38.0159 30.1053 38.0382 30.0305 38.0633C30.1204 38.1834 30.2217 38.2934 30.3346 38.3919C30.3907 38.4415 30.4496 38.4882 30.5114 38.5321C30.5725 38.5759 30.6351 38.6126 30.7012 38.6486C30.9629 38.7902 31.2605 38.8836 31.5782 38.9239C31.7385 38.9476 31.8967 38.9412 32.0606 38.9282C32.223 38.9138 32.3884 38.8858 32.5523 38.8441C32.6335 38.8225 32.7169 38.801 32.796 38.7686C32.875 38.737 32.9541 38.701 33.0317 38.6622C33.187 38.5846 33.3387 38.4933 33.4825 38.3883L33.4817 38.3905Z" fill="#FFEFB3"/>
<path d="M42.8584 18C43.0748 18.2725 43.233 18.5795 43.3343 18.9001C43.4314 19.22 43.4594 19.5536 43.44 19.8778C43.4371 19.9181 43.4342 19.9591 43.4299 19.9993C43.4242 20.0396 43.4177 20.0791 43.4105 20.1194C43.3954 20.1992 43.3775 20.2776 43.3559 20.3552C43.3135 20.5098 43.2574 20.66 43.1891 20.8031C43.123 20.9462 43.036 21.0806 42.9382 21.205C42.8405 21.3294 42.7312 21.4444 42.6104 21.5472C42.5206 21.4156 42.4451 21.2776 42.3826 21.1367C42.32 20.9951 42.2726 20.8498 42.2294 20.701C42.1885 20.5522 42.1612 20.4012 42.1475 20.2481C42.1403 20.1719 42.1374 20.095 42.1367 20.018C42.1367 19.9799 42.1374 19.9411 42.1389 19.903C42.1389 19.8642 42.1403 19.8261 42.1417 19.7873C42.1554 19.4781 42.2302 19.169 42.3481 18.8677C42.4616 18.5665 42.6306 18.2739 42.857 18.0014L42.8584 18Z" fill="#FFEFB3"/>
</g>
<path d="M14.1148 27.7094H12.3157C11.2831 27.7094 10.9318 27.7306 10.868 27.7306C10.7615 27.7306 10.7509 27.72 10.7509 27.6135V26.9323C10.7509 26.8258 10.7615 26.8152 10.868 26.8152C10.9318 26.8152 11.2831 26.8365 12.3157 26.8365H16.6696C17.766 26.8365 18.3089 26.8152 18.3622 26.8152C18.4793 26.8152 18.4899 26.8258 18.4899 26.9323C18.4899 26.9961 18.4686 27.2197 18.4686 27.7306V28.4226C18.4686 28.9442 18.4899 29.1677 18.4899 29.2316C18.4899 29.3381 18.4793 29.3487 18.3622 29.3487C18.3089 29.3487 17.766 29.3274 16.6696 29.3274H15.1899L15.2006 30.0619H17.5318C18.5857 30.0619 18.9583 30.0406 19.0222 30.0406C19.1286 30.0406 19.1606 30.0619 19.1499 30.1684C19.1073 30.4771 19.086 30.7858 19.0541 31.1158C19.0009 31.7013 18.9157 32.2655 18.7028 32.6061C18.5006 32.9574 18.128 33.1597 17.4467 33.1597C17.2657 33.1597 17.0848 33.1597 16.8293 33.1384C16.5312 33.1171 16.5099 33.0958 16.446 32.7658C16.3928 32.489 16.3077 32.2761 16.2012 32.0419C16.6377 32.1165 16.9783 32.1484 17.2551 32.1484C17.5318 32.1484 17.7022 32.1271 17.798 31.9461C17.8938 31.7545 17.947 31.2861 17.9683 30.9348H15.2112L15.2325 31.9142C15.2431 32.9468 15.2964 33.511 15.2964 33.6919C15.2964 33.809 15.2857 33.8197 15.1686 33.8197H14.2744C14.168 33.8197 14.1573 33.809 14.1573 33.6919C14.1573 33.4897 14.1786 32.9681 14.168 31.9248L14.1573 31.4884C13.2525 32.4358 12.1135 33.0958 10.7615 33.5323C10.6444 33.5642 10.5699 33.5961 10.506 33.5961C10.4209 33.5961 10.3783 33.5323 10.2825 33.3406C10.1441 33.0745 9.97378 32.8403 9.82475 32.6806C11.3257 32.2974 12.5712 31.7545 13.476 30.9348H11.6344L11.528 31.2329C11.4854 31.3606 11.4854 31.3606 10.9531 31.3074C10.4422 31.2542 10.3677 31.2542 10.4209 31.1265C10.6764 30.4984 10.8786 29.849 11.0277 29.2103C11.0809 28.9974 11.1341 28.7739 11.1554 28.561C11.166 28.4439 11.1767 28.4226 11.2831 28.4226C11.347 28.4226 11.7089 28.4439 12.7309 28.4439H14.1254L14.1148 27.7094ZM17.3935 27.7094H15.1686L15.1793 28.4439H17.3935V27.7094ZM11.9112 30.0619H14.1467L14.136 29.3274H12.1135L11.9112 30.0619ZM16.5951 25.7613H15.7967C15.6264 26.0168 15.4348 26.2723 15.2006 26.5277C15.0941 26.6448 15.0302 26.7087 14.977 26.7087C14.9131 26.7087 14.8599 26.6448 14.7322 26.5171C14.5618 26.3574 14.3596 26.2403 14.1999 26.1658C14.3277 26.0381 14.4448 25.9103 14.5512 25.7826C14.4873 25.7826 14.2106 25.7613 13.3802 25.7613C13.4867 25.9423 13.5825 26.1232 13.6677 26.3042C13.7102 26.4 13.6996 26.4213 13.5718 26.4532L12.8586 26.6129C12.7096 26.6448 12.6883 26.6448 12.6457 26.5171C12.5606 26.2616 12.4648 26.0061 12.337 25.7613H11.5706C11.3577 26.07 11.1022 26.3574 10.7828 26.6661C10.6657 26.7832 10.6018 26.8365 10.5486 26.8365C10.4848 26.8365 10.4315 26.7726 10.3144 26.6448C10.1335 26.4532 9.94185 26.3148 9.79282 26.219C10.3889 25.7081 10.836 25.1545 11.1448 24.5158C11.2299 24.3668 11.2831 24.2177 11.3364 24.0261C11.6344 24.0581 12.0283 24.1219 12.2731 24.1752C12.3796 24.1965 12.4328 24.239 12.4328 24.3135C12.4328 24.3774 12.3902 24.42 12.3477 24.4626C12.2944 24.5158 12.2306 24.5903 12.1667 24.7287L12.0709 24.9097H13.3057C14.1999 24.9097 14.4873 24.8884 14.5512 24.8884C14.6683 24.8884 14.6789 24.899 14.6789 25.0055V25.6335C14.9451 25.2929 15.158 24.9416 15.3283 24.5371C15.4028 24.3881 15.4454 24.239 15.4986 24.0368C15.8073 24.0687 16.1693 24.1326 16.3928 24.1858C16.5099 24.2177 16.5631 24.239 16.5631 24.3242C16.5631 24.3987 16.5312 24.42 16.478 24.4732C16.4035 24.5371 16.3822 24.5903 16.3183 24.7287L16.2438 24.9097H17.8086C18.8838 24.9097 19.267 24.8884 19.3309 24.8884C19.4267 24.8884 19.4373 24.899 19.4373 25.0055V25.6655C19.4373 25.7719 19.4267 25.7826 19.3309 25.7826C19.267 25.7826 18.8838 25.7613 17.8086 25.7613H17.6383C17.7448 25.9316 17.8406 26.1126 17.9364 26.3042C17.9789 26.4 17.9683 26.4319 17.8299 26.4639L17.138 26.6235C16.9889 26.6555 16.9677 26.6555 16.9251 26.5384C16.8293 26.2723 16.7228 26.0061 16.5951 25.7613ZM30.4681 28.1442V29.9406H20.6442L20.5693 28.5839L26.445 19.3775H28.2507L26.2953 22.727L22.9177 28.1442H30.4681ZM28.7653 19.3775V33H26.5105V19.3775H28.7653ZM39.5891 33.3406H35.693C34.6498 33.3406 34.2985 33.3619 34.224 33.3619C34.1175 33.3619 34.1069 33.3513 34.1069 33.2448V32.4145C34.1069 32.3081 34.1175 32.2974 34.224 32.2974C34.2985 32.2974 34.6498 32.3187 35.693 32.3187H37.673C38.1094 30.9881 38.4288 29.7745 38.6417 28.6674C38.7269 28.3055 38.7588 27.9755 38.7801 27.6774C39.1633 27.7519 39.5359 27.8371 39.9511 27.9755C40.0575 28.0074 40.1001 28.05 40.1001 28.1245C40.1001 28.199 40.0469 28.2629 39.9936 28.3374C39.9298 28.4226 39.8765 28.5397 39.834 28.7632C39.5465 29.9874 39.1952 31.2116 38.8227 32.3187H39.5891C40.6323 32.3187 40.9943 32.2974 41.0582 32.2974C41.1646 32.2974 41.1752 32.3081 41.1752 32.4145V33.2448C41.1752 33.3513 41.1646 33.3619 41.0582 33.3619C40.9943 33.3619 40.6323 33.3406 39.5891 33.3406ZM32.4782 32.0952V29.6894C32.4782 29.3061 32.4782 28.8484 32.4888 28.4013C32.2865 28.6781 32.0843 28.9442 31.8607 29.1997C31.7756 29.2955 31.7223 29.3487 31.6691 29.3487C31.6159 29.3487 31.5733 29.2848 31.5414 29.1571C31.4456 28.7739 31.3391 28.4652 31.2007 28.2416C32.1056 27.241 32.7336 26.0913 33.1488 24.899C33.2659 24.569 33.3191 24.3242 33.3511 24.0687C33.7023 24.1645 34.0643 24.271 34.373 24.3987C34.4794 24.4413 34.5433 24.4732 34.5433 24.5477C34.5433 24.6329 34.5114 24.6755 34.4262 24.7394C34.3517 24.7926 34.2985 24.899 34.2027 25.1652C34.0217 25.6655 33.8088 26.1552 33.564 26.6342V32.0952C33.564 33.1384 33.5852 33.66 33.5852 33.7132C33.5852 33.8197 33.5746 33.8303 33.4788 33.8303H32.5633C32.4675 33.8303 32.4569 33.8197 32.4569 33.7132C32.4569 33.6494 32.4782 33.1384 32.4782 32.0952ZM39.3017 27.1345H35.9485C34.9265 27.1345 34.5752 27.1558 34.5114 27.1558C34.3943 27.1558 34.3836 27.1452 34.3836 27.0387V26.219C34.3836 26.1126 34.3943 26.1019 34.5114 26.1019C34.5752 26.1019 34.9265 26.1232 35.9485 26.1232H36.9491V25.3035C36.9491 24.8671 36.9385 24.5477 36.8746 24.2071C37.2898 24.2177 37.6943 24.2497 38.0349 24.2816C38.1414 24.2923 38.2159 24.3455 38.2159 24.42C38.2159 24.4945 38.1946 24.5477 38.1627 24.6223C38.0988 24.75 38.0775 24.8884 38.0775 25.261V26.1232H39.3017C40.3236 26.1232 40.6856 26.1019 40.7494 26.1019C40.8665 26.1019 40.8772 26.1126 40.8772 26.219V27.0387C40.8772 27.1452 40.8665 27.1558 40.7494 27.1558C40.6856 27.1558 40.3236 27.1345 39.3017 27.1345ZM35.0436 28.0287L35.8101 27.7732C35.9165 27.7413 35.9485 27.7306 35.9911 27.8477C36.4169 28.9868 36.6723 29.9448 36.9278 31.2968C36.9491 31.4032 36.9278 31.4245 36.8001 31.4777L36.0336 31.7758C35.8846 31.8397 35.8527 31.8397 35.8314 31.7119C35.5972 30.3387 35.3417 29.3168 34.9265 28.199C34.884 28.0926 34.9052 28.0713 35.0436 28.0287Z" fill="#663E2A"/>
<path d="M45.7285 45.4721L37.2874 43.5359L43.1848 37.1939L45.7285 45.4721Z" fill="#FBDF73"/>
<defs>
<clipPath id="clip0_184_42">
<rect width="39" height="26" fill="white" transform="translate(6 18)"/>
</clipPath>
</defs>
</svg>
