<svg width="52" height="52" viewBox="0 0 52 52" fill="none" xmlns="http://www.w3.org/2000/svg">
<circle cx="26" cy="26" r="25" fill="#FBDF73" stroke="#663E2A" stroke-width="2"/>
<g clip-path="url(#clip0_44_8754)">
<path d="M28.0387 43.3752C25.7721 42.8935 27.6253 38.9919 26.0841 38.5419C26.0302 38.1486 25.7592 37.9761 25.4939 37.9761C25.2287 37.9761 24.9577 38.1486 24.9037 38.5419C23.3625 38.9912 25.215 42.8935 22.9492 43.3752C22.9082 43.3838 22.8888 43.432 22.9147 43.4651L23.3029 43.9777C23.3158 43.9949 23.3381 44.0036 23.3589 43.9992C26.1545 43.4737 24.0598 39.7662 25.0525 38.9459C25.1597 39.0688 25.3178 39.1472 25.4939 39.1472C25.67 39.1472 25.8275 39.0688 25.9353 38.9459C26.928 39.7662 24.8333 43.4744 27.6289 43.9992C27.6505 44.0036 27.672 43.9949 27.685 43.9777L28.0732 43.4651C28.0983 43.4313 28.0796 43.3838 28.0387 43.3752Z" fill="#FFEFB3"/>
<path d="M25.5069 38.3497C25.5069 38.3497 25.2093 38.3482 24.8168 38.3461C24.7183 38.3461 24.6148 38.3447 24.5077 38.3439C24.402 38.3396 24.2956 38.3303 24.1885 38.3238C23.9743 38.3087 23.7615 38.2936 23.5746 38.2799C23.5279 38.2799 23.392 38.2584 23.1778 38.2282C23.0707 38.2131 22.9442 38.1951 22.7997 38.1743C22.7271 38.1642 22.6502 38.1527 22.5689 38.1412C22.4884 38.1268 22.4036 38.1081 22.3152 38.0902C22.1376 38.0535 21.9435 38.0139 21.7343 37.9715C21.6287 37.9528 21.523 37.9212 21.4123 37.8924C21.3016 37.863 21.188 37.8321 21.0708 37.8004C20.9537 37.7688 20.8329 37.7357 20.7092 37.7019C20.5878 37.6609 20.4627 37.6193 20.3354 37.5761C20.2075 37.533 20.0767 37.4891 19.9437 37.4446C19.9106 37.4331 19.8768 37.423 19.843 37.41C19.81 37.3964 19.7769 37.3834 19.7438 37.3698C19.677 37.3425 19.6101 37.3159 19.5418 37.2878C18.4506 36.8593 17.2465 36.2231 16.087 35.369C15.9375 35.2684 15.7995 35.1505 15.6564 35.0369C15.5141 34.9226 15.3696 34.809 15.2273 34.6911C15.09 34.5681 14.9512 34.4438 14.8125 34.3194C14.7428 34.2568 14.673 34.195 14.6033 34.1325C14.535 34.0685 14.4696 34.0009 14.4027 33.9347C14.2698 33.8017 14.136 33.6687 14.0016 33.535C13.8694 33.3999 13.7457 33.2554 13.617 33.1159C13.3561 32.8398 13.121 32.5393 12.8795 32.2446L12.7889 32.1338C12.7594 32.0965 12.7321 32.0576 12.7034 32.0195L12.5337 31.7902C12.4223 31.6363 12.3051 31.4868 12.198 31.3301C12.0931 31.1726 11.9881 31.0152 11.8832 30.8585C11.8307 30.7801 11.7789 30.7017 11.7272 30.6234C11.679 30.5429 11.6301 30.4631 11.582 30.3825C11.4856 30.2222 11.3893 30.0626 11.2937 29.9044C11.2002 29.7448 11.1154 29.5809 11.027 29.4206C10.9832 29.3401 10.9393 29.2603 10.8962 29.1798C10.8523 29.1 10.8092 29.0202 10.7704 28.9389C10.6913 28.7764 10.6122 28.6154 10.5339 28.4558C9.91781 27.1732 9.47428 25.9194 9.16589 24.8281C9.12276 24.6929 9.08969 24.5578 9.05662 24.4262C9.02284 24.2947 8.98977 24.1667 8.95814 24.0416C8.92723 23.9165 8.892 23.795 8.86684 23.6757C8.84097 23.5563 8.81581 23.4398 8.79208 23.3277C8.76764 23.2155 8.74464 23.1063 8.72164 23.0013C8.69863 22.8963 8.67635 22.795 8.66053 22.6965C8.62603 22.5002 8.5944 22.3205 8.56564 22.158C8.50382 21.8338 8.47579 21.5757 8.45063 21.401C8.42691 21.2263 8.41397 21.1328 8.41397 21.1328L8.21484 21.1573C8.21484 21.1573 8.22706 21.2514 8.24935 21.4283C8.27379 21.6044 8.29895 21.8647 8.35861 22.1925C8.38593 22.3564 8.41612 22.5383 8.44919 22.7367C8.46429 22.836 8.48585 22.938 8.50814 23.0444C8.5297 23.1508 8.55271 23.2608 8.57643 23.3744C8.60015 23.488 8.62387 23.6052 8.64903 23.7267C8.67275 23.8475 8.70726 23.9704 8.73745 24.0969C8.76836 24.2235 8.80071 24.3536 8.83378 24.4866C8.86684 24.6196 8.89847 24.7562 8.94089 24.8928C9.24137 25.9978 9.67843 27.2689 10.2895 28.573C10.3671 28.7355 10.4454 28.8994 10.5238 29.0647C10.5619 29.1481 10.605 29.2294 10.6489 29.3099C10.692 29.3911 10.7359 29.4731 10.779 29.555C10.8674 29.7182 10.9515 29.885 11.045 30.0482C11.1406 30.21 11.2369 30.3725 11.3332 30.5357C11.3814 30.6176 11.4296 30.6989 11.4784 30.7815C11.5302 30.8613 11.5827 30.9411 11.6344 31.0217C11.7394 31.182 11.8443 31.3423 11.95 31.5033C12.0571 31.6629 12.1743 31.8168 12.2864 31.9742L12.4568 32.2093C12.4856 32.2481 12.5129 32.2884 12.5423 32.3265L12.6329 32.4401C12.8759 32.7413 13.1124 33.0497 13.3755 33.3337C13.5049 33.4775 13.6293 33.6256 13.763 33.7644C13.8981 33.9017 14.0333 34.039 14.1677 34.1756C14.2352 34.2432 14.3007 34.3136 14.3704 34.379C14.4408 34.4438 14.5113 34.5077 14.5817 34.5717C14.7226 34.7004 14.8621 34.8277 15.0015 34.9549C15.146 35.0764 15.292 35.1936 15.4365 35.3122C15.5817 35.4294 15.7218 35.5509 15.8728 35.6559C17.0496 36.5409 18.2781 37.2052 19.3937 37.6559C19.4635 37.6847 19.5318 37.7134 19.6001 37.7415C19.6338 37.7558 19.6683 37.7695 19.7014 37.7839C19.7352 37.7968 19.7704 37.8083 19.8042 37.8206C19.9408 37.868 20.0745 37.914 20.2053 37.9593C20.3362 38.0046 20.4641 38.0485 20.5885 38.0916C20.715 38.1275 20.8386 38.162 20.9587 38.1966C21.0787 38.2303 21.1952 38.2627 21.3088 38.2943C21.4216 38.326 21.5309 38.359 21.6387 38.3792C21.8529 38.4252 22.0521 38.4683 22.2339 38.5078C22.3252 38.5273 22.4115 38.5474 22.4942 38.5625C22.5776 38.5754 22.6559 38.5876 22.7307 38.5991C22.8788 38.6222 23.0089 38.6423 23.1188 38.6588C23.3388 38.6919 23.4776 38.7156 23.5264 38.7178C23.7198 38.7379 23.9412 38.7609 24.1633 38.7839C24.274 38.7947 24.3869 38.8091 24.4947 38.8177C24.6018 38.8235 24.7054 38.8285 24.8038 38.8335C25.1963 38.8544 25.4932 38.8702 25.4932 38.8702L25.5083 38.349L25.5069 38.3497Z" fill="#FFEFB3"/>
<path d="M6.53057 21.0539C6.81884 21.1747 7.09344 21.3372 7.33569 21.5327C7.58082 21.7283 7.78929 21.9569 7.98554 22.2085C8.08186 22.3351 8.16956 22.4674 8.24792 22.6061C8.32699 22.7449 8.39528 22.8894 8.46357 23.0375C8.52971 23.1863 8.5865 23.3401 8.63322 23.499C8.67923 23.6579 8.71445 23.8225 8.74896 23.9886C8.58937 23.9678 8.43194 23.9311 8.28027 23.8786C8.13146 23.8261 7.98697 23.7585 7.84967 23.6766C7.57579 23.5127 7.32275 23.2941 7.11788 23.0303C6.91804 22.7657 6.75629 22.4573 6.64919 22.1223C6.55358 21.7858 6.50541 21.4235 6.52986 21.0532L6.53057 21.0539Z" fill="#FFEFB3"/>
<path d="M8.18457 27.7939C8.33984 27.8148 8.49224 27.8479 8.64104 27.8917C8.79128 27.9349 8.94152 27.9866 9.08529 28.0492C9.37499 28.1735 9.64097 28.3382 9.89113 28.5316C10.147 28.7228 10.3756 28.9478 10.5769 29.2016C10.7897 29.4496 10.9651 29.7315 11.1161 30.037C10.794 30.0888 10.4799 30.0665 10.1672 29.986C10.0119 29.945 9.85806 29.8889 9.70926 29.8177C9.63522 29.7818 9.56046 29.7437 9.48929 29.7005C9.41956 29.6567 9.35127 29.6092 9.28442 29.5589C9.15071 29.4575 9.02419 29.3432 8.90558 29.2174C8.84592 29.1542 8.78913 29.088 8.73449 29.0197C8.67986 28.9507 8.63314 28.8774 8.58569 28.8026C8.49296 28.6523 8.41029 28.492 8.34128 28.3238C8.30678 28.2397 8.27443 28.1541 8.24783 28.0657C8.22339 27.9766 8.20182 27.886 8.18457 27.7939Z" fill="#FFEFB3"/>
<path d="M11.8529 34.0241C12.1627 33.9659 12.4848 33.9494 12.7975 33.9767C12.9542 33.9904 13.1094 34.0141 13.2618 34.0479C13.415 34.0817 13.5731 34.1176 13.7241 34.1672C14.0289 34.2643 14.3135 34.4059 14.6004 34.5641C14.7412 34.646 14.8778 34.7373 15.0087 34.8387C15.0741 34.8897 15.1402 34.9408 15.2071 34.9918C15.2732 35.0443 15.3372 35.0989 15.4004 35.1565C15.261 35.2363 15.1136 35.3017 14.9605 35.3513C14.8081 35.4002 14.6456 35.4376 14.4882 35.4505C14.169 35.4793 13.8355 35.4447 13.5041 35.3498C13.1785 35.2499 12.8665 35.0795 12.5761 34.861C12.4337 34.7495 12.3051 34.6187 12.1828 34.4792C12.0621 34.3383 11.9471 34.1888 11.8522 34.0241H11.8529Z" fill="#FFEFB3"/>
<path d="M20.9615 39.1319C21.0952 38.9932 21.2476 38.8774 21.413 38.7854C21.5797 38.6862 21.7595 38.6086 21.9464 38.5561C22.134 38.5022 22.3281 38.4777 22.5265 38.472C22.727 38.459 22.9312 38.4727 23.1361 38.5158C23.0405 38.6876 22.9118 38.8379 22.7565 38.9608C22.6789 39.0219 22.5948 39.0773 22.5056 39.1248C22.4611 39.1485 22.4151 39.17 22.3676 39.1902C22.3209 39.2089 22.2727 39.224 22.2238 39.2376C22.0283 39.2923 21.8163 39.3145 21.6006 39.3009C21.4928 39.2937 21.3835 39.28 21.2764 39.2527C21.17 39.2218 21.0643 39.1815 20.9608 39.1319H20.9615Z" fill="#FFEFB3"/>
<path d="M6 23.3198C6.45575 23.4744 6.88419 23.6937 7.27381 23.9618C7.46574 24.097 7.66199 24.2408 7.8417 24.3975C8.02286 24.5535 8.19322 24.7217 8.35281 24.8986C9.012 25.6046 9.51592 26.4558 9.84443 27.4306C9.36208 27.4393 8.88548 27.3444 8.43188 27.1524C8.20257 27.0575 7.98979 26.9353 7.78563 26.7922C7.58076 26.6485 7.38523 26.4831 7.20192 26.2983C7.0258 26.1114 6.86406 25.9051 6.7167 25.6822C6.64409 25.5708 6.57149 25.4558 6.50967 25.3357C6.44857 25.2156 6.39249 25.092 6.34002 24.9654C6.28826 24.8389 6.24082 24.7088 6.1984 24.5765C6.17756 24.5104 6.15671 24.4435 6.13946 24.3759C6.12292 24.3076 6.10855 24.2393 6.09489 24.1703C6.04097 23.8942 6.00791 23.6096 6 23.3213V23.3198Z" fill="#FFEFB3"/>
<path d="M8.31041 30.1909C8.5462 30.2067 8.78917 30.2362 9.02423 30.2822C9.26002 30.3282 9.49149 30.3901 9.71721 30.4655C9.83079 30.5029 9.94005 30.5453 10.0529 30.5892C10.1658 30.6323 10.2779 30.6791 10.3872 30.7287C10.6064 30.8279 10.8192 30.9408 11.0226 31.0659C11.8616 31.5554 12.5962 32.2147 13.218 33.035C12.9858 33.1191 12.7551 33.1716 12.515 33.2003C12.2756 33.2291 12.0319 33.232 11.7854 33.209C11.6624 33.1975 11.5381 33.1802 11.4144 33.1558C11.2937 33.1292 11.1736 33.0968 11.0528 33.058C10.8127 32.9804 10.5741 32.8775 10.3405 32.7525C10.1133 32.623 9.8962 32.4685 9.6863 32.2945C9.58278 32.2068 9.47639 32.1162 9.38366 32.0163C9.28949 31.9163 9.1982 31.8121 9.1105 31.7035C8.93581 31.4857 8.77048 31.2521 8.64252 30.9954C8.57639 30.8681 8.51457 30.7373 8.4585 30.6036C8.40314 30.4691 8.34707 30.334 8.30969 30.1916L8.31041 30.1909Z" fill="#FFEFB3"/>
<path d="M13.5171 36.495C13.617 36.4619 13.7169 36.4339 13.8197 36.4073C13.9232 36.38 14.0268 36.3555 14.131 36.3354C14.3395 36.2944 14.5501 36.2671 14.76 36.2535C15.1755 36.2319 15.6104 36.2362 16.028 36.2987C16.1337 36.3131 16.2351 36.3354 16.3415 36.3527C16.4479 36.3699 16.5528 36.3908 16.6578 36.4145C16.8677 36.4612 17.0711 36.5259 17.276 36.5957C17.6929 36.7222 18.0868 36.9163 18.488 37.1262C18.3327 37.2722 18.1623 37.4009 17.9776 37.5109C17.8856 37.5655 17.79 37.6158 17.6915 37.6611C17.5944 37.7035 17.4945 37.7402 17.3924 37.7725C17.1876 37.8365 16.9712 37.8811 16.7469 37.9048C16.6348 37.9163 16.5205 37.9235 16.4062 37.9242C16.2933 37.9214 16.1797 37.9135 16.0647 37.8998C15.8347 37.8732 15.601 37.8257 15.3674 37.7582C15.1388 37.6841 14.9145 37.5842 14.6939 37.4677C14.5839 37.4088 14.4739 37.3469 14.3689 37.2765C14.2661 37.2039 14.1655 37.1262 14.067 37.0443C13.9685 36.9623 13.8729 36.876 13.7802 36.7855C13.6875 36.6949 13.5969 36.6007 13.5178 36.4957L13.5171 36.495Z" fill="#FFEFB3"/>
<path d="M17.5182 38.3909C17.7655 38.227 18.0329 38.1012 18.3104 38.0121C18.3801 37.9898 18.4498 37.9704 18.5203 37.9524C18.5914 37.9359 18.6633 37.9193 18.7352 37.9028C18.8804 37.8712 19.027 37.8489 19.1751 37.8352C19.3225 37.8223 19.4706 37.8187 19.6187 37.8244C19.692 37.8295 19.7682 37.8287 19.8437 37.8331C19.9191 37.8374 19.9946 37.8438 20.0694 37.8525C20.2196 37.8704 20.3699 37.8985 20.5187 37.9366C20.5561 37.9459 20.5934 37.9567 20.6301 37.9675C20.6675 37.9768 20.7056 37.9862 20.7437 37.9963C20.8192 38.0164 20.8946 38.0387 20.9694 38.0638C20.8795 38.1839 20.7782 38.2939 20.6653 38.3924C20.6092 38.442 20.5503 38.4887 20.4885 38.5326C20.4274 38.5764 20.3648 38.6131 20.2987 38.649C20.037 38.7907 19.7394 38.8841 19.4217 38.9244C19.2614 38.9481 19.1032 38.9416 18.9393 38.9287C18.7769 38.9143 18.6116 38.8863 18.4477 38.8446C18.3664 38.823 18.283 38.8015 18.204 38.7691C18.1249 38.7375 18.0458 38.7015 17.9682 38.6627C17.8129 38.5851 17.6612 38.4938 17.5175 38.3888L17.5182 38.3909Z" fill="#FFEFB3"/>
<path d="M10.0709 20.6606C9.81069 20.8224 9.59072 21.0237 9.40382 21.2581C9.21907 21.4924 9.06236 21.7606 8.96747 22.0489C8.91787 22.1934 8.87834 22.3437 8.84958 22.4975C8.82083 22.6521 8.80142 22.8102 8.80214 22.9698C8.8007 23.1294 8.81076 23.2919 8.83233 23.4551C8.85318 23.6183 8.8848 23.7822 8.938 23.9433C9.07027 23.8527 9.19176 23.752 9.30462 23.6428C9.41963 23.5328 9.52387 23.4149 9.61804 23.2898C9.8071 23.0403 9.94799 22.7671 10.0479 22.4795C10.1536 22.1905 10.2082 21.89 10.2097 21.5852C10.2226 21.2782 10.1744 20.9683 10.0695 20.6606H10.0709Z" fill="#FFEFB3"/>
<path d="M11.4985 26.4895C11.3943 26.6009 11.2994 26.7203 11.216 26.8461C11.1333 26.9719 11.0658 27.102 11.0068 27.2386C10.8918 27.5111 10.8156 27.8094 10.794 28.115C10.7782 28.4177 10.8063 28.7325 10.8839 29.0446C10.973 29.3501 11.101 29.6571 11.285 29.9403C11.4849 29.6945 11.6488 29.4126 11.758 29.1236C11.8134 28.9784 11.8572 28.831 11.8881 28.6829C11.904 28.6082 11.9155 28.5348 11.9262 28.4593C11.9385 28.3831 11.9471 28.3077 11.9528 28.2314C11.9931 27.6268 11.8515 27.0258 11.4978 26.4888L11.4985 26.4895Z" fill="#FFEFB3"/>
<path d="M14.5716 31.7219C14.4437 31.998 14.3725 32.2834 14.3474 32.5803C14.3351 32.7284 14.3359 32.8787 14.3488 33.0296C14.3617 33.1799 14.3941 33.3237 14.4351 33.4711C14.5192 33.7615 14.645 34.0555 14.8355 34.31C14.9282 34.4395 15.031 34.5653 15.1446 34.6846C15.1999 34.7457 15.2625 34.7996 15.3264 34.8521C15.3904 34.9053 15.4573 34.9564 15.5256 35.0053C15.5759 34.8528 15.6125 34.6983 15.637 34.5444C15.6621 34.3891 15.67 34.2396 15.6751 34.0814C15.6808 33.7694 15.6413 33.466 15.5557 33.1842C15.4752 32.8966 15.3588 32.6206 15.1899 32.3812C15.1079 32.2589 15.0202 32.1367 14.9167 32.0275C14.8146 31.9167 14.6967 31.8168 14.5716 31.7212V31.7219Z" fill="#FFEFB3"/>
<path d="M21.5402 36.9517C21.5747 37.1364 21.6394 37.3118 21.7314 37.4743C21.8248 37.6296 21.9456 37.7691 22.0879 37.8913C22.231 38.0121 22.3949 38.1192 22.576 38.1954C22.7586 38.2644 22.9563 38.3104 23.1626 38.3291C23.1188 38.1365 23.0418 37.956 22.9412 37.795C22.8909 37.7144 22.8341 37.639 22.7723 37.5692C22.7414 37.534 22.709 37.5009 22.676 37.4686C22.6429 37.4348 22.6091 37.4017 22.5732 37.3701C22.4315 37.245 22.2727 37.1443 22.0987 37.076C22.0117 37.0408 21.9204 37.0171 21.8277 36.9962C21.735 36.9725 21.6394 36.9574 21.5409 36.9517H21.5402Z" fill="#FFEFB3"/>
<path d="M11.1916 22.3291C10.8235 22.5944 10.5101 22.9186 10.2556 23.291C10.1255 23.4779 10.0241 23.6735 9.93356 23.8798C9.8437 24.0862 9.76894 24.3033 9.71215 24.5276C9.50296 25.4176 9.59426 26.4306 10.0306 27.3544C10.3886 27.0223 10.6826 26.6398 10.9083 26.2365C11.0183 26.0359 11.1218 25.826 11.2066 25.6132C11.2908 25.4004 11.3576 25.1847 11.4058 24.9683C11.6178 24.0919 11.5682 23.1961 11.1923 22.3291H11.1916Z" fill="#FFEFB3"/>
<path d="M13.0304 27.8125C12.8838 27.9922 12.763 28.1763 12.6566 28.3725C12.551 28.5681 12.4626 28.773 12.3914 28.9851C12.3569 29.0908 12.3238 29.2007 12.3001 29.3086C12.2771 29.4164 12.2584 29.5257 12.2447 29.6371C12.2167 29.8593 12.2074 30.0865 12.216 30.3172C12.2706 31.2245 12.6624 32.167 13.3705 32.9039C13.5998 32.4798 13.7651 32.0211 13.8564 31.5725C13.8794 31.4596 13.8981 31.3482 13.9132 31.236C13.9312 31.1217 13.9441 31.0081 13.9535 30.8953C13.9714 30.6695 13.9729 30.4474 13.9563 30.2303C13.9082 29.3453 13.6192 28.5264 13.0297 27.8132L13.0304 27.8125Z" fill="#FFEFB3"/>
<path d="M16.5787 32.9756C16.5492 33.0712 16.5226 33.1697 16.5025 33.2653C16.4831 33.3602 16.468 33.4565 16.4572 33.5529C16.4356 33.7456 16.4313 33.9397 16.445 34.1345C16.4672 34.5306 16.5787 34.9009 16.7505 35.2661C16.7943 35.356 16.8389 35.4501 16.8928 35.5335C16.9467 35.6184 17.0042 35.701 17.066 35.783C17.1897 35.9455 17.3256 36.1072 17.4794 36.2517C17.795 36.5285 18.1558 36.7859 18.5742 36.9462C18.5929 36.7341 18.5936 36.5235 18.5792 36.3186C18.572 36.2158 18.5613 36.1144 18.5469 36.0145C18.5339 35.911 18.5181 35.8096 18.4987 35.7089C18.4599 35.5084 18.4074 35.315 18.3435 35.1302C18.3111 35.0375 18.2759 34.9483 18.2378 34.8599C18.2018 34.7679 18.163 34.6787 18.1213 34.5917C18.0372 34.4185 17.9416 34.256 17.8331 34.1057C17.7288 33.949 17.6153 33.7988 17.4866 33.6658C17.4226 33.5982 17.3543 33.5356 17.2846 33.4738C17.217 33.4084 17.1458 33.3466 17.0711 33.2883C16.9963 33.2301 16.918 33.1754 16.8353 33.1244C16.7526 33.0734 16.6656 33.0273 16.5808 32.9763L16.5787 32.9756Z" fill="#FFEFB3"/>
<path d="M19.0177 35.4272C19.0084 35.7062 19.0479 35.9801 19.1327 36.2439C19.1543 36.3101 19.178 36.3748 19.2053 36.4395C19.219 36.4718 19.2326 36.5035 19.2477 36.5358C19.2628 36.5667 19.2794 36.5962 19.2966 36.6257C19.3642 36.745 19.4425 36.8593 19.531 36.9693C19.6194 37.0793 19.7179 37.1843 19.825 37.2828C19.8782 37.3338 19.9357 37.3755 19.9953 37.418C20.055 37.4597 20.1161 37.4999 20.1794 37.5387C20.3059 37.6157 20.4403 37.6847 20.5805 37.7443C20.6157 37.7594 20.6509 37.7738 20.6869 37.7882C20.7228 37.8011 20.7602 37.8112 20.7969 37.822C20.8709 37.8428 20.9464 37.8623 21.0233 37.8781C21.0104 37.73 20.9845 37.5855 20.9485 37.4453C20.9306 37.3755 20.9097 37.3065 20.886 37.2397C20.863 37.1721 20.8386 37.1016 20.8105 37.0355C20.7013 36.7673 20.556 36.5229 20.3799 36.3144C20.2908 36.2138 20.2002 36.1045 20.0996 36.0125C19.9997 35.919 19.8925 35.8356 19.7782 35.763C19.7215 35.7256 19.6611 35.6954 19.6021 35.6602C19.5432 35.6257 19.4821 35.5933 19.4188 35.5646C19.293 35.5063 19.1593 35.4603 19.0177 35.4272Z" fill="#FFEFB3"/>
<path d="M8.14213 18C8.36857 18.2732 8.53822 18.565 8.65108 18.8663C8.76897 19.1675 8.84373 19.4766 8.85739 19.7858C8.85955 19.8246 8.86027 19.8627 8.86027 19.9015C8.8617 19.9404 8.86242 19.9785 8.86242 20.0166C8.86242 20.0935 8.85883 20.1704 8.85236 20.2466C8.8387 20.399 8.81138 20.5507 8.77041 20.6995C8.72728 20.8484 8.67983 20.9936 8.61729 21.1352C8.55475 21.2768 8.47856 21.4142 8.38942 21.5457C8.26865 21.4429 8.15938 21.3286 8.06162 21.2035C7.96386 21.0791 7.87687 20.9447 7.81074 20.8016C7.74245 20.6593 7.6871 20.509 7.64397 20.3537C7.6224 20.2761 7.60443 20.1977 7.58933 20.1179C7.58214 20.0784 7.57567 20.0381 7.56992 19.9979C7.56561 19.9576 7.56202 19.9174 7.55986 19.8764C7.54045 19.5514 7.56849 19.2186 7.66553 18.8986C7.76689 18.578 7.92504 18.2717 8.14141 17.9985L8.14213 18Z" fill="#FFEFB3"/>
<path d="M25.5068 38.8273C25.5068 38.8273 25.8037 38.8114 26.1962 38.7906C26.294 38.7856 26.3982 38.7805 26.5053 38.7748C26.6131 38.7661 26.7245 38.7518 26.8353 38.741C27.0567 38.718 27.2766 38.695 27.47 38.6756C27.5189 38.6741 27.6576 38.6504 27.8769 38.6166C27.9861 38.6001 28.1155 38.5799 28.2636 38.5569C28.3377 38.5454 28.416 38.5332 28.4994 38.521C28.5821 38.5059 28.6683 38.485 28.7589 38.4663C28.9401 38.4275 29.1385 38.3844 29.3527 38.3384C29.4605 38.3183 29.5691 38.2852 29.6812 38.2535C29.7941 38.2219 29.9105 38.1896 30.0298 38.1558C30.1492 38.122 30.2728 38.0875 30.3993 38.0515C30.5237 38.0084 30.6509 37.9645 30.781 37.9192C30.9112 37.874 31.0449 37.8279 31.1807 37.7805C31.2145 37.7683 31.249 37.7575 31.2835 37.7445C31.3173 37.7309 31.3511 37.7165 31.3849 37.7021C31.4532 37.6741 31.5215 37.6453 31.5905 37.6166C32.7025 37.1672 33.9275 36.5044 35.1014 35.6223C35.2523 35.518 35.3925 35.3965 35.537 35.2793C35.6808 35.1614 35.8267 35.0443 35.9705 34.9228C36.1092 34.7962 36.2486 34.6683 36.3895 34.5403C36.46 34.4763 36.5297 34.4123 36.6002 34.3476C36.6692 34.2822 36.7346 34.2125 36.8022 34.1449C36.9366 34.0083 37.071 33.8717 37.2062 33.7351C37.3399 33.5963 37.4635 33.449 37.5929 33.3052C37.8553 33.0219 38.0911 32.7149 38.3333 32.4137L38.4239 32.3008C38.4534 32.2627 38.4807 32.2232 38.5094 32.1844L38.6791 31.95C38.7912 31.7933 38.9077 31.6401 39.0148 31.4805C39.1197 31.3202 39.2247 31.1599 39.3297 31.0003C39.3814 30.9205 39.4339 30.8407 39.4856 30.7609C39.5338 30.6789 39.582 30.5977 39.6301 30.5157C39.7265 30.3525 39.8221 30.1908 39.9177 30.029C40.0104 29.8665 40.0945 29.6998 40.1829 29.5366C40.2261 29.4546 40.2699 29.3734 40.313 29.2921C40.3569 29.2109 40.4 29.1304 40.4374 29.047C40.5158 28.8823 40.5941 28.7184 40.6718 28.5567C41.2821 27.2547 41.7177 25.9858 42.0182 24.8829C42.0599 24.7463 42.0922 24.6097 42.1246 24.4775C42.1576 24.3445 42.1893 24.2151 42.2202 24.0885C42.2504 23.962 42.2849 23.8398 42.3086 23.719C42.3337 23.5982 42.3575 23.481 42.3812 23.3674C42.4049 23.2539 42.4272 23.1439 42.4488 23.0382C42.471 22.9325 42.4926 22.8304 42.5077 22.7312C42.5408 22.5335 42.571 22.3523 42.5983 22.1884C42.6572 21.8613 42.6831 21.6018 42.7076 21.4256C42.7298 21.2495 42.7421 21.1553 42.7421 21.1553L42.5429 21.1309C42.5429 21.1309 42.53 21.2236 42.5063 21.399C42.4804 21.5737 42.4531 21.8311 42.3913 22.1546C42.3625 22.3171 42.3309 22.4968 42.2964 22.6924C42.2806 22.7909 42.2583 22.8915 42.2353 22.9965C42.213 23.1014 42.1893 23.21 42.1648 23.3221C42.1404 23.4343 42.1159 23.55 42.0901 23.6694C42.0656 23.7887 42.0304 23.9095 41.9995 24.0346C41.9671 24.1597 41.9348 24.2877 41.901 24.4185C41.8672 24.5494 41.8341 24.6845 41.7917 24.8197C41.4841 25.9088 41.0412 27.1605 40.4266 28.4409C40.349 28.6005 40.2699 28.7608 40.1908 28.9233C40.1527 29.0053 40.1096 29.0843 40.0658 29.1642C40.0226 29.244 39.9788 29.3238 39.9349 29.4043C39.8465 29.5639 39.7624 29.7278 39.669 29.8874C39.5733 30.0456 39.4777 30.2044 39.3807 30.3648C39.3325 30.4446 39.2844 30.5244 39.2355 30.6049C39.1837 30.6825 39.132 30.7609 39.0795 30.8393C38.9753 30.9953 38.8703 31.1527 38.7654 31.3094C38.659 31.4654 38.5418 31.615 38.4304 31.7681L38.2614 31.9967C38.2327 32.0348 38.2061 32.0736 38.1759 32.111L38.086 32.221C37.8445 32.5144 37.6109 32.8141 37.3499 33.0902C37.2213 33.2297 37.0991 33.3735 36.9668 33.5086C36.8331 33.6416 36.7001 33.7746 36.5671 33.9069C36.5002 33.9723 36.4355 34.0406 36.3673 34.1039C36.2975 34.1664 36.2285 34.2283 36.1588 34.2908C36.0201 34.4152 35.882 34.5388 35.7454 34.6618C35.6031 34.779 35.4593 34.8918 35.3177 35.0062C35.1754 35.119 35.0374 35.2369 34.8886 35.3369C33.7327 36.1888 32.5315 36.8229 31.4438 37.2499C31.3763 37.2772 31.3087 37.3046 31.2425 37.3312C31.2095 37.3448 31.1764 37.3578 31.1433 37.3714C31.1103 37.3836 31.0765 37.3944 31.0434 37.4059C30.9104 37.4505 30.7796 37.4944 30.6524 37.5368C30.5251 37.5792 30.4008 37.6216 30.2793 37.6619C30.1556 37.6957 30.0356 37.728 29.9184 37.7596C29.8012 37.7913 29.6877 37.8215 29.5777 37.8509C29.4677 37.8804 29.362 37.9113 29.2564 37.93C29.0479 37.9724 28.8545 38.012 28.677 38.0487C28.5885 38.0659 28.5044 38.0853 28.4239 38.099C28.3427 38.1105 28.2665 38.1213 28.1939 38.1313C28.0494 38.1522 27.9236 38.1694 27.8165 38.1852C27.603 38.2154 27.4671 38.2363 27.4211 38.237C27.2349 38.25 27.0229 38.265 26.8101 38.2801C26.703 38.2866 26.5973 38.296 26.4916 38.3003C26.3845 38.301 26.2803 38.3017 26.1825 38.3024C25.79 38.3046 25.4924 38.306 25.4924 38.306L25.5075 38.8273H25.5068Z" fill="#FFEFB3"/>
<path d="M40.9299 20.6606C41.1901 20.8224 41.4101 21.0237 41.597 21.2581C41.7817 21.4924 41.9384 21.7606 42.0333 22.0489C42.0829 22.1934 42.1224 22.3437 42.1512 22.4975C42.1799 22.6521 42.1994 22.8102 42.1986 22.9698C42.2001 23.1294 42.19 23.2919 42.1684 23.4551C42.1476 23.6183 42.116 23.7822 42.0628 23.9433C41.9305 23.8527 41.809 23.752 41.6962 23.6428C41.5811 23.5328 41.4769 23.4149 41.3827 23.2898C41.1937 23.0403 41.0528 22.7671 40.9529 22.4795C40.8472 22.1905 40.7926 21.89 40.7911 21.5852C40.7782 21.2782 40.8263 20.9683 40.9313 20.6606H40.9299Z" fill="#FFEFB3"/>
<path d="M39.5015 26.49C39.6057 26.6014 39.7006 26.7208 39.784 26.8466C39.8667 26.9724 39.9342 27.1025 39.9932 27.2391C40.1082 27.5116 40.1844 27.8099 40.2059 28.1155C40.2218 28.4181 40.1937 28.733 40.1161 29.045C40.027 29.3506 39.899 29.6576 39.715 29.9408C39.5151 29.695 39.3512 29.4131 39.242 29.1241C39.1866 28.9789 39.1428 28.8315 39.1111 28.6834C39.0953 28.6087 39.0838 28.5353 39.073 28.4598C39.0608 28.3836 39.0522 28.3081 39.0464 28.2319C39.0062 27.6273 39.1478 27.0263 39.5015 26.4893V26.49Z" fill="#FFEFB3"/>
<path d="M36.4291 31.7224C36.557 31.9985 36.6282 32.2839 36.6533 32.5808C36.6656 32.7289 36.6648 32.8792 36.6519 33.0301C36.639 33.1804 36.6066 33.3242 36.5656 33.4715C36.4815 33.762 36.3557 34.056 36.1652 34.3105C36.0725 34.4399 35.9697 34.5658 35.8561 34.6851C35.8008 34.7462 35.7382 34.8001 35.6743 34.8526C35.6103 34.9058 35.5434 34.9569 35.4751 35.0057C35.4248 34.8533 35.3882 34.6988 35.3637 34.5449C35.3386 34.3896 35.3307 34.2401 35.3256 34.0819C35.3199 33.7699 35.3594 33.4665 35.4449 33.1847C35.5255 32.8971 35.6419 32.6211 35.8108 32.3817C35.8928 32.2594 35.9805 32.1372 36.084 32.0279C36.1861 31.9172 36.304 31.8173 36.4291 31.7217V31.7224Z" fill="#FFEFB3"/>
<path d="M29.4597 36.9517C29.4252 37.1364 29.3605 37.3118 29.2693 37.4743C29.1758 37.6296 29.055 37.7691 28.9127 37.8913C28.7696 38.0121 28.6057 38.1192 28.4246 38.1954C28.242 38.2644 28.0443 38.3104 27.838 38.3291C27.8819 38.1365 27.9588 37.956 28.0594 37.795C28.1097 37.7144 28.1665 37.639 28.2283 37.5692C28.2593 37.534 28.2916 37.5009 28.3247 37.4686C28.3577 37.4348 28.3915 37.4017 28.4275 37.3701C28.5691 37.245 28.728 37.1443 28.9019 37.076C28.9889 37.0408 29.0802 37.0171 29.1729 36.9962C29.2657 36.9725 29.3613 36.9574 29.4597 36.9517Z" fill="#FFEFB3"/>
<path d="M39.8085 22.3296C40.1765 22.5949 40.4899 22.9191 40.7444 23.2915C40.8745 23.4784 40.9759 23.674 41.0665 23.8803C41.1563 24.0866 41.2311 24.3038 41.2879 24.5281C41.4971 25.4181 41.4058 26.4311 40.9694 27.3549C40.6114 27.0227 40.3174 26.6403 40.0917 26.237C39.9817 26.0364 39.8782 25.8265 39.7934 25.6136C39.7093 25.4008 39.6424 25.1852 39.5942 24.9688C39.3822 24.0924 39.4318 23.1966 39.8077 22.3296H39.8085Z" fill="#FFEFB3"/>
<path d="M37.9703 27.8125C38.1169 27.9922 38.2377 28.1763 38.3441 28.3725C38.4497 28.5681 38.5382 28.773 38.6093 28.9851C38.6438 29.0908 38.6769 29.2007 38.7006 29.3086C38.7236 29.4164 38.7423 29.5257 38.756 29.6371C38.784 29.8593 38.7934 30.0865 38.7847 30.3172C38.7301 31.2245 38.3383 32.167 37.6303 32.9039C37.4009 32.4798 37.2356 32.0211 37.1443 31.5725C37.1213 31.4596 37.1026 31.3482 37.0875 31.236C37.0695 31.1217 37.0566 31.0081 37.0473 30.8953C37.0293 30.6695 37.0279 30.4474 37.0444 30.2303C37.0926 29.3453 37.3815 28.5264 37.971 27.8132L37.9703 27.8125Z" fill="#FFEFB3"/>
<path d="M34.422 32.9761C34.4515 33.0717 34.4781 33.1702 34.4982 33.2658C34.5177 33.3607 34.5328 33.457 34.5435 33.5534C34.5651 33.746 34.5694 33.9402 34.5558 34.135C34.5335 34.5311 34.422 34.9014 34.2502 35.2666C34.2064 35.3564 34.1618 35.4506 34.1079 35.534C34.054 35.6189 33.9965 35.7015 33.9347 35.7835C33.811 35.946 33.6752 36.1077 33.5213 36.2522C33.2057 36.529 32.8449 36.7864 32.4265 36.9467C32.4078 36.7346 32.4071 36.524 32.4215 36.3191C32.4287 36.2163 32.4394 36.1149 32.4538 36.015C32.4668 35.9115 32.4826 35.8101 32.502 35.7094C32.5408 35.5089 32.5933 35.3155 32.6573 35.1307C32.6896 35.038 32.7248 34.9488 32.7629 34.8604C32.7989 34.7684 32.8377 34.6792 32.8794 34.5922C32.9635 34.419 33.0591 34.2565 33.1676 34.1062C33.2719 33.9495 33.3855 33.7992 33.5141 33.6662C33.5781 33.5987 33.6464 33.5361 33.7161 33.4743C33.7837 33.4089 33.8549 33.347 33.9296 33.2888C34.0044 33.2306 34.0827 33.1759 34.1654 33.1249C34.2481 33.0738 34.3351 33.0278 34.4199 32.9768L34.422 32.9761Z" fill="#FFEFB3"/>
<path d="M31.983 35.4277C31.9924 35.7067 31.9528 35.9806 31.868 36.2444C31.8464 36.3106 31.8227 36.3753 31.7954 36.44C31.7817 36.4723 31.7681 36.504 31.753 36.5363C31.7379 36.5672 31.7214 36.5967 31.7041 36.6262C31.6365 36.7455 31.5582 36.8606 31.4698 36.9698C31.3813 37.0798 31.2829 37.1848 31.1757 37.2833C31.1226 37.3343 31.065 37.376 31.0054 37.4184C30.9457 37.4601 30.8846 37.5004 30.8214 37.5392C30.6948 37.6161 30.5604 37.6852 30.4202 37.7448C30.385 37.7599 30.3498 37.7743 30.3138 37.7887C30.2779 37.8016 30.2405 37.8117 30.2039 37.8225C30.1298 37.8433 30.0543 37.8627 29.9774 37.8786C29.9904 37.7305 30.0162 37.586 30.0522 37.4458C30.0701 37.376 30.091 37.307 30.1147 37.2401C30.1377 37.1726 30.1622 37.1021 30.1902 37.036C30.2995 36.7678 30.4447 36.5234 30.6208 36.3149C30.7099 36.2142 30.8005 36.105 30.9011 36.0129C31.0011 35.9195 31.1082 35.8361 31.2225 35.7635C31.2793 35.7261 31.3396 35.6959 31.3986 35.6607C31.4575 35.6262 31.5186 35.5938 31.5819 35.565C31.7077 35.5068 31.8414 35.4608 31.983 35.4277Z" fill="#FFEFB3"/>
<path d="M44.4695 21.0539C44.1812 21.1747 43.9066 21.3372 43.6644 21.5327C43.4192 21.7283 43.2108 21.9569 43.0145 22.2085C42.9189 22.3351 42.8305 22.4674 42.7521 22.6061C42.6731 22.7449 42.6048 22.8894 42.5365 23.0375C42.4703 23.1863 42.4136 23.3401 42.3668 23.499C42.3208 23.6579 42.2856 23.8225 42.2511 23.9886C42.4107 23.9678 42.5681 23.9311 42.7198 23.8786C42.8686 23.8261 43.0131 23.7585 43.1504 23.6766C43.4243 23.5127 43.6773 23.2941 43.8822 23.0303C44.082 22.7657 44.2438 22.4573 44.3509 22.1223C44.4465 21.7858 44.4946 21.4235 44.4702 21.0532L44.4695 21.0539Z" fill="#FFEFB3"/>
<path d="M42.8161 27.7939C42.6609 27.8148 42.5085 27.8479 42.3597 27.8917C42.2094 27.9349 42.0592 27.9866 41.9154 28.0492C41.6257 28.1735 41.3597 28.3382 41.1096 28.5316C40.8537 28.7228 40.6251 28.9478 40.4238 29.2016C40.211 29.4496 40.0356 29.7315 39.8846 30.037C40.2067 30.0888 40.5208 30.0665 40.8335 29.986C40.9888 29.945 41.1426 29.8889 41.2914 29.8177C41.3655 29.7818 41.4402 29.7437 41.5114 29.7005C41.5811 29.6567 41.6494 29.6092 41.7163 29.5589C41.85 29.4575 41.9765 29.3432 42.0951 29.2174C42.1541 29.1542 42.2116 29.088 42.2662 29.0197C42.3208 28.9507 42.3676 28.8774 42.415 28.8026C42.5077 28.6523 42.5904 28.492 42.6594 28.3238C42.6939 28.2397 42.7263 28.1541 42.7529 28.0657C42.7773 27.9766 42.7989 27.886 42.8161 27.7939Z" fill="#FFEFB3"/>
<path d="M39.147 34.0241C38.8372 33.9659 38.5151 33.9494 38.2024 33.9767C38.0457 33.9904 37.8905 34.0141 37.7381 34.0479C37.5849 34.0817 37.4268 34.1176 37.2758 34.1672C36.971 34.2643 36.6864 34.4059 36.3996 34.5641C36.2587 34.646 36.1221 34.7373 35.9905 34.8387C35.9251 34.8897 35.859 34.9408 35.7921 34.9918C35.726 35.0443 35.662 35.0989 35.5988 35.1565C35.7382 35.2363 35.8856 35.3017 36.0387 35.3513C36.1911 35.4002 36.3536 35.4376 36.511 35.4505C36.8302 35.4793 37.1637 35.4447 37.4951 35.3498C37.8207 35.2499 38.1327 35.0795 38.4231 34.861C38.5655 34.7495 38.6941 34.6187 38.8163 34.4792C38.9371 34.3383 39.0521 34.1888 39.147 34.0241Z" fill="#FFEFB3"/>
<path d="M30.0384 39.1319C29.9047 38.9932 29.7523 38.8774 29.587 38.7854C29.4202 38.6862 29.2405 38.6086 29.0536 38.5561C28.866 38.5022 28.6726 38.4777 28.4735 38.472C28.2729 38.459 28.0688 38.4727 27.8639 38.5158C27.9595 38.6876 28.0882 38.8379 28.2434 38.9608C28.3211 39.0227 28.4052 39.0773 28.4943 39.1248C28.5389 39.1485 28.5849 39.17 28.6323 39.1902C28.6791 39.2089 28.7272 39.224 28.7761 39.2376C28.9716 39.2923 29.1837 39.3145 29.3994 39.3009C29.5072 39.2937 29.6165 39.28 29.7236 39.2527C29.83 39.2218 29.9356 39.1815 30.0391 39.1319H30.0384Z" fill="#FFEFB3"/>
<path d="M45 23.3198C44.5442 23.4744 44.1158 23.6937 43.7261 23.9618C43.5342 24.097 43.338 24.2408 43.1582 24.3975C42.9771 24.5535 42.8067 24.7217 42.6471 24.8986C41.988 25.6046 41.484 26.4558 41.1555 27.4306C41.6379 27.4393 42.1145 27.3444 42.5681 27.1524C42.7974 27.0575 43.0102 26.9353 43.2143 26.7922C43.4192 26.6485 43.6147 26.4831 43.798 26.2983C43.9741 26.1114 44.1359 25.9051 44.2833 25.6822C44.3559 25.5708 44.4285 25.4558 44.4903 25.3357C44.5514 25.2156 44.6075 25.092 44.6599 24.9654C44.7117 24.8389 44.7591 24.7088 44.8015 24.5765C44.8224 24.5104 44.8432 24.4435 44.8605 24.3759C44.877 24.3076 44.8914 24.2393 44.9051 24.1703C44.959 23.8942 44.992 23.6096 45 23.3213V23.3198Z" fill="#FFEFB3"/>
<path d="M42.6903 30.1909C42.4545 30.2067 42.2116 30.2362 41.9765 30.2822C41.7407 30.3282 41.5093 30.3901 41.2835 30.4655C41.17 30.5029 41.0607 30.5453 40.9478 30.5892C40.835 30.6323 40.7228 30.6791 40.6136 30.7287C40.3943 30.8279 40.1815 30.9408 39.9781 31.0659C39.1392 31.5554 38.4045 32.2147 37.7827 33.035C38.0149 33.1191 38.2457 33.1716 38.4858 33.2003C38.7251 33.2291 38.9688 33.232 39.2154 33.209C39.3383 33.1975 39.4627 33.1802 39.5863 33.1558C39.7071 33.1292 39.8271 33.0968 39.9479 33.058C40.188 32.9804 40.4267 32.8775 40.6603 32.7525C40.8874 32.623 41.1045 32.4685 41.3144 32.2945C41.418 32.2068 41.5244 32.1162 41.6171 32.0163C41.7113 31.9163 41.8025 31.8121 41.8902 31.7035C42.0649 31.4857 42.2303 31.2521 42.3582 30.9954C42.4244 30.8681 42.4862 30.7373 42.5422 30.6036C42.5976 30.4691 42.6537 30.334 42.6911 30.1916L42.6903 30.1909Z" fill="#FFEFB3"/>
<path d="M37.4837 36.495C37.3838 36.4619 37.2838 36.4339 37.181 36.4073C37.0775 36.38 36.974 36.3555 36.8698 36.3354C36.6613 36.2944 36.4507 36.2671 36.2408 36.2535C35.8253 36.2319 35.3904 36.2362 34.972 36.2987C34.8663 36.3131 34.765 36.3354 34.6586 36.3527C34.5522 36.3699 34.4472 36.3908 34.3423 36.4145C34.1324 36.4612 33.9289 36.5259 33.7241 36.5957C33.3071 36.7222 32.9132 36.9163 32.5121 37.1262C32.6674 37.2722 32.8377 37.4009 33.0225 37.5109C33.1145 37.5655 33.2101 37.6158 33.3086 37.6611C33.4056 37.7035 33.5055 37.7402 33.6076 37.7725C33.8125 37.8365 34.0289 37.8811 34.2531 37.9048C34.3653 37.9163 34.4796 37.9235 34.5939 37.9242C34.7067 37.9214 34.8203 37.9135 34.9353 37.8998C35.1654 37.8732 35.399 37.8257 35.6326 37.7582C35.8612 37.6841 36.0855 37.5842 36.3062 37.4677C36.4162 37.4088 36.5262 37.3469 36.6311 37.2765C36.7339 37.2039 36.8346 37.1262 36.933 37.0443C37.0315 36.9623 37.1271 36.876 37.2199 36.7855C37.3126 36.6949 37.4032 36.6014 37.4822 36.4957L37.4837 36.495Z" fill="#FFEFB3"/>
<path d="M33.4817 38.3909C33.2344 38.227 32.967 38.1012 32.6896 38.0121C32.6198 37.9898 32.5501 37.9704 32.4797 37.9524C32.4085 37.9359 32.3366 37.9193 32.2647 37.9028C32.1195 37.8712 31.9729 37.8489 31.8248 37.8352C31.6774 37.8223 31.5293 37.8187 31.3812 37.8244C31.3079 37.8295 31.2317 37.8287 31.1562 37.8331C31.0808 37.8374 31.0053 37.8438 30.9305 37.8525C30.7803 37.8704 30.63 37.8985 30.4812 37.9366C30.4439 37.9459 30.4065 37.9567 30.3698 37.9675C30.3324 37.9768 30.2943 37.9862 30.2562 37.9963C30.1808 38.0164 30.1053 38.0387 30.0305 38.0638C30.1204 38.1839 30.2217 38.2939 30.3346 38.3924C30.3907 38.442 30.4496 38.4887 30.5114 38.5326C30.5725 38.5764 30.6351 38.6131 30.7012 38.649C30.9629 38.7907 31.2605 38.8841 31.5782 38.9244C31.7385 38.9481 31.8967 38.9416 32.0606 38.9287C32.223 38.9143 32.3884 38.8863 32.5523 38.8446C32.6335 38.823 32.7169 38.8015 32.796 38.7691C32.875 38.7375 32.9541 38.7015 33.0317 38.6627C33.187 38.5851 33.3387 38.4938 33.4825 38.3888L33.4817 38.3909Z" fill="#FFEFB3"/>
<path d="M42.8586 18C43.0749 18.2725 43.2331 18.5795 43.3345 18.9001C43.4315 19.22 43.4595 19.5536 43.4401 19.8778C43.4372 19.9181 43.4344 19.9591 43.4301 19.9993C43.4243 20.0396 43.4178 20.0791 43.4106 20.1194C43.3956 20.1992 43.3776 20.2776 43.356 20.3552C43.3136 20.5098 43.2575 20.66 43.1892 20.8031C43.1231 20.9462 43.0361 21.0806 42.9384 21.205C42.8406 21.3294 42.7313 21.4444 42.6106 21.5472C42.5207 21.4156 42.4452 21.2776 42.3827 21.1367C42.3201 20.9951 42.2727 20.8498 42.2296 20.701C42.1886 20.5522 42.1613 20.4012 42.1476 20.2481C42.1404 20.1719 42.1376 20.095 42.1368 20.018C42.1368 19.9799 42.1376 19.9411 42.139 19.903C42.139 19.8642 42.1404 19.8261 42.1419 19.7873C42.1555 19.4781 42.2303 19.169 42.3482 18.8677C42.4618 18.5665 42.6307 18.2739 42.8571 18.0014L42.8586 18Z" fill="#FFEFB3"/>
</g>
<path d="M14.1148 27.7094H12.3157C11.2831 27.7094 10.9318 27.7306 10.868 27.7306C10.7615 27.7306 10.7509 27.72 10.7509 27.6135V26.9323C10.7509 26.8258 10.7615 26.8152 10.868 26.8152C10.9318 26.8152 11.2831 26.8365 12.3157 26.8365H16.6696C17.766 26.8365 18.3089 26.8152 18.3622 26.8152C18.4793 26.8152 18.4899 26.8258 18.4899 26.9323C18.4899 26.9961 18.4686 27.2197 18.4686 27.7306V28.4226C18.4686 28.9442 18.4899 29.1677 18.4899 29.2316C18.4899 29.3381 18.4793 29.3487 18.3622 29.3487C18.3089 29.3487 17.766 29.3274 16.6696 29.3274H15.1899L15.2006 30.0619H17.5318C18.5857 30.0619 18.9583 30.0406 19.0222 30.0406C19.1286 30.0406 19.1606 30.0619 19.1499 30.1684C19.1073 30.4771 19.086 30.7858 19.0541 31.1158C19.0009 31.7013 18.9157 32.2655 18.7028 32.6061C18.5006 32.9574 18.128 33.1597 17.4467 33.1597C17.2657 33.1597 17.0848 33.1597 16.8293 33.1384C16.5312 33.1171 16.5099 33.0958 16.446 32.7658C16.3928 32.489 16.3077 32.2761 16.2012 32.0419C16.6377 32.1165 16.9783 32.1484 17.2551 32.1484C17.5318 32.1484 17.7022 32.1271 17.798 31.9461C17.8938 31.7545 17.947 31.2861 17.9683 30.9348H15.2112L15.2325 31.9142C15.2431 32.9468 15.2964 33.511 15.2964 33.6919C15.2964 33.809 15.2857 33.8197 15.1686 33.8197H14.2744C14.168 33.8197 14.1573 33.809 14.1573 33.6919C14.1573 33.4897 14.1786 32.9681 14.168 31.9248L14.1573 31.4884C13.2525 32.4358 12.1135 33.0958 10.7615 33.5323C10.6444 33.5642 10.5699 33.5961 10.506 33.5961C10.4209 33.5961 10.3783 33.5323 10.2825 33.3406C10.1441 33.0745 9.97378 32.8403 9.82475 32.6806C11.3257 32.2974 12.5712 31.7545 13.476 30.9348H11.6344L11.528 31.2329C11.4854 31.3606 11.4854 31.3606 10.9531 31.3074C10.4422 31.2542 10.3677 31.2542 10.4209 31.1265C10.6764 30.4984 10.8786 29.849 11.0277 29.2103C11.0809 28.9974 11.1341 28.7739 11.1554 28.561C11.166 28.4439 11.1767 28.4226 11.2831 28.4226C11.347 28.4226 11.7089 28.4439 12.7309 28.4439H14.1254L14.1148 27.7094ZM17.3935 27.7094H15.1686L15.1793 28.4439H17.3935V27.7094ZM11.9112 30.0619H14.1467L14.136 29.3274H12.1135L11.9112 30.0619ZM16.5951 25.7613H15.7967C15.6264 26.0168 15.4348 26.2723 15.2006 26.5277C15.0941 26.6448 15.0302 26.7087 14.977 26.7087C14.9131 26.7087 14.8599 26.6448 14.7322 26.5171C14.5618 26.3574 14.3596 26.2403 14.1999 26.1658C14.3277 26.0381 14.4448 25.9103 14.5512 25.7826C14.4873 25.7826 14.2106 25.7613 13.3802 25.7613C13.4867 25.9423 13.5825 26.1232 13.6677 26.3042C13.7102 26.4 13.6996 26.4213 13.5718 26.4532L12.8586 26.6129C12.7096 26.6448 12.6883 26.6448 12.6457 26.5171C12.5606 26.2616 12.4648 26.0061 12.337 25.7613H11.5706C11.3577 26.07 11.1022 26.3574 10.7828 26.6661C10.6657 26.7832 10.6018 26.8365 10.5486 26.8365C10.4848 26.8365 10.4315 26.7726 10.3144 26.6448C10.1335 26.4532 9.94185 26.3148 9.79282 26.219C10.3889 25.7081 10.836 25.1545 11.1448 24.5158C11.2299 24.3668 11.2831 24.2177 11.3364 24.0261C11.6344 24.0581 12.0283 24.1219 12.2731 24.1752C12.3796 24.1965 12.4328 24.239 12.4328 24.3135C12.4328 24.3774 12.3902 24.42 12.3477 24.4626C12.2944 24.5158 12.2306 24.5903 12.1667 24.7287L12.0709 24.9097H13.3057C14.1999 24.9097 14.4873 24.8884 14.5512 24.8884C14.6683 24.8884 14.6789 24.899 14.6789 25.0055V25.6335C14.9451 25.2929 15.158 24.9416 15.3283 24.5371C15.4028 24.3881 15.4454 24.239 15.4986 24.0368C15.8073 24.0687 16.1693 24.1326 16.3928 24.1858C16.5099 24.2177 16.5631 24.239 16.5631 24.3242C16.5631 24.3987 16.5312 24.42 16.478 24.4732C16.4035 24.5371 16.3822 24.5903 16.3183 24.7287L16.2438 24.9097H17.8086C18.8838 24.9097 19.267 24.8884 19.3309 24.8884C19.4267 24.8884 19.4373 24.899 19.4373 25.0055V25.6655C19.4373 25.7719 19.4267 25.7826 19.3309 25.7826C19.267 25.7826 18.8838 25.7613 17.8086 25.7613H17.6383C17.7448 25.9316 17.8406 26.1126 17.9364 26.3042C17.9789 26.4 17.9683 26.4319 17.8299 26.4639L17.138 26.6235C16.9889 26.6555 16.9677 26.6555 16.9251 26.5384C16.8293 26.2723 16.7228 26.0061 16.5951 25.7613ZM27.2402 19.3307V33H24.9854V22.0066L21.6453 23.1387V21.2768L26.9689 19.3307H27.2402ZM39.5891 33.3406H35.693C34.6498 33.3406 34.2985 33.3619 34.224 33.3619C34.1175 33.3619 34.1069 33.3513 34.1069 33.2448V32.4145C34.1069 32.3081 34.1175 32.2974 34.224 32.2974C34.2985 32.2974 34.6498 32.3187 35.693 32.3187H37.673C38.1094 30.9881 38.4288 29.7745 38.6417 28.6674C38.7269 28.3055 38.7588 27.9755 38.7801 27.6774C39.1633 27.7519 39.5359 27.8371 39.9511 27.9755C40.0575 28.0074 40.1001 28.05 40.1001 28.1245C40.1001 28.199 40.0469 28.2629 39.9936 28.3374C39.9298 28.4226 39.8765 28.5397 39.834 28.7632C39.5465 29.9874 39.1952 31.2116 38.8227 32.3187H39.5891C40.6323 32.3187 40.9943 32.2974 41.0582 32.2974C41.1646 32.2974 41.1752 32.3081 41.1752 32.4145V33.2448C41.1752 33.3513 41.1646 33.3619 41.0582 33.3619C40.9943 33.3619 40.6323 33.3406 39.5891 33.3406ZM32.4782 32.0952V29.6894C32.4782 29.3061 32.4782 28.8484 32.4888 28.4013C32.2865 28.6781 32.0843 28.9442 31.8607 29.1997C31.7756 29.2955 31.7223 29.3487 31.6691 29.3487C31.6159 29.3487 31.5733 29.2848 31.5414 29.1571C31.4456 28.7739 31.3391 28.4652 31.2007 28.2416C32.1056 27.241 32.7336 26.0913 33.1488 24.899C33.2659 24.569 33.3191 24.3242 33.3511 24.0687C33.7023 24.1645 34.0643 24.271 34.373 24.3987C34.4794 24.4413 34.5433 24.4732 34.5433 24.5477C34.5433 24.6329 34.5114 24.6755 34.4262 24.7394C34.3517 24.7926 34.2985 24.899 34.2027 25.1652C34.0217 25.6655 33.8088 26.1552 33.564 26.6342V32.0952C33.564 33.1384 33.5852 33.66 33.5852 33.7132C33.5852 33.8197 33.5746 33.8303 33.4788 33.8303H32.5633C32.4675 33.8303 32.4569 33.8197 32.4569 33.7132C32.4569 33.6494 32.4782 33.1384 32.4782 32.0952ZM39.3017 27.1345H35.9485C34.9265 27.1345 34.5752 27.1558 34.5114 27.1558C34.3943 27.1558 34.3836 27.1452 34.3836 27.0387V26.219C34.3836 26.1126 34.3943 26.1019 34.5114 26.1019C34.5752 26.1019 34.9265 26.1232 35.9485 26.1232H36.9491V25.3035C36.9491 24.8671 36.9385 24.5477 36.8746 24.2071C37.2898 24.2177 37.6943 24.2497 38.0349 24.2816C38.1414 24.2923 38.2159 24.3455 38.2159 24.42C38.2159 24.4945 38.1946 24.5477 38.1627 24.6223C38.0988 24.75 38.0775 24.8884 38.0775 25.261V26.1232H39.3017C40.3236 26.1232 40.6856 26.1019 40.7494 26.1019C40.8665 26.1019 40.8772 26.1126 40.8772 26.219V27.0387C40.8772 27.1452 40.8665 27.1558 40.7494 27.1558C40.6856 27.1558 40.3236 27.1345 39.3017 27.1345ZM35.0436 28.0287L35.8101 27.7732C35.9165 27.7413 35.9485 27.7306 35.9911 27.8477C36.4169 28.9868 36.6723 29.9448 36.9278 31.2968C36.9491 31.4032 36.9278 31.4245 36.8001 31.4777L36.0336 31.7758C35.8846 31.8397 35.8527 31.8397 35.8314 31.7119C35.5972 30.3387 35.3417 29.3168 34.9265 28.199C34.884 28.0926 34.9052 28.0713 35.0436 28.0287Z" fill="#663E2A"/>
<path d="M45.7285 45.4716L37.2874 43.5355L43.1848 37.1934L45.7285 45.4716Z" fill="#FBDF73"/>
<defs>
<clipPath id="clip0_44_8754">
<rect width="39" height="26" fill="white" transform="translate(6 18)"/>
</clipPath>
</defs>
</svg>
