<svg width="79" height="46" viewBox="0 0 79 46" fill="none" xmlns="http://www.w3.org/2000/svg">
<path d="M12.7679 20C13.5378 18.6667 15.4623 18.6667 16.2321 20L25.3253 35.75C26.0951 37.0833 25.1329 38.75 23.5933 38.75H5.40673C3.86713 38.75 2.90488 37.0833 3.67468 35.75L12.7679 20Z" fill="#333333"/>
<path d="M36.7679 20C37.5378 18.6667 39.4623 18.6667 40.2321 20L49.3253 35.75C50.0951 37.0833 49.1329 38.75 47.5933 38.75H29.4067C27.8671 38.75 26.9049 37.0833 27.6747 35.75L36.7679 20Z" fill="#333333"/>
<path d="M13.634 24.5C14.0189 23.8333 14.9811 23.8333 15.366 24.5L20.1292 32.75C20.5141 33.4167 20.0329 34.25 19.2631 34.25H9.73686C8.96706 34.25 8.48593 33.4167 8.87083 32.75L13.634 24.5Z" fill="#ECDCD0"/>
<path d="M37.634 24.5C38.0189 23.8333 38.9811 23.8333 39.366 24.5L44.1292 32.75C44.5141 33.4167 44.0329 34.25 43.2631 34.25H33.7369C32.9671 34.25 32.4859 33.4167 32.8708 32.75L37.634 24.5Z" fill="#ECDCD0"/>
<g clip-path="url(#clip0_76_899)">
<path d="M69.3566 3.25106C68.0833 0.321249 55.4962 3.22657 50.6024 21.3806C54.3585 15.2207 71.2579 7.61224 69.3566 3.25106Z" fill="#333333"/>
<path d="M75.3486 18.3385C76.7501 16.1112 68.3665 11.6235 56.2479 22.9671C61.6795 19.5449 72.1912 23.3546 75.3486 18.3385Z" fill="#333333"/>
</g>
<defs>
<clipPath id="clip0_76_899">
<rect width="27.072" height="20.304" fill="white" transform="translate(46 10.7905) rotate(-23.4898)"/>
</clipPath>
</defs>
</svg>
