<svg width="32" height="32" viewBox="0 0 32 32" fill="none" xmlns="http://www.w3.org/2000/svg">
<rect width="32" height="32" fill="#FFB063"/>
<g clip-path="url(#clip0_223_3)">
<path d="M13.8878 11.7915C15.158 12.2566 16.6833 11.2788 17.2949 9.60778C17.9062 7.93667 17.3721 6.20538 16.102 5.74055C14.8314 5.27608 13.3063 6.25355 12.6947 7.92462C12.0834 9.59573 12.6175 11.327 13.8878 11.7915Z" fill="#7C4328"/>
<path d="M9.06078 14.4569C10.3896 14.3417 11.344 12.8317 11.1929 11.0832C11.0416 9.33527 9.84163 8.01148 8.51281 8.12605C7.18411 8.24162 6.2298 9.75188 6.38098 11.5001C6.53237 13.2481 7.73212 14.5718 9.06078 14.4569Z" fill="#7C4328"/>
<path d="M19.4095 14.3973C20.5758 15.0828 22.2516 14.3943 23.1529 12.8603C24.0542 11.3253 23.8393 9.52656 22.6729 8.8411C21.5066 8.15624 19.8305 8.84501 18.9294 10.379C18.0281 11.9138 18.2433 13.7125 19.4095 14.3973Z" fill="#7C4328"/>
<path d="M25.6562 16.2158C24.9001 15.1172 23.1156 15.0323 21.67 16.0267C20.2242 17.0217 19.6655 18.7185 20.4214 19.8174C21.1774 20.9159 22.9621 21.0009 24.4076 20.0061C25.853 19.0114 26.412 17.3147 25.6562 16.2158Z" fill="#7C4328"/>
<path d="M17.8917 16.4225C17.7475 15.4246 17.1358 14.5144 16.158 14.0529C15.1804 13.5916 14.0888 13.6981 13.227 14.2208C12.2745 14.7989 11.6652 15.554 10.8448 15.8841C10.0245 16.2142 7.72685 15.2312 6.29631 17.8289C5.28597 19.6637 6.21345 21.9832 8.10753 22.877C9.54717 23.5563 10.6866 23.4805 11.5231 23.875C12.3594 24.2695 13.0252 25.1975 14.4647 25.8767C16.3588 26.7705 18.7388 26.0122 19.5128 24.0657C20.6088 21.3101 18.389 20.1614 18.1222 19.3183C17.8555 18.4754 18.0512 17.5249 17.8917 16.4225Z" fill="#7C4328"/>
</g>
<defs>
<clipPath id="clip0_223_3">
<rect width="20.625" height="20.625" fill="white" transform="translate(5.625 5.625)"/>
</clipPath>
</defs>
</svg>
