<svg width="111" height="116" viewBox="0 0 111 116" fill="none" xmlns="http://www.w3.org/2000/svg">
<g clip-path="url(#clip0_44_9537)">
<path d="M56.2695 94.0304C55.2173 96.0394 54.9173 100.377 56.6026 104.115C58.3068 107.855 61.3546 110.06 63.2859 109.091C65.2173 108.121 65.3641 103.613 67.1241 102.125C68.8841 100.637 72.4581 99.8919 73.5496 97.1973C74.6412 94.5026 67.8133 91.1402 64.2399 90.6967C60.6643 90.2722 57.9365 90.8258 56.2527 94.0094L56.2695 94.0304Z" fill="#D4CF9E"/>
<path d="M63.4697 81.2525C61.9692 81.4659 61.1213 83.3637 61.5543 85.4643C61.9872 87.5649 63.5596 89.0853 65.0623 88.853C66.5628 88.6396 67.4274 86.7628 66.9945 84.6622C66.5615 82.5616 64.9702 81.0391 63.4697 81.2525Z" fill="#D4CF9E"/>
<path d="M53.4885 94.8841C54.3214 93.1187 52.932 90.6605 50.3237 89.4828C47.7366 88.2884 44.9816 88.743 44.1699 90.4916C43.356 92.2591 44.7918 94.646 47.3622 95.8193C49.9536 96.9759 52.6389 96.6284 53.4907 94.8652L53.4885 94.8841Z" fill="#D4CF9E"/>
<path d="M49.8019 98.9916C47.69 98.8481 45.9243 100.048 45.9105 101.522C45.9178 102.98 47.5684 104.318 49.6846 104.423C51.7987 104.548 53.5369 103.422 53.5718 101.931C53.6066 100.439 51.897 99.1141 49.783 98.9895L49.8019 98.9916Z" fill="#D4CF9E"/>
<path d="M57.9445 83.4835C56.2265 81.218 53.5146 80.2779 51.8943 81.3788C50.274 82.4797 50.3647 85.2318 52.0659 87.4761C53.7882 89.7037 56.4136 90.7299 58.0318 89.6479C59.6499 88.5659 59.6182 85.8014 57.9467 83.4646L57.9445 83.4835Z" fill="#D4CF9E"/>
</g>
<g clip-path="url(#clip1_44_9537)">
<path d="M101.701 99.1789C100.649 101.188 100.349 105.525 102.034 109.263C103.738 113.004 106.786 115.209 108.717 114.239C110.649 113.269 110.795 108.761 112.555 107.273C114.316 105.786 117.889 105.04 118.981 102.346C120.073 99.651 113.245 96.2886 109.671 95.8452C106.096 95.4207 103.368 95.9742 101.684 99.1578L101.701 99.1789Z" fill="#D4CF9E"/>
<path d="M108.901 86.4019C107.401 86.6153 106.553 88.5132 106.986 90.6137C107.419 92.7143 108.991 94.2347 110.494 94.0024C111.994 93.789 112.859 91.9122 112.426 89.8116C111.993 87.7111 110.402 86.1886 108.901 86.4019Z" fill="#D4CF9E"/>
<path d="M98.9197 100.034C99.7525 98.2681 98.3631 95.8099 95.7549 94.6322C93.1677 93.4378 90.4128 93.8925 89.601 95.641C88.7871 97.4086 90.2229 99.7954 92.7933 100.969C95.3848 102.125 98.0701 101.778 98.9218 100.015L98.9197 100.034Z" fill="#D4CF9E"/>
<path d="M95.2331 104.141C93.1211 103.997 91.3554 105.197 91.3416 106.672C91.3489 108.13 92.9996 109.467 95.1158 109.573C97.2299 109.697 98.968 108.572 99.0029 107.08C99.0378 105.588 97.3282 104.263 95.2141 104.139L95.2331 104.141Z" fill="#D4CF9E"/>
<path d="M103.376 88.6319C101.658 86.3665 98.946 85.4264 97.3257 86.5273C95.7054 87.6282 95.7961 90.3802 97.4973 92.6246C99.2196 94.8521 101.845 95.8783 103.463 94.7964C105.081 93.7144 105.05 90.9499 103.378 88.613L103.376 88.6319Z" fill="#D4CF9E"/>
</g>
<g clip-path="url(#clip2_44_9537)">
<path d="M59.0973 52.1691C58.0452 54.1781 57.7452 58.5155 59.4305 62.2536C61.1347 65.9938 64.1825 68.199 66.1138 67.2292C68.0452 66.2595 68.192 61.7513 69.952 60.2636C71.712 58.7758 75.286 58.0306 76.3775 55.3359C77.4691 52.6412 70.6412 49.2789 67.0678 48.8354C63.4922 48.4109 60.7644 48.9645 59.0806 52.148L59.0973 52.1691Z" fill="#D4CF9E"/>
<path d="M66.2976 39.3921C64.7971 39.6055 63.9492 41.5034 64.3822 43.604C64.8151 45.7046 66.3875 47.2249 67.8901 46.9926C69.3906 46.7793 70.2553 44.9025 69.8224 42.8019C69.3894 40.7013 67.7981 39.1788 66.2976 39.3921Z" fill="#D4CF9E"/>
<path d="M56.3162 53.0238C57.149 51.2584 55.7596 48.8001 53.1514 47.6225C50.5642 46.4281 47.8093 46.8827 46.9975 48.6313C46.1836 50.3988 47.6194 52.7856 50.1898 53.959C52.7813 55.1155 55.4665 54.768 56.3183 53.0048L56.3162 53.0238Z" fill="#D4CF9E"/>
<path d="M52.6298 57.1312C50.5178 56.9877 48.7522 58.1872 48.7384 59.6619C48.7456 61.1199 50.3963 62.4574 52.5125 62.5631C54.6266 62.6877 56.3648 61.5618 56.3996 60.0703C56.4345 58.5787 54.7249 57.2537 52.6108 57.1291L52.6298 57.1312Z" fill="#D4CF9E"/>
<path d="M60.7724 41.6222C59.0544 39.3567 56.3425 38.4166 54.7222 39.5175C53.1019 40.6184 53.1926 43.3704 54.8938 45.6148C56.6161 47.8424 59.2415 48.8686 60.8597 47.7866C62.4778 46.7046 62.4461 43.9401 60.7745 41.6032L60.7724 41.6222Z" fill="#D4CF9E"/>
</g>
<g clip-path="url(#clip3_44_9537)">
<path d="M14.0951 43.2326C13.043 45.2415 12.743 49.579 14.4283 53.317C16.1325 57.0572 19.1803 59.2625 21.1116 58.2927C23.043 57.3229 23.1898 52.8147 24.9498 51.327C26.7098 49.8393 30.2838 49.0941 31.3753 46.3994C32.4669 43.7047 25.639 40.3423 22.0656 39.8989C18.49 39.4744 15.7622 40.028 14.0784 43.2115L14.0951 43.2326Z" fill="#D4CF9E"/>
<path d="M21.2956 30.4556C19.7951 30.669 18.9473 32.5669 19.3802 34.6675C19.8131 36.768 21.3855 38.2884 22.8882 38.0561C24.3887 37.8428 25.2533 35.9659 24.8204 33.8654C24.3875 31.7648 22.7962 30.2423 21.2956 30.4556Z" fill="#D4CF9E"/>
<path d="M11.3142 44.0872C12.147 42.3219 10.7577 39.8636 8.14942 38.686C5.56225 37.4915 2.80732 37.9462 1.99556 39.6948C1.18165 41.4623 2.61748 43.8491 5.18786 45.0224C7.77932 46.179 10.4646 45.8315 11.3164 44.0683L11.3142 44.0872Z" fill="#D4CF9E"/>
<path d="M7.62758 48.1947C5.51565 48.0512 3.74997 49.2506 3.73617 50.7254C3.74345 52.1834 5.3941 53.5209 7.51032 53.6266C9.6244 53.7512 11.3626 52.6253 11.3974 51.1337C11.4323 49.6422 9.72273 48.3172 7.60865 48.1926L7.62758 48.1947Z" fill="#D4CF9E"/>
<path d="M15.7702 32.6856C14.0522 30.4202 11.3403 29.4801 9.72003 30.581C8.09973 31.6819 8.19039 34.4339 9.89162 36.6783C11.6139 38.9059 14.2393 39.9321 15.8575 38.8501C17.4756 37.7681 17.4439 35.0036 15.7723 32.6667L15.7702 32.6856Z" fill="#D4CF9E"/>
</g>
<g clip-path="url(#clip4_44_9537)">
<path d="M19.4599 -4.09162C18.4077 -2.08269 18.1077 2.25475 19.793 5.99281C21.4972 9.73301 24.545 11.9383 26.4764 10.9685C28.4077 9.99872 28.5545 5.49053 30.3145 4.00282C32.0745 2.51511 35.6485 1.76987 36.7401 -0.924819C37.8316 -3.61951 31.0037 -6.98189 27.4303 -7.42532C23.8547 -7.84983 21.1269 -7.29627 19.4431 -4.1127L19.4599 -4.09162Z" fill="#D4CF9E"/>
<path d="M12.9923 0.86953C10.8804 0.725984 9.11471 1.92545 9.10092 3.40021C9.1082 4.85819 10.7588 6.19569 12.8751 6.30137C14.9891 6.42599 16.7273 5.30009 16.7622 3.80855C16.7971 2.31701 15.0875 0.992001 12.9734 0.867384L12.9923 0.86953Z" fill="#D4CF9E"/>
</g>
<defs>
<clipPath id="clip0_44_9537">
<rect width="30.1196" height="28.1383" fill="white" transform="translate(45.3438 79.1211) rotate(6.4675)"/>
</clipPath>
<clipPath id="clip1_44_9537">
<rect width="30.1196" height="28.1383" fill="white" transform="translate(90.7751 84.2705) rotate(6.4675)"/>
</clipPath>
<clipPath id="clip2_44_9537">
<rect width="30.1196" height="28.1383" fill="white" transform="translate(48.1716 37.2607) rotate(6.4675)"/>
</clipPath>
<clipPath id="clip3_44_9537">
<rect width="30.1196" height="28.1383" fill="white" transform="translate(3.16943 28.3242) rotate(6.4675)"/>
</clipPath>
<clipPath id="clip4_44_9537">
<rect width="30.1196" height="28.1383" fill="white" transform="translate(8.53418 -19) rotate(6.4675)"/>
</clipPath>
</defs>
</svg>
