<svg width="102" height="114" viewBox="0 0 102 114" fill="none" xmlns="http://www.w3.org/2000/svg">
<g clip-path="url(#clip0_198_180)">
<path d="M54.2886 95.2331C55.1751 96.9257 55.4279 100.58 54.008 103.73C52.5721 106.881 50.0042 108.739 48.3769 107.922C46.7496 107.105 46.626 103.307 45.1431 102.053C43.6602 100.8 40.6489 100.172 39.7292 97.9013C38.8095 95.6309 44.5624 92.7979 47.5731 92.4243C50.5858 92.0666 52.8841 92.533 54.3028 95.2153L54.2886 95.2331Z" fill="#E1D3D0"/>
<path d="M48.222 84.4674C49.4862 84.6472 50.2006 86.2462 49.8358 88.0161C49.4711 89.7859 48.1462 91.0669 46.8802 90.8712C45.6159 90.6914 44.8874 89.1101 45.2522 87.3403C45.617 85.5704 46.9577 84.2876 48.222 84.4674Z" fill="#E1D3D0"/>
<path d="M56.6318 95.9529C55.9301 94.4655 57.1007 92.3942 59.2983 91.402C61.4781 90.3957 63.7993 90.7787 64.4832 92.252C65.169 93.7412 63.9592 95.7522 61.7936 96.7408C59.6101 97.7153 57.3476 97.4225 56.63 95.9369L56.6318 95.9529Z" fill="#E1D3D0"/>
<path d="M59.7379 99.4131C61.5173 99.2922 63.005 100.303 63.0166 101.545C63.0104 102.774 61.6197 103.901 59.8367 103.99C58.0555 104.095 56.591 103.146 56.5616 101.889C56.5322 100.633 57.9726 99.5163 59.7538 99.4113L59.7379 99.4131Z" fill="#E1D3D0"/>
<path d="M52.8774 86.3468C54.325 84.438 56.6098 83.6459 57.975 84.5735C59.3402 85.5011 59.2638 87.8198 57.8304 89.7108C56.3793 91.5876 54.1673 92.4522 52.8039 91.5406C51.4405 90.629 51.4673 88.2998 52.8756 86.3308L52.8774 86.3468Z" fill="#E1D3D0"/>
</g>
<g clip-path="url(#clip1_198_180)">
<path d="M16.0103 99.5723C16.8968 101.265 17.1496 104.919 15.7296 108.069C14.2937 111.22 11.7258 113.078 10.0986 112.261C8.47129 111.444 8.34763 107.646 6.86473 106.392C5.38184 105.139 2.37059 104.511 1.45089 102.241C0.531187 99.9701 6.28403 97.1371 9.29483 96.7635C12.3074 96.4059 14.6057 96.8723 16.0245 99.5546L16.0103 99.5723Z" fill="#E1D3D0"/>
<path d="M9.94367 88.8066C11.2079 88.9864 11.9223 90.5855 11.5575 92.3553C11.1927 94.1252 9.86793 95.4062 8.60186 95.2104C7.33761 95.0307 6.60911 93.4494 6.97387 91.6795C7.33864 89.9097 8.67941 88.6269 9.94367 88.8066Z" fill="#E1D3D0"/>
<path d="M18.3535 100.292C17.6518 98.8047 18.8224 96.7335 21.02 95.7413C23.1998 94.7349 25.521 95.1179 26.2049 96.5912C26.8907 98.0804 25.6809 100.091 23.5152 101.08C21.3318 102.055 19.0693 101.762 18.3517 100.276L18.3535 100.292Z" fill="#E1D3D0"/>
<path d="M21.4596 103.752C23.239 103.631 24.7266 104.642 24.7383 105.885C24.7321 107.113 23.3414 108.24 21.5584 108.329C19.7771 108.434 18.3126 107.485 18.2833 106.229C18.2539 104.972 19.6943 103.856 21.4755 103.751L21.4596 103.752Z" fill="#E1D3D0"/>
<path d="M14.5991 90.686C16.0466 88.7773 18.3315 87.9851 19.6967 88.9127C21.0619 89.8403 20.9855 92.159 19.5521 94.05C18.101 95.9269 15.889 96.7915 14.5256 95.8799C13.1622 94.9682 13.1889 92.639 14.5973 90.6701L14.5991 90.686Z" fill="#E1D3D0"/>
</g>
<g clip-path="url(#clip2_198_180)">
<path d="M51.9058 59.9637C52.7923 61.6563 53.0451 65.3108 51.6251 68.4603C50.1893 71.6116 47.6214 73.4697 45.9941 72.6526C44.3668 71.8355 44.2431 68.0371 42.7602 66.7837C41.2773 65.5302 38.2661 64.9023 37.3464 62.6319C36.4267 60.3615 42.1795 57.5285 45.1903 57.1549C48.2029 56.7972 50.5013 57.2636 51.92 59.9459L51.9058 59.9637Z" fill="#E1D3D0"/>
<path d="M45.8392 49.1981C47.1034 49.3779 47.8178 50.9769 47.453 52.7468C47.0883 54.5167 45.7634 55.7976 44.4974 55.6019C43.2331 55.4222 42.5046 53.8408 42.8694 52.071C43.2341 50.3011 44.5749 49.0184 45.8392 49.1981Z" fill="#E1D3D0"/>
<path d="M54.249 60.6836C53.5473 59.1962 54.7179 57.125 56.9155 56.1327C59.0953 55.1264 61.4165 55.5094 62.1004 56.9827C62.7862 58.4719 61.5764 60.483 59.4107 61.4716C57.2273 62.446 54.9648 62.1532 54.2472 60.6676L54.249 60.6836Z" fill="#E1D3D0"/>
<path d="M57.3551 64.1438C59.1345 64.0229 60.6221 65.0335 60.6338 66.276C60.6276 67.5045 59.2369 68.6314 57.4539 68.7204C55.6726 68.8254 54.2081 67.8768 54.1788 66.6201C54.1494 65.3634 55.5898 64.247 57.371 64.142L57.3551 64.1438Z" fill="#E1D3D0"/>
<path d="M50.4946 51.0774C51.9421 49.1686 54.227 48.3765 55.5922 49.3041C56.9574 50.2317 56.881 52.5504 55.4476 54.4414C53.9965 56.3182 51.7845 57.1828 50.4211 56.2712C49.0577 55.3596 49.0845 53.0303 50.4928 51.0614L50.4946 51.0774Z" fill="#E1D3D0"/>
</g>
<g clip-path="url(#clip3_198_180)">
<path d="M89.8226 52.4348C90.7091 54.1274 90.9618 57.7819 89.5419 60.9314C88.106 64.0827 85.5381 65.9408 83.9108 65.1237C82.2835 64.3066 82.1599 60.5082 80.677 59.2547C79.1941 58.0013 76.1828 57.3734 75.2631 55.103C74.3434 52.8325 80.0963 49.9996 83.1071 49.626C86.1197 49.2683 88.418 49.7347 89.8367 52.417L89.8226 52.4348Z" fill="#E1D3D0"/>
<path d="M83.7559 41.6691C85.0202 41.8488 85.7345 43.4479 85.3698 45.2177C85.005 46.9876 83.6802 48.2686 82.4141 48.0729C81.1499 47.8931 80.4214 46.3118 80.7861 44.5419C81.1509 42.7721 82.4917 41.4893 83.7559 41.6691Z" fill="#E1D3D0"/>
<path d="M92.1657 53.1545C91.464 51.6671 92.6347 49.5959 94.8322 48.6037C97.012 47.5973 99.3332 47.9804 100.017 49.4536C100.703 50.9429 99.4932 52.9539 97.3275 53.9425C95.1441 54.917 92.8816 54.6242 92.1639 53.1386L92.1657 53.1545Z" fill="#E1D3D0"/>
<path d="M95.2721 56.6148C97.0515 56.4938 98.5391 57.5044 98.5508 58.747C98.5446 59.9754 97.1539 61.1023 95.3709 61.1914C93.5896 61.2964 92.1251 60.3477 92.0958 59.091C92.0664 57.8343 93.5068 56.718 95.288 56.613L95.2721 56.6148Z" fill="#E1D3D0"/>
<path d="M88.4114 43.5483C89.8589 41.6396 92.1438 40.8475 93.509 41.775C94.8741 42.7026 94.7977 45.0213 93.3644 46.9123C91.9133 48.7892 89.7012 49.6538 88.3378 48.7422C86.9745 47.8305 87.0012 45.5013 88.4096 43.5324L88.4114 43.5483Z" fill="#E1D3D0"/>
</g>
<g clip-path="url(#clip4_198_180)">
<path d="M85.3026 12.5615C86.1891 14.2541 86.4418 17.9086 85.0219 21.0581C83.586 24.2094 81.0181 26.0675 79.3908 25.2504C77.7635 24.4333 77.6399 20.6349 76.157 19.3814C74.6741 18.128 71.6628 17.5001 70.7431 15.2297C69.8234 12.9593 75.5763 10.1263 78.5871 9.75266C81.5997 9.395 83.898 9.8614 85.3167 12.5437L85.3026 12.5615Z" fill="#E1D3D0"/>
<path d="M79.2359 1.7959C80.5002 1.97567 81.2145 3.57473 80.8498 5.34458C80.485 7.11443 79.1602 8.39542 77.8941 8.1997C76.6298 8.01993 75.9013 6.43863 76.2661 4.66877C76.6309 2.89892 77.9716 1.61613 79.2359 1.7959Z" fill="#E1D3D0"/>
<path d="M87.6457 13.2812C86.944 11.7938 88.1146 9.72261 90.3122 8.7304C92.492 7.72404 94.8132 8.10708 95.4971 9.58035C96.1829 11.0696 94.9731 13.0806 92.8075 14.0692C90.624 15.0437 88.3616 14.7509 87.6439 13.2653L87.6457 13.2812Z" fill="#E1D3D0"/>
<path d="M90.7518 16.7415C92.5312 16.6205 94.0189 17.6311 94.0305 18.8737C94.0244 20.1021 92.6336 21.229 90.8506 21.3181C89.0694 21.4231 87.6049 20.4744 87.5755 19.2177C87.5461 17.961 88.9865 16.8447 90.7677 16.7397L90.7518 16.7415Z" fill="#E1D3D0"/>
<path d="M83.8914 3.67514C85.3389 1.76639 87.6238 0.974283 88.9889 1.90186C90.3541 2.82943 90.2777 5.14815 88.8444 7.03914C87.3932 8.91599 85.1812 9.78061 83.8178 8.86899C82.4544 7.95736 82.4812 5.62812 83.8896 3.65919L83.8914 3.67514Z" fill="#E1D3D0"/>
</g>
<defs>
<clipPath id="clip0_198_180">
<rect width="25.3773" height="23.708" fill="white" transform="matrix(-0.993636 0.11264 0.11264 0.993636 63.4941 82.6716)"/>
</clipPath>
<clipPath id="clip1_198_180">
<rect width="25.3773" height="23.708" fill="white" transform="matrix(-0.993636 0.11264 0.11264 0.993636 25.2158 87.0107)"/>
</clipPath>
<clipPath id="clip2_198_180">
<rect width="25.3773" height="23.708" fill="white" transform="matrix(-0.993636 0.11264 0.11264 0.993636 61.1113 47.4022)"/>
</clipPath>
<clipPath id="clip3_198_180">
<rect width="25.3773" height="23.708" fill="white" transform="matrix(-0.993636 0.11264 0.11264 0.993636 99.0281 39.8732)"/>
</clipPath>
<clipPath id="clip4_198_180">
<rect width="25.3773" height="23.708" fill="white" transform="matrix(-0.993636 0.11264 0.11264 0.993636 94.5081 0)"/>
</clipPath>
</defs>
</svg>
