<svg width="121" height="135" viewBox="0 0 121 135" fill="none" xmlns="http://www.w3.org/2000/svg">
<g clip-path="url(#clip0_44_9506)">
<path d="M56.2696 113.03C55.2174 115.039 54.9174 119.377 56.6027 123.115C58.3069 126.855 61.3547 129.06 63.2861 128.091C65.2174 127.121 65.3642 122.613 67.1242 121.125C68.8842 119.637 72.4582 118.892 73.5498 116.197C74.6413 113.503 67.8134 110.14 64.24 109.697C60.6644 109.272 57.9366 109.826 56.2528 113.009L56.2696 113.03Z" fill="#D4CF9E"/>
<path d="M63.4698 100.252C61.9693 100.466 61.1215 102.364 61.5544 104.464C61.9873 106.565 63.5597 108.085 65.0624 107.853C66.5629 107.64 67.4275 105.763 66.9946 103.662C66.5617 101.562 64.9703 100.039 63.4698 100.252Z" fill="#D4CF9E"/>
<path d="M53.4884 113.884C54.3212 112.119 52.9319 109.66 50.3236 108.483C47.7364 107.288 44.9815 107.743 44.1698 109.492C43.3558 111.259 44.7917 113.646 47.3621 114.819C49.9535 115.976 52.6388 115.628 53.4905 113.865L53.4884 113.884Z" fill="#D4CF9E"/>
<path d="M49.8018 117.992C47.6898 117.848 45.9242 119.048 45.9104 120.522C45.9176 121.98 47.5683 123.318 49.6845 123.423C51.7986 123.548 53.5368 122.422 53.5716 120.931C53.6065 119.439 51.8969 118.114 49.7828 117.989L49.8018 117.992Z" fill="#D4CF9E"/>
<path d="M57.9444 102.483C56.2264 100.218 53.5145 99.2779 51.8942 100.379C50.2739 101.48 50.3646 104.232 52.0658 106.476C53.7881 108.704 56.4135 109.73 58.0317 108.648C59.6498 107.566 59.6181 104.801 57.9465 102.465L57.9444 102.483Z" fill="#D4CF9E"/>
</g>
<g clip-path="url(#clip1_44_9506)">
<path d="M101.701 118.179C100.649 120.188 100.349 124.525 102.034 128.263C103.738 132.004 106.786 134.209 108.717 133.239C110.649 132.269 110.795 127.761 112.555 126.273C114.316 124.786 117.889 124.04 118.981 121.346C120.073 118.651 113.245 115.289 109.671 114.845C106.096 114.421 103.368 114.974 101.684 118.158L101.701 118.179Z" fill="#D4CF9E"/>
<path d="M108.901 105.402C107.401 105.615 106.553 107.513 106.986 109.614C107.419 111.714 108.991 113.235 110.494 113.002C111.994 112.789 112.859 110.912 112.426 108.812C111.993 106.711 110.402 105.189 108.901 105.402Z" fill="#D4CF9E"/>
<path d="M98.9198 119.034C99.7526 117.268 98.3633 114.81 95.755 113.632C93.1678 112.438 90.4129 112.892 89.6011 114.641C88.7872 116.409 90.2231 118.795 92.7935 119.969C95.3849 121.125 98.0702 120.778 98.9219 119.015L98.9198 119.034Z" fill="#D4CF9E"/>
<path d="M95.2332 123.141C93.1212 122.997 91.3556 124.197 91.3418 125.672C91.349 127.13 92.9997 128.467 95.1159 128.573C97.23 128.697 98.9682 127.572 99.003 126.08C99.0379 124.588 97.3283 123.263 95.2142 123.139L95.2332 123.141Z" fill="#D4CF9E"/>
<path d="M103.376 107.632C101.658 105.366 98.9459 104.426 97.3256 105.527C95.7053 106.628 95.796 109.38 97.4972 111.625C99.2195 113.852 101.845 114.878 103.463 113.796C105.081 112.714 105.049 109.95 103.378 107.613L103.376 107.632Z" fill="#D4CF9E"/>
</g>
<g clip-path="url(#clip2_44_9506)">
<path d="M59.0975 71.1691C58.0453 73.1781 57.7453 77.5155 59.4306 81.2536C61.1348 84.9938 64.1826 87.199 66.1139 86.2292C68.0453 85.2595 68.1921 80.7513 69.9521 79.2636C71.7121 77.7758 75.2861 77.0306 76.3776 74.3359C77.4692 71.6412 70.6413 68.2789 67.0679 67.8354C63.4923 67.4109 60.7645 67.9645 59.0807 71.148L59.0975 71.1691Z" fill="#D4CF9E"/>
<path d="M66.2978 58.3921C64.7973 58.6055 63.9495 60.5034 64.3824 62.604C64.8153 64.7046 66.3877 66.2249 67.8904 65.9926C69.3909 65.7793 70.2555 63.9025 69.8226 61.8019C69.3897 59.7013 67.7983 58.1788 66.2978 58.3921Z" fill="#D4CF9E"/>
<path d="M56.3164 72.0238C57.1492 70.2584 55.7599 67.8001 53.1516 66.6225C50.5644 65.4281 47.8095 65.8827 46.9978 67.6313C46.1839 69.3988 47.6197 71.7856 50.1901 72.959C52.7815 74.1155 55.4668 73.768 56.3186 72.0048L56.3164 72.0238Z" fill="#D4CF9E"/>
<path d="M52.6298 76.1312C50.5178 75.9877 48.7522 77.1872 48.7384 78.6619C48.7456 80.1199 50.3963 81.4574 52.5125 81.5631C54.6266 81.6877 56.3648 80.5618 56.3996 79.0703C56.4345 77.5787 54.7249 76.2537 52.6108 76.1291L52.6298 76.1312Z" fill="#D4CF9E"/>
<path d="M60.7724 60.6222C59.0544 58.3567 56.3425 57.4166 54.7222 58.5175C53.1019 59.6184 53.1926 62.3704 54.8938 64.6148C56.6161 66.8424 59.2415 67.8686 60.8597 66.7866C62.4778 65.7046 62.4461 62.9401 60.7745 60.6032L60.7724 60.6222Z" fill="#D4CF9E"/>
</g>
<g clip-path="url(#clip3_44_9506)">
<path d="M14.0953 62.2326C13.0431 64.2415 12.7431 68.579 14.4284 72.317C16.1326 76.0572 19.1804 78.2625 21.1118 77.2927C23.0431 76.3229 23.1899 71.8147 24.9499 70.327C26.7099 68.8393 30.2839 68.0941 31.3754 65.3994C32.467 62.7047 25.6391 59.3423 22.0657 58.8989C18.4901 58.4744 15.7623 59.028 14.0785 62.2115L14.0953 62.2326Z" fill="#D4CF9E"/>
<path d="M21.2955 49.4556C19.795 49.669 18.9472 51.5669 19.3801 53.6675C19.813 55.768 21.3854 57.2884 22.8881 57.0561C24.3886 56.8428 25.2532 54.9659 24.8203 52.8654C24.3874 50.7648 22.796 49.2423 21.2955 49.4556Z" fill="#D4CF9E"/>
<path d="M11.3141 63.0872C12.1469 61.3219 10.7575 58.8636 8.14929 57.686C5.56213 56.4915 2.80719 56.9462 1.99544 58.6948C1.18153 60.4623 2.61736 62.8491 5.18774 64.0224C7.7792 65.179 10.4645 64.8315 11.3162 63.0683L11.3141 63.0872Z" fill="#D4CF9E"/>
<path d="M7.62746 67.1947C5.51553 67.0512 3.74985 68.2506 3.73605 69.7254C3.74333 71.1834 5.39397 72.5209 7.5102 72.6266C9.62428 72.7512 11.3624 71.6253 11.3973 70.1337C11.4322 68.6422 9.72261 67.3172 7.60853 67.1926L7.62746 67.1947Z" fill="#D4CF9E"/>
<path d="M15.7702 51.6856C14.0522 49.4202 11.3403 48.4801 9.72003 49.581C8.09973 50.6819 8.19039 53.4339 9.89162 55.6783C11.6139 57.9059 14.2393 58.9321 15.8575 57.8501C17.4756 56.7681 17.4439 54.0036 15.7723 51.6667L15.7702 51.6856Z" fill="#D4CF9E"/>
</g>
<g clip-path="url(#clip4_44_9506)">
<path d="M19.46 14.9084C18.4078 16.9173 18.1079 21.2548 19.7931 24.9928C21.4974 28.733 24.5451 30.9383 26.4765 29.9685C28.4079 28.9987 28.5546 24.4905 30.3146 23.0028C32.0747 21.5151 35.6486 20.7699 36.7402 18.0752C37.8318 15.3805 31.0039 12.0181 27.4304 11.5747C23.8549 11.1502 21.1271 11.7037 19.4432 14.8873L19.46 14.9084Z" fill="#D4CF9E"/>
<path d="M26.6603 2.1314C25.1598 2.34476 24.3119 4.24265 24.7448 6.34324C25.1778 8.44383 26.7502 9.96419 28.2528 9.7319C29.7533 9.51854 30.618 7.64173 30.185 5.54114C29.7521 3.44055 28.1608 1.91804 26.6603 2.1314Z" fill="#D4CF9E"/>
<path d="M16.6788 15.763C17.5117 13.9976 16.1223 11.5394 13.514 10.3617C10.9269 9.16733 8.17194 9.62194 7.36018 11.3705C6.54628 13.1381 7.9821 15.5249 10.5525 16.6982C13.1439 17.8548 15.8292 17.5073 16.681 15.7441L16.6788 15.763Z" fill="#D4CF9E"/>
<path d="M12.9922 19.8695C10.8803 19.726 9.11459 20.9255 9.1008 22.4002C9.10808 23.8582 10.7587 25.1957 12.8749 25.3014C14.989 25.426 16.7272 24.3001 16.7621 22.8086C16.7969 21.317 15.0874 19.992 12.9733 19.8674L12.9922 19.8695Z" fill="#D4CF9E"/>
<path d="M21.1349 4.36239C19.4169 2.09695 16.7051 1.15682 15.0848 2.25774C13.4645 3.35865 13.5551 6.11067 15.2564 8.35504C16.9787 10.5826 19.6041 11.6088 21.2222 10.5268C22.8404 9.44484 22.8086 6.68033 21.1371 4.34346L21.1349 4.36239Z" fill="#D4CF9E"/>
</g>
<defs>
<clipPath id="clip0_44_9506">
<rect width="30.1196" height="28.1383" fill="white" transform="translate(45.3438 98.1211) rotate(6.4675)"/>
</clipPath>
<clipPath id="clip1_44_9506">
<rect width="30.1196" height="28.1383" fill="white" transform="translate(90.7751 103.271) rotate(6.4675)"/>
</clipPath>
<clipPath id="clip2_44_9506">
<rect width="30.1196" height="28.1383" fill="white" transform="translate(48.1718 56.2607) rotate(6.4675)"/>
</clipPath>
<clipPath id="clip3_44_9506">
<rect width="30.1196" height="28.1383" fill="white" transform="translate(3.16943 47.3242) rotate(6.4675)"/>
</clipPath>
<clipPath id="clip4_44_9506">
<rect width="30.1196" height="28.1383" fill="white" transform="translate(8.53418) rotate(6.4675)"/>
</clipPath>
</defs>
</svg>
