<svg width="183" height="150" viewBox="0 0 183 150" fill="none" xmlns="http://www.w3.org/2000/svg">
<path d="M99.8173 15.9297L161.422 60.6882L137.891 133.109H61.7435L38.2126 60.6882L99.8173 15.9297Z" fill="white"/>
<path d="M95.5698 19.0146L38.2125 60.6871L61.7435 133.108H137.891L161.422 60.6871L104.065 19.0146" stroke="#DFCBC2" stroke-width="0.530944"/>
<path d="M98.8183 14.4405V19.7432H97.9435V15.4785L96.6478 15.9177V15.1954L98.713 14.4405H98.8183ZM103.728 16.6581V17.5219C103.728 17.9357 103.686 18.2889 103.604 18.5817C103.524 18.8721 103.408 19.108 103.256 19.2895C103.103 19.471 102.921 19.604 102.708 19.6887C102.497 19.7734 102.261 19.8158 102 19.8158C101.792 19.8158 101.598 19.7891 101.419 19.7359C101.243 19.6827 101.083 19.5992 100.94 19.4855C100.797 19.3717 100.675 19.2254 100.573 19.0463C100.474 18.8648 100.397 18.6483 100.341 18.3966C100.288 18.145 100.261 17.8534 100.261 17.5219V16.6581C100.261 16.2419 100.302 15.8911 100.385 15.6055C100.467 15.3176 100.584 15.0841 100.737 14.905C100.889 14.7236 101.071 14.5917 101.281 14.5094C101.494 14.4272 101.731 14.386 101.993 14.386C102.203 14.386 102.397 14.4126 102.573 14.4659C102.752 14.5167 102.912 14.5977 103.052 14.7091C103.195 14.8204 103.316 14.9655 103.415 15.1446C103.517 15.3212 103.594 15.5354 103.648 15.787C103.701 16.0362 103.728 16.3266 103.728 16.6581ZM102.853 17.6453V16.5274C102.853 16.3169 102.841 16.1318 102.817 15.9721C102.792 15.81 102.756 15.6733 102.708 15.562C102.662 15.4483 102.604 15.3563 102.533 15.2861C102.463 15.2136 102.383 15.1615 102.294 15.1301C102.204 15.0962 102.104 15.0793 101.993 15.0793C101.857 15.0793 101.736 15.1059 101.63 15.1591C101.523 15.2099 101.434 15.2922 101.361 15.4059C101.288 15.5196 101.233 15.6697 101.194 15.856C101.158 16.0399 101.14 16.2637 101.14 16.5274V17.6453C101.14 17.8582 101.152 18.0458 101.176 18.2079C101.2 18.37 101.236 18.5091 101.285 18.6253C101.333 18.739 101.391 18.8334 101.459 18.9084C101.529 18.981 101.609 19.0342 101.699 19.0681C101.791 19.102 101.891 19.1189 102 19.1189C102.138 19.1189 102.26 19.0923 102.366 19.039C102.473 18.9858 102.562 18.9011 102.635 18.785C102.708 18.6664 102.762 18.5128 102.798 18.324C102.835 18.1353 102.853 17.9091 102.853 17.6453Z" fill="#97634A"/>
<path d="M101.936 31.0454C101.936 31.3745 101.859 31.6515 101.707 31.8766C101.555 32.1016 101.346 32.2722 101.083 32.3883C100.821 32.5021 100.526 32.5589 100.197 32.5589C99.868 32.5589 99.5716 32.5021 99.3079 32.3883C99.0441 32.2722 98.836 32.1016 98.6836 31.8766C98.5312 31.6515 98.455 31.3745 98.455 31.0454C98.455 30.8276 98.4973 30.6304 98.582 30.4538C98.6667 30.2748 98.7864 30.1211 98.9413 29.9929C99.0986 29.8622 99.2825 29.7618 99.493 29.6916C99.7059 29.6214 99.9382 29.5864 100.19 29.5864C100.524 29.5864 100.823 29.6481 101.086 29.7715C101.35 29.8949 101.557 30.0655 101.707 30.2832C101.859 30.501 101.936 30.7551 101.936 31.0454ZM101.057 31.0019C101.057 30.8252 101.021 30.6704 100.948 30.5373C100.876 30.4042 100.774 30.3014 100.644 30.2288C100.513 30.1562 100.362 30.1199 100.19 30.1199C100.016 30.1199 99.8644 30.1562 99.7362 30.2288C99.6079 30.3014 99.5075 30.4042 99.4349 30.5373C99.3647 30.6704 99.3297 30.8252 99.3297 31.0019C99.3297 31.1809 99.3647 31.3358 99.4349 31.4664C99.5051 31.5947 99.6055 31.6927 99.7362 31.7604C99.8668 31.8282 100.02 31.8621 100.197 31.8621C100.374 31.8621 100.526 31.8282 100.654 31.7604C100.783 31.6927 100.882 31.5947 100.952 31.4664C101.022 31.3358 101.057 31.1809 101.057 31.0019ZM101.816 28.5919C101.816 28.8556 101.746 29.0903 101.605 29.296C101.467 29.5017 101.276 29.6638 101.032 29.7824C100.788 29.8985 100.509 29.9566 100.197 29.9566C99.8826 29.9566 99.6019 29.8985 99.3551 29.7824C99.1107 29.6638 98.9183 29.5017 98.778 29.296C98.6401 29.0903 98.5711 28.8556 98.5711 28.5919C98.5711 28.2773 98.6401 28.0124 98.778 27.797C98.9183 27.5792 99.1107 27.4135 99.3551 27.2998C99.5995 27.1861 99.8789 27.1292 100.193 27.1292C100.508 27.1292 100.788 27.1861 101.032 27.2998C101.276 27.4135 101.467 27.5792 101.605 27.797C101.746 28.0124 101.816 28.2773 101.816 28.5919ZM100.941 28.6209C100.941 28.4636 100.91 28.3257 100.847 28.2072C100.786 28.0862 100.7 27.9918 100.589 27.9241C100.478 27.8563 100.346 27.8224 100.193 27.8224C100.041 27.8224 99.9092 27.8551 99.7979 27.9204C99.6866 27.9858 99.6007 28.0777 99.5402 28.1963C99.4797 28.3148 99.4494 28.4564 99.4494 28.6209C99.4494 28.783 99.4797 28.9246 99.5402 29.0456C99.6007 29.1641 99.6866 29.2573 99.7979 29.325C99.9116 29.3928 100.045 29.4267 100.197 29.4267C100.35 29.4267 100.481 29.3928 100.593 29.325C100.704 29.2573 100.79 29.1641 100.85 29.0456C100.911 28.9246 100.941 28.783 100.941 28.6209Z" fill="#97634A"/>
<path d="M101.123 40.9738H101.232V41.6888H101.17C100.858 41.6888 100.588 41.7372 100.36 41.834C100.135 41.9308 99.9503 42.0639 99.8051 42.2332C99.6599 42.4026 99.5511 42.601 99.4785 42.8285C99.4083 43.0535 99.3732 43.2931 99.3732 43.5471V44.3783C99.3732 44.5888 99.3962 44.7751 99.4422 44.9372C99.4881 45.0969 99.5523 45.2312 99.6345 45.3401C99.7192 45.4466 99.816 45.5276 99.9249 45.5833C100.034 45.6389 100.151 45.6667 100.277 45.6667C100.408 45.6667 100.526 45.6401 100.633 45.5869C100.739 45.5312 100.83 45.455 100.905 45.3582C100.98 45.2614 101.037 45.1465 101.075 45.0134C101.114 44.8804 101.134 44.7352 101.134 44.5779C101.134 44.4279 101.114 44.2875 101.075 44.1569C101.039 44.0238 100.985 43.9076 100.912 43.8084C100.84 43.7068 100.749 43.6282 100.64 43.5725C100.533 43.5145 100.41 43.4854 100.27 43.4854C100.095 43.4854 99.937 43.5265 99.7942 43.6088C99.6539 43.6911 99.5402 43.7988 99.4531 43.9318C99.3684 44.0625 99.3224 44.2016 99.3151 44.3492L98.9812 44.2404C99.0006 44.0153 99.0502 43.8133 99.13 43.6342C99.2123 43.4552 99.32 43.3027 99.4531 43.1769C99.5861 43.0511 99.7398 42.9555 99.914 42.8902C100.091 42.8224 100.284 42.7886 100.495 42.7886C100.751 42.7886 100.974 42.8369 101.163 42.9337C101.351 43.0305 101.507 43.1624 101.631 43.3293C101.757 43.4939 101.85 43.6826 101.91 43.8955C101.973 44.1061 102.005 44.3262 102.005 44.5561C102.005 44.8102 101.966 45.0473 101.888 45.2675C101.811 45.4853 101.697 45.6764 101.547 45.841C101.4 46.0055 101.219 46.1337 101.006 46.2257C100.796 46.3176 100.556 46.3636 100.288 46.3636C100.005 46.3636 99.7519 46.3092 99.5293 46.2003C99.3091 46.0914 99.1216 45.9414 98.9667 45.7502C98.8143 45.5591 98.6981 45.3389 98.6183 45.0897C98.5384 44.8404 98.4985 44.5767 98.4985 44.2984V43.9355C98.4985 43.5338 98.5493 43.1551 98.6509 42.7994C98.7526 42.4413 98.9086 42.1256 99.1192 41.8521C99.3321 41.5787 99.6043 41.3646 99.9358 41.2097C100.267 41.0524 100.663 40.9738 101.123 40.9738Z" fill="#97634A"/>
<path d="M102.121 56.087V56.7839H98.3098L98.2807 56.2576L100.56 52.6862H101.261L100.502 53.9855L99.1917 56.087H102.121ZM101.46 52.6862V57.9707H100.585V52.6862H101.46Z" fill="#97634A"/>
<path d="M102.023 71.0785V71.7754H98.4804V71.1765L100.201 69.3001C100.389 69.0871 100.538 68.9032 100.647 68.7484C100.756 68.5935 100.832 68.4544 100.876 68.331C100.922 68.2052 100.945 68.083 100.945 67.9644C100.945 67.7975 100.913 67.6511 100.85 67.5253C100.79 67.397 100.7 67.2966 100.582 67.224C100.463 67.149 100.319 67.1115 100.15 67.1115C99.9539 67.1115 99.7894 67.1538 99.6563 67.2385C99.5232 67.3232 99.4228 67.4406 99.3551 67.5906C99.2873 67.7382 99.2534 67.9076 99.2534 68.0987H98.3787C98.3787 67.7914 98.4489 67.5107 98.5892 67.2567C98.7296 67.0002 98.9328 66.7969 99.199 66.6469C99.4652 66.4945 99.7858 66.4183 100.161 66.4183C100.514 66.4183 100.814 66.4775 101.061 66.5961C101.308 66.7147 101.495 66.8828 101.624 67.1006C101.754 67.3184 101.819 67.5761 101.819 67.8737C101.819 68.0382 101.793 68.2015 101.74 68.3637C101.686 68.5258 101.61 68.6879 101.511 68.85C101.414 69.0097 101.299 69.1706 101.166 69.3327C101.033 69.4924 100.887 69.6546 100.727 69.8191L99.5837 71.0785H102.023Z" fill="#97634A"/>
<path d="M96.1007 32.0479L50.3055 65.32L69.0146 122.9H129.558L148.267 65.32L102.472 32.0479" stroke="#DFCBC2" stroke-width="0.530944"/>
<path d="M96.1006 44.7905L62.4244 69.2577L76.5044 112.591H122.068L136.148 69.2577L102.472 44.7905" stroke="#DFCBC2" stroke-width="0.530944"/>
<path d="M96.1006 57.8647L74.5693 73.1953L84.2132 102.282H115.421L125.065 73.1953L103.534 57.8647" stroke="#DFCBC2" stroke-width="0.530944"/>
<path d="M96.0138 70.7251L87.6982 76.7667L92.3273 91.0134H107.307L111.936 76.7667L103.621 70.7251" stroke="#DFCBC2" stroke-width="0.530944"/>
<path d="M77.6005 7.42599H76.0969C75.3153 7.42599 75.052 7.44298 75.001 7.44298C74.916 7.44298 74.9075 7.43448 74.9075 7.34953V6.72089C74.9075 6.63594 74.916 6.62745 75.001 6.62745C75.052 6.62745 75.3153 6.64444 76.0969 6.64444H78.0847V6.3556C78.0847 5.97332 78.0762 5.79493 78.0252 5.45512C78.3311 5.46362 78.6454 5.4891 78.9342 5.51459C79.0192 5.52308 79.0701 5.57405 79.0701 5.61653C79.0701 5.68449 79.0362 5.74396 79.0107 5.82041C78.9682 5.92235 78.9597 6.10075 78.9597 6.34711V6.64444H81.0495C81.8225 6.64444 82.0859 6.62745 82.1369 6.62745C82.2303 6.62745 82.2388 6.63594 82.2388 6.72089V7.34953C82.2388 7.43448 82.2303 7.44298 82.1369 7.44298C82.0859 7.44298 81.8225 7.42599 81.0495 7.42599H79.4099C80.1405 8.33496 81.3298 9.01457 82.5871 9.42233C82.4257 9.57525 82.2898 9.77063 82.1878 9.9915C82.1199 10.1444 82.0859 10.2039 82.0179 10.2039C81.967 10.2039 81.9075 10.1699 81.8056 10.1274C80.6672 9.62622 79.6053 8.87865 78.9342 7.94419C78.9512 9.42233 78.9767 10.3483 78.9767 10.5607C78.9767 10.6456 78.9682 10.6541 78.8832 10.6541H78.1527C78.0677 10.6541 78.0592 10.6456 78.0592 10.5607C78.0592 10.3568 78.0932 9.42233 78.1017 7.96967C77.4306 8.87865 76.4452 9.60923 75.3663 10.1359C75.2728 10.1869 75.2134 10.2124 75.1709 10.2124C75.1029 10.2124 75.0689 10.1444 74.9925 10C74.8821 9.78762 74.7546 9.60923 74.6017 9.4733C75.808 9.03156 76.9124 8.28399 77.6005 7.42599ZM75.893 3.26339L76.4367 3.068C76.5386 3.02553 76.5386 3.02553 76.5981 3.10198C76.8444 3.4248 77.0143 3.71363 77.1927 4.08741C77.2267 4.15537 77.2182 4.18935 77.1078 4.23183L76.5726 4.43571H79.8007C79.9791 4.12139 80.1405 3.79008 80.3019 3.40781C80.3444 3.29737 80.3869 3.16145 80.4209 2.95756C80.7182 3.01703 81.0325 3.11897 81.2704 3.21242C81.3468 3.2464 81.3893 3.28038 81.3893 3.33135C81.3893 3.38232 81.3723 3.40781 81.3128 3.45878C81.2619 3.50975 81.2024 3.56072 81.1599 3.63717C81.007 3.92601 80.8541 4.18086 80.6927 4.43571H80.8626C81.6696 4.43571 81.95 4.41872 82.0094 4.41872C82.0944 4.41872 82.1029 4.42722 82.1029 4.52066C82.1029 4.57163 82.0859 4.70755 82.0859 4.91993V5.25974C82.0859 5.97332 82.1029 6.10075 82.1029 6.15172C82.1029 6.23667 82.0944 6.24517 82.0094 6.24517H81.3043C81.2194 6.24517 81.2109 6.23667 81.2109 6.15172V5.21726H75.9864V6.14323C75.9864 6.23667 75.9779 6.24517 75.893 6.24517H75.1879C75.1029 6.24517 75.0944 6.23667 75.0944 6.14323C75.0944 6.09226 75.1114 5.96483 75.1114 5.25974V4.98789C75.1114 4.70755 75.0944 4.57163 75.0944 4.52066C75.0944 4.42722 75.1029 4.41872 75.1879 4.41872C75.2473 4.41872 75.5362 4.43571 76.3347 4.43571H76.3772C76.1818 3.97698 76.0374 3.71363 75.8335 3.39931C75.7825 3.32285 75.791 3.29737 75.893 3.26339ZM77.8978 3.10198L78.4245 2.92358C78.5265 2.8896 78.5434 2.8981 78.5944 2.97456C78.8493 3.34834 78.9852 3.62868 79.1381 4.01096C79.1721 4.09591 79.1721 4.1129 79.0616 4.15537L78.4925 4.36775C78.365 4.41023 78.3566 4.41023 78.3226 4.32528C78.1782 3.91751 78.0083 3.53523 77.8214 3.2379C77.7704 3.15295 77.7789 3.14446 77.8978 3.10198ZM85.1186 6.16871H84.541C83.7679 6.16871 83.5131 6.1857 83.4621 6.1857C83.3772 6.1857 83.3687 6.17721 83.3687 6.09226V5.61653C83.3687 5.53158 83.3772 5.52308 83.4621 5.52308C83.5131 5.52308 83.7679 5.54007 84.541 5.54007H86.5883V5.15779H85.4585C84.6259 5.15779 84.3371 5.17479 84.2861 5.17479C84.2012 5.17479 84.1927 5.16629 84.1927 5.08134V4.65658C84.1927 4.58013 84.2012 4.57163 84.2861 4.57163C84.3371 4.57163 84.6259 4.58862 85.4585 4.58862H86.5883V4.18935H85.0167C84.2012 4.18935 83.9293 4.20634 83.8784 4.20634C83.7934 4.20634 83.7849 4.19785 83.7849 4.1129V3.65416C83.7849 3.56921 83.7934 3.56072 83.8784 3.56072C83.9293 3.56072 84.2012 3.57771 85.0167 3.57771H85.45C85.365 3.45028 85.2631 3.30586 85.1441 3.16145C85.0847 3.08499 85.0762 3.068 85.1951 3.03402L85.7388 2.88111C85.8322 2.85562 85.8492 2.83863 85.9002 2.91509C86.0786 3.11897 86.2485 3.33984 86.3929 3.57771H87.6672C87.7351 3.45878 87.8116 3.33984 87.888 3.18693C87.9475 3.0765 87.99 2.96606 88.0325 2.81315C88.3043 2.86412 88.5592 2.92358 88.814 3.00854C88.8735 3.02553 88.9244 3.05101 88.9244 3.10198C88.9244 3.16145 88.8735 3.19543 88.831 3.22091C88.7715 3.26339 88.7121 3.32285 88.6696 3.39931C88.6271 3.45878 88.5931 3.51824 88.5592 3.57771H89.1453C89.9609 3.57771 90.2327 3.56072 90.2837 3.56072C90.3686 3.56072 90.3771 3.56921 90.3771 3.65416V4.1129C90.3771 4.19785 90.3686 4.20634 90.2837 4.20634C90.2327 4.20634 89.9609 4.18935 89.1453 4.18935H87.4548V4.58862H88.6866C89.5106 4.58862 89.7994 4.57163 89.8504 4.57163C89.9439 4.57163 89.9524 4.58013 89.9524 4.65658V5.08134C89.9524 5.16629 89.9439 5.17479 89.8504 5.17479C89.7994 5.17479 89.5106 5.15779 88.6866 5.15779H87.4548V5.54007H89.6126C90.3856 5.54007 90.6405 5.52308 90.6914 5.52308C90.7764 5.52308 90.7849 5.53158 90.7849 5.61653V6.09226C90.7849 6.17721 90.7764 6.1857 90.6914 6.1857C90.6405 6.1857 90.3856 6.16871 89.6126 6.16871H88.9584C89.4766 6.75487 90.1732 7.15414 91.1502 7.42599C91.0057 7.58739 90.9038 7.7488 90.8189 7.95268C90.7594 8.10559 90.7339 8.17355 90.6659 8.17355C90.6235 8.17355 90.564 8.14807 90.4706 8.10559C89.9863 7.90171 89.5616 7.64686 89.1878 7.35802V8.16506C89.1878 8.58981 89.2048 8.7852 89.2048 8.83617C89.2048 8.86166 89.2048 8.87015 89.1963 8.89564L89.2982 8.81069C89.3917 8.71724 89.5021 8.6068 89.5786 8.47938C89.7994 8.58132 90.0118 8.70875 90.1902 8.82768C90.2327 8.86166 90.2752 8.88714 90.2752 8.92962C90.2752 8.98059 90.2412 9.00607 90.1732 9.03156C90.1053 9.05704 90.0628 9.08253 89.9269 9.19297C89.723 9.35437 89.4766 9.53277 89.2133 9.69418C89.6635 9.80461 90.1817 9.87257 90.7764 9.90655C90.6659 10.0255 90.564 10.2294 90.496 10.4332C90.4111 10.6796 90.3856 10.6796 90.1223 10.6456C89.0009 10.5012 88.0749 10.2209 87.3189 9.60073C87.3019 9.67719 87.2934 9.76214 87.2849 9.8301C87.2594 10.1104 87.2594 10.1104 87.0046 10.1529C86.1975 10.3143 85.3225 10.4502 84.4051 10.5437C84.2606 10.5607 84.1672 10.5862 84.1247 10.6116C84.0907 10.6286 84.0483 10.6541 83.9973 10.6541C83.9548 10.6541 83.9208 10.6201 83.8954 10.5352C83.8444 10.3908 83.7679 10.0934 83.7085 9.8301C84.0483 9.8301 84.2946 9.81311 84.6174 9.78762L84.8723 9.76214V7.46846C84.5325 7.7403 84.1672 7.96967 83.7679 8.16506C83.666 8.21603 83.6065 8.24151 83.564 8.24151C83.5046 8.24151 83.4706 8.18205 83.4111 8.04613C83.3347 7.86773 83.2073 7.68933 83.0798 7.5704C83.9633 7.18812 84.6514 6.7039 85.1186 6.16871ZM85.6029 6.78036H86.6308V6.76337C86.6308 6.64444 86.6223 6.46604 86.5883 6.30463L87.3698 6.33012C87.4548 6.33861 87.5143 6.37259 87.5143 6.41507C87.5143 6.44905 87.4888 6.48303 87.4548 6.534C87.4208 6.59347 87.4208 6.67842 87.4208 6.76337V6.78036H88.5507C88.3723 6.58497 88.2024 6.38109 88.058 6.16871H86.1041C85.9427 6.38109 85.7813 6.59347 85.6029 6.78036ZM88.4232 8.39443V8.08011H85.6878V8.39443H88.4232ZM85.6878 8.90413V9.67719C86.1635 9.61772 86.6563 9.54126 87.149 9.44782C86.9706 9.28641 86.8092 9.10801 86.6478 8.90413H85.6878ZM88.4232 7.29006H85.6878V7.58739H88.4232V7.29006ZM89.1708 8.92112H89.1113C89.0604 8.92112 88.7206 8.90413 88.007 8.90413H87.5907C87.8286 9.11651 88.1089 9.29491 88.4232 9.43932C88.7121 9.26093 88.9669 9.08253 89.1708 8.92112ZM91.7108 8.64078C92.6028 7.85074 93.2145 6.8823 93.5543 6.10925C93.7836 5.59104 93.9111 5.15779 93.9366 4.85197C94.3698 5.00488 94.7521 5.15779 94.9899 5.28522C95.0664 5.3192 95.0919 5.37017 95.0919 5.42114C95.0919 5.48061 95.0579 5.54007 95.0069 5.59104C94.9135 5.68449 94.8455 5.80342 94.7096 6.10925C94.2084 7.23909 93.7072 8.10559 92.8917 8.9636C92.8152 9.04855 92.7387 9.09102 92.6538 9.09102C92.5858 9.09102 92.5264 9.06554 92.4584 9.00607C92.2885 8.87015 92.0167 8.73423 91.7108 8.64078ZM96.0518 5.41265C96.3577 5.20877 96.587 5.04736 96.7314 4.95391C96.7739 4.91993 96.8164 4.90294 96.8504 4.90294C96.8929 4.90294 96.9268 4.91993 96.9778 4.9709C97.9038 5.89687 98.6174 7.00123 99.1101 8.0886C99.1356 8.13108 99.1441 8.16506 99.1441 8.20753C99.1441 8.25851 99.1186 8.30098 99.0591 8.34346C98.8977 8.47088 98.6258 8.64928 98.354 8.7937C98.2436 8.84467 98.1841 8.82768 98.1501 8.71724C97.5215 7.29856 96.8929 6.30463 96.0518 5.41265ZM97.2751 4.24882L97.7254 3.9345C97.7678 3.90052 97.8018 3.90902 97.8528 3.95149C98.1161 4.15537 98.422 4.49518 98.6598 4.86047C98.6938 4.91144 98.6938 4.95391 98.6343 4.99639L98.2776 5.25974C98.2181 5.30221 98.1756 5.29372 98.1331 5.23425C97.8783 4.84348 97.6064 4.52066 97.2751 4.24882ZM98.0567 3.68814L98.4814 3.38232C98.5324 3.34834 98.5579 3.35683 98.6089 3.39931C98.9232 3.63717 99.229 3.97698 99.4159 4.2743C99.4499 4.32528 99.4584 4.37625 99.3904 4.42722L99.0506 4.69056C98.9826 4.74154 98.9402 4.71605 98.9062 4.66508C98.6768 4.29979 98.405 3.97698 98.0567 3.68814ZM104.938 4.44421H103.256C102.873 4.44421 102.449 4.4527 102.092 4.47819C102.007 4.47819 101.981 4.42722 101.973 4.29129C101.947 4.1129 101.93 3.73911 101.93 3.47577C102.449 3.52674 102.703 3.53523 103.324 3.53523H104.853C105.405 3.53523 105.855 3.50975 106.186 3.49276C106.263 3.49276 106.288 3.53523 106.288 3.62868C106.305 3.84106 106.305 4.07892 106.288 4.29129C106.288 4.43571 106.263 4.46969 106.136 4.4612C105.855 4.4612 105.456 4.44421 104.938 4.44421ZM105.583 6.26216L102.687 6.27065C102.262 6.27065 101.837 6.27915 101.412 6.30463C101.336 6.30463 101.302 6.25366 101.285 6.14323C101.234 5.93085 101.217 5.61653 101.191 5.28522C101.676 5.33619 102.194 5.35318 102.754 5.35318H105.668C105.813 5.35318 105.983 5.33619 106.119 5.25974C106.161 5.22576 106.195 5.20877 106.229 5.20877C106.271 5.20877 106.314 5.23425 106.356 5.26823C106.56 5.42964 106.79 5.64202 106.926 5.79493C106.985 5.85439 107.011 5.91386 107.011 5.97332C107.011 6.02429 106.985 6.08376 106.917 6.13473C106.781 6.24517 106.722 6.33861 106.628 6.534C105.779 8.34346 104.802 9.40534 103.162 10.2888C103.094 10.3228 103.043 10.3483 102.992 10.3483C102.933 10.3483 102.873 10.3143 102.805 10.2464C102.576 10.0425 102.304 9.91505 102.015 9.80461C103.587 9.07403 104.972 7.90171 105.583 6.26216ZM109.466 4.70755C109.652 4.47819 109.899 4.21484 110.06 4.04494C110.094 4.00246 110.137 3.97698 110.179 3.97698C110.213 3.97698 110.247 3.99397 110.29 4.01945C110.723 4.24882 111.428 4.76702 111.912 5.22576C111.963 5.27673 111.989 5.31071 111.989 5.34469C111.989 5.37867 111.972 5.41265 111.938 5.45512C111.81 5.62503 111.53 5.96483 111.411 6.09226C111.368 6.13473 111.343 6.16022 111.309 6.16022C111.275 6.16022 111.241 6.13473 111.199 6.09226C110.689 5.56556 110.077 5.08134 109.466 4.70755ZM109.652 8.94661C110.086 8.82768 110.349 8.75122 110.799 8.52185C111.836 7.98666 112.388 7.62987 113.246 6.94177C114.282 6.10075 114.851 5.55706 115.574 4.6311C115.625 5.05585 115.701 5.34469 115.811 5.62503C115.837 5.68449 115.854 5.73546 115.854 5.78643C115.854 5.86289 115.811 5.93085 115.718 6.04128C115.268 6.56798 114.537 7.24759 113.764 7.84225C113.059 8.39443 112.345 8.87015 111.199 9.50728C110.816 9.73665 110.706 9.8216 110.629 9.89806C110.578 9.94903 110.527 9.98301 110.477 9.98301C110.434 9.98301 110.383 9.94903 110.332 9.88956C110.12 9.6517 109.856 9.3034 109.652 8.94661ZM119.762 4.09591H122.098C122.404 4.09591 122.557 4.08741 122.684 4.01945C122.718 3.99397 122.743 3.98547 122.777 3.98547C122.828 3.98547 122.871 4.01945 122.922 4.05343C123.117 4.20634 123.313 4.42722 123.474 4.64809C123.499 4.69056 123.516 4.72454 123.516 4.75853C123.516 4.8095 123.482 4.86896 123.406 4.92843C123.296 5.02187 123.185 5.1493 123.092 5.30221C122.743 5.89687 122.412 6.37259 122.004 6.89079C122.82 7.49395 123.576 8.15656 124.357 8.94661C124.4 8.98908 124.425 9.03156 124.425 9.06554C124.425 9.09952 124.408 9.142 124.366 9.19297C124.205 9.38835 124.009 9.59224 123.797 9.77063C123.763 9.80461 123.729 9.8216 123.695 9.8216C123.652 9.8216 123.618 9.79612 123.576 9.75364C122.862 8.92112 122.132 8.25001 121.367 7.64686C120.407 8.64928 119.439 9.37136 118.513 9.88956C118.436 9.92354 118.377 9.95752 118.317 9.95752C118.267 9.95752 118.216 9.93204 118.173 9.88107C117.986 9.6517 117.74 9.4818 117.459 9.32889C118.785 8.65777 119.575 8.05462 120.45 7.16264C121.061 6.52551 121.529 5.92235 122.047 5.03037L119.855 5.03886C119.413 5.03886 118.972 5.05585 118.513 5.08983C118.445 5.09833 118.419 5.03886 118.402 4.94542C118.36 4.76702 118.326 4.35926 118.326 4.06193C118.785 4.09591 119.209 4.09591 119.762 4.09591Z" fill="#97634A"/>
<path d="M168.743 58.4321H171.088C171.895 58.4321 172.166 58.4152 172.226 58.4152C172.311 58.4152 172.319 58.4236 172.319 58.5086C172.319 58.5681 172.302 58.7889 172.302 59.2986V60.5304C172.302 61.0401 172.319 61.261 172.319 61.312C172.319 61.4054 172.311 61.4139 172.226 61.4139C172.166 61.4139 171.895 61.3969 171.088 61.3969H168.743C167.944 61.3969 167.664 61.4139 167.613 61.4139C167.528 61.4139 167.52 61.4054 167.52 61.312C167.52 61.261 167.537 61.0401 167.537 60.5304V59.2986C167.537 58.7889 167.52 58.5681 167.52 58.5086C167.52 58.4236 167.528 58.4152 167.613 58.4152C167.664 58.4152 167.944 58.4321 168.743 58.4321ZM168.412 59.2477V60.5814H171.427V59.2477H168.412ZM171.003 65.8654H170.34C170.264 65.8654 170.255 65.8569 170.255 65.7719C170.255 65.7124 170.272 65.4746 170.272 64.1748V63.3848C170.272 62.5778 170.255 62.3314 170.255 62.2804C170.255 62.187 170.264 62.1785 170.34 62.1785C170.399 62.1785 170.62 62.1955 171.274 62.1955H172.447C173.101 62.1955 173.322 62.1785 173.373 62.1785C173.458 62.1785 173.466 62.187 173.466 62.2804C173.466 62.3314 173.449 62.5778 173.449 63.2574V64.1663C173.449 65.4406 173.466 65.6785 173.466 65.7294C173.466 65.8229 173.458 65.8314 173.373 65.8314H172.702C172.617 65.8314 172.608 65.8229 172.608 65.7294V65.3556H171.096V65.7719C171.096 65.8569 171.088 65.8654 171.003 65.8654ZM171.096 62.994V64.5656H172.608V62.994H171.096ZM167.12 65.8654H166.449C166.364 65.8654 166.356 65.8569 166.356 65.7634C166.356 65.7124 166.373 65.4746 166.373 64.1748V63.3848C166.373 62.5693 166.356 62.3314 166.356 62.2719C166.356 62.187 166.364 62.1785 166.449 62.1785C166.509 62.1785 166.721 62.1955 167.35 62.1955H168.463C169.1 62.1955 169.312 62.1785 169.372 62.1785C169.457 62.1785 169.465 62.187 169.465 62.2719C169.465 62.3229 169.448 62.5693 169.448 63.2404V64.1324C169.448 65.4066 169.465 65.653 169.465 65.7039C169.465 65.7889 169.457 65.7974 169.372 65.7974H168.709C168.632 65.7974 168.624 65.7889 168.624 65.7039V65.3556H167.214V65.7634C167.214 65.8569 167.205 65.8654 167.12 65.8654ZM167.214 62.994V64.5656H168.624V62.994H167.214ZM177.442 60.9637H178.657C178.614 60.9467 178.58 60.9212 178.529 60.8702C178.376 60.7343 178.189 60.6324 178.003 60.5474C178.512 60.1057 178.648 59.7489 178.648 59.0863C178.648 58.7804 178.648 58.5171 178.614 58.3387C178.912 58.3727 179.124 58.4152 179.379 58.4746C179.914 58.4321 180.5 58.3387 180.899 58.2453C181.044 58.2028 181.171 58.1603 181.299 58.1008C181.477 58.2537 181.588 58.3897 181.749 58.5936C181.791 58.6445 181.825 58.6955 181.825 58.755C181.825 58.7974 181.8 58.8399 181.723 58.8399C181.63 58.8399 181.528 58.8314 181.384 58.8569C180.823 58.9758 180.22 59.0438 179.438 59.0948V59.3836C179.438 59.4176 179.43 59.4516 179.43 59.4855H180.933C181.757 59.4855 182.046 59.4685 182.097 59.4685C182.174 59.4685 182.182 59.477 182.182 59.5705V60.0547C182.182 60.1397 182.174 60.1482 182.097 60.1482C182.046 60.1482 181.757 60.1312 180.933 60.1312H180.899V60.5389C180.899 60.7258 180.899 60.8617 180.908 60.9552C181.018 60.9552 181.086 60.9467 181.112 60.9467C181.197 60.9467 181.205 60.9552 181.205 61.0401C181.205 61.0996 181.188 61.346 181.188 61.9066V63.5972C181.188 64.1578 181.205 64.4042 181.205 64.4552C181.205 64.5486 181.197 64.5571 181.112 64.5571C181.052 64.5571 180.755 64.5401 179.931 64.5401H179.787C180.466 64.9139 181.282 65.1178 182.242 65.2112C182.123 65.3641 182.012 65.5425 181.927 65.7209C181.851 65.8823 181.817 65.9418 181.732 65.9418C181.689 65.9418 181.63 65.9333 181.537 65.9163C180.679 65.7634 179.787 65.4576 179.158 65.0668C179.073 65.0158 179.081 65.0073 179.183 64.9394L179.676 64.5401H177.034C177.213 64.6421 177.382 64.7355 177.544 64.8629C177.629 64.9224 177.654 64.9564 177.654 64.9904C177.654 65.0498 177.62 65.0923 177.527 65.1093C177.433 65.1348 177.34 65.1857 177.196 65.2537C176.728 65.4916 176.049 65.7549 175.267 65.8993C175.182 65.9163 175.123 65.9248 175.08 65.9248C174.987 65.9248 174.961 65.8823 174.876 65.7124C174.8 65.551 174.689 65.3896 174.545 65.2282C175.31 65.1433 176.117 64.9479 176.609 64.7185C176.711 64.6675 176.805 64.6166 176.907 64.5401C176.083 64.5401 175.794 64.5571 175.743 64.5571C175.649 64.5571 175.641 64.5486 175.641 64.4552C175.641 64.4042 175.658 64.1578 175.658 63.5972V61.9066C175.658 61.346 175.641 61.0996 175.641 61.0401C175.641 60.9552 175.649 60.9467 175.743 60.9467C175.785 60.9467 176.023 60.9637 176.618 60.9637C176.618 60.8702 176.626 60.7343 176.626 60.5474V60.1312H175.87C175.785 60.5134 175.624 60.8872 175.335 61.2695C175.259 61.3799 175.225 61.4394 175.174 61.4394C175.131 61.4394 175.08 61.3884 174.987 61.295C174.817 61.1251 174.647 60.9977 174.46 60.8957C175.046 60.386 175.157 59.7744 175.157 59.0438C175.157 58.7804 175.148 58.5426 175.114 58.3557C175.395 58.3897 175.632 58.4236 175.879 58.4746C176.422 58.4321 176.907 58.3472 177.306 58.2453C177.45 58.2198 177.595 58.1688 177.705 58.1008C177.884 58.2453 178.003 58.3897 178.164 58.5936C178.206 58.6445 178.249 58.6955 178.249 58.755C178.249 58.7974 178.206 58.8484 178.122 58.8484C178.045 58.8484 177.943 58.8399 177.799 58.8739C177.221 58.9928 176.711 59.0523 175.947 59.1033V59.4855H177.162C177.901 59.4855 178.138 59.4685 178.189 59.4685C178.274 59.4685 178.283 59.477 178.283 59.5705V60.0547C178.283 60.1397 178.274 60.1482 178.189 60.1482C178.147 60.1482 177.943 60.1397 177.433 60.1312V60.5474C177.433 60.7343 177.433 60.8702 177.442 60.9637ZM180.33 63.92V63.4867H176.507V63.92H180.33ZM176.507 62.943H180.33V62.5353H176.507V62.943ZM180.33 61.5923H176.507V61.9916H180.33V61.5923ZM180.092 60.1312H179.311C179.226 60.369 179.098 60.6069 178.912 60.8193C178.852 60.8957 178.801 60.9467 178.759 60.9637H180.084C180.084 60.8702 180.092 60.7343 180.092 60.5389V60.1312Z" fill="#97634A"/>
<path d="M6.98428 64.676V62.6032C6.98428 62.0086 6.98428 61.7452 6.92482 61.329C7.23913 61.3375 7.46001 61.3545 7.74884 61.3884C7.83379 61.3969 7.88476 61.4394 7.88476 61.4904C7.88476 61.5498 7.85928 61.5923 7.83379 61.6348C7.79132 61.7282 7.78282 61.8896 7.78282 62.5947V64.5996C7.78282 65.3387 7.79981 65.7124 7.79981 65.7634C7.79981 65.8484 7.79132 65.8569 7.69787 65.8569H7.07773C6.99278 65.8569 6.98428 65.8484 6.98428 65.7634V65.4321H3.8411V65.7889C3.8411 65.8738 3.8326 65.8823 3.74765 65.8823H3.12751C3.03406 65.8823 3.02557 65.8738 3.02557 65.7889C3.02557 65.7379 3.04256 65.3811 3.04256 64.6421V62.5947C3.04256 61.9661 3.03406 61.7028 2.9746 61.312C3.29741 61.3205 3.52678 61.3375 3.81561 61.3714C3.90056 61.3799 3.95153 61.4224 3.95153 61.4649C3.95153 61.5329 3.91755 61.5923 3.89207 61.6433C3.84959 61.7452 3.8411 61.9236 3.8411 62.5778V64.676H6.98428ZM1.45397 64.3277V59.4091C1.45397 58.8059 1.44548 58.5341 1.38601 58.1263C1.70883 58.1348 1.98067 58.1518 2.26101 58.1858C2.34596 58.1943 2.39693 58.2283 2.39693 58.2707C2.39693 58.3302 2.37994 58.3812 2.35445 58.4406C2.31198 58.5511 2.29499 58.7635 2.29499 59.3836V64.3192C2.29499 65.2792 2.31198 65.7634 2.31198 65.8059C2.31198 65.8993 2.30348 65.9078 2.21853 65.9078H1.53043C1.44548 65.9078 1.43698 65.8993 1.43698 65.8059C1.43698 65.7634 1.45397 65.2792 1.45397 64.3277ZM6.73792 63.8265L6.34715 64.1748C6.30467 64.2173 6.27069 64.2343 6.24521 64.2343C6.21972 64.2343 6.20273 64.2173 6.17725 64.1833C5.98186 63.92 5.77798 63.6566 5.5656 63.4103C5.31075 63.7671 5.01342 64.0984 4.71609 64.3532C4.63114 64.4297 4.58017 64.4807 4.5292 64.4807C4.47823 64.4807 4.43575 64.4297 4.34231 64.3362C4.20639 64.1833 4.07046 64.0814 3.91755 63.9964C4.39328 63.6311 4.75007 63.2404 5.03041 62.8326C4.74158 62.5438 4.44425 62.2804 4.15541 62.0426C4.08745 61.9916 4.07896 61.9661 4.1809 61.8812L4.51221 61.5923C4.58017 61.5244 4.61415 61.5329 4.68211 61.5753C4.93696 61.7622 5.17483 61.9576 5.41269 62.17C5.47215 62.0511 5.52313 61.9236 5.5741 61.7962C5.67604 61.5583 5.75249 61.312 5.80346 61.0401C6.03283 61.1081 6.34715 61.2185 6.51705 61.2865C6.6105 61.3205 6.64448 61.3714 6.64448 61.4309C6.64448 61.4819 6.602 61.5413 6.53404 61.5923C6.45759 61.6688 6.40662 61.7792 6.33865 61.9576C6.24521 62.2125 6.12628 62.4758 5.98186 62.7392C6.2622 63.0365 6.52555 63.3423 6.76341 63.6481C6.81438 63.7161 6.82288 63.7416 6.73792 63.8265ZM6.13477 60.5899C6.54254 59.8593 6.7719 59.3581 6.98428 58.7465C7.01826 58.6275 7.06074 58.4661 7.08622 58.2537C7.37506 58.3387 7.65539 58.4321 7.90175 58.5426C7.96122 58.5766 7.9952 58.602 7.9952 58.6615C7.9952 58.721 7.94423 58.7719 7.90175 58.8229C7.84229 58.8824 7.79132 58.9928 7.75734 59.0693C7.55345 59.5705 7.2986 60.1142 7.00127 60.6664C6.93331 60.7938 6.89084 60.8448 6.83137 60.8448C6.7804 60.8448 6.72093 60.8108 6.62749 60.7598C6.46608 60.6833 6.31317 60.6324 6.13477 60.5899ZM3.12751 58.738L3.63721 58.5681C3.73066 58.5341 3.75615 58.5341 3.80712 58.619C4.11294 59.1118 4.33381 59.613 4.56318 60.2586C4.58866 60.352 4.58017 60.369 4.46973 60.4115L3.94304 60.5899C3.8326 60.6239 3.80712 60.6239 3.77314 60.5389C3.57775 59.9018 3.34838 59.3751 3.05955 58.8824C3.01707 58.8059 3.02557 58.7719 3.12751 58.738ZM4.69061 58.3132L5.19182 58.1773C5.29376 58.1433 5.33623 58.1518 5.37871 58.2368C5.65055 58.755 5.85443 59.2647 6.04133 59.8848C6.06681 59.9698 6.05832 59.9867 5.93089 60.0292L5.40419 60.1906C5.29376 60.2246 5.27677 60.2331 5.25128 60.1312C5.08138 59.477 4.89449 59.0183 4.61415 58.4576C4.57167 58.3727 4.58017 58.3472 4.69061 58.3132ZM0.714901 59.8848L1.11417 59.9698C1.21611 59.9952 1.2331 60.0122 1.22461 60.1057C1.19912 60.8023 1.11417 61.4649 0.944268 61.9916C0.918783 62.0765 0.901793 62.068 0.808347 62.0256L0.392087 61.8557C0.290146 61.8132 0.281651 61.7707 0.307136 61.6858C0.451553 61.227 0.544999 60.6239 0.578979 59.9443C0.578979 59.8593 0.595969 59.8593 0.714901 59.8848ZM2.51586 59.8168L2.83018 59.7234C2.91513 59.6979 2.94062 59.6979 2.9746 59.7744C3.11052 60.1057 3.23794 60.5134 3.30591 60.9297C3.3229 61.0231 3.3229 61.0486 3.21246 61.0826L2.85566 61.2015C2.74523 61.2355 2.71974 61.2355 2.70275 61.1421C2.63479 60.7513 2.55834 60.2841 2.43091 59.9528C2.39693 59.8678 2.40542 59.8508 2.51586 59.8168ZM14.2646 62.0511C14.3495 61.6603 14.409 61.3375 14.443 60.9552C14.46 60.7683 14.46 60.6069 14.4345 60.3775C14.8762 60.488 15.216 60.6154 15.4199 60.7428C15.4964 60.7853 15.5388 60.8957 15.4794 60.9722C15.4284 61.0826 15.3689 61.1761 15.3435 61.3035C15.2755 61.6603 15.1905 62.0341 15.1056 62.3994C15.5898 62.6457 16.1165 62.977 16.4308 63.2149C16.5158 63.2659 16.5073 63.3083 16.4818 63.3933C16.3968 63.5972 16.2185 63.954 16.1165 64.1239C16.091 64.1663 16.0655 64.1833 16.0401 64.1833C16.0061 64.1833 15.9721 64.1578 15.9381 64.1239C15.5643 63.801 15.2245 63.5547 14.8253 63.3253C14.392 64.3023 13.9333 64.9224 13.1092 65.5595C13.0328 65.619 12.9903 65.653 12.9393 65.653C12.9054 65.653 12.8714 65.636 12.8119 65.5935C12.5826 65.4066 12.3702 65.3217 12.0728 65.2452C13.1347 64.5061 13.6529 63.801 13.9757 62.943C13.5085 62.7052 12.9054 62.5183 12.2937 62.4248C11.8435 63.3593 11.5971 63.7841 11.2573 64.1239C10.943 64.4552 10.6032 64.5911 10.1699 64.5911C9.67723 64.5911 9.15903 64.2513 9.15903 63.4273C9.15903 62.3739 10.2464 61.5498 11.6651 61.5498C11.9454 60.8448 12.1578 60.2501 12.3702 59.5365C11.9029 59.5875 11.4782 59.6384 11.1978 59.6724C11.0789 59.6894 10.9515 59.7149 10.8156 59.7659C10.7731 59.7829 10.7136 59.7999 10.6627 59.7999C10.5947 59.7999 10.5522 59.7659 10.5267 59.7064C10.4503 59.5365 10.3653 59.2052 10.2804 58.7804C10.5352 58.8314 10.7731 58.8399 11.0279 58.8314C11.4357 58.8314 11.8605 58.7889 12.3447 58.721C12.5571 58.687 12.6505 58.6445 12.7609 58.5766C12.7949 58.5511 12.8374 58.5426 12.8714 58.5426C12.9139 58.5426 12.9563 58.5511 12.9903 58.5766C13.2027 58.704 13.4066 58.8739 13.568 59.0438C13.619 59.0948 13.6444 59.1372 13.6444 59.1882C13.6444 59.2392 13.6105 59.2817 13.5595 59.3326C13.4321 59.4516 13.3981 59.613 13.3301 59.7744C13.1092 60.352 12.8714 61.0147 12.6165 61.6263C13.1517 61.6943 13.6529 61.8217 14.2646 62.0511ZM11.3678 62.3569C10.5013 62.3909 9.95757 62.8411 9.95757 63.3253C9.95757 63.5972 10.051 63.7161 10.2549 63.7161C10.4163 63.7161 10.5777 63.6057 10.7476 63.3933C10.943 63.1469 11.1469 62.8071 11.3678 62.3569ZM17.8325 61.4394L18.2573 61.0486C18.2913 61.0147 18.3167 61.0062 18.3422 61.0062C18.3677 61.0062 18.3932 61.0147 18.4187 61.0486C18.7585 61.3884 19.0983 61.7367 19.4211 62.0935C19.5655 61.6433 19.676 61.0741 19.7269 60.3181H18.5631C17.8325 60.3181 17.5862 60.335 17.5352 60.335C17.4502 60.335 17.4417 60.3266 17.4417 60.2331V59.596C17.4417 59.511 17.4502 59.5025 17.5352 59.5025C17.5862 59.5025 17.8325 59.5195 18.5631 59.5195H18.9963V58.9758C18.9963 58.602 18.9794 58.3812 18.9284 58.1518C19.2427 58.1603 19.5145 58.1688 19.8289 58.2113C19.9138 58.2113 19.9648 58.2453 19.9648 58.2962C19.9648 58.3557 19.9393 58.3982 19.9138 58.4661C19.8883 58.5341 19.8713 58.6445 19.8713 58.9758V59.5195H20.1177C20.8568 59.5195 21.1031 59.5025 21.1541 59.5025C21.2391 59.5025 21.2475 59.511 21.2475 59.596V60.2331C21.2475 60.3266 21.2391 60.335 21.1541 60.335C21.1116 60.335 20.9672 60.3266 20.6104 60.3181C20.5255 61.3545 20.3386 62.1615 20.0752 62.8326C20.4235 63.2659 20.7548 63.7161 21.0692 64.1918C21.1201 64.2598 21.1286 64.2853 21.0437 64.3702L20.5425 64.829C20.5085 64.8629 20.4745 64.8884 20.449 64.8884C20.4235 64.8884 20.4065 64.8629 20.3726 64.812C20.1517 64.4212 19.9138 64.0474 19.659 63.6821C19.2597 64.3702 18.6565 65.0498 18.1214 65.5256C18.0364 65.602 17.9854 65.6445 17.943 65.6445C17.892 65.6445 17.8495 65.585 17.7731 65.4661C17.6541 65.2622 17.4927 65.1008 17.3143 64.9649C18.0789 64.3702 18.5461 63.8775 19.0643 62.9091C18.699 62.4588 18.2828 62.0256 17.824 61.5923C17.7561 61.5413 17.7561 61.5159 17.8325 61.4394ZM24.2123 60.8108V63.1384C24.2123 63.7331 24.2293 64.3787 24.2293 64.8544C24.2293 65.2877 24.1784 65.4746 23.966 65.653C23.7876 65.7889 23.4393 65.8399 22.6153 65.8399C22.3604 65.8399 22.3604 65.8484 22.3009 65.585C22.233 65.3217 22.1565 65.1178 22.0461 64.9479C22.3774 64.9734 22.7597 64.9819 23.0145 64.9734C23.2609 64.9734 23.3288 64.9054 23.3288 64.7015V60.8108H22.5133C21.7997 60.8108 21.5619 60.8278 21.5109 60.8278C21.4259 60.8278 21.4175 60.8193 21.4175 60.7343V60.0462C21.4175 59.9613 21.4259 59.9528 21.5109 59.9528C21.5619 59.9528 21.7997 59.9698 22.5133 59.9698H23.3288V59.3666C23.3288 58.8229 23.3204 58.5511 23.2779 58.1688C23.5837 58.1773 23.898 58.1943 24.1784 58.2198C24.2633 58.2283 24.3143 58.2707 24.3143 58.3132C24.3143 58.3897 24.2888 58.4321 24.2633 58.4916C24.2123 58.5936 24.2123 58.7804 24.2123 59.3496V59.9698C24.7475 59.9698 24.9514 59.9528 24.9939 59.9528C25.0788 59.9528 25.0873 59.9613 25.0873 60.0462V60.7343C25.0873 60.8193 25.0788 60.8278 24.9939 60.8278C24.9514 60.8278 24.7475 60.8193 24.2123 60.8108ZM21.3155 61.7452L21.7997 61.4564C21.8847 61.4054 21.9187 61.4054 21.9696 61.4734C22.3604 61.9321 22.7002 62.4758 22.9551 63.062C22.989 63.1469 22.9805 63.1724 22.8956 63.2234L22.3519 63.5377C22.25 63.5972 22.233 63.5887 22.199 63.5037C21.9441 62.9091 21.6468 62.3739 21.273 61.8981C21.2136 61.8217 21.2306 61.7962 21.3155 61.7452ZM30.1079 61.9576H31.4162C32.2487 61.9576 32.546 61.9406 32.6055 61.9406C32.6819 61.9406 32.6904 61.9491 32.6904 62.0341C32.6904 62.085 32.6735 62.204 32.6735 62.4673V62.5778C32.6735 62.8156 32.6904 63.0875 32.6904 63.2743C32.6904 63.5207 32.6395 63.6906 32.4866 63.7926C32.3421 63.8945 32.1043 63.9455 31.5691 63.9455C31.2972 63.9455 31.2803 63.9455 31.2293 63.6821C31.1953 63.5122 31.1528 63.3848 31.0764 63.2489C31.3482 63.2659 31.5181 63.2743 31.6116 63.2743C31.7985 63.2743 31.8409 63.2234 31.8409 63.0535V62.6542H30.1079V63.062C30.9829 63.9879 32.1128 64.5231 33.6589 64.9054C33.523 65.0668 33.404 65.2622 33.3021 65.4661C33.2171 65.6275 33.1917 65.687 33.1237 65.687C33.0727 65.687 33.0133 65.67 32.9198 65.636C31.705 65.2367 30.8045 64.693 30.0824 63.9285C30.0909 64.9309 30.1249 65.6275 30.1249 65.7974C30.1249 65.8823 30.1164 65.8908 30.0315 65.8908H29.3349C29.2584 65.8908 29.2499 65.8823 29.2499 65.7974C29.2499 65.6275 29.2839 64.9734 29.2924 63.9794C28.5788 64.693 27.6529 65.2367 26.557 65.653C26.4635 65.687 26.4041 65.7039 26.3531 65.7039C26.2766 65.7039 26.2427 65.6445 26.1662 65.4831C26.0643 65.2962 25.9368 65.1178 25.8094 64.9819C27.3215 64.5401 28.4514 63.9285 29.2669 63.0705V62.6542H27.6783V63.3678C27.6783 63.7076 27.6953 63.8435 27.6953 63.8945C27.6953 63.9794 27.6868 63.9879 27.6104 63.9879H26.9138C26.8288 63.9879 26.8203 63.9794 26.8203 63.8945C26.8203 63.835 26.8373 63.6906 26.8373 63.2828V62.6542C26.8373 62.2549 26.8203 62.0935 26.8203 62.0341C26.8203 61.9491 26.8288 61.9406 26.9138 61.9406C26.9732 61.9406 27.2706 61.9576 28.1031 61.9576H29.2669V61.5244H27.2876C26.506 61.5244 26.2427 61.5413 26.1917 61.5413C26.0982 61.5413 26.0898 61.5329 26.0898 61.4479V60.8532C26.0898 60.7683 26.0982 60.7598 26.1917 60.7598C26.2427 60.7598 26.506 60.7768 27.2876 60.7768H29.2669C29.2669 60.5219 29.2584 60.3775 29.2159 60.1397C29.4793 60.1482 29.7341 60.1736 29.9975 60.1991L29.9125 60.1312C29.7511 60.0122 29.5812 59.9188 29.4368 59.8678C29.8446 59.4261 30.1249 58.9673 30.2778 58.5596C30.3288 58.4321 30.3713 58.2877 30.4053 58.1008C30.6431 58.1348 30.9829 58.1943 31.1613 58.2283C31.2463 58.2537 31.2888 58.2792 31.2888 58.3472C31.2888 58.4152 31.2548 58.4406 31.1953 58.4831C31.1358 58.5256 31.1273 58.5766 31.0764 58.721C31.0509 58.7719 31.0339 58.8229 31.0169 58.8739H32.2827C33.0812 58.8739 33.3616 58.8569 33.4125 58.8569C33.4975 58.8569 33.506 58.8654 33.506 58.9503V59.5025C33.506 59.5875 33.4975 59.596 33.4125 59.596C33.3616 59.596 33.0812 59.579 32.2827 59.579H32.0618C32.1892 59.7659 32.2912 59.9783 32.3846 60.1991C32.4186 60.2841 32.4101 60.3011 32.3082 60.3266L31.7475 60.4625C31.6201 60.4965 31.5946 60.4795 31.5691 60.3945C31.4671 60.1057 31.3397 59.8253 31.1953 59.579H30.6686C30.5667 59.7404 30.4477 59.9103 30.2948 60.0972C30.2354 60.1821 30.1929 60.2331 30.1589 60.2501C30.1844 60.2671 30.1929 60.2841 30.1929 60.3011C30.1929 60.352 30.1759 60.386 30.1504 60.437C30.1249 60.4965 30.1079 60.5814 30.1079 60.7768H32.1892C32.9708 60.7768 33.2341 60.7598 33.2851 60.7598C33.3785 60.7598 33.387 60.7683 33.387 60.8532V61.4479C33.387 61.5329 33.3785 61.5413 33.2851 61.5413C33.2341 61.5413 32.9708 61.5244 32.1892 61.5244H30.1079V61.9576ZM27.7208 59.579H27.3046C27.1262 59.8593 26.9138 60.1312 26.6589 60.403C26.5655 60.4965 26.523 60.5474 26.472 60.5474C26.4211 60.5474 26.3701 60.4965 26.2682 60.403C26.0982 60.2416 25.9199 60.1142 25.7839 60.0462C26.3021 59.596 26.6759 59.0778 26.9138 58.5596C26.9902 58.3897 27.0242 58.2792 27.0667 58.0923C27.347 58.1263 27.6189 58.1858 27.8567 58.2283C27.9502 58.2537 27.9927 58.2792 27.9927 58.3472C27.9927 58.4152 27.9502 58.4491 27.8907 58.4831C27.8397 58.5171 27.8143 58.5681 27.7548 58.6955L27.6783 58.8739H28.5788C29.3009 58.8739 29.5388 58.8569 29.5897 58.8569C29.6747 58.8569 29.6832 58.8654 29.6832 58.9503V59.5025C29.6832 59.5875 29.6747 59.596 29.5897 59.596C29.5388 59.596 29.3094 59.579 28.5703 59.579C28.6893 59.7744 28.7827 59.9698 28.8761 60.1906C28.9101 60.2756 28.9101 60.2926 28.7912 60.3181L28.205 60.4625C28.0776 60.4965 28.0606 60.4795 28.0351 60.3945C27.9502 60.0887 27.8397 59.8253 27.7208 59.579Z" fill="#97634A"/>
<path d="M134.663 144.317V142.864C134.238 142.898 133.805 142.932 133.236 142.932C133.092 142.932 133.049 142.881 133.032 142.754C133.007 142.592 132.973 142.312 132.939 142.015C133.16 142.049 133.38 142.057 133.601 142.057C133.958 142.057 134.323 142.023 134.68 141.989C134.68 141.709 134.689 141.386 134.689 141.021C134.689 140.8 134.68 140.554 134.629 140.333C135.054 140.358 135.411 140.418 135.64 140.486C135.742 140.511 135.81 140.571 135.81 140.647C135.81 140.681 135.793 140.723 135.759 140.783C135.7 140.893 135.657 141.004 135.64 141.114C135.615 141.335 135.606 141.548 135.598 141.819C135.971 141.743 136.32 141.632 136.685 141.505C136.761 141.48 136.821 141.497 136.829 141.581C136.863 141.794 136.88 142.023 136.88 142.244C136.88 142.329 136.855 142.355 136.77 142.38C136.209 142.558 136.065 142.601 135.555 142.703C135.547 143.111 135.547 143.527 135.538 143.935C136.337 143.595 137.084 143.459 137.628 143.467C138.681 143.476 139.437 144.147 139.437 145.166C139.437 146.254 138.741 146.891 137.594 146.891C137.348 146.891 137.076 146.857 136.897 146.814C136.761 146.78 136.71 146.696 136.71 146.56C136.693 146.373 136.634 146.084 136.456 145.838C136.863 145.973 137.203 145.99 137.517 145.99C137.993 145.99 138.435 145.719 138.435 145.115C138.435 144.563 138.095 144.257 137.5 144.257C137.016 144.257 136.43 144.385 135.555 144.835C135.564 145.192 135.572 145.481 135.589 145.855C135.615 146.228 135.657 146.764 135.657 146.959C135.657 147.078 135.674 147.205 135.53 147.239C135.343 147.29 135.071 147.333 134.901 147.341C134.808 147.35 134.774 147.282 134.697 147.171C134.468 146.857 134.026 146.449 133.491 146.084C133.397 146.135 133.295 146.203 133.219 146.271C133.176 146.313 133.117 146.33 133.075 146.33C133.007 146.33 132.939 146.279 132.888 146.194C132.794 146.041 132.624 145.685 132.497 145.404C132.718 145.353 132.998 145.26 133.278 145.107C133.644 144.903 134.043 144.674 134.663 144.317ZM134.706 145.209C134.468 145.37 134.179 145.566 133.873 145.787C134.111 145.914 134.4 146.058 134.672 146.169C134.74 146.186 134.765 146.177 134.757 146.101C134.74 145.88 134.723 145.489 134.706 145.209ZM137.543 141.989C137.653 141.76 137.789 141.539 137.934 141.327C137.993 141.233 138.019 141.208 138.078 141.225C138.86 141.454 139.437 141.811 139.879 142.261C139.913 142.295 139.93 142.321 139.93 142.346C139.93 142.372 139.913 142.397 139.896 142.431C139.786 142.601 139.565 142.864 139.437 143.034C139.412 143.068 139.293 143.077 139.267 143.034C138.817 142.533 138.223 142.219 137.543 141.989ZM146.199 142.236H145.129C144.331 142.236 144.059 142.253 144.008 142.253C143.923 142.253 143.914 142.244 143.914 142.151V141.505C143.914 141.42 143.923 141.412 144.008 141.412C144.059 141.412 144.331 141.429 145.129 141.429H146.182V141.114C146.174 140.545 146.174 140.282 146.123 139.899C146.463 139.908 146.692 139.925 146.99 139.959C147.074 139.976 147.134 140.01 147.134 140.052C147.134 140.112 147.108 140.163 147.083 140.222C147.032 140.324 147.024 140.409 147.024 140.876V141.429H147.287C148.077 141.429 148.349 141.412 148.4 141.412C148.485 141.412 148.493 141.42 148.493 141.505V142.151C148.493 142.244 148.485 142.253 148.4 142.253C148.349 142.253 148.077 142.236 147.287 142.236H147.049C147.091 143.45 147.202 144.487 147.389 145.396C147.516 146.016 147.686 146.381 147.831 146.381C147.958 146.381 148.043 146.084 148.077 145.251C148.238 145.37 148.408 145.464 148.553 145.523C148.799 145.625 148.782 145.659 148.757 145.922C148.638 147.061 148.366 147.46 147.882 147.46C147.414 147.46 146.913 147.044 146.582 145.685C146.361 144.776 146.242 143.552 146.199 142.236ZM143.524 145.608V146.194C143.524 147.18 143.541 147.367 143.541 147.418C143.541 147.503 143.532 147.511 143.447 147.511H142.827C142.742 147.511 142.733 147.503 142.733 147.418V147.188H141.96V147.571C141.96 147.655 141.952 147.664 141.867 147.664H141.255C141.162 147.664 141.153 147.655 141.153 147.571C141.153 147.52 141.17 147.324 141.17 146.296V145.753C141.17 145.217 141.153 145.014 141.153 144.954C141.153 144.869 141.162 144.861 141.255 144.861C141.306 144.861 141.485 144.878 142.028 144.878H142.666C143.209 144.878 143.388 144.861 143.447 144.861C143.532 144.861 143.541 144.869 143.541 144.954C143.541 145.005 143.524 145.209 143.524 145.608ZM142.733 145.583H141.96V146.492H142.733V145.583ZM144.585 143.153H145.206C145.681 143.153 145.817 143.136 145.868 143.136C145.962 143.136 145.97 143.145 145.97 143.238V143.824C145.97 143.918 145.962 143.926 145.868 143.926C145.817 143.926 145.698 143.918 145.341 143.909V145.608C145.647 145.515 145.962 145.413 146.284 145.294C146.267 145.421 146.259 145.608 146.25 145.787C146.25 146.058 146.25 146.058 146.004 146.152C145.409 146.381 144.857 146.56 144.331 146.713C144.161 146.747 144.11 146.78 144.059 146.814C144.016 146.848 143.974 146.865 143.94 146.865C143.889 146.865 143.855 146.831 143.829 146.755C143.778 146.585 143.702 146.262 143.651 145.973C143.923 145.948 144.161 145.905 144.399 145.855L144.534 145.829V143.909C144.101 143.909 143.974 143.926 143.923 143.926C143.838 143.926 143.829 143.918 143.829 143.824V143.238C143.829 143.145 143.838 143.136 143.923 143.136C143.974 143.136 144.11 143.153 144.585 143.153ZM141.825 141.369H142.691C143.337 141.369 143.549 141.352 143.591 141.352C143.676 141.352 143.685 141.361 143.685 141.446V142.049C143.685 142.142 143.676 142.151 143.591 142.151C143.549 142.151 143.337 142.134 142.691 142.134H141.825C141.17 142.134 140.966 142.151 140.916 142.151C140.831 142.151 140.822 142.142 140.822 142.049V141.446C140.822 141.361 140.831 141.352 140.916 141.352C140.966 141.352 141.17 141.369 141.825 141.369ZM142.037 140.205H142.691C143.235 140.205 143.405 140.188 143.456 140.188C143.549 140.188 143.549 140.197 143.549 140.282V140.842C143.549 140.927 143.549 140.936 143.456 140.936C143.405 140.936 143.235 140.919 142.691 140.919H142.037C141.485 140.919 141.315 140.936 141.264 140.936C141.179 140.936 141.17 140.927 141.17 140.842V140.282C141.17 140.197 141.179 140.188 141.264 140.188C141.315 140.188 141.485 140.205 142.037 140.205ZM142.045 142.575H142.649C143.158 142.575 143.311 142.558 143.362 142.558C143.456 142.558 143.464 142.567 143.464 142.652V143.204C143.464 143.289 143.456 143.298 143.362 143.298C143.311 143.298 143.158 143.281 142.649 143.281H142.045C141.527 143.281 141.374 143.298 141.323 143.298C141.238 143.298 141.23 143.289 141.23 143.204V142.652C141.23 142.567 141.238 142.558 141.323 142.558C141.374 142.558 141.527 142.575 142.045 142.575ZM142.045 143.722H142.649C143.158 143.722 143.311 143.705 143.362 143.705C143.456 143.705 143.464 143.714 143.464 143.799V144.342C143.464 144.427 143.456 144.436 143.362 144.436C143.311 144.436 143.158 144.419 142.649 144.419H142.045C141.527 144.419 141.374 144.436 141.323 144.436C141.238 144.436 141.23 144.427 141.23 144.342V143.799C141.23 143.714 141.238 143.705 141.323 143.705C141.374 143.705 141.527 143.722 142.045 143.722ZM147.355 140.282L147.746 140.112C147.848 140.061 147.865 140.069 147.924 140.146C148.119 140.409 148.255 140.656 148.4 140.978C148.434 141.055 148.408 141.089 148.298 141.14L147.898 141.327C147.78 141.386 147.771 141.369 147.746 141.284C147.618 140.953 147.474 140.69 147.287 140.426C147.236 140.35 147.253 140.324 147.355 140.282ZM151.195 140.282C151.585 140.324 151.993 140.367 152.256 140.435C152.401 140.469 152.46 140.511 152.46 140.596C152.46 140.69 152.409 140.791 152.375 140.876C152.333 140.995 152.299 141.259 152.256 141.913C152.172 143.221 152.129 144.088 152.129 145.2C152.129 146.058 152.231 146.254 152.911 146.254C153.667 146.254 154.847 145.795 155.884 144.691C155.918 145.014 155.994 145.294 156.079 145.498C156.122 145.591 156.147 145.651 156.147 145.702C156.147 145.778 156.113 145.846 155.977 145.965C155.06 146.806 153.862 147.239 152.758 147.239C151.67 147.239 151.161 146.806 151.161 145.506C151.161 144.079 151.237 142.856 151.28 141.836C151.297 141.335 151.322 140.791 151.195 140.282ZM161.533 141.284H161.304C160.471 141.284 160.191 141.301 160.14 141.301C160.055 141.301 160.046 141.293 160.046 141.208V140.579C160.046 140.486 160.055 140.477 160.14 140.477C160.191 140.477 160.471 140.494 161.304 140.494H164.311C165.144 140.494 165.424 140.477 165.475 140.477C165.56 140.477 165.568 140.486 165.568 140.579V141.208C165.568 141.293 165.56 141.301 165.475 141.301C165.424 141.301 165.144 141.284 164.311 141.284H163.767V142.592H164.031C164.855 142.592 165.152 142.575 165.212 142.575C165.296 142.575 165.305 142.584 165.305 142.669C165.305 142.72 165.288 143.051 165.288 144.062V145.54C165.288 147.035 165.305 147.35 165.305 147.401C165.305 147.486 165.296 147.494 165.212 147.494H164.549C164.464 147.494 164.455 147.486 164.455 147.401V147.044H160.896V147.435C160.896 147.52 160.887 147.528 160.803 147.528H160.148C160.063 147.528 160.055 147.52 160.055 147.435C160.055 147.384 160.072 147.069 160.072 145.566V144.223C160.072 143.051 160.055 142.728 160.055 142.669C160.055 142.584 160.063 142.575 160.148 142.575C160.199 142.575 160.488 142.592 161.312 142.592H161.533V141.284ZM164.455 143.34H163.767V146.288H164.455V143.34ZM162.323 146.288H162.977V143.34H162.323V146.288ZM160.896 146.288H161.533V143.34H160.896V146.288ZM162.323 142.592H162.977V141.284H162.323V142.592ZM158.517 146.296V144.495C158.517 144.189 158.517 143.807 158.526 143.442C158.398 143.629 158.254 143.807 158.101 143.994C158.033 144.071 157.982 144.113 157.948 144.113C157.897 144.113 157.872 144.062 157.855 143.969C157.804 143.68 157.702 143.374 157.6 143.196C158.254 142.431 158.713 141.497 159.053 140.46C159.112 140.256 159.163 140.061 159.188 139.848C159.469 139.933 159.732 140.018 159.97 140.137C160.055 140.171 160.106 140.214 160.106 140.29C160.106 140.35 160.063 140.392 160.013 140.443C159.953 140.494 159.919 140.571 159.843 140.783C159.69 141.216 159.537 141.615 159.358 141.998V146.296C159.358 147.12 159.375 147.537 159.375 147.579C159.375 147.664 159.367 147.672 159.282 147.672H158.594C158.509 147.672 158.5 147.664 158.5 147.579C158.5 147.528 158.517 147.12 158.517 146.296ZM171.107 140.681H172.687C172.755 140.681 172.806 140.673 172.84 140.656C172.874 140.639 172.908 140.63 172.934 140.63C173.002 140.63 173.078 140.656 173.265 140.851C173.443 141.055 173.469 141.114 173.469 141.182C173.469 141.242 173.443 141.284 173.375 141.335C173.316 141.378 173.265 141.437 173.18 141.59C172.9 142.117 172.551 142.592 172.127 143.026C172.747 143.442 173.469 143.739 174.25 143.918C174.131 144.096 174.038 144.3 173.987 144.504C173.919 144.767 173.919 144.767 173.656 144.699C173.528 144.657 173.392 144.614 173.273 144.563C173.273 144.623 173.256 144.861 173.256 145.396V146.143C173.256 147.299 173.273 147.511 173.273 147.554C173.273 147.638 173.265 147.647 173.18 147.647H172.509C172.424 147.647 172.415 147.638 172.415 147.554V147.222H170.436V147.562C170.436 147.647 170.427 147.655 170.343 147.655H169.688C169.603 147.655 169.595 147.647 169.595 147.562C169.595 147.511 169.612 147.299 169.612 146.152V145.506C169.612 145.056 169.603 144.818 169.595 144.691L169.34 144.793C169.247 144.827 169.187 144.852 169.136 144.852C169.06 144.852 169.026 144.784 168.958 144.623C168.898 144.453 168.788 144.266 168.669 144.13C169.527 143.858 170.275 143.476 170.886 143.026C170.623 142.754 170.394 142.456 170.198 142.134C170.02 142.346 169.833 142.541 169.629 142.728C169.527 142.822 169.476 142.864 169.434 142.864C169.383 142.864 169.332 142.813 169.247 142.703C169.128 142.558 169 142.431 168.856 142.338C168.762 142.338 168.61 142.329 168.389 142.329C168.618 142.728 168.89 143.068 169.196 143.348C169.085 143.501 168.983 143.688 168.924 143.884C168.89 143.994 168.873 144.045 168.83 144.045C168.805 144.045 168.762 144.003 168.703 143.918C168.559 143.722 168.414 143.501 168.295 143.264C168.295 145.566 168.355 147.409 168.355 147.554C168.355 147.647 168.346 147.655 168.253 147.655H167.565C167.48 147.655 167.471 147.647 167.471 147.554C167.471 147.418 167.522 145.778 167.531 143.79C167.335 144.478 167.046 145.115 166.698 145.668C166.647 145.753 166.605 145.804 166.571 145.804C166.537 145.804 166.503 145.761 166.477 145.668C166.409 145.447 166.307 145.217 166.18 145.022C166.741 144.274 167.174 143.416 167.454 142.329H167.276C166.681 142.329 166.494 142.346 166.443 142.346C166.367 142.346 166.358 142.338 166.358 142.253V141.649C166.358 141.565 166.367 141.556 166.443 141.556C166.494 141.556 166.681 141.573 167.276 141.573H167.505V141.038C167.505 140.511 167.497 140.231 167.437 139.874C167.76 139.882 168.023 139.899 168.287 139.933C168.372 139.942 168.431 139.976 168.431 140.027C168.431 140.095 168.406 140.146 168.38 140.205C168.329 140.307 168.321 140.443 168.321 141.021V141.573C168.822 141.573 168.983 141.556 169.034 141.556C169.119 141.556 169.128 141.565 169.128 141.649V142.083C169.654 141.565 170.088 140.944 170.377 140.29C170.453 140.12 170.504 139.967 170.538 139.806C170.827 139.848 171.09 139.899 171.319 139.959C171.413 139.984 171.455 140.018 171.455 140.061C171.455 140.103 171.43 140.137 171.387 140.18C171.319 140.239 171.277 140.307 171.226 140.418L171.107 140.681ZM170.436 145.268V146.483H172.415V145.268H170.436ZM170.045 144.495H172.177C172.687 144.495 172.951 144.487 173.078 144.487C172.5 144.24 171.974 143.952 171.515 143.586C171.09 143.926 170.597 144.232 170.045 144.495ZM170.708 141.412L170.674 141.471C170.886 141.862 171.167 142.21 171.489 142.516C171.846 142.168 172.135 141.794 172.339 141.412H170.708Z" fill="#97634A"/>
<path d="M33.3153 142.864H33.2728C32.4403 142.864 32.143 142.881 32.092 142.881C32.0071 142.881 31.9986 142.873 31.9986 142.788V142.168C31.9986 142.083 32.0071 142.074 32.092 142.074C32.143 142.074 32.4403 142.091 33.2728 142.091H33.7656C33.876 141.828 33.9694 141.556 34.0459 141.259C33.6891 141.301 33.3238 141.335 32.9415 141.369C32.6952 141.395 32.6952 141.395 32.6357 141.199C32.5593 140.936 32.4573 140.706 32.3554 140.579C33.8165 140.511 34.8869 140.392 35.7534 140.18C36.0677 140.103 36.2461 140.027 36.416 139.933C36.6369 140.095 36.8493 140.29 37.0107 140.469C37.0702 140.528 37.0956 140.571 37.0956 140.63C37.0956 140.681 37.0362 140.732 36.9427 140.732C36.8238 140.74 36.6794 140.783 36.501 140.817C36.0083 140.936 35.5071 141.038 34.9804 141.123C34.8954 141.471 34.7935 141.794 34.6745 142.091H36.5265C37.359 142.091 37.6563 142.074 37.7073 142.074C37.7837 142.074 37.7922 142.083 37.7922 142.168V142.788C37.7922 142.873 37.7837 142.881 37.7073 142.881C37.6563 142.881 37.359 142.864 36.5265 142.864H35.9743C36.4075 143.45 37.0871 143.884 37.9451 144.13C37.8177 144.274 37.7073 144.453 37.6138 144.674C37.5459 144.827 37.5204 144.886 37.4609 144.886C37.4184 144.886 37.359 144.861 37.257 144.81C36.2546 144.334 35.524 143.697 35.0398 142.864H34.3007C33.859 143.629 33.2474 144.232 32.3809 144.793C32.2874 144.852 32.2279 144.886 32.1855 144.886C32.126 144.886 32.092 144.827 32.0241 144.708C31.9051 144.495 31.7777 144.317 31.6333 144.206C32.3978 143.807 32.933 143.374 33.3153 142.864ZM34.6915 144.631V145.608C34.6915 146.024 34.7 146.407 34.7 146.73C34.7 147.069 34.6575 147.265 34.4537 147.435C34.3007 147.554 34.0884 147.588 33.5532 147.588C33.2813 147.588 33.2898 147.588 33.2304 147.341C33.1794 147.12 33.1114 146.916 33.001 146.764C33.2559 146.789 33.4258 146.797 33.6296 146.797C33.8165 146.797 33.876 146.738 33.876 146.551V144.759C33.876 144.359 33.8675 144.079 33.8165 143.841C34.1139 143.858 34.4452 143.892 34.6575 143.935C34.734 143.943 34.785 143.986 34.785 144.028C34.785 144.071 34.768 144.113 34.751 144.147C34.717 144.206 34.6915 144.291 34.6915 144.631ZM30.0702 147.095C30.2316 146.857 30.3335 146.687 30.461 146.398C30.6818 145.905 30.9367 145.226 31.1661 144.368C31.2935 144.495 31.4719 144.657 31.6503 144.784C31.8712 144.937 31.8712 144.937 31.8032 145.183C31.5993 145.872 31.3614 146.534 31.1236 147.12C31.0641 147.265 31.0301 147.384 31.0216 147.46C31.0131 147.528 30.9877 147.579 30.9282 147.579C30.8772 147.579 30.8263 147.562 30.7583 147.528C30.5544 147.418 30.3165 147.282 30.0702 147.095ZM32.95 144.801L33.4088 145.005C33.5022 145.039 33.5277 145.064 33.5022 145.149C33.2983 145.804 32.9415 146.526 32.5932 147.044C32.5677 147.086 32.5423 147.103 32.5168 147.103C32.4913 147.103 32.4658 147.095 32.4233 147.061L31.9561 146.738C31.8542 146.67 31.8542 146.645 31.9051 146.577C32.2959 146.05 32.6102 145.379 32.7886 144.835C32.8226 144.742 32.8311 144.75 32.95 144.801ZM36.2291 144.963L36.6369 144.75C36.7303 144.699 36.7558 144.691 36.8153 144.767C37.2061 145.294 37.5119 145.863 37.7837 146.492C37.8177 146.585 37.8092 146.611 37.7158 146.662L37.2401 146.925C37.1891 146.95 37.1551 146.967 37.1381 146.967C37.1041 146.967 37.0871 146.95 37.0702 146.899C36.7898 146.194 36.5095 145.668 36.1612 145.107C36.1187 145.031 36.1442 145.014 36.2291 144.963ZM35.0908 144.92L35.5325 144.776C35.643 144.742 35.66 144.742 35.6939 144.818C35.9403 145.353 36.1697 146.033 36.3226 146.704C36.3396 146.78 36.3311 146.814 36.2206 146.848L35.7024 147.018C35.592 147.052 35.5665 147.061 35.5495 146.967C35.4221 146.347 35.2267 145.634 34.9973 145.064C34.9634 144.98 34.9804 144.954 35.0908 144.92ZM30.461 140.52L30.8517 140.061C30.9197 139.976 30.9452 139.976 31.0216 140.018C31.4379 140.265 31.8287 140.571 32.194 140.91C32.2279 140.936 32.2449 140.953 32.2449 140.978C32.2449 141.004 32.2279 141.029 32.194 141.08L31.8117 141.615C31.7437 141.7 31.7267 141.692 31.6588 141.641C31.285 141.276 30.8687 140.927 30.461 140.681C30.4185 140.656 30.4015 140.639 30.4015 140.622C30.4015 140.596 30.4185 140.571 30.461 140.52ZM30.1297 142.66L30.478 142.202C30.5459 142.117 30.5714 142.117 30.6479 142.159C31.0641 142.389 31.4719 142.677 31.8627 143.026C31.8966 143.06 31.9136 143.077 31.9136 143.094C31.9136 143.119 31.8966 143.145 31.8627 143.196L31.4719 143.739C31.4464 143.782 31.4294 143.799 31.4039 143.799C31.3869 143.799 31.3614 143.782 31.3275 143.748C30.9707 143.391 30.5544 143.077 30.1382 142.822C30.0957 142.796 30.0702 142.779 30.0702 142.762C30.0702 142.737 30.0957 142.703 30.1297 142.66ZM46.1004 142.754V144.512C46.1004 146.73 46.1174 147.171 46.1174 147.222C46.1174 147.316 46.1089 147.324 46.024 147.324H45.3104C45.2339 147.324 45.2254 147.316 45.2254 147.222V146.645H43.9682V147.29C43.9682 147.384 43.9597 147.392 43.8662 147.392H43.1781C43.0847 147.392 43.0762 147.384 43.0762 147.29C43.0762 147.239 43.0932 146.789 43.0932 144.546V143C43.0932 141.446 43.0762 140.978 43.0762 140.919C43.0762 140.834 43.0847 140.825 43.1781 140.825C43.2291 140.825 43.4415 140.842 44.0616 140.842H45.1405C45.7606 140.842 45.973 140.825 46.024 140.825C46.1089 140.825 46.1174 140.834 46.1174 140.919C46.1174 140.97 46.1004 141.437 46.1004 142.754ZM45.2254 141.658H43.9682V145.838H45.2254V141.658ZM41.6575 142.38H40.825C40.7655 143.306 40.6551 144.139 40.4767 144.844C40.2558 145.719 39.9245 146.543 39.3383 147.299C39.2619 147.392 39.2194 147.443 39.1769 147.443C39.1345 147.443 39.1005 147.401 39.0325 147.299C38.8626 147.035 38.6842 146.848 38.4973 146.696C39.075 146.016 39.3978 145.387 39.6272 144.529C39.8056 143.884 39.899 143.221 39.9415 142.38H39.8311C39.109 142.38 38.8626 142.397 38.8116 142.397C38.7267 142.397 38.7182 142.389 38.7182 142.304V141.666C38.7182 141.581 38.7267 141.581 38.8116 141.581C38.8626 141.581 39.109 141.59 39.8311 141.59H39.967C39.9755 141.429 39.9755 141.259 39.9755 141.072C39.9755 140.545 39.9585 140.282 39.916 139.874C40.2218 139.882 40.5277 139.899 40.8335 139.925C40.9184 139.942 40.9609 139.976 40.9609 140.018C40.9609 140.078 40.9184 140.171 40.9014 140.256C40.876 140.367 40.859 140.579 40.859 141.097C40.859 141.267 40.859 141.429 40.8505 141.59H41.4026C42.1332 141.59 42.3796 141.581 42.4306 141.581C42.5155 141.581 42.5325 141.59 42.5325 141.675C42.5155 141.964 42.5155 142.21 42.5155 142.482C42.4985 144.156 42.4221 145.506 42.2691 146.441C42.1587 147.103 41.8274 147.392 41.1903 147.392C41.0204 147.392 40.8844 147.392 40.723 147.375C40.5022 147.358 40.5022 147.358 40.4767 147.086C40.4512 146.865 40.4002 146.662 40.3238 146.475C40.5871 146.526 40.7995 146.543 41.0289 146.543C41.2667 146.543 41.3687 146.449 41.4366 146.016C41.5556 145.277 41.632 144.054 41.6575 142.38ZM48.5555 142.423H48.0628C48.0203 142.771 47.9609 143.119 47.8844 143.416C47.8419 143.561 47.8249 143.62 47.774 143.62C47.74 143.62 47.6805 143.586 47.5871 143.535C47.4512 143.467 47.2303 143.399 47.0859 143.365C47.3237 142.575 47.4172 141.802 47.4427 141.14C47.4512 140.978 47.4512 140.808 47.4257 140.596C47.655 140.622 47.9354 140.656 48.1393 140.69C48.2327 140.706 48.2667 140.74 48.2667 140.791C48.2667 140.842 48.2582 140.868 48.2327 140.927C48.1987 140.995 48.1902 141.08 48.1817 141.216C48.1732 141.352 48.1647 141.488 48.1478 141.632H48.5555V141.165C48.5555 140.562 48.5385 140.307 48.4876 139.882C48.8019 139.891 49.0737 139.908 49.3626 139.942C49.4475 139.95 49.4985 139.984 49.4985 140.027C49.4985 140.095 49.473 140.137 49.4475 140.205C49.405 140.307 49.3965 140.52 49.3965 141.148V141.632C49.8468 141.632 50.0167 141.615 50.0592 141.615C50.1441 141.615 50.1526 141.624 50.1526 141.7V142.278C50.6028 141.743 50.8832 141.182 51.0956 140.554C51.1635 140.333 51.2145 140.129 51.2485 139.874C51.4778 139.908 51.8006 139.959 52.047 140.018C52.1405 140.044 52.1914 140.078 52.1914 140.137C52.1914 140.197 52.1659 140.239 52.1065 140.307C52.047 140.375 52.0045 140.486 51.9366 140.698C51.8601 140.927 51.7667 141.157 51.6647 141.395H53.6441C54.2897 141.395 54.4936 141.378 54.5446 141.378C54.638 141.378 54.6635 141.403 54.6635 141.488C54.655 141.717 54.6465 141.947 54.6465 142.151C54.6295 144.181 54.5616 145.26 54.4001 146.237C54.2642 147.146 53.8904 147.579 53.1344 147.579C52.9815 147.579 52.7436 147.579 52.5227 147.562C52.2594 147.545 52.2594 147.545 52.2084 147.265C52.1574 146.993 52.0895 146.789 52.0045 146.628C52.3953 146.696 52.6926 146.713 52.9985 146.713C53.3807 146.713 53.5082 146.458 53.5761 146.007C53.7035 145.09 53.8055 144.147 53.8395 142.338C53.2363 144.478 52.3953 145.99 50.9257 147.129C50.8237 147.205 50.7642 147.248 50.7133 147.248C50.6538 147.248 50.6113 147.197 50.5349 147.086C50.3905 146.874 50.2206 146.721 50.0676 146.619C51.6732 145.532 52.5397 144.079 53.0919 142.159H52.5312C52.132 143.476 51.5118 144.47 50.6538 145.251C50.5604 145.345 50.5009 145.387 50.4499 145.387C50.399 145.387 50.3565 145.345 50.28 145.243C50.1356 145.064 49.9572 144.912 49.8043 144.81C50.6963 144.156 51.3419 143.298 51.7157 142.159H51.2655C51.0871 142.456 50.8747 142.745 50.6368 143.017C50.5434 143.119 50.5009 143.162 50.4584 143.162C50.4075 143.162 50.365 143.119 50.2715 143.026C50.1101 142.873 49.9317 142.754 49.7873 142.669L50.0082 142.439C49.9232 142.439 49.7363 142.431 49.3965 142.423V143.79C49.6429 143.671 49.9062 143.544 50.1866 143.391C50.1866 143.544 50.1866 143.773 50.2036 143.96C50.2206 144.215 50.2206 144.223 49.9912 144.342C49.7873 144.453 49.5919 144.555 49.3965 144.648V146.084C49.3965 147.052 49.4135 147.537 49.4135 147.579C49.4135 147.664 49.405 147.672 49.3201 147.672H48.632C48.547 147.672 48.5385 147.664 48.5385 147.579C48.5385 147.528 48.5555 147.052 48.5555 146.092V145.039C48.3601 145.124 48.1563 145.2 47.9609 145.277C47.8334 145.336 47.7315 145.387 47.689 145.43C47.6381 145.481 47.5956 145.515 47.5446 145.515C47.4851 145.515 47.4427 145.489 47.4087 145.421C47.3067 145.175 47.2048 144.861 47.1198 144.597C47.4002 144.538 47.6381 144.47 47.9184 144.376C48.1308 144.308 48.3431 144.232 48.5555 144.156V142.423ZM59.2593 141.301H56.9317C56.1671 141.301 55.9038 141.318 55.8528 141.318C55.7679 141.318 55.7594 141.31 55.7594 141.216V140.528C55.7594 140.435 55.7679 140.426 55.8528 140.426C55.9038 140.426 56.1671 140.443 56.9317 140.443H62.0457C62.8103 140.443 63.0651 140.426 63.1246 140.426C63.2096 140.426 63.2181 140.435 63.2181 140.528V141.216C63.2181 141.31 63.2096 141.318 63.1246 141.318C63.0651 141.318 62.8103 141.301 62.0457 141.301H60.2788C60.1513 141.548 60.0154 141.794 59.871 142.032V146.296C59.871 147.078 59.888 147.469 59.888 147.52C59.888 147.605 59.8795 147.613 59.7945 147.613H59.013C58.928 147.613 58.9195 147.605 58.9195 147.52C58.9195 147.46 58.9365 147.078 58.9365 146.296V143.298C58.2144 144.13 57.3394 144.852 56.337 145.438C56.2436 145.489 56.1926 145.523 56.1501 145.523C56.0907 145.523 56.0567 145.472 55.9717 145.328C55.8443 145.124 55.7084 144.963 55.5045 144.81C57.1356 144.003 58.4778 142.762 59.2593 141.301ZM60.1938 142.966L60.5931 142.567C60.6271 142.533 60.6525 142.516 60.678 142.516C60.7035 142.516 60.7205 142.533 60.7545 142.567C61.4426 143.45 62.53 144.274 63.4899 144.708C63.3285 144.878 63.1841 145.09 63.0651 145.294C62.9887 145.43 62.9547 145.489 62.9037 145.489C62.8613 145.489 62.8103 145.447 62.6999 145.387C61.7654 144.852 60.8309 144.02 60.1598 143.153C60.1004 143.077 60.1089 143.051 60.1938 142.966ZM68.5275 141.632H67.6015C66.7605 141.632 66.4802 141.649 66.4292 141.649C66.3443 141.649 66.3358 141.641 66.3358 141.556V140.919C66.3358 140.834 66.3443 140.825 66.4292 140.825C66.4802 140.825 66.7605 140.842 67.6015 140.842H68.5275V140.791C68.5275 140.358 68.519 140.137 68.4765 139.891C68.7823 139.899 69.0712 139.908 69.343 139.942C69.428 139.95 69.4874 139.984 69.4874 140.035C69.4874 140.095 69.462 140.154 69.4365 140.205C69.4025 140.282 69.377 140.409 69.377 140.791V140.842H70.5748C71.4073 140.842 71.6962 140.825 71.7386 140.825C71.8321 140.825 71.8406 140.834 71.8406 140.919V141.556C71.8406 141.641 71.8321 141.649 71.7386 141.649C71.6962 141.649 71.4073 141.632 70.5748 141.632H69.377V142.287H70.1416C70.9486 142.287 71.2374 142.27 71.2884 142.27C71.3733 142.27 71.3818 142.278 71.3818 142.363C71.3818 142.414 71.3649 142.592 71.3649 143.043V143.909C71.3649 144.351 71.3818 144.538 71.3818 144.589C71.3818 144.674 71.3733 144.682 71.2884 144.682C71.2374 144.682 70.9486 144.665 70.1416 144.665H69.2836C69.2411 145.005 69.1816 145.294 69.0882 145.532C69.0117 145.719 68.9353 145.889 68.8418 146.05C69.6573 146.458 70.6852 146.628 71.985 146.679C71.8831 146.84 71.7896 147.061 71.7301 147.29C71.6792 147.554 71.6792 147.554 71.4073 147.537C70.1331 147.443 69.1306 147.171 68.3236 146.687C67.9583 147.01 67.4316 147.299 66.6331 147.554C66.5481 147.579 66.4887 147.596 66.4462 147.596C66.3612 147.596 66.3273 147.537 66.2593 147.384C66.1659 147.163 66.0554 146.984 65.9195 146.848C66.735 146.67 67.2617 146.458 67.627 146.186C67.3212 145.922 67.0493 145.608 66.8115 145.26C66.7605 145.183 66.769 145.166 66.8709 145.107L67.3042 144.861C67.3976 144.81 67.4231 144.81 67.4741 144.878C67.678 145.158 67.8989 145.396 68.1452 145.6C68.2047 145.498 68.2472 145.396 68.2981 145.285C68.3661 145.107 68.4171 144.903 68.451 144.665H67.8139C67.0069 144.665 66.718 144.682 66.6756 144.682C66.5906 144.682 66.5821 144.674 66.5821 144.589C66.5821 144.538 66.5991 144.351 66.5991 143.909V143.043C66.5991 142.592 66.5821 142.423 66.5821 142.363C66.5821 142.278 66.5906 142.27 66.6756 142.27C66.718 142.27 67.0069 142.287 67.8139 142.287H68.5275V141.632ZM69.3515 143.943H70.5323V143.017H69.377L69.3515 143.943ZM68.5275 143.017H67.4146V143.943H68.5105C68.519 143.671 68.5275 143.357 68.5275 143.017ZM64.9256 146.262V144.308C64.9256 144.003 64.9341 143.637 64.9426 143.272C64.7896 143.493 64.6197 143.705 64.4498 143.909C64.3904 143.986 64.3394 144.02 64.3054 144.02C64.263 144.02 64.229 143.969 64.2035 143.867C64.1355 143.586 64.0251 143.323 63.8977 143.153C64.5858 142.38 65.104 141.429 65.4353 140.435C65.5032 140.239 65.5457 140.035 65.5627 139.832C65.8515 139.908 66.1404 139.993 66.3782 140.086C66.4717 140.129 66.5226 140.154 66.5226 140.214C66.5226 140.273 66.4972 140.316 66.4292 140.367C66.3697 140.409 66.3273 140.486 66.2508 140.706C66.1149 141.097 65.9535 141.471 65.7836 141.836V146.262C65.7836 147.095 65.8006 147.511 65.8006 147.554C65.8006 147.638 65.7921 147.647 65.7071 147.647H65.002C64.9171 147.647 64.9086 147.638 64.9086 147.554C64.9086 147.503 64.9256 147.095 64.9256 146.262ZM79.8345 141.734V145.498C79.8345 145.889 79.8515 146.322 79.8515 146.67C79.8515 146.984 79.7665 147.197 79.5711 147.358C79.4097 147.503 79.1549 147.579 78.4498 147.579C78.1864 147.579 78.1864 147.579 78.1354 147.333C78.076 147.061 77.9995 146.865 77.8976 146.687C78.2459 146.713 78.4073 146.721 78.6876 146.721C78.883 146.721 78.9595 146.636 78.9595 146.441V145.031H76.9631V146.041C76.9631 146.865 76.9801 147.248 76.9801 147.299C76.9801 147.384 76.9716 147.392 76.8867 147.392H76.1561C76.0711 147.392 76.0626 147.384 76.0626 147.299C76.0626 147.239 76.0796 146.865 76.0796 146.041V145.031H74.1427C74.0238 146.084 73.7944 146.738 73.4037 147.384C73.3357 147.503 73.2932 147.554 73.2508 147.554C73.2083 147.554 73.1658 147.511 73.0724 147.418C72.8685 147.214 72.6731 147.086 72.4692 146.984C73.0894 146.186 73.3442 145.175 73.3442 143.128V141.734C73.3442 140.851 73.3272 140.392 73.3272 140.341C73.3272 140.248 73.3357 140.239 73.4292 140.239C73.4801 140.239 73.7775 140.256 74.593 140.256H78.5857C79.4097 140.256 79.6985 140.239 79.758 140.239C79.843 140.239 79.8515 140.248 79.8515 140.341C79.8515 140.392 79.8345 140.851 79.8345 141.734ZM76.9631 144.24H78.9595V143.043H76.9631V144.24ZM78.9595 141.072H76.9631V142.253H78.9595V141.072ZM74.2022 144.24H76.0796V143.043H74.2277V143.136C74.2277 143.544 74.2192 143.909 74.2022 144.24ZM74.2277 142.253H76.0796V141.072H74.2277V142.253Z" fill="#97634A"/>
<path d="M99.9734 15.7149L99.8173 15.6015L99.6613 15.7149L38.0565 60.4734L37.9005 60.5868L37.9601 60.7702L61.491 133.191L61.5506 133.374H61.7435H137.891H138.084L138.144 133.191L161.675 60.7702L161.734 60.5868L161.578 60.4734L99.9734 15.7149Z" fill="#FFD5D6" fill-opacity="0.3" stroke="#F49798" stroke-width="0.530944"/>
</svg>
