<svg width="68" height="67" viewBox="0 0 68 67" fill="none" xmlns="http://www.w3.org/2000/svg">
<g clip-path="url(#clip0_44_8836)">
<path d="M30.4784 30.506C27.5805 33.0973 24.4887 39.8788 24.944 46.893C25.4285 53.922 28.9933 59.2959 32.6769 58.9017C36.3606 58.5075 39.3094 51.3597 43.0297 50.031C46.75 48.7023 52.9351 49.6571 56.3089 45.9888C59.6827 42.3205 50.7469 32.8143 45.278 29.952C39.7944 27.1187 35.0828 26.3656 30.4642 30.4621L30.4784 30.506Z" fill="#F49798"/>
<path d="M49.7255 14.3306C47.1886 13.77 44.6855 16.306 44.1162 19.9382C43.5469 23.5704 45.1557 26.957 47.7074 27.4885C50.2443 28.0491 52.7617 25.557 53.331 21.9248C53.9003 18.2926 52.2623 14.8912 49.7255 14.3306Z" fill="#F49798"/>
<path d="M25.5003 30.2034C27.8995 27.871 27.1489 23.0891 23.6712 19.6291C20.2373 16.155 15.5418 15.2267 13.1865 17.5448C10.8164 19.892 11.6845 24.5872 15.1041 28.0175C18.5676 31.4335 23.0868 32.4918 25.5151 30.1743L25.5003 30.2034Z" fill="#F49798"/>
<path d="M17.1113 34.5764C13.8078 33.0749 10.2519 33.9376 9.34217 36.2964C8.4764 38.641 10.3209 41.7812 13.654 43.2244C16.9723 44.6968 20.4399 43.9357 21.3935 41.5626C22.3471 39.1895 20.4005 36.0339 17.0822 34.5615L17.1113 34.5764Z" fill="#F49798"/>
<path d="M39.5141 14.5846C38.12 9.91442 34.333 6.77335 31.0697 7.56528C27.8064 8.35721 26.2957 12.829 27.6756 17.4553C29.0994 22.0673 32.6959 25.2945 35.9443 24.5317C39.1928 23.7688 40.8056 19.3124 39.529 14.5555L39.5141 14.5846Z" fill="#F49798"/>
<path d="M41.1992 44.7813L41.1992 46L35.0039 46L35.0039 44.9526L38.0127 41.6709C38.3428 41.2985 38.603 40.9769 38.7935 40.7061C38.9839 40.4352 39.1172 40.1919 39.1934 39.9761C39.2738 39.756 39.314 39.5423 39.314 39.335C39.314 39.043 39.259 38.7869 39.1489 38.5669C39.0431 38.3426 38.8866 38.167 38.6792 38.04C38.4718 37.9089 38.2201 37.8433 37.9238 37.8433C37.5811 37.8433 37.2933 37.9173 37.0605 38.0654C36.8278 38.2135 36.6522 38.4188 36.5337 38.6812C36.4152 38.9393 36.356 39.2355 36.356 39.5698L34.8262 39.5698C34.8262 39.0324 34.9489 38.5415 35.1943 38.0972C35.4398 37.6486 35.7952 37.2931 36.2607 37.0308C36.7262 36.7642 37.2869 36.6309 37.9429 36.6309C38.5607 36.6309 39.0854 36.7345 39.5171 36.9419C39.9487 37.1493 40.2767 37.4434 40.501 37.8242C40.7295 38.2051 40.8437 38.6558 40.8437 39.1763C40.8437 39.464 40.7972 39.7497 40.7041 40.0332C40.611 40.3167 40.4777 40.6003 40.3042 40.8838C40.1349 41.1631 39.9339 41.4445 39.7012 41.728C39.4684 42.0073 39.2124 42.2909 38.9331 42.5786L36.9336 44.7813L41.1992 44.7813Z" fill="#663E2A"/>
</g>
<defs>
<clipPath id="clip0_44_8836">
<rect width="51.6315" height="48.2351" fill="white" transform="translate(21.9141) rotate(27.021)"/>
</clipPath>
</defs>
</svg>
