<svg width="68" height="67" viewBox="0 0 68 67" fill="none" xmlns="http://www.w3.org/2000/svg">
<g clip-path="url(#clip0_44_8826)">
<path d="M30.4784 30.506C27.5805 33.0973 24.4887 39.8788 24.944 46.893C25.4285 53.922 28.9933 59.2959 32.6769 58.9017C36.3606 58.5075 39.3094 51.3597 43.0297 50.031C46.75 48.7023 52.9351 49.6571 56.3089 45.9888C59.6827 42.3205 50.7469 32.8143 45.278 29.952C39.7944 27.1187 35.0828 26.3656 30.4642 30.4621L30.4784 30.506Z" fill="#FBDF73"/>
<path d="M49.7255 14.3306C47.1886 13.77 44.6855 16.306 44.1162 19.9382C43.5469 23.5704 45.1557 26.957 47.7074 27.4885C50.2443 28.0491 52.7617 25.557 53.331 21.9248C53.9003 18.2926 52.2623 14.8912 49.7255 14.3306Z" fill="#FBDF73"/>
<path d="M25.5003 30.2034C27.8995 27.871 27.1489 23.0891 23.6712 19.6291C20.2373 16.155 15.5418 15.2267 13.1865 17.5448C10.8164 19.892 11.6845 24.5872 15.1041 28.0175C18.5676 31.4335 23.0868 32.4918 25.5151 30.1743L25.5003 30.2034Z" fill="#FBDF73"/>
<path d="M17.1113 34.5764C13.8078 33.0749 10.2519 33.9376 9.34217 36.2964C8.4764 38.641 10.3209 41.7812 13.654 43.2244C16.9723 44.6968 20.4399 43.9357 21.3935 41.5626C22.3471 39.1895 20.4005 36.0339 17.0822 34.5615L17.1113 34.5764Z" fill="#FBDF73"/>
<path d="M39.5141 14.5846C38.12 9.91442 34.333 6.77335 31.0697 7.56528C27.8064 8.35721 26.2957 12.829 27.6756 17.4553C29.0994 22.0673 32.6959 25.2945 35.9443 24.5317C39.1928 23.7688 40.8056 19.3124 39.529 14.5555L39.5141 14.5846Z" fill="#FBDF73"/>
<path d="M39.1807 36.7261L39.1807 46L37.6509 46L37.6509 38.5415L35.3848 39.3096L35.3848 38.0464L38.9966 36.7261L39.1807 36.7261Z" fill="#663E2A"/>
</g>
<defs>
<clipPath id="clip0_44_8826">
<rect width="51.6315" height="48.2351" fill="white" transform="translate(21.9141) rotate(27.021)"/>
</clipPath>
</defs>
</svg>
