<svg width="77" height="62" viewBox="0 0 77 62" fill="none" xmlns="http://www.w3.org/2000/svg">
<path d="M1.74677 41.2453C5.17919 45.5375 10.2175 46.4439 10.2175 46.4439L34.7767 19.0727L44.2233 27.9338L51.5901 20.4601L49.6334 18.5034L44.4023 23.7322L34.8161 14.6944L46.7726 0.604492C46.7726 0.604492 57.1838 0.604492 58.8268 0.604492C60.4698 0.604492 61.2948 1.97564 61.841 3.07016C62.3895 4.16467 64.5809 8.00148 64.5809 8.00148L76.068 8.5616C76.068 8.5616 77.1625 19.4608 71.4085 19.4608C71.4085 19.4608 70.8624 23.0233 68.1225 23.0233C65.3826 23.0233 60.7277 23.0233 60.7277 23.0233C60.7277 23.0233 54.1232 30.5738 53.1866 31.8078C51.6737 33.8041 51.4296 33.983 52.1013 35.7958C53.6444 39.9602 58.8756 51.7008 59.9121 54.4173C62.0083 59.9042 55.4687 62.156 53.0007 57.9753C49.4985 52.0376 45.4944 45.5376 45.4944 45.5376L43.3494 48.5402C43.3494 48.5402 45.0668 51.1128 44.6368 54.9752C50.6418 54.9752 52.2315 61.4078 47.2118 61.4078C38.6318 61.4078 18.4719 61.4078 18.4719 61.4078C10.9656 61.4078 9.89664 57.5478 9.89664 53.2554C3.88939 54.9749 -3.40066 47.6801 1.74677 41.2453Z" fill="#663E2A"/>
<path d="M27.5293 43.6738L30.1475 45.752L29.0332 46.7295L26.4629 44.6719L27.5293 43.6738ZM30.168 39.75V40.2969C30.168 41.0488 30.07 41.7233 29.874 42.3203C29.6781 42.9173 29.3978 43.4255 29.0332 43.8447C28.6686 44.264 28.2334 44.5853 27.7275 44.8086C27.2217 45.0273 26.6611 45.1367 26.0459 45.1367C25.4352 45.1367 24.877 45.0273 24.3711 44.8086C23.8698 44.5853 23.4346 44.264 23.0654 43.8447C22.6963 43.4255 22.4092 42.9173 22.2041 42.3203C22.0036 41.7233 21.9033 41.0488 21.9033 40.2969V39.75C21.9033 38.998 22.0036 38.3258 22.2041 37.7334C22.4046 37.1364 22.6872 36.6283 23.0518 36.209C23.4209 35.7852 23.8561 35.4639 24.3574 35.2451C24.8633 35.0218 25.4215 34.9102 26.0322 34.9102C26.6475 34.9102 27.208 35.0218 27.7139 35.2451C28.2243 35.4639 28.6618 35.7852 29.0264 36.209C29.391 36.6283 29.6712 37.1364 29.8672 37.7334C30.0677 38.3258 30.168 38.998 30.168 39.75ZM28.4453 40.2969V39.7363C28.4453 39.1803 28.3906 38.6904 28.2812 38.2666C28.1764 37.8382 28.0192 37.4805 27.8096 37.1934C27.6045 36.9017 27.3516 36.6829 27.0508 36.5371C26.7546 36.3867 26.415 36.3115 26.0322 36.3115C25.6585 36.3115 25.3236 36.3867 25.0273 36.5371C24.7311 36.6829 24.4782 36.9017 24.2686 37.1934C24.0589 37.4805 23.8994 37.8382 23.79 38.2666C23.6807 38.6904 23.626 39.1803 23.626 39.7363V40.2969C23.626 40.8529 23.6807 41.3451 23.79 41.7734C23.8994 42.2018 24.0589 42.5641 24.2686 42.8604C24.4827 43.152 24.738 43.373 25.0342 43.5234C25.335 43.6693 25.6722 43.7422 26.0459 43.7422C26.4287 43.7422 26.7682 43.6693 27.0645 43.5234C27.3607 43.373 27.6113 43.152 27.8164 42.8604C28.0215 42.5641 28.1764 42.2018 28.2812 41.7734C28.3906 41.3451 28.4453 40.8529 28.4453 40.2969ZM31.8154 44.1797C31.8154 43.9245 31.902 43.7103 32.0752 43.5371C32.2484 43.3594 32.4831 43.2705 32.7793 43.2705C33.0801 43.2705 33.3148 43.3594 33.4834 43.5371C33.6566 43.7103 33.7432 43.9245 33.7432 44.1797C33.7432 44.4349 33.6566 44.6491 33.4834 44.8223C33.3148 44.9954 33.0801 45.082 32.7793 45.082C32.4831 45.082 32.2484 44.9954 32.0752 44.8223C31.902 44.6491 31.8154 44.4349 31.8154 44.1797ZM40.0459 35.0127V45H38.3984V36.9678L35.958 37.7949V36.4346L39.8477 35.0127H40.0459Z" fill="white"/>
</svg>
