<svg width="77" height="61" viewBox="0 0 77 61" fill="none" xmlns="http://www.w3.org/2000/svg">
<path d="M1.74677 40.6408C5.17919 44.933 10.2175 45.8394 10.2175 45.8394L34.7767 18.4682L44.2233 27.3293L51.5901 19.8556L49.6334 17.8989L44.4023 23.1277L34.8161 14.0899L46.7726 0C46.7726 0 57.1838 0 58.8268 0C60.4698 0 61.2948 1.37115 61.841 2.46566C62.3895 3.56018 64.5809 7.39699 64.5809 7.39699L76.068 7.95711C76.068 7.95711 77.1625 18.8563 71.4085 18.8563C71.4085 18.8563 70.8624 22.4188 68.1225 22.4188C65.3826 22.4188 60.7277 22.4188 60.7277 22.4188C60.7277 22.4188 54.1232 29.9693 53.1866 31.2033C51.6737 33.1996 51.4296 33.3785 52.1013 35.1913C53.6444 39.3557 58.8756 51.0963 59.9121 53.8128C62.0083 59.2997 55.4687 61.5515 53.0007 57.3708C49.4985 51.4331 45.4944 44.9332 45.4944 44.9332L43.3494 47.9357C43.3494 47.9357 45.0668 50.5083 44.6368 54.3707C50.6418 54.3707 52.2315 60.8033 47.2118 60.8033C38.6318 60.8033 18.4719 60.8033 18.4719 60.8033C10.9656 60.8033 9.89664 56.9433 9.89664 52.651C3.88939 54.3704 -3.40066 47.0756 1.74677 40.6408Z" fill="#663E2A"/>
<path d="M27.5293 43.0693L30.1475 45.1475L29.0332 46.125L26.4629 44.0674L27.5293 43.0693ZM30.168 39.1455V39.6924C30.168 40.4443 30.07 41.1188 29.874 41.7158C29.6781 42.3128 29.3978 42.821 29.0332 43.2402C28.6686 43.6595 28.2334 43.9808 27.7275 44.2041C27.2217 44.4229 26.6611 44.5322 26.0459 44.5322C25.4352 44.5322 24.877 44.4229 24.3711 44.2041C23.8698 43.9808 23.4346 43.6595 23.0654 43.2402C22.6963 42.821 22.4092 42.3128 22.2041 41.7158C22.0036 41.1188 21.9033 40.4443 21.9033 39.6924V39.1455C21.9033 38.3936 22.0036 37.7214 22.2041 37.1289C22.4046 36.5319 22.6872 36.0238 23.0518 35.6045C23.4209 35.1807 23.8561 34.8594 24.3574 34.6406C24.8633 34.4173 25.4215 34.3057 26.0322 34.3057C26.6475 34.3057 27.208 34.4173 27.7139 34.6406C28.2243 34.8594 28.6618 35.1807 29.0264 35.6045C29.391 36.0238 29.6712 36.5319 29.8672 37.1289C30.0677 37.7214 30.168 38.3936 30.168 39.1455ZM28.4453 39.6924V39.1318C28.4453 38.5758 28.3906 38.0859 28.2812 37.6621C28.1764 37.2337 28.0192 36.876 27.8096 36.5889C27.6045 36.2972 27.3516 36.0785 27.0508 35.9326C26.7546 35.7822 26.415 35.707 26.0322 35.707C25.6585 35.707 25.3236 35.7822 25.0273 35.9326C24.7311 36.0785 24.4782 36.2972 24.2686 36.5889C24.0589 36.876 23.8994 37.2337 23.79 37.6621C23.6807 38.0859 23.626 38.5758 23.626 39.1318V39.6924C23.626 40.2484 23.6807 40.7406 23.79 41.1689C23.8994 41.5973 24.0589 41.9596 24.2686 42.2559C24.4827 42.5475 24.738 42.7686 25.0342 42.9189C25.335 43.0648 25.6722 43.1377 26.0459 43.1377C26.4287 43.1377 26.7682 43.0648 27.0645 42.9189C27.3607 42.7686 27.6113 42.5475 27.8164 42.2559C28.0215 41.9596 28.1764 41.5973 28.2812 41.1689C28.3906 40.7406 28.4453 40.2484 28.4453 39.6924ZM31.8154 43.5752C31.8154 43.32 31.902 43.1058 32.0752 42.9326C32.2484 42.7549 32.4831 42.666 32.7793 42.666C33.0801 42.666 33.3148 42.7549 33.4834 42.9326C33.6566 43.1058 33.7432 43.32 33.7432 43.5752C33.7432 43.8304 33.6566 44.0446 33.4834 44.2178C33.3148 44.391 33.0801 44.4775 32.7793 44.4775C32.4831 44.4775 32.2484 44.391 32.0752 44.2178C31.902 44.0446 31.8154 43.8304 31.8154 43.5752ZM37.4824 38.6738H38.4668C38.8496 38.6738 39.1663 38.6077 39.417 38.4756C39.6722 38.3434 39.8613 38.1611 39.9844 37.9287C40.1074 37.6963 40.1689 37.4297 40.1689 37.1289C40.1689 36.8145 40.112 36.5456 39.998 36.3223C39.8887 36.0944 39.7201 35.9189 39.4922 35.7959C39.2689 35.6729 38.984 35.6113 38.6377 35.6113C38.346 35.6113 38.0817 35.6706 37.8447 35.7891C37.6123 35.903 37.4277 36.0671 37.291 36.2812C37.1543 36.4909 37.0859 36.7415 37.0859 37.0332H35.4316C35.4316 36.5046 35.5706 36.0352 35.8486 35.625C36.1266 35.2148 36.5049 34.8936 36.9834 34.6611C37.4665 34.4242 38.0088 34.3057 38.6104 34.3057C39.2529 34.3057 39.8135 34.4128 40.292 34.627C40.7751 34.8366 41.151 35.151 41.4199 35.5703C41.6888 35.9896 41.8232 36.5091 41.8232 37.1289C41.8232 37.4115 41.7572 37.6986 41.625 37.9902C41.4928 38.2819 41.2969 38.5485 41.0371 38.79C40.7773 39.027 40.4538 39.2207 40.0664 39.3711C39.679 39.5169 39.2301 39.5898 38.7197 39.5898H37.4824V38.6738ZM37.4824 39.959V39.0566H38.7197C39.3031 39.0566 39.7998 39.125 40.21 39.2617C40.6247 39.3984 40.9619 39.5876 41.2217 39.8291C41.4814 40.0661 41.6706 40.3372 41.7891 40.6426C41.9121 40.9479 41.9736 41.2715 41.9736 41.6133C41.9736 42.0781 41.8893 42.4928 41.7207 42.8574C41.5566 43.2174 41.3219 43.5228 41.0166 43.7734C40.7113 44.0241 40.3535 44.2132 39.9434 44.3408C39.5378 44.4684 39.0957 44.5322 38.6172 44.5322C38.1888 44.5322 37.7786 44.473 37.3867 44.3545C36.9948 44.236 36.6439 44.0605 36.334 43.8281C36.0241 43.5911 35.778 43.2972 35.5957 42.9463C35.418 42.5908 35.3291 42.1807 35.3291 41.7158H36.9766C36.9766 42.012 37.0449 42.2741 37.1816 42.502C37.3229 42.7253 37.5189 42.9007 37.7695 43.0283C38.0247 43.1559 38.3164 43.2197 38.6445 43.2197C38.9909 43.2197 39.2894 43.1582 39.54 43.0352C39.7907 42.9121 39.9821 42.7298 40.1143 42.4883C40.251 42.2467 40.3193 41.9551 40.3193 41.6133C40.3193 41.2259 40.2441 40.9115 40.0938 40.6699C39.9434 40.4284 39.7292 40.2507 39.4512 40.1367C39.1732 40.0182 38.8451 39.959 38.4668 39.959H37.4824Z" fill="white"/>
</svg>
