<svg width="77" height="62" viewBox="0 0 77 62" fill="none" xmlns="http://www.w3.org/2000/svg">
<path d="M1.74677 41.2453C5.17919 45.5375 10.2175 46.4439 10.2175 46.4439L34.7767 19.0727L44.2233 27.9338L51.5901 20.4601L49.6334 18.5034L44.4023 23.7322L34.8161 14.6944L46.7726 0.604492C46.7726 0.604492 57.1838 0.604492 58.8268 0.604492C60.4698 0.604492 61.2948 1.97564 61.841 3.07016C62.3895 4.16467 64.5809 8.00148 64.5809 8.00148L76.068 8.5616C76.068 8.5616 77.1625 19.4608 71.4085 19.4608C71.4085 19.4608 70.8624 23.0233 68.1225 23.0233C65.3826 23.0233 60.7277 23.0233 60.7277 23.0233C60.7277 23.0233 54.1232 30.5738 53.1866 31.8078C51.6737 33.8041 51.4296 33.983 52.1013 35.7958C53.6444 39.9602 58.8756 51.7008 59.9121 54.4173C62.0083 59.9042 55.4687 62.156 53.0007 57.9753C49.4985 52.0376 45.4944 45.5376 45.4944 45.5376L43.3494 48.5402C43.3494 48.5402 45.0668 51.1128 44.6368 54.9752C50.6418 54.9752 52.2315 61.4078 47.2118 61.4078C38.6318 61.4078 18.4719 61.4078 18.4719 61.4078C10.9656 61.4078 9.89664 57.5478 9.89664 53.2554C3.88939 54.9749 -3.40066 47.6801 1.74677 41.2453Z" fill="#663E2A"/>
</svg>
