<svg width="34" height="31" viewBox="0 0 34 31" fill="none" xmlns="http://www.w3.org/2000/svg">
<g clip-path="url(#clip0_44_8573)">
<path d="M9.50791 22.8164C9.43061 22.7048 9.36619 22.6103 9.31895 22.5502C9.29318 22.5201 9.276 22.4944 9.26312 22.4772C9.25024 22.46 9.24594 22.4514 9.24594 22.4514C9.24594 22.4514 9.22447 22.4901 9.19012 22.5588C9.16005 22.6275 9.11711 22.722 9.06987 22.8422C8.97969 23.0827 8.88521 23.4177 8.85944 23.7913C8.84226 23.9802 8.85944 24.1649 8.89809 24.3539C8.93674 24.5428 9.00116 24.7318 9.09564 24.9078C9.1214 24.9508 9.14717 24.9937 9.17294 25.041C9.203 25.0839 9.23735 25.1226 9.26742 25.1612C9.33613 25.2385 9.41343 25.3115 9.49932 25.3802C9.6711 25.5177 9.87723 25.6293 10.122 25.7109C10.4312 25.4447 10.4999 25.1054 10.4484 24.749C10.4226 24.5729 10.3668 24.3925 10.2895 24.2164C10.2723 24.1735 10.2508 24.1306 10.2294 24.0833C10.2122 24.0404 10.1907 23.9931 10.1735 23.9502C10.1306 23.86 10.0877 23.7741 10.0447 23.6882C9.95453 23.5164 9.85146 23.3575 9.75698 23.2115C9.6711 23.0612 9.58521 22.9238 9.50791 22.8122V22.8164Z" fill="#594835"/>
<path d="M8.13791 22.0907L8.10785 21.9575C8.0649 21.7815 8.01337 21.614 7.95754 21.4637C7.93177 21.3907 7.90171 21.3177 7.87594 21.2489C7.85447 21.1802 7.833 21.1158 7.81153 21.0557C7.72564 20.8195 7.65693 20.6692 7.65693 20.6692C7.65693 20.6692 7.54098 20.798 7.39496 21.017C7.32196 21.1244 7.24036 21.2575 7.16306 21.4035C7.08576 21.5496 7.00846 21.717 6.96122 21.8888C6.91399 22.0606 6.87963 22.241 6.86675 22.4299C6.86245 22.5244 6.86245 22.6146 6.86675 22.7091C6.86675 22.7563 6.87534 22.8035 6.88392 22.8508C6.89251 22.8937 6.9054 22.941 6.92257 22.9839C6.9827 23.16 7.07288 23.3318 7.20171 23.4907C7.26613 23.568 7.33914 23.6453 7.42932 23.7097C7.5195 23.7741 7.62257 23.8342 7.73423 23.8857C8.09067 23.671 8.2195 23.3575 8.24097 23.0226C8.25815 22.8508 8.24956 22.6704 8.2195 22.49C8.20662 22.3999 8.18515 22.314 8.16367 22.2238C8.15079 22.1808 8.1422 22.1379 8.12932 22.095L8.13791 22.0907Z" fill="#594835"/>
<path d="M5.56133 21.6612C5.63004 21.7342 5.71164 21.8072 5.80182 21.8717C6.18832 21.7214 6.39446 21.4422 6.49752 21.1244C6.52329 21.0471 6.54476 20.9612 6.56623 20.8796C6.58341 20.7938 6.60059 20.7079 6.60918 20.622C6.63065 20.4459 6.62636 20.2741 6.62206 20.1066C6.62206 19.9349 6.62206 19.7674 6.60488 19.6128C6.592 19.4582 6.56623 19.325 6.56194 19.2005C6.54047 18.96 6.50611 18.8054 6.50611 18.8054C6.50611 18.8054 6.36439 18.9128 6.17544 19.1017C6.07667 19.1962 5.9693 19.3079 5.86194 19.4367C5.80611 19.5011 5.75029 19.5698 5.70305 19.6428C5.65151 19.7158 5.60427 19.7889 5.56133 19.8662C5.47115 20.0208 5.39385 20.1925 5.33802 20.3643C5.30796 20.4502 5.28648 20.5404 5.26931 20.6306C5.26072 20.7207 5.25642 20.8066 5.26072 20.8968C5.26931 21.0729 5.31225 21.2533 5.39814 21.4207C5.43679 21.5066 5.49691 21.5839 5.56562 21.6569L5.56133 21.6612Z" fill="#594835"/>
<path d="M4.12707 19.4325C4.17431 19.5141 4.23443 19.5914 4.30314 19.6687C4.71112 19.5828 4.97308 19.3466 5.14915 19.0631C5.17062 19.0288 5.1921 18.9901 5.21357 18.9558C5.23504 18.9171 5.25651 18.8785 5.27369 18.8398C5.31234 18.7625 5.3467 18.6809 5.37676 18.5993C5.43688 18.4362 5.47982 18.2687 5.50989 18.1012C5.54854 17.9337 5.58289 17.7705 5.60007 17.6202C5.61295 17.5429 5.61725 17.4742 5.62584 17.4055C5.63013 17.3368 5.63442 17.2724 5.64301 17.2122C5.67308 16.9717 5.67737 16.8171 5.67737 16.8171C5.67737 16.8171 5.51847 16.903 5.29516 17.0619C5.18351 17.1392 5.05467 17.2337 4.92154 17.3454C4.78842 17.457 4.66388 17.5816 4.53934 17.719C4.41909 17.8564 4.30314 18.0067 4.20866 18.1699C4.16142 18.2515 4.11848 18.3331 4.08412 18.4147C4.05406 18.4963 4.0283 18.5822 4.01112 18.6681C3.97676 18.8398 3.97676 19.0116 4.01112 19.1834C4.0283 19.2693 4.06695 19.3509 4.11419 19.4325H4.12707Z" fill="#594835"/>
<path d="M4.45778 16.701C4.56944 16.5765 4.6768 16.4305 4.76698 16.2759C4.85717 16.1256 4.93017 15.9624 4.99459 15.8078C5.12772 15.49 5.23078 15.1808 5.28661 14.9489C5.35532 14.717 5.38538 14.5581 5.38538 14.5581C5.38538 14.5581 5.2179 14.6268 4.97741 14.7557C4.85717 14.8201 4.71545 14.9017 4.57373 14.9918C4.43201 15.0863 4.286 15.1937 4.14428 15.3139C3.86085 15.5544 3.586 15.8464 3.46147 16.1642C3.39275 16.3231 3.3584 16.4906 3.3584 16.6624C3.36269 16.8299 3.42282 17.0017 3.52159 17.1648C3.92527 17.1391 4.23017 16.9501 4.45778 16.6967V16.701Z" fill="#594835"/>
<path d="M3.92518 14.5453C3.9896 14.4895 4.05402 14.4293 4.11414 14.3649C4.17426 14.3005 4.23438 14.2318 4.29021 14.1631C4.40187 14.0214 4.50064 13.8711 4.58653 13.725C4.62947 13.652 4.66812 13.579 4.70677 13.5017C4.74542 13.4244 4.78407 13.3514 4.81843 13.2784C4.88714 13.1324 4.94297 12.9993 4.98591 12.8833C5.0718 12.6514 5.12334 12.4968 5.12334 12.4968C5.12334 12.4968 4.95156 12.5527 4.70677 12.6686C4.46199 12.7803 4.13991 12.9477 3.8307 13.1625C3.6761 13.2698 3.5258 13.3901 3.38837 13.5189C3.25525 13.6477 3.1393 13.7852 3.04911 13.9312C2.95893 14.0772 2.89451 14.2361 2.86874 14.3993C2.85157 14.5625 2.86874 14.7299 2.93746 14.9017C3.32825 14.9189 3.65463 14.7729 3.91659 14.5496L3.92518 14.5453Z" fill="#594835"/>
<path d="M2.76995 12.4753C3.14357 12.5225 3.47424 12.4023 3.75338 12.2004C3.8951 12.1016 4.02393 11.9814 4.13988 11.8483C4.26442 11.7194 4.37178 11.582 4.47055 11.4446C4.56933 11.3072 4.65092 11.1655 4.73681 11.0366C4.81841 10.9078 4.88712 10.7918 4.94295 10.6888C4.99877 10.5857 5.04172 10.4998 5.07178 10.4397C5.10184 10.3796 5.11902 10.3452 5.11902 10.3452C5.11902 10.3452 5.07607 10.3538 5.00307 10.3753C4.92577 10.3925 4.827 10.4268 4.70246 10.4698C4.45767 10.5556 4.127 10.6845 3.80491 10.8648C3.72332 10.9078 3.64602 10.9593 3.56442 11.0066C3.48712 11.0581 3.41412 11.1139 3.34541 11.1698C3.20369 11.2857 3.07915 11.4102 2.97608 11.5477C2.76565 11.8182 2.67976 12.136 2.76565 12.4753H2.76995Z" fill="#594835"/>
<path d="M4.02814 9.64112C4.31158 9.47364 4.59072 9.24174 4.81403 9.00983C4.86986 8.94971 4.92139 8.89388 4.97292 8.83376C5.02875 8.77793 5.08028 8.72211 5.12752 8.67057C5.222 8.56321 5.30789 8.46014 5.37231 8.37425C5.43672 8.28837 5.49685 8.21536 5.5355 8.16812C5.57415 8.11659 5.59562 8.09082 5.59562 8.09082C5.59562 8.09082 5.42814 8.1037 5.17476 8.15094C4.92139 8.19818 4.59501 8.27978 4.26004 8.4129C4.09256 8.47732 3.92507 8.55892 3.77047 8.6491C3.62017 8.74358 3.48274 8.85094 3.36679 8.97118C3.30667 9.03131 3.25514 9.09572 3.2079 9.16014C3.16066 9.22456 3.12201 9.29327 3.09624 9.36628C3.04471 9.51229 3.02324 9.66689 3.049 9.83008C3.40544 9.89879 3.73612 9.80861 4.02385 9.64112H4.02814Z" fill="#594835"/>
<path d="M6.33864 6.1626C6.2141 6.1626 6.06379 6.17548 5.9049 6.18836C5.74171 6.20554 5.57852 6.23131 5.40674 6.26996C5.23496 6.30861 5.05889 6.35585 4.8914 6.42027C4.80551 6.45033 4.72392 6.48468 4.64232 6.52763C4.56502 6.56628 4.49202 6.61352 4.4276 6.66076C4.15705 6.85401 3.94233 7.10308 3.92944 7.42088C4.25153 7.53683 4.5822 7.49388 4.88711 7.38652C5.20919 7.27916 5.50981 7.10308 5.77606 6.91842C6.0595 6.74235 6.2871 6.5491 6.46318 6.40738C6.64354 6.26566 6.7509 6.17119 6.7509 6.17119C6.7509 6.17119 6.58772 6.1626 6.33864 6.17119V6.1626Z" fill="#594835"/>
<path d="M7.94058 4.30739C7.69579 4.28592 7.36083 4.27304 7.02156 4.3031C6.67801 4.33316 6.30868 4.40187 5.99519 4.54359C5.69887 4.6896 5.4412 4.89573 5.33813 5.18776C5.47556 5.26506 5.62157 5.308 5.77617 5.32518C5.93506 5.34236 6.09825 5.32947 6.26144 5.30371C6.42463 5.27365 6.58782 5.2307 6.75101 5.17058C6.90991 5.11475 7.06451 5.04604 7.2234 4.97733C7.5369 4.8399 7.79886 4.68101 8.00499 4.56076C8.21113 4.44481 8.33996 4.35892 8.33996 4.35892C8.33996 4.35892 8.18536 4.33316 7.94058 4.31169V4.30739Z" fill="#594835"/>
<path d="M7.70437 2.59385C7.41235 2.73127 7.15898 2.93311 7.05591 3.21655C7.56695 3.52575 8.29701 3.29385 8.88105 3.00612C9.18167 2.86011 9.45651 2.70121 9.64976 2.57667C9.84731 2.45213 9.96755 2.36195 9.96755 2.36195C9.96755 2.36195 9.37062 2.28035 8.69639 2.35336C8.36142 2.38771 7.9964 2.46072 7.70437 2.59814V2.59385Z" fill="#594835"/>
<path d="M23.6497 25.711C23.8945 25.6294 24.1006 25.5134 24.2724 25.376C24.3583 25.3073 24.4356 25.2343 24.5043 25.157C24.5386 25.1183 24.573 25.0797 24.5988 25.0367C24.6288 24.9938 24.6503 24.9508 24.6761 24.9036C24.7705 24.7275 24.8349 24.5386 24.8736 24.3496C24.908 24.1607 24.9337 23.976 24.9123 23.787C24.8865 23.4134 24.792 23.0785 24.7018 22.838C24.6546 22.7177 24.6116 22.6189 24.5816 22.5502C24.5472 22.4815 24.5257 22.4429 24.5257 22.4429C24.5257 22.4429 24.5215 22.4515 24.5086 22.4686C24.4957 22.4858 24.4785 22.5116 24.4527 22.5416C24.4055 22.6061 24.3368 22.6962 24.2638 22.8079C24.1865 22.9196 24.1006 23.057 24.0147 23.2073C23.9159 23.3533 23.8172 23.5122 23.727 23.684C23.6797 23.7699 23.6368 23.8557 23.5981 23.9459C23.5767 23.9889 23.5595 24.0361 23.538 24.0791C23.5166 24.122 23.4951 24.165 23.4779 24.2122C23.4006 24.3883 23.3448 24.5686 23.319 24.7447C23.2675 25.0968 23.3362 25.4404 23.6454 25.7067L23.6497 25.711Z" fill="#594835"/>
<path d="M26.3809 21.0214C26.2349 20.8067 26.119 20.6736 26.119 20.6736C26.119 20.6736 26.046 20.8196 25.9644 21.0601C25.9429 21.1202 25.9214 21.1846 25.9 21.2533C25.8742 21.322 25.8441 21.3908 25.8184 21.4681C25.7625 21.6184 25.711 21.7858 25.6681 21.9619L25.638 22.0951C25.6251 22.138 25.6122 22.1809 25.6036 22.2239C25.5822 22.3098 25.565 22.4 25.5478 22.4901C25.5177 22.6662 25.5092 22.8466 25.5263 23.0227C25.5521 23.3619 25.6809 23.6711 26.0331 23.8858C26.1447 23.8343 26.2435 23.7742 26.338 23.7098C26.4282 23.6454 26.4969 23.5681 26.5656 23.4908C26.6944 23.3362 26.7889 23.1644 26.8447 22.984C26.8576 22.9411 26.8705 22.8938 26.8834 22.8509C26.892 22.8036 26.8963 22.7564 26.9006 22.7092C26.9091 22.6147 26.9092 22.5202 26.9049 22.43C26.8963 22.2454 26.8619 22.0607 26.8104 21.8889C26.7631 21.7214 26.6858 21.5497 26.6085 21.4036C26.5312 21.2576 26.4496 21.1245 26.3766 21.0171L26.3809 21.0214Z" fill="#594835"/>
<path d="M28.2189 19.8662C28.1717 19.7889 28.1244 19.7116 28.0772 19.6428C28.03 19.5698 27.9698 19.5011 27.9183 19.4367C27.811 19.3079 27.6993 19.1919 27.6048 19.1017C27.4116 18.9171 27.2698 18.8054 27.2698 18.8054C27.2698 18.8054 27.2398 18.96 27.214 19.2005C27.2097 19.325 27.184 19.4582 27.1711 19.6128C27.1582 19.7674 27.1496 19.9306 27.1539 20.1066C27.1496 20.2741 27.1453 20.4502 27.1668 20.622C27.1754 20.7079 27.1925 20.7938 27.2097 20.8796C27.2312 20.9655 27.2527 21.0471 27.2784 21.1244C27.3815 21.4379 27.5876 21.7171 27.9741 21.8717C28.0686 21.8072 28.1459 21.7342 28.2189 21.6612C28.2876 21.5882 28.3478 21.5066 28.3864 21.425C28.468 21.2576 28.5109 21.0815 28.5238 20.9011C28.5281 20.8109 28.5238 20.725 28.5152 20.6349C28.4981 20.5447 28.4766 20.4545 28.4465 20.3686C28.3907 20.1925 28.3134 20.025 28.2232 19.8704L28.2189 19.8662Z" fill="#594835"/>
<path d="M28.6269 19.063C28.803 19.3464 29.0649 19.5826 29.4729 19.6685C29.5459 19.5912 29.6017 19.5139 29.649 19.4323C29.6962 19.3507 29.7349 19.2691 29.752 19.1832C29.7907 19.0115 29.7864 18.8354 29.752 18.6679C29.7349 18.582 29.7134 18.4961 29.6833 18.4145C29.649 18.3329 29.606 18.2471 29.5588 18.1698C29.4643 18.0109 29.3527 17.8605 29.2281 17.7231C29.1036 17.5857 28.9833 17.4612 28.8459 17.3495C28.7128 17.2379 28.584 17.1434 28.4723 17.0661C28.249 16.9115 28.0901 16.8213 28.0901 16.8213C28.0901 16.8213 28.0901 16.9759 28.1201 17.2164C28.1287 17.2765 28.133 17.3409 28.1416 17.4096C28.1502 17.4783 28.1545 17.5513 28.1674 17.6244C28.1889 17.7747 28.2189 17.9378 28.2576 18.1053C28.2876 18.2685 28.3306 18.436 28.3907 18.6035C28.4208 18.6851 28.4551 18.7667 28.4938 18.844C28.5152 18.8826 28.5324 18.9213 28.5539 18.9599C28.5754 18.9986 28.5925 19.0329 28.614 19.0716L28.6269 19.063Z" fill="#594835"/>
<path d="M30.422 16.6668C30.422 16.4993 30.3834 16.3318 30.3189 16.1729C30.1944 15.8551 29.9196 15.5588 29.6361 15.3226C29.4944 15.2024 29.3441 15.095 29.2067 15.0005C29.065 14.9061 28.9232 14.8288 28.803 14.76C28.5625 14.6312 28.395 14.5625 28.395 14.5625C28.395 14.5625 28.4251 14.7171 28.4938 14.9533C28.5496 15.1852 28.6484 15.4944 28.7858 15.8122C28.8459 15.9711 28.9232 16.13 29.0134 16.2803C29.1036 16.4306 29.211 16.5766 29.3226 16.7054C29.5502 16.9588 29.8551 17.1478 30.2588 17.1735C30.3576 17.006 30.4177 16.8386 30.422 16.6711V16.6668Z" fill="#594835"/>
<path d="M30.903 14.3949C30.8816 14.2317 30.8128 14.0771 30.7227 13.9268C30.6325 13.7808 30.5165 13.6391 30.3834 13.5145C30.2503 13.3857 30.0957 13.2654 29.9411 13.1581C29.6319 12.9433 29.3098 12.7759 29.065 12.6642C28.8202 12.5526 28.6484 12.4924 28.6484 12.4924C28.6484 12.4924 28.7 12.6427 28.7859 12.8789C28.8288 12.9949 28.8889 13.1323 28.9533 13.274C28.9877 13.347 29.0221 13.42 29.065 13.4973C29.1037 13.5703 29.1423 13.6433 29.1852 13.7206C29.2711 13.871 29.3699 14.0213 29.4816 14.1587C29.5374 14.2274 29.5975 14.2961 29.6576 14.3605C29.7178 14.4249 29.7779 14.4851 29.8466 14.5409C30.1128 14.7642 30.4349 14.9102 30.8257 14.893C30.8944 14.7213 30.9116 14.5538 30.8944 14.3906L30.903 14.3949Z" fill="#594835"/>
<path d="M30.7956 11.5477C30.6926 11.4102 30.5637 11.2857 30.4263 11.1698C30.3576 11.1139 30.2846 11.0581 30.2073 11.0066C30.13 10.955 30.0484 10.9078 29.9711 10.8648C29.649 10.6845 29.3226 10.5556 29.0735 10.4698C28.949 10.4268 28.8502 10.3967 28.7729 10.3753C28.6956 10.3581 28.657 10.3452 28.657 10.3452C28.657 10.3452 28.6742 10.3796 28.7042 10.4397C28.7343 10.4998 28.7729 10.5857 28.8288 10.6888C28.8846 10.7918 28.9533 10.9121 29.0349 11.0366C29.1208 11.1612 29.1981 11.3072 29.3012 11.4446C29.3999 11.582 29.5116 11.7237 29.6361 11.8483C29.7564 11.9771 29.8809 12.0974 30.0226 12.2004C30.3018 12.4023 30.6324 12.5225 31.0061 12.4753C31.0919 12.136 31.0061 11.8182 30.7956 11.5477Z" fill="#594835"/>
<path d="M30.568 9.16014C30.5208 9.09572 30.4693 9.03131 30.4091 8.97118C30.2932 8.85094 30.1515 8.74358 30.0055 8.6491C29.8509 8.55462 29.6834 8.47732 29.5159 8.4129C29.1809 8.27978 28.8545 8.19389 28.6012 8.15094C28.3478 8.1037 28.176 8.09082 28.176 8.09082C28.176 8.09082 28.1975 8.12088 28.2361 8.16812C28.2748 8.21965 28.3349 8.28837 28.3993 8.37425C28.468 8.46014 28.5496 8.56321 28.6441 8.67057C28.6914 8.72211 28.7429 8.78223 28.7987 8.83376C28.8503 8.89388 28.9018 8.94971 28.9576 9.00983C29.1809 9.24603 29.4601 9.47793 29.7435 9.64541C30.0355 9.8086 30.3662 9.90308 30.7226 9.83437C30.7484 9.67118 30.7269 9.51658 30.6754 9.37057C30.6496 9.29756 30.611 9.22885 30.5637 9.16444L30.568 9.16014Z" fill="#594835"/>
<path d="M29.3527 6.65627C29.284 6.60903 29.2153 6.56179 29.1337 6.52314C29.0521 6.48449 28.9705 6.45014 28.8846 6.41578C28.7172 6.35136 28.5411 6.30413 28.3693 6.26548C28.1975 6.22683 28.0343 6.20106 27.8712 6.18388C27.708 6.1667 27.562 6.15811 27.4374 6.15811C27.1883 6.14953 27.0251 6.15811 27.0251 6.15811C27.0251 6.15811 27.1325 6.25689 27.3129 6.39431C27.4889 6.53603 27.7166 6.72498 28 6.90535C28.2619 7.09001 28.5626 7.26609 28.8889 7.37345C29.1981 7.4851 29.5245 7.52375 29.8466 7.4078C29.838 7.09001 29.619 6.84093 29.3527 6.64768V6.65627Z" fill="#594835"/>
<path d="M27.7809 4.53919C27.4674 4.40177 27.0981 4.32876 26.7545 4.2987C26.4153 4.26864 26.076 4.28152 25.8355 4.303C25.595 4.32447 25.4404 4.35024 25.4404 4.35024C25.4404 4.35024 25.5693 4.43612 25.7754 4.55208C25.9815 4.67232 26.2435 4.83122 26.557 4.96864C26.7159 5.03735 26.8705 5.10606 27.0294 5.16189C27.1883 5.21772 27.3558 5.26496 27.5189 5.29502C27.6821 5.32508 27.8453 5.33367 28.0042 5.31649C28.1588 5.29931 28.3048 5.26066 28.4423 5.17907C28.3392 4.88704 28.0815 4.67661 27.7852 4.5349L27.7809 4.53919Z" fill="#594835"/>
<path d="M24.8951 3.00167C25.4791 3.2937 26.2092 3.5213 26.7202 3.2121C26.6129 2.92867 26.3638 2.73112 26.0718 2.58941C25.7798 2.44769 25.419 2.37898 25.084 2.34462C24.4098 2.27591 23.8086 2.35321 23.8086 2.35321C23.8086 2.35321 23.9288 2.4434 24.1264 2.56793C24.3196 2.69247 24.5988 2.85137 24.8994 2.99738L24.8951 3.00167Z" fill="#594835"/>
<path d="M31.2896 17.4741C31.6589 17.5385 32.0067 17.4397 32.3245 17.2293C32.4963 17.1219 32.638 16.9802 32.7798 16.8256C32.9172 16.671 33.046 16.4992 33.162 16.3232C33.381 15.9753 33.5313 15.606 33.6386 15.3311C33.7331 15.0563 33.7761 14.8673 33.7761 14.8673C33.7761 14.8673 33.6043 14.9446 33.3509 15.0821C33.2264 15.1508 33.0847 15.2324 32.9215 15.3268C32.7626 15.4213 32.5951 15.5287 32.4276 15.6446C32.0969 15.8765 31.7877 16.1471 31.5472 16.452C31.5344 16.4649 31.5258 16.4821 31.5172 16.4949C31.6331 15.9538 31.7276 15.4127 31.8006 14.8673C32.1098 14.8545 32.3804 14.7256 32.6123 14.5281C32.681 14.468 32.7497 14.3992 32.8141 14.3305C32.8742 14.2575 32.9301 14.1845 32.9859 14.1029C33.0933 13.944 33.1877 13.7723 33.2693 13.5962C33.308 13.5103 33.3466 13.4201 33.381 13.3342C33.411 13.2483 33.4411 13.1667 33.4669 13.0851C33.5184 12.9219 33.5613 12.7716 33.5914 12.6385C33.6558 12.3765 33.673 12.2005 33.673 12.2005C33.673 12.2005 33.5184 12.2864 33.2865 12.4281C33.0546 12.5698 32.754 12.7759 32.4706 13.0207C32.3288 13.141 32.1914 13.2741 32.0669 13.4158C32.0153 13.4759 31.9638 13.5361 31.9166 13.5962C31.9423 13.1367 31.9509 12.6729 31.9337 12.2134C32.1528 12.1532 32.3417 12.033 32.5049 11.8655C32.6252 11.741 32.7325 11.595 32.8227 11.4404C32.9086 11.2815 32.9816 11.1097 33.0374 10.9379C33.0933 10.7661 33.1491 10.5943 33.1791 10.4269C33.2092 10.2637 33.2307 10.1048 33.2436 9.97165C33.2564 9.83852 33.265 9.72687 33.2693 9.64957C33.2693 9.57227 33.2693 9.52503 33.2693 9.52503C33.2693 9.52503 33.235 9.55079 33.1748 9.59374C33.1147 9.63668 33.0288 9.7011 32.9258 9.7827C32.7239 9.94588 32.4577 10.1692 32.2129 10.4269C32.1528 10.4913 32.0926 10.56 32.0368 10.6287C31.9767 10.6974 31.9209 10.7661 31.865 10.8391C31.8479 10.8606 31.8393 10.8778 31.8221 10.8993C31.762 10.4569 31.6804 10.0189 31.573 9.58515C31.7791 9.50785 31.9466 9.37043 32.0755 9.19435C32.2816 8.93239 32.3761 8.57595 32.4276 8.21951C32.4405 8.12933 32.4534 8.04344 32.4577 7.95325C32.4577 7.86737 32.4577 7.77718 32.4577 7.69559C32.4534 7.5281 32.4405 7.36921 32.4276 7.23608C32.4147 7.10295 32.3933 6.9913 32.3718 6.91399C32.3546 6.83669 32.3417 6.79375 32.3417 6.79375C32.3417 6.79375 32.2301 6.90541 32.0798 7.09007C31.9294 7.27473 31.7147 7.5281 31.5344 7.81154C31.4442 7.95325 31.3626 8.09927 31.2896 8.25387C31.2595 8.30969 31.238 8.36552 31.2123 8.42565C31.0319 7.92319 30.8344 7.45939 30.6153 7.02995C30.8387 6.93117 30.9933 6.7551 31.092 6.53608C31.2037 6.25694 31.2209 5.9005 31.1822 5.54836C31.1264 5.2048 31.0276 4.86124 30.9288 4.61646C30.8258 4.37167 30.7399 4.21278 30.7399 4.21278C30.7399 4.21278 30.6626 4.33732 30.5595 4.53057C30.508 4.62934 30.4522 4.74529 30.4006 4.86983C30.3491 4.99867 30.2847 5.14038 30.2331 5.29069C30.1816 5.44099 30.1344 5.5913 30.1086 5.7459C30.0957 5.8232 30.0828 5.9005 30.0785 5.9778C30.0785 6.00357 30.0785 6.03363 30.0742 6.0594C29.7565 5.56124 29.4086 5.10173 29.0264 4.65081C29.1338 4.59499 29.2196 4.52627 29.2841 4.44039C29.3657 4.33302 29.4129 4.20848 29.4344 4.06677C29.4558 3.92505 29.4515 3.77474 29.4258 3.61155C29.4 3.45266 29.3614 3.28518 29.2969 3.13057C29.1767 2.82137 29.0178 2.51647 28.8804 2.30174C28.7387 2.09131 28.6313 1.95389 28.6313 1.95389C28.6313 1.95389 28.5798 2.07843 28.5196 2.27168C28.4595 2.46493 28.3951 2.7269 28.3522 3.02321C28.3135 3.31524 28.3135 3.62444 28.3908 3.91217C28.3951 3.93364 28.3994 3.95082 28.408 3.97229C27.9614 3.50419 27.4675 3.04039 26.9307 2.55512C27.4632 2.2545 27.3172 1.62751 27.0209 1.05635C26.8663 0.77721 26.6773 0.519542 26.5227 0.326291C26.3724 0.137335 26.2565 0.0170898 26.2565 0.0170898C26.2565 0.0170898 26.1062 0.502364 26.1105 1.05206C26.1105 1.3269 26.1577 1.61463 26.2736 1.88518C26.2994 1.94101 26.3252 1.99254 26.3552 2.04408C25.8657 1.61034 25.0111 1.16371 25.0111 1.16371C28.408 4.00664 30.9976 7.44651 31.3841 11.3888C31.5215 12.8189 31.3497 14.2489 31.1264 15.6704C30.8773 17.2722 30.4693 18.8698 29.6405 20.3557C28.3565 22.6532 26.643 24.4912 24.3154 25.9256C24.3154 25.9256 20.8197 27.6777 17.0706 27.7164C16.9804 27.7164 16.8902 27.7164 16.8001 27.7164C16.7571 27.7164 16.7142 27.7164 16.6712 27.7164C12.9694 27.6648 9.42647 25.9256 9.42647 25.9256C7.09888 24.4912 5.38539 22.6532 4.10134 20.3557C3.27251 18.8698 2.86883 17.2722 2.61546 15.6704C2.39215 14.2489 2.22037 12.8232 2.35779 11.3888C2.74429 7.44651 5.33815 4.00664 8.73077 1.16371C8.73077 1.16371 7.87617 1.61034 7.38661 2.04408C7.41667 1.99254 7.44673 1.94101 7.4682 1.88518C7.57986 1.61463 7.6271 1.3269 7.63139 1.05206C7.63568 0.502364 7.48538 0.0170898 7.48538 0.0170898C7.48538 0.0170898 7.37372 0.137335 7.21912 0.326291C7.06881 0.515247 6.87556 0.772915 6.72096 1.05635C6.42465 1.62751 6.27863 2.2588 6.81115 2.55941C6.27434 3.04469 5.78048 3.50849 5.33385 3.97658C5.33815 3.95511 5.34674 3.93793 5.35103 3.91646C5.43263 3.62873 5.43263 3.31953 5.38968 3.02751C5.34674 2.73548 5.28232 2.46923 5.2222 2.27598C5.16207 2.08273 5.11054 1.95819 5.11054 1.95819C5.11054 1.95819 5.00318 2.09561 4.86576 2.30604C4.72833 2.52076 4.56944 2.82567 4.44919 3.13487C4.38478 3.28947 4.34613 3.45266 4.32036 3.61585C4.29459 3.77474 4.2903 3.92934 4.31177 4.07106C4.33324 4.21278 4.38048 4.33732 4.46208 4.44468C4.52649 4.53057 4.61238 4.59928 4.71975 4.65511C4.33754 5.10173 3.98539 5.56553 3.6719 6.06369C3.6719 6.03363 3.6676 6.00786 3.6676 5.9821C3.66331 5.9048 3.65042 5.8275 3.63754 5.7502C3.60748 5.5956 3.56454 5.44099 3.513 5.29498C3.46147 5.14897 3.39705 5.00296 3.34552 4.87842C3.28969 4.74959 3.23386 4.63364 3.18662 4.53916C3.08785 4.34161 3.01055 4.22137 3.01055 4.22137C3.01055 4.22137 2.92466 4.38026 2.82159 4.62505C2.72282 4.87413 2.62405 5.21339 2.56822 5.55695C2.52957 5.9048 2.54675 6.26553 2.6584 6.54467C2.75718 6.76369 2.91178 6.93976 3.13509 7.03853C2.91607 7.47227 2.71853 7.93178 2.53816 8.43423C2.51669 8.37841 2.49092 8.31828 2.46086 8.26246C2.38785 8.11215 2.30626 7.96184 2.21607 7.82013C2.03571 7.53669 1.82528 7.28332 1.67068 7.09866C1.52037 6.914 1.40872 6.80234 1.40872 6.80234C1.40872 6.80234 1.40013 6.84528 1.37865 6.92258C1.36148 6.99988 1.33571 7.11154 1.32283 7.24467C1.30994 7.3778 1.29706 7.53669 1.29276 7.70418C1.29276 7.79007 1.29276 7.87595 1.29276 7.96184C1.29706 8.05203 1.30994 8.13792 1.32283 8.2281C1.37436 8.58454 1.47313 8.93669 1.67497 9.20294C1.8081 9.38331 1.97129 9.51644 2.17742 9.59374C2.07006 10.0275 1.98847 10.4655 1.92834 10.9078C1.91546 10.8864 1.90258 10.8692 1.8854 10.8477C1.83387 10.7747 1.77374 10.706 1.71362 10.6373C1.65779 10.5686 1.59767 10.4999 1.53755 10.4355C1.29276 10.1778 1.0308 9.95018 0.824669 9.79128C0.721601 9.70969 0.635712 9.64527 0.57559 9.60233C0.515467 9.55938 0.481112 9.53362 0.481112 9.53362C0.481112 9.53362 0.481112 9.58086 0.481112 9.65816C0.485406 9.73546 0.493995 9.84711 0.506878 9.98024C0.519762 10.1134 0.541234 10.2723 0.571295 10.4355C0.597062 10.6029 0.65289 10.7747 0.708718 10.9465C0.768841 11.1183 0.841846 11.2901 0.927736 11.4489C1.01792 11.6078 1.12528 11.7539 1.24553 11.8741C1.40872 12.0373 1.59767 12.1575 1.81669 12.2219C1.79951 12.6815 1.8081 13.1453 1.83387 13.6048C1.78663 13.5446 1.73939 13.4845 1.68356 13.4244C1.55902 13.2827 1.4216 13.1538 1.27988 13.0293C0.996447 12.7845 0.695835 12.5827 0.463934 12.4367C0.232033 12.2907 0.0774323 12.2091 0.0774323 12.2091C0.0774323 12.2091 0.0946102 12.3894 0.159027 12.6471C0.189088 12.7759 0.232033 12.9305 0.283566 13.0894C0.309333 13.171 0.339394 13.2526 0.369456 13.3385C0.403811 13.4244 0.442461 13.5146 0.481112 13.6005C0.562706 13.7765 0.657185 13.9483 0.764546 14.1072C0.81608 14.1845 0.876202 14.2618 0.936325 14.3348C1.00074 14.4078 1.06945 14.4722 1.13816 14.5324C1.37007 14.7342 1.64491 14.8587 1.94982 14.8716C2.02282 15.417 2.1173 15.9624 2.23325 16.4992C2.22466 16.4863 2.21178 16.4692 2.20319 16.4563C1.9627 16.1557 1.6535 15.8851 1.32283 15.6489C1.15964 15.533 0.987858 15.4256 0.828963 15.3311C0.670068 15.2367 0.528351 15.1551 0.399517 15.0864C0.146144 14.9489 -0.0256348 14.8716 -0.0256348 14.8716C-0.0256348 14.8716 0.0173098 15.0606 0.111788 15.3354C0.21915 15.6146 0.369456 15.9796 0.588473 16.3275C0.704424 16.5035 0.828963 16.6753 0.97068 16.8299C1.1124 16.9845 1.25411 17.1219 1.42589 17.2336C1.74368 17.4397 2.09153 17.5428 2.46086 17.4784C2.47804 17.5471 2.49521 17.6158 2.51239 17.6845C2.64123 18.1655 2.79583 18.6422 2.98049 19.1103C2.94613 19.0759 2.91178 19.0416 2.87313 19.0029C2.79583 18.9342 2.71423 18.8655 2.62834 18.8011C2.54245 18.7366 2.46086 18.6722 2.37067 18.6121C2.19031 18.4919 2.00135 18.3802 1.8081 18.2814C1.61914 18.1784 1.4173 18.0925 1.24123 18.0109C1.06516 17.9293 0.901969 17.8606 0.760252 17.8047C0.476817 17.6931 0.283566 17.6287 0.283566 17.6287C0.283566 17.6287 0.365161 17.8219 0.511173 18.1011C0.584179 18.2428 0.69154 18.4017 0.807491 18.5692C0.923441 18.7366 1.05657 18.9127 1.20258 19.0802C1.36148 19.2477 1.52896 19.4109 1.70503 19.5526C1.79092 19.6256 1.88111 19.69 1.97558 19.7501C2.02282 19.7802 2.06577 19.806 2.11301 19.836C2.16454 19.8618 2.21178 19.8876 2.25902 19.909C2.63693 20.0808 3.01914 20.1323 3.37987 20.0121C3.64184 20.536 3.94245 21.0514 4.29459 21.5452C4.23877 21.5023 4.18294 21.4636 4.12282 21.425C4.02834 21.3649 3.92527 21.309 3.8222 21.2575C3.72343 21.2017 3.62036 21.1544 3.5173 21.1029C3.30687 21.0084 3.08356 20.9225 2.86454 20.8495C2.75288 20.8109 2.64552 20.7765 2.53386 20.7465C2.4265 20.7164 2.32344 20.682 2.22466 20.652C2.02712 20.5919 1.84246 20.5446 1.68356 20.506C1.36577 20.4287 1.15534 20.39 1.15534 20.39C1.15534 20.39 1.28418 20.579 1.50319 20.8495C1.60626 20.9869 1.75657 21.133 1.91546 21.2919C2.07865 21.4465 2.25472 21.6096 2.44368 21.7642C2.64552 21.9145 2.86024 22.052 3.07497 22.1679C3.18233 22.228 3.29398 22.2796 3.40135 22.3268C3.50871 22.3741 3.61607 22.4127 3.73202 22.4428C4.17005 22.5587 4.57373 22.5501 4.913 22.3569C5.25226 22.782 5.61299 23.2115 5.9952 23.628C5.97802 23.6195 5.96514 23.6152 5.94796 23.6066C5.89213 23.5851 5.83631 23.5636 5.77618 23.5422C5.72035 23.5207 5.66453 23.4992 5.6087 23.482C5.49275 23.4434 5.3768 23.409 5.25655 23.379C5.01606 23.3188 4.77128 23.2673 4.52649 23.2287C4.27742 23.19 4.0541 23.1514 3.83509 23.1256C3.62036 23.0998 3.41852 23.0783 3.24674 23.0612C2.90319 23.0311 2.67988 23.0225 2.67988 23.0225C2.67988 23.0225 2.86024 23.1943 3.15656 23.4348C3.22957 23.4949 3.31116 23.5593 3.39705 23.6237C3.48294 23.6882 3.58601 23.7526 3.68907 23.8213C3.89521 23.9544 4.11852 24.0875 4.35042 24.2121C4.41054 24.2421 4.46637 24.2722 4.52649 24.3023C4.58662 24.328 4.65103 24.3581 4.71545 24.3796C4.83999 24.4311 4.96882 24.4783 5.09336 24.517C5.34244 24.6029 5.59152 24.663 5.82342 24.6931C6.22281 24.736 6.57925 24.6845 6.85839 24.5127C7.17188 24.8133 7.49826 25.1053 7.83752 25.3802C7.73446 25.3673 7.63139 25.3501 7.52403 25.3415C7.26636 25.3158 6.99581 25.3115 6.75103 25.3029C6.25287 25.2857 5.77189 25.3072 5.41545 25.3329C5.23937 25.3458 5.09336 25.3587 4.9903 25.3673C4.89152 25.3759 4.8357 25.3845 4.8357 25.3845C4.8357 25.3845 4.84858 25.3931 4.87435 25.4102C4.90011 25.4274 4.93876 25.4489 4.9903 25.479C5.09336 25.5391 5.23938 25.6207 5.41974 25.7194C5.60011 25.8139 5.81054 25.9213 6.04244 26.0286C6.28293 26.1274 6.5406 26.2262 6.80685 26.3121C6.93998 26.355 7.07311 26.3937 7.20624 26.4323C7.27495 26.4495 7.33937 26.4667 7.40808 26.4839C7.47679 26.4967 7.5455 26.5096 7.61421 26.5225C7.88906 26.5655 8.15102 26.5869 8.3958 26.5826C8.73077 26.574 9.0185 26.5053 9.2504 26.3679C9.37924 26.4409 9.50377 26.5139 9.6369 26.5826C9.66696 26.5998 9.68844 26.6041 9.70561 26.5998C11.4663 27.5704 13.6479 28.1673 15.443 28.382C14.0044 28.6483 12.3166 28.9446 10.5259 29.2151L8.58905 30.8599C8.58905 30.8599 12.9436 29.4084 17.0062 28.4851C21.0688 29.4084 25.4233 30.8599 25.4233 30.8599L23.4865 29.2151C21.6485 28.936 19.9178 28.6311 18.4577 28.3605C20.678 28.1072 22.5461 27.4544 24.0405 26.5998C24.0577 26.5998 24.0706 26.5955 24.0921 26.5826C24.2209 26.5139 24.3497 26.4409 24.4786 26.3679C24.7062 26.5053 24.9982 26.574 25.3332 26.5826C25.5779 26.5912 25.8399 26.5655 26.1148 26.5225C26.1835 26.5096 26.2522 26.501 26.3209 26.4839C26.3896 26.4667 26.454 26.4495 26.5227 26.4323C26.6559 26.398 26.7933 26.355 26.9264 26.3121C27.1927 26.2262 27.4503 26.1274 27.6908 26.0286C27.9227 25.9213 28.1331 25.8139 28.3135 25.7151C28.4939 25.6207 28.6399 25.5348 28.743 25.4747C28.7945 25.4446 28.8331 25.4231 28.8589 25.4059C28.8847 25.3888 28.8976 25.3802 28.8976 25.3802C28.8976 25.3802 28.8417 25.3759 28.743 25.363C28.6399 25.3544 28.4939 25.3415 28.3178 25.3286C27.9614 25.3029 27.4847 25.2814 26.9865 25.2986C26.7417 25.3115 26.4712 25.3115 26.2135 25.3415C26.1105 25.3501 26.0031 25.363 25.9 25.3802C26.2393 25.1053 26.5657 24.8133 26.8792 24.5127C27.1583 24.6802 27.5147 24.7317 27.9141 24.6931C28.146 24.663 28.3951 24.6029 28.6442 24.5213C28.7687 24.4783 28.8976 24.4311 29.0221 24.3796C29.0865 24.3538 29.1466 24.328 29.2111 24.3023C29.2712 24.2722 29.3313 24.2421 29.3871 24.2121C29.619 24.0875 29.8423 23.9544 30.0485 23.8213C30.1515 23.7526 30.2503 23.6925 30.3405 23.6237C30.4264 23.555 30.508 23.4949 30.581 23.4348C30.873 23.1943 31.0577 23.0225 31.0577 23.0225C31.0577 23.0225 30.8344 23.0311 30.4908 23.0612C30.319 23.0783 30.1172 23.0955 29.9025 23.1256C29.6834 23.1514 29.4601 23.19 29.2111 23.2287C28.9663 23.2673 28.7215 23.3188 28.481 23.379C28.3608 23.409 28.2448 23.4434 28.1289 23.482C28.073 23.4992 28.0172 23.5207 27.9614 23.5422C27.9055 23.5636 27.8454 23.5808 27.7896 23.6023C27.7724 23.6066 27.7595 23.6152 27.7423 23.6237C28.1246 23.2029 28.4853 22.7777 28.8246 22.3526C29.1638 22.5458 29.5718 22.5544 30.0055 22.4385C30.1172 22.4084 30.2246 22.3698 30.3362 22.3225C30.4436 22.2753 30.5552 22.2238 30.6626 22.1636C30.8773 22.0477 31.092 21.906 31.2939 21.7599C31.4828 21.6053 31.6632 21.4465 31.8264 21.2876C31.9853 21.133 32.1356 20.9827 32.2387 20.8452C32.4577 20.5747 32.5865 20.3857 32.5865 20.3857C32.5865 20.3857 32.3761 20.4244 32.0583 20.5017C31.8994 20.5403 31.7147 20.5919 31.5172 20.6477C31.4184 20.6777 31.3153 20.7078 31.208 20.7422C31.1006 20.7765 30.989 20.8109 30.8773 20.8495C30.654 20.9225 30.435 21.0084 30.2245 21.1029C30.1172 21.1501 30.0141 21.2017 29.9196 21.2575C29.8166 21.309 29.7178 21.3649 29.6233 21.425C29.5632 21.4636 29.5031 21.5023 29.4473 21.5452C29.7994 21.0514 30.1 20.536 30.362 20.0121C30.727 20.1366 31.1092 20.0808 31.4828 19.909C31.5301 19.8876 31.5816 19.8618 31.6288 19.836C31.6761 19.8103 31.719 19.7802 31.7663 19.7501C31.8564 19.69 31.9466 19.6256 32.0368 19.5526C32.2129 19.4109 32.3804 19.2477 32.5393 19.0802C32.6853 18.9127 32.8141 18.7366 32.9344 18.5692C33.046 18.4017 33.1577 18.2428 33.2307 18.1011C33.3767 17.8219 33.4583 17.6287 33.4583 17.6287C33.4583 17.6287 33.265 17.6931 32.9816 17.8047C32.8399 17.8606 32.6724 17.9293 32.5006 18.0109C32.3288 18.0925 32.127 18.1827 31.9337 18.2814C31.7405 18.3802 31.5472 18.4919 31.3712 18.6121C31.281 18.6722 31.1994 18.7366 31.1135 18.8011C31.0276 18.8655 30.946 18.9299 30.8687 19.0029C30.8301 19.0373 30.7957 19.0716 30.7614 19.106C30.946 18.6379 31.1006 18.1612 31.2295 17.6802C31.2466 17.6115 31.2638 17.5428 31.281 17.4784L31.2896 17.4741Z" fill="#594835"/>
<path d="M16.1151 20.2458C14.0609 20.2458 12.6738 19.4908 11.7608 18.4374L12.9899 16.8045C13.7624 17.5595 14.6929 18.1565 15.8693 18.1565C17.2037 18.1565 18.0991 17.4893 18.0991 16.3305C18.0991 15.0488 17.3441 14.2587 14.5174 14.2587V12.3976C16.9052 12.3976 17.6777 11.5899 17.6777 10.4311C17.6777 9.41278 17.0457 8.79826 15.9395 8.79826C15.009 8.79826 14.254 9.2372 13.4815 9.95706L12.1646 8.35932C13.2883 7.39365 14.5349 6.77914 16.0449 6.77914C18.5556 6.77914 20.2587 8.00817 20.2587 10.238C20.2587 11.625 19.4862 12.6609 18.0991 13.1877V13.2754C19.5739 13.6968 20.6976 14.7678 20.6976 16.4885C20.6976 18.8763 18.6083 20.2458 16.1151 20.2458Z" fill="#594835"/>
</g>
<defs>
<clipPath id="clip0_44_8573">
<rect width="33.7759" height="30.86" fill="white"/>
</clipPath>
</defs>
</svg>
