<svg width="42" height="41" viewBox="0 0 42 41" fill="none" xmlns="http://www.w3.org/2000/svg">
<g clip-path="url(#clip0_44_9806)">
<path d="M18.6608 18.6781C16.8865 20.2646 14.9935 24.4166 15.2723 28.7111C15.5689 33.0147 17.7514 36.305 20.0068 36.0636C22.2622 35.8222 24.0676 31.4459 26.3454 30.6324C28.6232 29.8189 32.4101 30.4035 34.4757 28.1575C36.5414 25.9116 31.0703 20.0913 27.722 18.3388C24.3645 16.6041 21.4799 16.143 18.652 18.6512L18.6608 18.6781Z" fill="#FBDF73"/>
<path d="M30.4449 8.77404C28.8917 8.43082 27.3592 9.98352 27.0106 12.2074C26.662 14.4312 27.6471 16.5047 29.2094 16.8301C30.7626 17.1733 32.3039 15.6475 32.6524 13.4237C33.001 11.1998 31.9981 9.11726 30.4449 8.77404Z" fill="#FBDF73"/>
<path d="M15.6128 18.4919C17.0818 17.0638 16.6222 14.1361 14.4929 12.0177C12.3905 9.8906 9.51562 9.32224 8.07356 10.7415C6.62242 12.1786 7.15397 15.0533 9.24762 17.1535C11.3682 19.245 14.1351 19.893 15.6219 18.4741L15.6128 18.4919Z" fill="#FBDF73"/>
<path d="M10.4766 21.1692C8.45403 20.25 6.27686 20.7781 5.71989 22.2223C5.18982 23.6578 6.31913 25.5804 8.35987 26.4641C10.3915 27.3655 12.5146 26.8995 13.0984 25.4466C13.6823 23.9937 12.4905 22.0616 10.4588 21.1601L10.4766 21.1692Z" fill="#FBDF73"/>
<path d="M24.1929 8.92947C23.3393 6.07009 21.0207 4.14694 19.0227 4.63181C17.0247 5.11668 16.0998 7.85459 16.9447 10.6871C17.8164 13.5108 20.0184 15.4867 22.0073 15.0196C23.9962 14.5526 24.9836 11.8241 24.202 8.91165L24.1929 8.92947Z" fill="#FBDF73"/>
<path d="M25.2756 27.4579L25.2756 28.2041L21.4825 28.2041L21.4825 27.5628L23.3247 25.5536C23.5268 25.3256 23.6861 25.1287 23.8027 24.9628C23.9193 24.797 24.0009 24.648 24.0475 24.5159C24.0968 24.3812 24.1214 24.2503 24.1214 24.1234C24.1214 23.9446 24.0877 23.7878 24.0203 23.6531C23.9556 23.5158 23.8597 23.4083 23.7327 23.3305C23.6058 23.2502 23.4516 23.2101 23.2703 23.2101C23.0604 23.2101 22.8842 23.2554 22.7417 23.3461C22.5992 23.4368 22.4917 23.5624 22.4191 23.7231C22.3466 23.8811 22.3103 24.0625 22.3103 24.2672L21.3737 24.2672C21.3737 23.9381 21.4488 23.6376 21.5991 23.3655C21.7494 23.0909 21.967 22.8732 22.252 22.7126C22.537 22.5494 22.8803 22.4678 23.2819 22.4678C23.6602 22.4678 23.9815 22.5312 24.2457 22.6582C24.51 22.7851 24.7108 22.9652 24.8481 23.1984C24.9881 23.4316 25.058 23.7075 25.058 24.0262C25.058 24.2024 25.0295 24.3773 24.9725 24.5509C24.9155 24.7245 24.8339 24.8981 24.7277 25.0717C24.624 25.2427 24.501 25.415 24.3585 25.5885C24.216 25.7595 24.0592 25.9331 23.8882 26.1093L22.664 27.4579L25.2756 27.4579Z" fill="#663E2A"/>
</g>
<defs>
<clipPath id="clip0_44_9806">
<rect width="31.6119" height="29.5324" fill="white" transform="translate(13.4171) rotate(27.021)"/>
</clipPath>
</defs>
</svg>
