<svg width="95" height="19" viewBox="0 0 95 19" fill="none" xmlns="http://www.w3.org/2000/svg">
<path d="M8.92857 0L10.9332 6.23443H17.4201L12.1721 10.0875L14.1767 16.322L8.92857 12.4689L3.68049 16.322L5.68508 10.0875L0.436996 6.23443H6.92398L8.92857 0Z" fill="#FF9D34"/>
<path d="M47.5 0L49.5046 6.23443H55.9916L50.7435 10.0875L52.7481 16.322L47.5 12.4689L42.2519 16.322L44.2565 10.0875L39.0084 6.23443H45.4954L47.5 0Z" fill="#FF9D34"/>
<path d="M28.2142 0L30.2188 6.23443H36.7058L31.4577 10.0875L33.4623 16.322L28.2142 12.4689L22.9661 16.322L24.9707 10.0875L19.7226 6.23443H26.2096L28.2142 0Z" fill="#FF9D34"/>
<path d="M66.7857 0L68.7903 6.23443H75.2773L70.0292 10.0875L72.0338 16.322L66.7857 12.4689L61.5377 16.322L63.5423 10.0875L58.2942 6.23443H64.7812L66.7857 0Z" fill="#FF9D34"/>
<path d="M86.0714 0L88.076 6.23443H94.563L89.3149 10.0875L91.3195 16.322L86.0714 12.4689L80.8233 16.322L82.8279 10.0875L77.5798 6.23443H84.0668L86.0714 0Z" fill="url(#paint0_linear_44_8311)"/>
<defs>
<linearGradient id="paint0_linear_44_8311" x1="77.5" y1="6.13534" x2="94.6428" y2="6.13534" gradientUnits="userSpaceOnUse">
<stop stop-color="#FF9D34"/>
<stop offset="0.79" stop-color="#FF9D34"/>
<stop offset="0.7901" stop-color="white"/>
<stop offset="1" stop-color="white"/>
</linearGradient>
</defs>
</svg>
