<svg width="95" height="18" viewBox="0 0 95 18" fill="none" xmlns="http://www.w3.org/2000/svg">
<path d="M8.92857 0L10.9332 6.16949H17.4201L12.1721 9.98245L14.1767 16.1519L8.92857 12.339L3.68049 16.1519L5.68508 9.98245L0.436996 6.16949H6.92398L8.92857 0Z" fill="#FF9D34"/>
<path d="M47.5 0L49.5046 6.16949H55.9916L50.7435 9.98245L52.7481 16.1519L47.5 12.339L42.2519 16.1519L44.2565 9.98245L39.0084 6.16949H45.4954L47.5 0Z" fill="#FF9D34"/>
<path d="M28.2143 0L30.2189 6.16949H36.7059L31.4578 9.98245L33.4624 16.1519L28.2143 12.339L22.9663 16.1519L24.9708 9.98245L19.7228 6.16949H26.2097L28.2143 0Z" fill="#FF9D34"/>
<path d="M66.7857 0L68.7903 6.16949H75.2773L70.0292 9.98245L72.0338 16.1519L66.7857 12.339L61.5377 16.1519L63.5423 9.98245L58.2942 6.16949H64.7812L66.7857 0Z" fill="#FF9D34"/>
<path d="M86.0714 0L88.076 6.16949H94.563L89.3149 9.98245L91.3195 16.1519L86.0714 12.339L80.8233 16.1519L82.8279 9.98245L77.5798 6.16949H84.0668L86.0714 0Z" fill="url(#paint0_linear_44_8436)"/>
<defs>
<linearGradient id="paint0_linear_44_8436" x1="77.5" y1="6.07143" x2="94.6428" y2="6.07143" gradientUnits="userSpaceOnUse">
<stop stop-color="#FF9D34"/>
<stop offset="0.5099" stop-color="#FF9D34"/>
<stop offset="0.51" stop-color="white"/>
<stop offset="1" stop-color="white"/>
</linearGradient>
</defs>
</svg>
