<svg width="183" height="60" viewBox="0 0 183 60" fill="none" xmlns="http://www.w3.org/2000/svg">
<path fill-rule="evenodd" clip-rule="evenodd" d="M182.149 3.24212C182.149 1.26187 179.06 1.7145 178.234 1.66924C167.224 1.04687 158.013 1.29582 148.666 1.17135C134.748 0.97898 98.6844 0.42451 86.4408 0.537667C68.7656 0.696087 49.8571 0.594246 32.2951 0.333984C30.8693 0.333984 30.7448 22.5015 31.1975 33.8398C31.3219 36.8498 31.288 51.7073 31.6501 56.0186C31.9443 59.5717 32.8382 58.4289 35.4861 58.6891C36.7648 58.8136 52.8444 59.0173 57.3707 59.0173C83.4421 59.0625 126.691 58.9607 151.778 59.5265C157.82 59.6623 181.674 60.0017 181.708 57.9083C181.776 53.5518 182.025 42.1795 182.002 37.5514C181.991 33.4551 182.104 28.6006 182.217 25.2172C182.432 19.0954 182.149 9.82787 182.126 3.21949L182.149 3.24212ZM40.1029 30.2188C39.9219 25.0022 45.591 24.4251 46.8244 27.9556C48.5331 32.8667 40.5782 33.8511 40.1029 30.2188Z" fill="#663E2A"/>
<path fill-rule="evenodd" clip-rule="evenodd" d="M179.795 26.0014C179.817 23.9646 179.704 7.57944 179.625 5.30498C179.546 3.14368 172.632 3.53973 172.847 3.53973C169.679 3.40394 139.782 3.06447 128.41 2.92868C113.575 2.75895 76.8444 2.15921 62.134 2.61184C54.4393 2.84947 47.6159 2.05737 40.3739 2.20448C37.1602 2.27237 34.2973 1.54817 34.0031 3.90183C33.8108 5.38419 33.675 17.0846 33.4713 20.4907C33.1092 26.4654 33.4034 32.0327 33.3355 37.8377C33.2676 43.2013 33.3242 56.3502 34.6821 56.3728C66.83 56.8481 112.919 56.7236 145.746 57.1988C157.016 57.3573 178.856 57.6175 179.059 55.6486C179.455 51.1902 179.636 40.9495 179.795 26.0127V26.0014ZM40.0797 30.109C39.8986 24.8925 45.5678 24.3154 46.8012 27.8459C48.5099 32.7569 40.5549 33.7414 40.0797 30.109Z" fill="#EAD9D1"/>
<path fill-rule="evenodd" clip-rule="evenodd" d="M39.5827 25.794C37.7495 28.8719 38.2587 33.4661 42.1287 34.36C45.3084 35.0956 48.9181 32.7079 49.02 29.3472C49.2237 22.7954 41.1669 22.6483 39.5714 25.794H39.5827ZM40.1032 30.2185C39.9221 25.0019 45.5913 24.4248 46.8247 27.9553C48.5334 32.8664 40.5785 33.8508 40.1032 30.2185Z" fill="#663E2A"/>
<path fill-rule="evenodd" clip-rule="evenodd" d="M2.3433 22.444C1.41541 21.9121 1.85672 18.8116 1.94725 18.0987C2.04909 17.3293 6.25854 18.9927 7.87668 19.615C8.02379 19.6716 15.4016 22.5684 18.2645 23.6774C19.5206 24.1639 24.16 25.5218 24.8276 26.3479C25.3821 27.0381 25.1105 28.6337 24.8955 30.116C24.7371 31.191 20.6748 29.5276 19.1585 29.0297C17.4724 28.4866 13.6477 27.1626 11.7353 26.4271C6.93748 24.5939 3.16935 22.874 2.36593 22.4553L2.3433 22.444Z" fill="#663E2A"/>
<path fill-rule="evenodd" clip-rule="evenodd" d="M24.5899 26.687C25.0764 26.4381 25.2349 31.2812 24.5899 31.6433C24.3409 31.7904 5.23999 39.5756 3.97263 39.9603C2.52421 40.4017 1.83396 40.7751 1.0758 40.0848C0.679753 39.7227 0.543964 37.5954 0.623174 37.0183C0.87212 35.2869 1.70948 35.1398 3.98394 34.1214C4.65157 33.8272 10.6263 31.5528 12.8328 30.8059C16.1596 29.6744 20.3917 27.8525 24.5899 26.687Z" fill="#663E2A"/>
<path fill-rule="evenodd" clip-rule="evenodd" d="M26.9324 26.5184C27.0116 25.9187 30.4968 26.3374 32.6129 26.609C32.7826 26.6316 41.6994 26.9711 41.8691 27.7745C41.971 28.2158 41.937 29.7208 41.9031 30.6034C41.8691 31.3729 33.9594 31.3729 33.0202 31.4747C31.4247 31.6558 26.74 32.4479 26.7287 31.52C26.7174 30.4224 26.7626 27.1408 26.9211 26.5184H26.9324Z" fill="#663E2A"/>
</svg>
