<svg width="43" height="31" viewBox="0 0 43 31" fill="none" xmlns="http://www.w3.org/2000/svg">
<g clip-path="url(#clip0_142_40)">
<path d="M18.4469 22.4069C18.0328 23.0805 17.8245 24.5821 18.3211 25.9227C18.8243 27.2646 19.8316 28.1047 20.5266 27.8137C21.2217 27.5226 21.3808 25.958 22.0287 25.4827C22.6765 25.0074 23.9376 24.8338 24.3819 23.9226C24.8262 23.0114 22.5317 21.6782 21.2993 21.4383C20.0657 21.205 19.1036 21.3321 18.4416 22.3992L18.4469 22.4069Z" fill="#E4831B"/>
<path d="M21.2577 18.1349C20.7306 18.1731 20.3902 18.813 20.4905 19.5541C20.5907 20.2951 21.1012 20.8616 21.6295 20.8169C22.1566 20.7786 22.5023 20.1465 22.4021 19.4054C22.3018 18.6644 21.7848 18.0966 21.2577 18.1349Z" fill="#E4831B"/>
<path d="M17.4589 22.6372C17.7909 22.0431 17.3666 21.1547 16.4875 20.6826C15.6162 20.2051 14.647 20.2972 14.3228 20.886C13.9973 21.4813 14.4395 22.3459 15.3055 22.8157C16.1792 23.2801 17.1216 23.2236 17.4601 22.6307L17.4589 22.6372Z" fill="#E4831B"/>
<path d="M16.0781 23.978C15.3469 23.8775 14.704 24.2524 14.6638 24.765C14.6314 25.2724 15.1735 25.7772 15.9071 25.8647C16.6395 25.9587 17.2711 25.6087 17.319 25.0907C17.3668 24.5727 16.8039 24.0708 16.0715 23.9768L16.0781 23.978Z" fill="#E4831B"/>
<path d="M19.2821 18.7785C18.7388 17.9493 17.8181 17.5573 17.2281 17.9014C16.6381 18.2455 16.6036 19.205 17.1416 20.0264C17.6873 20.8426 18.576 21.2624 19.1648 20.9249C19.7536 20.5873 19.8088 19.6249 19.2833 18.772L19.2821 18.7785Z" fill="#E4831B"/>
</g>
<g clip-path="url(#clip1_142_40)">
<path d="M21.4469 8.40691C21.0328 9.08049 20.8245 10.5821 21.3211 11.9227C21.8243 13.2646 22.8316 14.1047 23.5266 13.8137C24.2217 13.5226 24.3808 11.958 25.0287 11.4827C25.6765 11.0074 26.9376 10.8338 27.3819 9.92262C27.8262 9.01145 25.5317 7.67821 24.2993 7.43832C23.0657 7.20496 22.1036 7.33214 21.4416 8.39917L21.4469 8.40691Z" fill="#E4831B"/>
<path d="M24.2577 4.13489C23.7306 4.17314 23.3902 4.81299 23.4905 5.55405C23.5907 6.29511 24.1012 6.86165 24.6295 6.81686C25.1566 6.77861 25.5023 6.14649 25.4021 5.40543C25.3018 4.66437 24.7848 4.09664 24.2577 4.13489Z" fill="#E4831B"/>
<path d="M20.4589 8.63722C20.7909 8.0431 20.3666 7.1547 19.4875 6.68256C18.6162 6.20508 17.647 6.29718 17.3228 6.88597C16.9973 7.48129 17.4395 8.34595 18.3055 8.8157C19.1792 9.28011 20.1216 9.2236 20.4601 8.63068L20.4589 8.63722Z" fill="#E4831B"/>
<path d="M19.0781 9.97802C18.3469 9.87747 17.704 10.2524 17.6638 10.765C17.6314 11.2724 18.1735 11.7772 18.9071 11.8647C19.6395 11.9587 20.2711 11.6087 20.319 11.0907C20.3668 10.5727 19.8039 10.0708 19.0715 9.97682L19.0781 9.97802Z" fill="#E4831B"/>
<path d="M22.2821 4.7785C21.7388 3.9493 20.8181 3.55728 20.2281 3.9014C19.6381 4.24551 19.6036 5.20496 20.1416 6.02643C20.6873 6.84256 21.576 7.26244 22.1648 6.92486C22.7536 6.58728 22.8088 5.6249 22.2833 4.77196L22.2821 4.7785Z" fill="#E4831B"/>
</g>
<g clip-path="url(#clip2_142_40)">
<path d="M5.44693 6.40691C5.03278 7.08049 4.82449 8.58206 5.32111 9.92272C5.82428 11.2646 6.83157 12.1047 7.52664 11.8137C8.2217 11.5226 8.3808 9.95799 9.02867 9.48268C9.67654 9.00737 10.9376 8.8338 11.3819 7.92262C11.8262 7.01145 9.53168 5.67821 8.29931 5.43832C7.06573 5.20496 6.10361 5.33214 5.44159 6.39917L5.44693 6.40691Z" fill="#E4831B"/>
<path d="M8.25771 2.13489C7.73065 2.17314 7.39024 2.81299 7.49048 3.55405C7.59073 4.29511 8.10124 4.86165 8.6295 4.81686C9.15656 4.77861 9.50231 4.14649 9.40206 3.40543C9.30181 2.66437 8.78477 2.09664 8.25771 2.13489Z" fill="#E4831B"/>
<path d="M4.45894 6.63722C4.79095 6.0431 4.36657 5.1547 3.48753 4.68256C2.61622 4.20508 1.64704 4.29718 1.32276 4.88597C0.997284 5.48129 1.43952 6.34595 2.3055 6.8157C3.17921 7.28011 4.1216 7.2236 4.46014 6.63068L4.45894 6.63722Z" fill="#E4831B"/>
<path d="M3.07807 7.97802C2.34688 7.87747 1.70395 8.25238 1.66381 8.76504C1.6314 9.27237 2.17351 9.77717 2.9071 9.86465C3.63948 9.95867 4.27108 9.60869 4.31896 9.0907C4.36684 8.57271 3.80392 8.07083 3.07154 7.97682L3.07807 7.97802Z" fill="#E4831B"/>
<path d="M6.28214 2.7785C5.73883 1.9493 4.81805 1.55728 4.22805 1.9014C3.63805 2.24551 3.60363 3.20496 4.14161 4.02643C4.68731 4.84256 5.57596 5.26244 6.16475 4.92486C6.75355 4.58728 6.80878 3.6249 6.28334 2.77196L6.28214 2.7785Z" fill="#E4831B"/>
</g>
<g clip-path="url(#clip3_142_40)">
<path d="M35.4469 23.4069C35.0328 24.0805 34.8245 25.5821 35.3211 26.9227C35.8243 28.2646 36.8316 29.1047 37.5266 28.8137C38.2217 28.5226 38.3808 26.958 39.0287 26.4827C39.6765 26.0074 40.9376 25.8338 41.3819 24.9226C41.8262 24.0114 39.5317 22.6782 38.2993 22.4383C37.0657 22.205 36.1036 22.3321 35.4416 23.3992L35.4469 23.4069Z" fill="#E4831B"/>
<path d="M38.2577 19.1349C37.7306 19.1731 37.3902 19.813 37.4905 20.5541C37.5907 21.2951 38.1012 21.8616 38.6295 21.8169C39.1566 21.7786 39.5023 21.1465 39.4021 20.4054C39.3018 19.6644 38.7848 19.0966 38.2577 19.1349Z" fill="#E4831B"/>
<path d="M34.4589 23.6372C34.7909 23.0431 34.3666 22.1547 33.4875 21.6826C32.6162 21.2051 31.647 21.2972 31.3228 21.886C30.9973 22.4813 31.4395 23.3459 32.3055 23.8157C33.1792 24.2801 34.1216 24.2236 34.4601 23.6307L34.4589 23.6372Z" fill="#E4831B"/>
<path d="M33.0781 24.978C32.3469 24.8775 31.704 25.2524 31.6638 25.765C31.6314 26.2724 32.1735 26.7772 32.9071 26.8647C33.6395 26.9587 34.2711 26.6087 34.319 26.0907C34.3668 25.5727 33.8039 25.0708 33.0715 24.9768L33.0781 24.978Z" fill="#E4831B"/>
<path d="M36.2821 19.7785C35.7388 18.9493 34.8181 18.5573 34.2281 18.9014C33.6381 19.2455 33.6036 20.205 34.1416 21.0264C34.6873 21.8426 35.576 22.2624 36.1648 21.9249C36.7536 21.5873 36.8088 20.6249 36.2833 19.772L36.2821 19.7785Z" fill="#E4831B"/>
</g>
<defs>
<clipPath id="clip0_142_40">
<rect width="10.5018" height="9.81101" fill="white" transform="translate(15.0037 16.959) rotate(10.4091)"/>
</clipPath>
<clipPath id="clip1_142_40">
<rect width="10.5018" height="9.81101" fill="white" transform="translate(18.0037 2.95898) rotate(10.4091)"/>
</clipPath>
<clipPath id="clip2_142_40">
<rect width="10.5018" height="9.81101" fill="white" transform="translate(2.00366 0.958984) rotate(10.4091)"/>
</clipPath>
<clipPath id="clip3_142_40">
<rect width="10.5018" height="9.81101" fill="white" transform="translate(32.0037 17.959) rotate(10.4091)"/>
</clipPath>
</defs>
</svg>
