<svg width="10" height="11" viewBox="0 0 10 11" fill="none" xmlns="http://www.w3.org/2000/svg">
<path fill-rule="evenodd" clip-rule="evenodd" d="M5 10.5449C5.65661 10.5449 6.30679 10.4156 6.91342 10.1643C7.52005 9.91305 8.07124 9.54475 8.53553 9.08046C8.99983 8.61616 9.36812 8.06497 9.6194 7.45834C9.87067 6.85171 10 6.20153 10 5.54492C10 4.88831 9.87067 4.23813 9.6194 3.6315C9.36812 3.02488 8.99983 2.47368 8.53553 2.00939C8.07124 1.54509 7.52005 1.1768 6.91342 0.925524C6.30679 0.674251 5.65661 0.544922 5 0.544922C3.67392 0.544922 2.40215 1.07171 1.46447 2.00939C0.526784 2.94707 0 4.21884 0 5.54492C0 6.871 0.526784 8.14277 1.46447 9.08046C2.40215 10.0181 3.67392 10.5449 5 10.5449ZM4.87111 7.56714L7.64889 4.23381L6.79556 3.5227L4.40667 6.38881L3.17056 5.15214L2.385 5.9377L4.05167 7.60437L4.48167 8.03437L4.87111 7.56714Z" fill="#F49798"/>
</svg>
