<svg width="177" height="184" viewBox="0 0 177 184" fill="none" xmlns="http://www.w3.org/2000/svg">
<path d="M34.8248 149.256C22.2174 138.826 13.1353 124.76 8.81769 108.978C4.50011 93.1955 5.15744 76.4653 10.7 61.0703C16.2425 45.6754 26.4003 32.3655 39.7871 22.9571C53.1739 13.5487 69.1377 8.5 85.5 8.5L85.5 88L34.8248 149.256Z" fill="#FFD5D6"/>
<g filter="url(#filter0_d_155_294)">
<path d="M85 3C98.6396 3 112.079 6.28236 124.183 12.5699C136.287 18.8574 146.7 27.9653 154.543 39.1246C162.386 50.2838 167.428 63.1665 169.243 76.6847C171.059 90.2029 169.595 103.959 164.975 116.793C160.355 129.626 152.714 141.159 142.698 150.417C132.682 159.676 120.585 166.388 107.429 169.987C94.2731 173.586 80.444 173.967 67.1099 171.096C53.7758 168.225 41.3284 162.188 30.819 153.494L85 88L85 3Z" fill="#F49798"/>
</g>
<mask id="path-3-outside-1_155_294" maskUnits="userSpaceOnUse" x="37" y="72" width="65" height="55" fill="black">
<rect fill="white" x="37" y="72" width="65" height="55"/>
<path d="M64.0182 73.7217H65.4537V81.583H64.8727C62.275 81.583 59.9622 81.9704 57.9342 82.7451C55.9062 83.5199 54.1858 84.625 52.773 86.0605C51.3831 87.4733 50.3121 89.1823 49.5602 91.1875C48.831 93.1927 48.4664 95.4372 48.4664 97.9209V106.192C48.4664 107.97 48.6373 109.542 48.9791 110.909C49.3437 112.254 49.8564 113.382 50.5172 114.293C51.2008 115.182 51.9983 115.854 52.9098 116.31C53.8212 116.743 54.8466 116.959 55.9859 116.959C57.0569 116.959 58.0253 116.731 58.8912 116.275C59.7799 115.82 60.5318 115.182 61.1471 114.361C61.7851 113.518 62.2636 112.538 62.5826 111.422C62.9244 110.283 63.0953 109.041 63.0953 107.696C63.0953 106.352 62.9244 105.11 62.5826 103.971C62.2636 102.831 61.7851 101.852 61.1471 101.031C60.5091 100.188 59.7343 99.5387 58.8229 99.083C57.9114 98.6273 56.886 98.3994 55.7467 98.3994C54.1972 98.3994 52.83 98.764 51.6451 99.4932C50.483 100.2 49.5716 101.111 48.9107 102.228C48.2499 103.344 47.8967 104.518 47.8512 105.748L44.8775 103.834C44.9459 102.079 45.3105 100.416 45.9713 98.8438C46.6549 97.2715 47.5891 95.8815 48.774 94.6738C49.9817 93.4434 51.4286 92.4863 53.1148 91.8027C54.801 91.0964 56.7037 90.7432 58.8229 90.7432C61.1471 90.7432 63.1865 91.1875 64.941 92.0762C66.7184 92.9648 68.1995 94.1839 69.3844 95.7334C70.5693 97.2829 71.4579 99.0716 72.0504 101.1C72.6428 103.128 72.9391 105.292 72.9391 107.594C72.9391 110.009 72.5403 112.254 71.7428 114.327C70.968 116.401 69.8401 118.212 68.359 119.762C66.9007 121.311 65.1461 122.519 63.0953 123.385C61.0445 124.251 58.7431 124.684 56.191 124.684C53.5478 124.684 51.1438 124.205 48.9791 123.248C46.8372 122.268 44.9915 120.901 43.442 119.146C41.8925 117.392 40.6962 115.307 39.8531 112.892C39.0328 110.476 38.6227 107.833 38.6227 104.962V101.134C38.6227 97.1234 39.2037 93.4548 40.3658 90.1279C41.5507 86.7783 43.2483 83.8844 45.4586 81.4463C47.6689 78.9854 50.3349 77.0827 53.4566 75.7383C56.5784 74.3939 60.0989 73.7217 64.0182 73.7217ZM100.012 74.1318V124H90.1684V85.4795L78.3422 89.2393V81.4805L98.9525 74.1318H100.012Z"/>
</mask>
<path d="M64.0182 73.7217H65.4537V81.583H64.8727C62.275 81.583 59.9622 81.9704 57.9342 82.7451C55.9062 83.5199 54.1858 84.625 52.773 86.0605C51.3831 87.4733 50.3121 89.1823 49.5602 91.1875C48.831 93.1927 48.4664 95.4372 48.4664 97.9209V106.192C48.4664 107.97 48.6373 109.542 48.9791 110.909C49.3437 112.254 49.8564 113.382 50.5172 114.293C51.2008 115.182 51.9983 115.854 52.9098 116.31C53.8212 116.743 54.8466 116.959 55.9859 116.959C57.0569 116.959 58.0253 116.731 58.8912 116.275C59.7799 115.82 60.5318 115.182 61.1471 114.361C61.7851 113.518 62.2636 112.538 62.5826 111.422C62.9244 110.283 63.0953 109.041 63.0953 107.696C63.0953 106.352 62.9244 105.11 62.5826 103.971C62.2636 102.831 61.7851 101.852 61.1471 101.031C60.5091 100.188 59.7343 99.5387 58.8229 99.083C57.9114 98.6273 56.886 98.3994 55.7467 98.3994C54.1972 98.3994 52.83 98.764 51.6451 99.4932C50.483 100.2 49.5716 101.111 48.9107 102.228C48.2499 103.344 47.8967 104.518 47.8512 105.748L44.8775 103.834C44.9459 102.079 45.3105 100.416 45.9713 98.8438C46.6549 97.2715 47.5891 95.8815 48.774 94.6738C49.9817 93.4434 51.4286 92.4863 53.1148 91.8027C54.801 91.0964 56.7037 90.7432 58.8229 90.7432C61.1471 90.7432 63.1865 91.1875 64.941 92.0762C66.7184 92.9648 68.1995 94.1839 69.3844 95.7334C70.5693 97.2829 71.4579 99.0716 72.0504 101.1C72.6428 103.128 72.9391 105.292 72.9391 107.594C72.9391 110.009 72.5403 112.254 71.7428 114.327C70.968 116.401 69.8401 118.212 68.359 119.762C66.9007 121.311 65.1461 122.519 63.0953 123.385C61.0445 124.251 58.7431 124.684 56.191 124.684C53.5478 124.684 51.1438 124.205 48.9791 123.248C46.8372 122.268 44.9915 120.901 43.442 119.146C41.8925 117.392 40.6962 115.307 39.8531 112.892C39.0328 110.476 38.6227 107.833 38.6227 104.962V101.134C38.6227 97.1234 39.2037 93.4548 40.3658 90.1279C41.5507 86.7783 43.2483 83.8844 45.4586 81.4463C47.6689 78.9854 50.3349 77.0827 53.4566 75.7383C56.5784 74.3939 60.0989 73.7217 64.0182 73.7217ZM100.012 74.1318V124H90.1684V85.4795L78.3422 89.2393V81.4805L98.9525 74.1318H100.012Z" fill="#D95B5D"/>
<path d="M65.4537 73.7217H66.9537C66.9537 72.8933 66.2821 72.2217 65.4537 72.2217V73.7217ZM65.4537 81.583V83.083C66.2821 83.083 66.9537 82.4114 66.9537 81.583H65.4537ZM52.773 86.0605L51.7039 85.0084L51.7038 85.0085L52.773 86.0605ZM49.5602 91.1875L48.1557 90.6608C48.1539 90.6655 48.1522 90.6702 48.1505 90.6749L49.5602 91.1875ZM48.9791 110.909L47.5239 111.273C47.5263 111.283 47.5288 111.292 47.5314 111.302L48.9791 110.909ZM50.5172 114.293L49.3028 115.173C49.3111 115.185 49.3196 115.196 49.3283 115.208L50.5172 114.293ZM52.9098 116.31L52.2389 117.651C52.248 117.656 52.2571 117.66 52.2662 117.664L52.9098 116.31ZM58.8912 116.275L58.2067 114.941C58.202 114.943 58.1973 114.946 58.1926 114.948L58.8912 116.275ZM61.1471 114.361L59.951 113.456L59.9471 113.461L61.1471 114.361ZM62.5826 111.422L61.1459 110.991C61.144 110.997 61.1421 111.003 61.1403 111.01L62.5826 111.422ZM62.5826 103.971L61.1382 104.375C61.1407 104.384 61.1432 104.393 61.1459 104.402L62.5826 103.971ZM61.1471 101.031L59.951 101.936C59.955 101.942 59.959 101.947 59.963 101.952L61.1471 101.031ZM51.6451 99.4932L52.4243 100.775L52.4313 100.771L51.6451 99.4932ZM47.8512 105.748L47.0393 107.009C47.4925 107.301 48.0673 107.327 48.5451 107.078C49.0229 106.829 49.3302 106.342 49.3501 105.804L47.8512 105.748ZM44.8775 103.834L43.3787 103.776C43.358 104.306 43.6193 104.808 44.0657 105.095L44.8775 103.834ZM45.9713 98.8438L44.5957 98.2457C44.5932 98.2513 44.5908 98.2569 44.5885 98.2626L45.9713 98.8438ZM48.774 94.6738L47.7035 93.6231L47.7033 93.6233L48.774 94.6738ZM53.1148 91.8027L53.6784 93.1928C53.6838 93.1907 53.6891 93.1885 53.6944 93.1862L53.1148 91.8027ZM64.941 92.0762L64.2632 93.4143L64.2702 93.4178L64.941 92.0762ZM69.3844 95.7334L68.1928 96.6446L69.3844 95.7334ZM71.7428 114.327L70.3428 113.789C70.341 113.793 70.3393 113.798 70.3376 113.802L71.7428 114.327ZM68.359 119.762L67.2746 118.725L67.2667 118.734L68.359 119.762ZM48.9791 123.248L48.3551 124.612C48.3609 124.615 48.3667 124.617 48.3726 124.62L48.9791 123.248ZM39.8531 112.892L38.4328 113.374L38.4369 113.386L39.8531 112.892ZM40.3658 90.1279L38.9517 89.6277L38.9497 89.6333L40.3658 90.1279ZM45.4586 81.4463L46.5699 82.4538L46.5746 82.4486L45.4586 81.4463ZM53.4566 75.7383L52.8633 74.3606L53.4566 75.7383ZM64.0182 75.2217H65.4537V72.2217H64.0182V75.2217ZM63.9537 73.7217V81.583H66.9537V73.7217H63.9537ZM65.4537 80.083H64.8727V83.083H65.4537V80.083ZM64.8727 80.083C62.1271 80.083 59.6278 80.4924 57.3989 81.3439L58.4695 84.1463C60.2966 83.4483 62.4229 83.083 64.8727 83.083V80.083ZM57.3989 81.3439C55.1859 82.1893 53.279 83.4079 51.7039 85.0084L53.8422 87.1127C55.0926 85.8421 56.6265 84.8504 58.4695 84.1463L57.3989 81.3439ZM51.7038 85.0085C50.155 86.5828 48.9753 88.475 48.1557 90.6608L50.9647 91.7142C51.6489 89.8896 52.6112 88.3639 53.8423 87.1125L51.7038 85.0085ZM48.1505 90.6749C47.3526 92.8689 46.9664 95.2905 46.9664 97.9209H49.9664C49.9664 95.5839 50.3093 93.5165 50.9698 91.7001L48.1505 90.6749ZM46.9664 97.9209V106.192H49.9664V97.9209H46.9664ZM46.9664 106.192C46.9664 108.062 47.1458 109.761 47.5239 111.273L50.4343 110.545C50.1288 109.323 49.9664 107.877 49.9664 106.192H46.9664ZM47.5314 111.302C47.9327 112.781 48.5133 114.085 49.3028 115.173L51.7316 113.413C51.1994 112.678 50.7547 111.726 50.4268 110.517L47.5314 111.302ZM49.3283 115.208C50.136 116.258 51.1051 117.084 52.2389 117.651L53.5806 114.968C52.8915 114.623 52.2655 114.106 51.7061 113.378L49.3283 115.208ZM52.2662 117.664C53.4033 118.205 54.6528 118.459 55.9859 118.459V115.459C55.0404 115.459 54.2392 115.28 53.5534 114.955L52.2662 117.664ZM55.9859 118.459C57.2768 118.459 58.4887 118.182 59.5898 117.603L58.1926 114.948C57.562 115.28 56.837 115.459 55.9859 115.459V118.459ZM59.5757 117.61C60.6725 117.048 61.599 116.259 62.3471 115.261L59.9471 113.461C59.4647 114.105 58.8873 114.592 58.2067 114.941L59.5757 117.61ZM62.3432 115.266C63.1035 114.262 63.66 113.111 64.0249 111.834L61.1403 111.01C60.8672 111.966 60.4667 112.775 59.951 113.456L62.3432 115.266ZM64.0194 111.853C64.4082 110.557 64.5953 109.168 64.5953 107.696H61.5953C61.5953 108.913 61.4407 110.008 61.1459 110.991L64.0194 111.853ZM64.5953 107.696C64.5953 106.225 64.4082 104.836 64.0194 103.54L61.1459 104.402C61.4407 105.384 61.5953 106.479 61.5953 107.696H64.5953ZM64.0271 103.566C63.6628 102.265 63.104 101.104 62.3311 100.11L59.963 101.952C60.4662 102.599 60.8644 103.397 61.1382 104.375L64.0271 103.566ZM62.3432 100.126C61.5713 99.1062 60.6193 98.3042 59.4937 97.7414L58.152 100.425C58.8493 100.773 59.4468 101.27 59.951 101.936L62.3432 100.126ZM59.4937 97.7414C58.3504 97.1697 57.0911 96.8994 55.7467 96.8994V99.8994C56.6809 99.8994 57.4724 100.085 58.152 100.425L59.4937 97.7414ZM55.7467 96.8994C53.9521 96.8994 52.3065 97.3249 50.859 98.2157L52.4313 100.771C53.3535 100.203 54.4423 99.8994 55.7467 99.8994V96.8994ZM50.866 98.2114C49.5039 99.0393 48.4123 100.125 47.6199 101.464L50.2016 102.992C50.7308 102.097 51.4622 101.36 52.4242 100.775L50.866 98.2114ZM47.6199 101.464C46.8388 102.783 46.4075 104.199 46.3522 105.693L49.3501 105.804C49.386 104.836 49.6611 103.905 50.2016 102.992L47.6199 101.464ZM48.663 104.487L45.6894 102.573L44.0657 105.095L47.0393 107.009L48.663 104.487ZM46.3764 103.892C46.438 102.312 46.7651 100.826 47.3541 99.4249L44.5885 98.2626C43.8559 100.006 43.4538 101.847 43.3787 103.776L46.3764 103.892ZM47.3469 99.4418C47.9584 98.0355 48.79 96.7993 49.8447 95.7243L47.7033 93.6233C46.3882 94.9637 45.3514 96.5075 44.5957 98.2457L47.3469 99.4418ZM49.8446 95.7245C50.9004 94.6488 52.1719 93.8036 53.6784 93.1928L52.5513 90.4126C50.6854 91.1691 49.063 92.2379 47.7035 93.6231L49.8446 95.7245ZM53.6944 93.1862C55.1702 92.568 56.8714 92.2432 58.8229 92.2432V89.2432C56.536 89.2432 54.4319 89.6247 52.5353 90.4192L53.6944 93.1862ZM58.8229 92.2432C60.9542 92.2432 62.7537 92.6498 64.2633 93.4143L65.6188 90.738C63.6192 89.7252 61.34 89.2432 58.8229 89.2432V92.2432ZM64.2702 93.4178C65.8474 94.2064 67.1492 95.2798 68.1928 96.6446L70.5759 94.8222C69.2498 93.088 67.5893 91.7232 65.6118 90.7345L64.2702 93.4178ZM68.1928 96.6446C69.2564 98.0354 70.0656 99.6548 70.6106 101.52L73.4902 100.679C72.8503 98.4884 71.8821 96.5303 70.5759 94.8222L68.1928 96.6446ZM70.6106 101.52C71.1597 103.4 71.4391 105.422 71.4391 107.594H74.4391C74.4391 105.163 74.126 102.855 73.4902 100.679L70.6106 101.52ZM71.4391 107.594C71.4391 109.841 71.0686 111.901 70.3428 113.789L73.1428 114.866C74.012 112.606 74.4391 110.177 74.4391 107.594H71.4391ZM70.3376 113.802C69.6317 115.692 68.6107 117.328 67.2747 118.725L69.4433 120.798C71.0695 119.097 72.3044 117.11 73.1479 114.852L70.3376 113.802ZM67.2667 118.734C65.9581 120.124 64.3793 121.214 62.5119 122.003L63.6788 124.767C65.9129 123.823 67.8432 122.498 69.4513 120.79L67.2667 118.734ZM62.5119 122.003C60.6708 122.78 58.5718 123.184 56.191 123.184V126.184C58.9144 126.184 61.4183 125.721 63.6788 124.767L62.5119 122.003ZM56.191 123.184C53.7322 123.184 51.5381 122.739 49.5856 121.876L48.3726 124.62C50.7495 125.671 53.3634 126.184 56.191 126.184V123.184ZM49.6031 121.884C47.6508 120.991 45.9759 119.75 44.5663 118.154L42.3177 120.139C44.007 122.052 46.0235 123.546 48.3551 124.612L49.6031 121.884ZM44.5663 118.154C43.157 116.558 42.0543 114.646 41.2693 112.397L38.4369 113.386C39.3381 115.968 40.628 118.226 42.3177 120.139L44.5663 118.154ZM41.2734 112.409C40.5121 110.167 40.1227 107.689 40.1227 104.962H37.1227C37.1227 107.977 37.5536 110.785 38.4328 113.374L41.2734 112.409ZM40.1227 104.962V101.134H37.1227V104.962H40.1227ZM40.1227 101.134C40.1227 97.2689 40.6824 93.7701 41.7819 90.6226L38.9497 89.6333C37.725 93.1394 37.1227 96.9779 37.1227 101.134H40.1227ZM41.78 90.6282C42.9039 87.451 44.5035 84.7332 46.5699 82.4537L44.3473 80.4388C41.9931 83.0357 40.1976 86.1057 38.9517 89.6277L41.78 90.6282ZM46.5746 82.4486C48.6358 80.1536 51.1219 78.377 54.0499 77.116L52.8633 74.3606C49.5479 75.7884 46.702 77.8171 44.3426 80.444L46.5746 82.4486ZM54.0499 77.116C56.9578 75.8637 60.2719 75.2217 64.0182 75.2217V72.2217C59.9259 72.2217 56.199 72.9241 52.8633 74.3606L54.0499 77.116ZM100.012 74.1318H101.512C101.512 73.3034 100.841 72.6318 100.012 72.6318V74.1318ZM100.012 124V125.5C100.841 125.5 101.512 124.828 101.512 124H100.012ZM90.1684 124H88.6684C88.6684 124.828 89.3399 125.5 90.1684 125.5V124ZM90.1684 85.4795H91.6684C91.6684 85.001 91.4401 84.5512 91.0539 84.2688C90.6677 83.9863 90.1699 83.905 89.7139 84.05L90.1684 85.4795ZM78.3422 89.2393H76.8422C76.8422 89.7177 77.0705 90.1675 77.4567 90.45C77.8429 90.7325 78.3407 90.8137 78.7967 90.6688L78.3422 89.2393ZM78.3422 81.4805L77.8384 80.0676C77.2411 80.2806 76.8422 80.8463 76.8422 81.4805H78.3422ZM98.9525 74.1318V72.6318C98.7809 72.6318 98.6105 72.6613 98.4488 72.719L98.9525 74.1318ZM98.5121 74.1318V124H101.512V74.1318H98.5121ZM100.012 122.5H90.1684V125.5H100.012V122.5ZM91.6684 124V85.4795H88.6684V124H91.6684ZM89.7139 84.05L77.8877 87.8098L78.7967 90.6688L90.6228 86.909L89.7139 84.05ZM79.8422 89.2393V81.4805H76.8422V89.2393H79.8422ZM78.846 82.8933L99.4563 75.5447L98.4488 72.719L77.8384 80.0676L78.846 82.8933ZM98.9525 75.6318H100.012V72.6318H98.9525V75.6318Z" fill="#FFF6F6" mask="url(#path-3-outside-1_155_294)"/>
<mask id="path-5-outside-2_155_294" maskUnits="userSpaceOnUse" x="111" y="72" width="26" height="26" fill="black">
<rect fill="white" x="111" y="72" width="26" height="26"/>
<path d="M112.982 93.9639C112.982 93.3389 113.197 92.8164 113.626 92.3965C114.066 91.9766 114.647 91.7666 115.37 91.7666C116.092 91.7666 116.668 91.9766 117.098 92.3965C117.538 92.8164 117.757 93.3389 117.757 93.9639C117.757 94.5889 117.538 95.1113 117.098 95.5312C116.668 95.9512 116.092 96.1611 115.37 96.1611C114.647 96.1611 114.066 95.9512 113.626 95.5312C113.197 95.1113 112.982 94.5889 112.982 93.9639ZM134.692 92.7041V96H120.102V93.1875L127.002 85.79C127.695 85.0186 128.242 84.3398 128.642 83.7539C129.043 83.1582 129.331 82.626 129.506 82.1572C129.692 81.6787 129.785 81.2246 129.785 80.7949C129.785 80.1504 129.677 79.5986 129.463 79.1396C129.248 78.6709 128.93 78.3096 128.51 78.0557C128.1 77.8018 127.592 77.6748 126.987 77.6748C126.342 77.6748 125.786 77.8311 125.317 78.1436C124.858 78.4561 124.506 78.8906 124.262 79.4473C124.028 80.0039 123.911 80.6338 123.911 81.3369H119.677C119.677 80.0674 119.98 78.9053 120.586 77.8506C121.191 76.7861 122.046 75.9414 123.149 75.3164C124.253 74.6816 125.561 74.3643 127.075 74.3643C128.569 74.3643 129.829 74.6084 130.854 75.0967C131.889 75.5752 132.671 76.2686 133.198 77.1768C133.735 78.0752 134.004 79.1494 134.004 80.3994C134.004 81.1025 133.891 81.791 133.667 82.4648C133.442 83.1289 133.12 83.793 132.7 84.457C132.29 85.1113 131.792 85.7754 131.206 86.4492C130.62 87.123 129.97 87.8213 129.257 88.5439L125.551 92.7041H134.692Z"/>
</mask>
<path d="M112.982 93.9639C112.982 93.3389 113.197 92.8164 113.626 92.3965C114.066 91.9766 114.647 91.7666 115.37 91.7666C116.092 91.7666 116.668 91.9766 117.098 92.3965C117.538 92.8164 117.757 93.3389 117.757 93.9639C117.757 94.5889 117.538 95.1113 117.098 95.5312C116.668 95.9512 116.092 96.1611 115.37 96.1611C114.647 96.1611 114.066 95.9512 113.626 95.5312C113.197 95.1113 112.982 94.5889 112.982 93.9639ZM134.692 92.7041V96H120.102V93.1875L127.002 85.79C127.695 85.0186 128.242 84.3398 128.642 83.7539C129.043 83.1582 129.331 82.626 129.506 82.1572C129.692 81.6787 129.785 81.2246 129.785 80.7949C129.785 80.1504 129.677 79.5986 129.463 79.1396C129.248 78.6709 128.93 78.3096 128.51 78.0557C128.1 77.8018 127.592 77.6748 126.987 77.6748C126.342 77.6748 125.786 77.8311 125.317 78.1436C124.858 78.4561 124.506 78.8906 124.262 79.4473C124.028 80.0039 123.911 80.6338 123.911 81.3369H119.677C119.677 80.0674 119.98 78.9053 120.586 77.8506C121.191 76.7861 122.046 75.9414 123.149 75.3164C124.253 74.6816 125.561 74.3643 127.075 74.3643C128.569 74.3643 129.829 74.6084 130.854 75.0967C131.889 75.5752 132.671 76.2686 133.198 77.1768C133.735 78.0752 134.004 79.1494 134.004 80.3994C134.004 81.1025 133.891 81.791 133.667 82.4648C133.442 83.1289 133.12 83.793 132.7 84.457C132.29 85.1113 131.792 85.7754 131.206 86.4492C130.62 87.123 129.97 87.8213 129.257 88.5439L125.551 92.7041H134.692Z" fill="#D95B5D"/>
<path d="M113.626 92.3965L112.59 91.312C112.586 91.3159 112.582 91.3198 112.578 91.3237L113.626 92.3965ZM117.098 92.3965L116.05 93.4693C116.054 93.4732 116.058 93.4771 116.062 93.481L117.098 92.3965ZM117.098 95.5312L116.062 94.4468C116.058 94.4506 116.054 94.4545 116.05 94.4585L117.098 95.5312ZM113.626 95.5312L112.578 96.604C112.582 96.608 112.586 96.6119 112.59 96.6157L113.626 95.5312ZM114.482 93.9639C114.482 93.7245 114.547 93.5945 114.675 93.4693L112.578 91.3237C111.847 92.0383 111.482 92.9533 111.482 93.9639H114.482ZM114.663 93.481C114.771 93.377 114.955 93.2666 115.37 93.2666V90.2666C114.339 90.2666 113.36 90.5761 112.59 91.312L114.663 93.481ZM115.37 93.2666C115.785 93.2666 115.955 93.3772 116.05 93.4693L118.146 91.3237C117.381 90.5759 116.399 90.2666 115.37 90.2666V93.2666ZM116.062 93.481C116.196 93.609 116.257 93.7355 116.257 93.9639H119.257C119.257 92.9423 118.879 92.0238 118.134 91.312L116.062 93.481ZM116.257 93.9639C116.257 94.1923 116.196 94.3187 116.062 94.4468L118.134 96.6157C118.879 95.9039 119.257 94.9855 119.257 93.9639H116.257ZM116.05 94.4585C115.955 94.5505 115.785 94.6611 115.37 94.6611V97.6611C116.399 97.6611 117.381 97.3518 118.146 96.604L116.05 94.4585ZM115.37 94.6611C114.955 94.6611 114.771 94.5507 114.663 94.4468L112.59 96.6157C113.36 97.3516 114.339 97.6611 115.37 97.6611V94.6611ZM114.675 94.4585C114.547 94.3333 114.482 94.2033 114.482 93.9639H111.482C111.482 94.9745 111.847 95.8894 112.578 96.604L114.675 94.4585ZM134.692 92.7041H136.192C136.192 91.8757 135.52 91.2041 134.692 91.2041V92.7041ZM134.692 96V97.5C135.52 97.5 136.192 96.8284 136.192 96H134.692ZM120.102 96H118.602C118.602 96.8284 119.274 97.5 120.102 97.5V96ZM120.102 93.1875L119.005 92.1644C118.746 92.4421 118.602 92.8077 118.602 93.1875H120.102ZM127.002 85.79L128.099 86.8131C128.105 86.8064 128.111 86.7996 128.117 86.7927L127.002 85.79ZM128.642 83.7539L129.881 84.6002L129.887 84.5907L128.642 83.7539ZM129.506 82.1572L128.108 81.6149C128.106 81.6201 128.104 81.6253 128.102 81.6305L129.506 82.1572ZM129.463 79.1396L128.099 79.7647L128.104 79.7756L129.463 79.1396ZM128.51 78.0557L127.721 79.3311C127.725 79.3338 127.73 79.3366 127.734 79.3393L128.51 78.0557ZM125.317 78.1436L124.485 76.8955C124.481 76.8982 124.477 76.9009 124.473 76.9037L125.317 78.1436ZM124.262 79.4473L122.889 78.8448C122.886 78.8516 122.883 78.8584 122.88 78.8652L124.262 79.4473ZM123.911 81.3369V82.8369C124.739 82.8369 125.411 82.1653 125.411 81.3369H123.911ZM119.677 81.3369H118.177C118.177 82.1653 118.849 82.8369 119.677 82.8369V81.3369ZM120.586 77.8506L121.886 78.5974L121.889 78.5922L120.586 77.8506ZM123.149 75.3164L123.888 76.6216L123.897 76.6166L123.149 75.3164ZM130.854 75.0967L130.209 76.451C130.214 76.4534 130.22 76.4558 130.225 76.4582L130.854 75.0967ZM133.198 77.1768L131.901 77.93C131.904 77.9355 131.907 77.941 131.91 77.9464L133.198 77.1768ZM133.667 82.4648L135.088 82.9455L135.09 82.9392L133.667 82.4648ZM132.7 84.457L131.432 83.6553L131.429 83.6603L132.7 84.457ZM129.257 88.5439L128.19 87.4905C128.172 87.5086 128.154 87.5272 128.137 87.5462L129.257 88.5439ZM125.551 92.7041L124.431 91.7063C124.038 92.1476 123.941 92.7786 124.183 93.3178C124.424 93.8571 124.96 94.2041 125.551 94.2041V92.7041ZM133.192 92.7041V96H136.192V92.7041H133.192ZM134.692 94.5H120.102V97.5H134.692V94.5ZM121.602 96V93.1875H118.602V96H121.602ZM121.199 94.2106L128.099 86.8131L125.905 84.7669L119.005 92.1644L121.199 94.2106ZM128.117 86.7927C128.837 85.9922 129.43 85.2596 129.881 84.6002L127.404 82.9076C127.054 83.4201 126.553 84.0449 125.886 84.7874L128.117 86.7927ZM129.887 84.5907C130.327 83.9361 130.681 83.2977 130.911 82.6839L128.102 81.6305C127.981 81.9543 127.758 82.3803 127.397 82.9172L129.887 84.5907ZM130.905 82.6995C131.145 82.0809 131.285 81.4423 131.285 80.7949H128.285C128.285 81.0069 128.239 81.2765 128.108 81.6149L130.905 82.6995ZM131.285 80.7949C131.285 79.9884 131.151 79.2082 130.821 78.5037L128.104 79.7756C128.204 79.9891 128.285 80.3124 128.285 80.7949H131.285ZM130.826 78.5147C130.493 77.7871 129.977 77.1898 129.286 76.7721L127.734 79.3393C127.883 79.4294 128.003 79.5547 128.099 79.7646L130.826 78.5147ZM129.3 76.7803C128.599 76.3463 127.801 76.1748 126.987 76.1748V79.1748C127.384 79.1748 127.601 79.2572 127.721 79.3311L129.3 76.7803ZM126.987 76.1748C126.09 76.1748 125.234 76.3959 124.485 76.8955L126.149 79.3916C126.337 79.2662 126.595 79.1748 126.987 79.1748V76.1748ZM124.473 76.9037C123.759 77.3896 123.235 78.0555 122.889 78.8448L125.636 80.0498C125.778 79.7258 125.957 79.5226 126.161 79.3835L124.473 76.9037ZM122.88 78.8652C122.556 79.6338 122.411 80.4663 122.411 81.3369H125.411C125.411 80.8013 125.5 80.374 125.645 80.0294L122.88 78.8652ZM123.911 79.8369H119.677V82.8369H123.911V79.8369ZM121.177 81.3369C121.177 80.3175 121.417 79.4146 121.886 78.5974L119.285 77.1038C118.543 78.3959 118.177 79.8173 118.177 81.3369H121.177ZM121.889 78.5922C122.356 77.7718 123.012 77.1181 123.888 76.6216L122.41 74.0112C121.079 74.7647 120.026 75.8005 119.282 77.109L121.889 78.5922ZM123.897 76.6166C124.733 76.1355 125.774 75.8643 127.075 75.8643V72.8643C125.348 72.8643 123.772 73.2278 122.401 74.0162L123.897 76.6166ZM127.075 75.8643C128.413 75.8643 129.438 76.0839 130.209 76.451L131.499 73.7424C130.219 73.1329 128.725 72.8643 127.075 72.8643V75.8643ZM130.225 76.4582C131.005 76.8191 131.542 77.3114 131.901 77.93L134.495 76.4236C133.799 75.2257 132.773 74.3313 131.484 73.7351L130.225 76.4582ZM131.91 77.9464C132.284 78.5707 132.504 79.3675 132.504 80.3994H135.504C135.504 78.9313 135.186 77.5797 134.485 76.4071L131.91 77.9464ZM132.504 80.3994C132.504 80.9397 132.418 81.468 132.244 81.9905L135.09 82.9392C135.365 82.114 135.504 81.2654 135.504 80.3994H132.504ZM132.246 81.9842C132.063 82.523 131.796 83.0799 131.432 83.6553L133.968 85.2587C134.444 84.506 134.821 83.7348 135.088 82.9454L132.246 81.9842ZM131.429 83.6603C131.066 84.2393 130.616 84.8411 130.074 85.465L132.338 87.4335C132.967 86.7097 133.513 85.9833 133.971 85.2537L131.429 83.6603ZM130.074 85.465C129.511 86.1121 128.883 86.7873 128.19 87.4905L130.325 89.5974C131.057 88.8553 131.728 88.134 132.338 87.4335L130.074 85.465ZM128.137 87.5462L124.431 91.7063L126.671 93.7019L130.377 89.5417L128.137 87.5462ZM125.551 94.2041H134.692V91.2041H125.551V94.2041Z" fill="#FFF6F6" mask="url(#path-5-outside-2_155_294)"/>
<mask id="path-7-outside-3_155_294" maskUnits="userSpaceOnUse" x="113" y="98" width="26" height="29" fill="black">
<rect fill="white" x="113" y="98" width="26" height="29"/>
<path d="M114.704 106.218V104.902C114.704 103.957 114.909 103.097 115.319 102.322C115.729 101.547 116.333 100.926 117.13 100.459C117.928 99.9919 118.908 99.7583 120.07 99.7583C121.266 99.7583 122.263 99.9919 123.061 100.459C123.869 100.926 124.473 101.547 124.872 102.322C125.282 103.097 125.487 103.957 125.487 104.902V106.218C125.487 107.141 125.282 107.99 124.872 108.765C124.473 109.539 123.875 110.16 123.078 110.627C122.28 111.095 121.295 111.328 120.121 111.328C118.936 111.328 117.939 111.095 117.13 110.627C116.333 110.16 115.729 109.539 115.319 108.765C114.909 107.99 114.704 107.141 114.704 106.218ZM117.968 104.902V106.218C117.968 106.617 118.042 106.999 118.19 107.363C118.349 107.716 118.589 108.007 118.908 108.235C119.238 108.451 119.637 108.56 120.104 108.56C120.594 108.56 120.993 108.451 121.3 108.235C121.608 108.007 121.836 107.716 121.984 107.363C122.132 106.999 122.206 106.617 122.206 106.218V104.902C122.206 104.481 122.126 104.093 121.967 103.74C121.819 103.376 121.585 103.085 121.266 102.869C120.958 102.641 120.56 102.527 120.07 102.527C119.614 102.527 119.227 102.641 118.908 102.869C118.589 103.085 118.349 103.376 118.19 103.74C118.042 104.093 117.968 104.481 117.968 104.902ZM126.598 120.215V118.899C126.598 117.965 126.803 117.11 127.213 116.335C127.635 115.561 128.244 114.94 129.042 114.473C129.851 114.006 130.842 113.772 132.016 113.772C133.201 113.772 134.192 114.006 134.989 114.473C135.787 114.94 136.391 115.561 136.801 116.335C137.211 117.11 137.416 117.965 137.416 118.899V120.215C137.416 121.149 137.211 122.004 136.801 122.778C136.402 123.553 135.804 124.174 135.006 124.641C134.209 125.108 133.223 125.342 132.05 125.342C130.865 125.342 129.868 125.108 129.059 124.641C128.25 124.174 127.635 123.553 127.213 122.778C126.803 122.004 126.598 121.149 126.598 120.215ZM129.879 118.899V120.215C129.879 120.625 129.971 121.012 130.153 121.377C130.335 121.742 130.586 122.032 130.905 122.249C131.235 122.465 131.617 122.573 132.05 122.573C132.597 122.573 133.024 122.465 133.332 122.249C133.639 122.032 133.85 121.742 133.964 121.377C134.089 121.012 134.152 120.625 134.152 120.215V118.899C134.152 118.489 134.072 118.107 133.913 117.754C133.753 117.389 133.514 117.099 133.195 116.882C132.887 116.654 132.494 116.541 132.016 116.541C131.537 116.541 131.138 116.654 130.819 116.882C130.512 117.099 130.278 117.389 130.119 117.754C129.959 118.107 129.879 118.489 129.879 118.899ZM133.229 103.672L121.078 123.12L118.686 121.855L130.836 102.407L133.229 103.672Z"/>
</mask>
<path d="M114.704 106.218V104.902C114.704 103.957 114.909 103.097 115.319 102.322C115.729 101.547 116.333 100.926 117.13 100.459C117.928 99.9919 118.908 99.7583 120.07 99.7583C121.266 99.7583 122.263 99.9919 123.061 100.459C123.869 100.926 124.473 101.547 124.872 102.322C125.282 103.097 125.487 103.957 125.487 104.902V106.218C125.487 107.141 125.282 107.99 124.872 108.765C124.473 109.539 123.875 110.16 123.078 110.627C122.28 111.095 121.295 111.328 120.121 111.328C118.936 111.328 117.939 111.095 117.13 110.627C116.333 110.16 115.729 109.539 115.319 108.765C114.909 107.99 114.704 107.141 114.704 106.218ZM117.968 104.902V106.218C117.968 106.617 118.042 106.999 118.19 107.363C118.349 107.716 118.589 108.007 118.908 108.235C119.238 108.451 119.637 108.56 120.104 108.56C120.594 108.56 120.993 108.451 121.3 108.235C121.608 108.007 121.836 107.716 121.984 107.363C122.132 106.999 122.206 106.617 122.206 106.218V104.902C122.206 104.481 122.126 104.093 121.967 103.74C121.819 103.376 121.585 103.085 121.266 102.869C120.958 102.641 120.56 102.527 120.07 102.527C119.614 102.527 119.227 102.641 118.908 102.869C118.589 103.085 118.349 103.376 118.19 103.74C118.042 104.093 117.968 104.481 117.968 104.902ZM126.598 120.215V118.899C126.598 117.965 126.803 117.11 127.213 116.335C127.635 115.561 128.244 114.94 129.042 114.473C129.851 114.006 130.842 113.772 132.016 113.772C133.201 113.772 134.192 114.006 134.989 114.473C135.787 114.94 136.391 115.561 136.801 116.335C137.211 117.11 137.416 117.965 137.416 118.899V120.215C137.416 121.149 137.211 122.004 136.801 122.778C136.402 123.553 135.804 124.174 135.006 124.641C134.209 125.108 133.223 125.342 132.05 125.342C130.865 125.342 129.868 125.108 129.059 124.641C128.25 124.174 127.635 123.553 127.213 122.778C126.803 122.004 126.598 121.149 126.598 120.215ZM129.879 118.899V120.215C129.879 120.625 129.971 121.012 130.153 121.377C130.335 121.742 130.586 122.032 130.905 122.249C131.235 122.465 131.617 122.573 132.05 122.573C132.597 122.573 133.024 122.465 133.332 122.249C133.639 122.032 133.85 121.742 133.964 121.377C134.089 121.012 134.152 120.625 134.152 120.215V118.899C134.152 118.489 134.072 118.107 133.913 117.754C133.753 117.389 133.514 117.099 133.195 116.882C132.887 116.654 132.494 116.541 132.016 116.541C131.537 116.541 131.138 116.654 130.819 116.882C130.512 117.099 130.278 117.389 130.119 117.754C129.959 118.107 129.879 118.489 129.879 118.899ZM133.229 103.672L121.078 123.12L118.686 121.855L130.836 102.407L133.229 103.672Z" fill="#D95B5D"/>
<path d="M123.061 100.459L122.302 101.753L122.31 101.758L123.061 100.459ZM124.872 102.322L123.538 103.008C123.541 103.013 123.544 103.019 123.546 103.024L124.872 102.322ZM124.872 108.765L123.546 108.063C123.544 108.068 123.541 108.073 123.538 108.078L124.872 108.765ZM117.13 110.627L116.372 111.922L116.38 111.926L117.13 110.627ZM115.319 108.765L113.993 109.466L115.319 108.765ZM118.19 107.363L116.8 107.928C116.807 107.946 116.815 107.963 116.823 107.981L118.19 107.363ZM118.908 108.235L118.036 109.455C118.052 109.467 118.069 109.479 118.086 109.49L118.908 108.235ZM121.3 108.235L122.164 109.462C122.173 109.455 122.183 109.447 122.193 109.44L121.3 108.235ZM121.984 107.363L123.367 107.943C123.369 107.938 123.371 107.933 123.374 107.928L121.984 107.363ZM121.967 103.74L120.577 104.305C120.584 104.323 120.592 104.34 120.6 104.358L121.967 103.74ZM121.266 102.869L120.373 104.074C120.39 104.086 120.407 104.098 120.424 104.11L121.266 102.869ZM118.908 102.869L119.75 104.11C119.76 104.103 119.77 104.096 119.78 104.089L118.908 102.869ZM118.19 103.74L116.816 103.139C116.813 103.146 116.81 103.153 116.807 103.16L118.19 103.74ZM127.213 116.335L125.896 115.619C125.893 115.624 125.89 115.629 125.888 115.634L127.213 116.335ZM129.042 114.473L128.292 113.174L128.284 113.178L129.042 114.473ZM136.801 116.335L135.475 117.037L136.801 116.335ZM136.801 122.778L135.475 122.076C135.472 122.082 135.47 122.087 135.467 122.092L136.801 122.778ZM129.059 124.641L128.309 125.94L129.059 124.641ZM127.213 122.778L125.888 123.48C125.89 123.485 125.893 123.49 125.896 123.495L127.213 122.778ZM130.905 122.249L130.063 123.49C130.069 123.494 130.076 123.499 130.083 123.503L130.905 122.249ZM133.964 121.377L132.545 120.889C132.541 120.903 132.536 120.916 132.532 120.93L133.964 121.377ZM133.913 117.754L132.538 118.355C132.541 118.361 132.543 118.366 132.546 118.371L133.913 117.754ZM133.195 116.882L132.302 118.088C132.319 118.1 132.335 118.112 132.353 118.124L133.195 116.882ZM130.819 116.882L131.683 118.109L131.691 118.103L130.819 116.882ZM130.119 117.754L131.486 118.371C131.488 118.366 131.491 118.361 131.493 118.355L130.119 117.754ZM133.229 103.672L134.501 104.467C134.722 104.113 134.786 103.684 134.677 103.282C134.569 102.88 134.298 102.54 133.93 102.346L133.229 103.672ZM121.078 123.12L120.377 124.446C121.072 124.814 121.934 124.582 122.35 123.915L121.078 123.12ZM118.686 121.855L117.413 121.061C117.193 121.414 117.129 121.843 117.237 122.246C117.345 122.648 117.616 122.987 117.985 123.182L118.686 121.855ZM130.836 102.407L131.537 101.081C130.842 100.714 129.981 100.945 129.564 101.612L130.836 102.407ZM116.204 106.218V104.902H113.204V106.218H116.204ZM116.204 104.902C116.204 104.182 116.358 103.565 116.645 103.024L113.993 101.62C113.46 102.628 113.204 103.732 113.204 104.902H116.204ZM116.645 103.024C116.917 102.509 117.318 102.088 117.888 101.753L116.372 99.1647C115.348 99.7647 114.541 100.585 113.993 101.62L116.645 103.024ZM117.888 101.753C118.404 101.451 119.106 101.258 120.07 101.258V98.2583C118.709 98.2583 117.452 98.5323 116.372 99.1647L117.888 101.753ZM120.07 101.258C121.076 101.258 121.793 101.455 122.302 101.753L123.819 99.1647C122.733 98.5288 121.456 98.2583 120.07 98.2583V101.258ZM122.31 101.758C122.889 102.092 123.281 102.508 123.538 103.008L126.206 101.635C125.666 100.586 124.85 99.7602 123.811 99.16L122.31 101.758ZM123.546 103.024C123.833 103.565 123.987 104.182 123.987 104.902H126.987C126.987 103.732 126.731 102.628 126.198 101.62L123.546 103.024ZM123.987 104.902V106.218H126.987V104.902H123.987ZM123.987 106.218C123.987 106.91 123.836 107.516 123.546 108.063L126.198 109.466C126.728 108.464 126.987 107.372 126.987 106.218H123.987ZM123.538 108.078C123.278 108.584 122.887 109.001 122.32 109.333L123.836 111.922C124.863 111.32 125.669 110.495 126.206 109.451L123.538 108.078ZM122.32 109.333C121.806 109.634 121.099 109.828 120.121 109.828V112.828C121.49 112.828 122.754 112.555 123.836 111.922L122.32 109.333ZM120.121 109.828C119.13 109.828 118.408 109.633 117.88 109.328L116.38 111.926C117.471 112.556 118.742 112.828 120.121 112.828V109.828ZM117.888 109.333C117.318 108.999 116.917 108.578 116.645 108.063L113.993 109.466C114.541 110.501 115.348 111.322 116.372 111.922L117.888 109.333ZM116.645 108.063C116.355 107.516 116.204 106.91 116.204 106.218H113.204C113.204 107.372 113.462 108.464 113.993 109.466L116.645 108.063ZM116.468 104.902V106.218H119.468V104.902H116.468ZM116.468 106.218C116.468 106.808 116.578 107.382 116.8 107.928L119.58 106.799C119.505 106.616 119.468 106.426 119.468 106.218H116.468ZM116.823 107.981C117.093 108.578 117.504 109.076 118.036 109.455L119.78 107.014C119.673 106.938 119.606 106.855 119.557 106.746L116.823 107.981ZM118.086 109.49C118.702 109.893 119.399 110.06 120.104 110.06V107.06C119.875 107.06 119.774 107.009 119.73 106.98L118.086 109.49ZM120.104 110.06C120.81 110.06 121.537 109.903 122.164 109.462L120.437 107.008C120.437 107.008 120.436 107.009 120.435 107.01C120.433 107.011 120.43 107.012 120.426 107.014C120.418 107.018 120.402 107.024 120.378 107.031C120.327 107.044 120.24 107.06 120.104 107.06V110.06ZM122.193 109.44C122.718 109.052 123.115 108.545 123.367 107.943L120.601 106.783C120.557 106.888 120.498 106.962 120.407 107.03L122.193 109.44ZM123.374 107.928C123.596 107.382 123.706 106.808 123.706 106.218H120.706C120.706 106.426 120.668 106.616 120.594 106.799L123.374 107.928ZM123.706 106.218V104.902H120.706V106.218H123.706ZM123.706 104.902C123.706 104.287 123.588 103.687 123.334 103.123L120.6 104.358C120.664 104.5 120.706 104.675 120.706 104.902H123.706ZM123.356 103.176C123.099 102.542 122.678 102.014 122.108 101.627L120.424 104.11C120.492 104.156 120.538 104.209 120.577 104.305L123.356 103.176ZM122.159 101.663C121.529 101.196 120.791 101.027 120.07 101.027V104.027C120.2 104.027 120.281 104.042 120.324 104.055C120.346 104.061 120.359 104.066 120.365 104.069C120.368 104.071 120.37 104.072 120.371 104.073C120.373 104.074 120.373 104.074 120.373 104.074L122.159 101.663ZM120.07 101.027C119.354 101.027 118.649 101.21 118.036 101.648L119.78 104.089C119.805 104.071 119.874 104.027 120.07 104.027V101.027ZM118.065 101.627C117.504 102.008 117.085 102.524 116.816 103.139L119.564 104.341C119.614 104.227 119.673 104.162 119.75 104.11L118.065 101.627ZM116.807 103.16C116.574 103.715 116.468 104.302 116.468 104.902H119.468C119.468 104.66 119.51 104.472 119.573 104.32L116.807 103.16ZM128.098 120.215V118.899H125.098V120.215H128.098ZM128.098 118.899C128.098 118.193 128.251 117.582 128.539 117.037L125.888 115.634C125.356 116.639 125.098 117.737 125.098 118.899H128.098ZM128.531 117.052C128.816 116.529 129.226 116.103 129.8 115.767L128.284 113.178C127.263 113.777 126.454 114.592 125.896 115.619L128.531 117.052ZM129.792 115.772C130.322 115.466 131.039 115.272 132.016 115.272V112.272C130.645 112.272 129.38 112.545 128.292 113.174L129.792 115.772ZM132.016 115.272C133.008 115.272 133.72 115.467 134.231 115.767L135.747 113.178C134.664 112.544 133.393 112.272 132.016 112.272V115.272ZM134.231 115.767C134.802 116.101 135.203 116.523 135.475 117.037L138.126 115.634C137.579 114.599 136.772 113.778 135.747 113.178L134.231 115.767ZM135.475 117.037C135.763 117.582 135.916 118.193 135.916 118.899H138.916C138.916 117.737 138.659 116.639 138.126 115.634L135.475 117.037ZM135.916 118.899V120.215H138.916V118.899H135.916ZM135.916 120.215C135.916 120.921 135.763 121.532 135.475 122.076L138.126 123.48C138.659 122.475 138.916 121.377 138.916 120.215H135.916ZM135.467 122.092C135.207 122.598 134.816 123.014 134.248 123.347L135.764 125.935C136.792 125.334 137.597 124.508 138.134 123.465L135.467 122.092ZM134.248 123.347C133.735 123.647 133.028 123.842 132.05 123.842V126.842C133.419 126.842 134.683 126.569 135.764 125.935L134.248 123.347ZM132.05 123.842C131.059 123.842 130.337 123.647 129.809 123.342L128.309 125.94C129.399 126.57 130.671 126.842 132.05 126.842V123.842ZM129.809 123.342C129.225 123.005 128.813 122.579 128.531 122.061L125.896 123.495C126.457 124.527 127.276 125.343 128.309 125.94L129.809 123.342ZM128.539 122.076C128.251 121.532 128.098 120.921 128.098 120.215H125.098C125.098 121.377 125.356 122.475 125.888 123.48L128.539 122.076ZM128.379 118.899V120.215H131.379V118.899H128.379ZM128.379 120.215C128.379 120.856 128.524 121.474 128.811 122.048L131.494 120.706C131.417 120.551 131.379 120.394 131.379 120.215H128.379ZM128.811 122.048C129.102 122.628 129.519 123.121 130.063 123.49L131.747 121.007C131.653 120.943 131.569 120.855 131.494 120.706L128.811 122.048ZM130.083 123.503C130.681 123.895 131.354 124.073 132.05 124.073V121.073C131.88 121.073 131.79 121.035 131.727 120.994L130.083 123.503ZM132.05 124.073C132.772 124.073 133.543 123.934 134.195 123.475L132.468 121.022C132.504 120.996 132.422 121.073 132.05 121.073V124.073ZM134.195 123.475C134.777 123.066 135.185 122.499 135.396 121.824L132.532 120.93C132.521 120.967 132.51 120.982 132.506 120.987C132.503 120.993 132.493 121.004 132.468 121.022L134.195 123.475ZM135.382 121.865C135.565 121.333 135.652 120.78 135.652 120.215H132.652C132.652 120.47 132.613 120.691 132.545 120.889L135.382 121.865ZM135.652 120.215V118.899H132.652V120.215H135.652ZM135.652 118.899C135.652 118.289 135.532 117.695 135.28 117.137L132.546 118.371C132.612 118.519 132.652 118.689 132.652 118.899H135.652ZM135.287 117.153C135.018 116.538 134.598 116.022 134.037 115.641L132.353 118.124C132.43 118.176 132.488 118.241 132.538 118.355L135.287 117.153ZM134.088 115.677C133.463 115.214 132.734 115.041 132.016 115.041V118.041C132.137 118.041 132.212 118.055 132.252 118.067C132.289 118.077 132.301 118.087 132.302 118.088L134.088 115.677ZM132.016 115.041C131.295 115.041 130.573 115.215 129.947 115.662L131.691 118.103C131.704 118.094 131.78 118.041 132.016 118.041V115.041ZM129.956 115.656C129.411 116.039 129.007 116.552 128.744 117.153L131.493 118.355C131.549 118.227 131.612 118.158 131.683 118.109L129.956 115.656ZM128.752 117.137C128.499 117.695 128.379 118.289 128.379 118.899H131.379C131.379 118.689 131.419 118.519 131.486 118.371L128.752 117.137ZM131.957 102.877L119.806 122.325L122.35 123.915L134.501 104.467L131.957 102.877ZM121.779 121.794L119.387 120.529L117.985 123.182L120.377 124.446L121.779 121.794ZM119.958 122.65L132.109 103.202L129.564 101.612L117.413 121.061L119.958 122.65ZM130.135 103.733L132.528 104.998L133.93 102.346L131.537 101.081L130.135 103.733Z" fill="#FFF6F6" mask="url(#path-7-outside-3_155_294)"/>
<rect x="33" y="33" width="102" height="32" rx="8" fill="white"/>
<path d="M56.84 41.41H58.6C58.6 41.09 58.59 40.69 58.58 40.4C58.57 40.27 58.56 40.14 58.53 39.94C57.87 40.06 56.93 40.21 56.16 40.26C56.01 40.28 55.95 40.15 55.91 40.04C55.81 39.84 55.67 39.63 55.4 39.35C56.65 39.29 57.43 39.16 58.37 38.98C59.06 38.83 59.56 38.72 60.02 38.55C60.49 38.37 60.66 38.27 60.88 38.1C61.22 38.35 61.54 38.6 61.7 38.8C61.78 38.88 61.83 38.97 61.83 39.08C61.83 39.19 61.73 39.21 61.57 39.22C61.36 39.25 61.15 39.34 60.94 39.39C60.33 39.56 59.72 39.71 59.13 39.83C59.39 39.86 59.62 39.9 59.78 39.96C59.86 39.98 59.91 40.03 59.91 40.1C59.91 40.15 59.88 40.2 59.85 40.27C59.81 40.36 59.79 40.46 59.78 40.61C59.77 40.83 59.77 41.06 59.77 41.4H61.01C61.64 41.4 62.49 41.35 62.94 41.33C63.04 41.33 63.04 41.38 63.05 41.49C63.07 41.75 63.06 42.06 63.05 42.29C63.04 42.43 63.04 42.47 62.92 42.47C62.29 42.45 61.71 42.44 60.98 42.44H59.75C59.67 43.29 59.53 43.89 59.25 44.45C58.9 45.19 58.31 45.89 57.66 46.32C57.6 46.36 57.55 46.39 57.49 46.39C57.44 46.39 57.38 46.37 57.31 46.33C56.95 46.14 56.58 46.02 56.25 45.95C57.25 45.36 57.71 44.85 58.12 44.1C58.38 43.59 58.52 43.06 58.56 42.44H56.78C56.42 42.44 55.68 42.44 55.19 42.48C55.06 42.49 55.03 42.41 55 42.25C54.95 42.06 54.9 41.65 54.9 41.34C55.61 41.4 56.35 41.41 56.84 41.41ZM66.92 39.83V41.08C66.92 41.43 66.92 41.92 66.93 42.28C66.93 42.44 66.91 42.45 66.75 42.46C66.47 42.47 66.15 42.47 65.87 42.46C65.74 42.46 65.68 42.45 65.68 42.35C65.71 41.95 65.73 41.5 65.73 41.08V40.14C65.73 39.56 65.72 39.21 65.69 38.84C65.69 38.78 65.74 38.74 65.82 38.74C66.26 38.76 66.89 38.78 67.49 38.78H70.86C71.22 38.78 71.37 38.74 71.47 38.67C71.52 38.63 71.56 38.61 71.6 38.61C71.66 38.61 71.71 38.64 71.79 38.7C72.05 38.88 72.4 39.2 72.53 39.36C72.58 39.42 72.6 39.48 72.6 39.54C72.6 39.6 72.57 39.67 72.51 39.73C72.38 39.88 72.31 40.14 72.26 40.32C71.96 41.42 71.57 42.46 71.04 43.41C70.47 44.43 69.74 45.35 68.8 46.15C68.72 46.23 68.64 46.26 68.56 46.26C68.49 46.26 68.43 46.24 68.36 46.19C68.06 46.01 67.8 45.9 67.4 45.81C68.6 44.89 69.31 44.06 69.93 42.92C70.46 41.96 70.8 41.09 71.08 39.83H66.92ZM76.92 39.83V41.08C76.92 41.43 76.92 41.92 76.93 42.28C76.93 42.44 76.91 42.45 76.75 42.46C76.47 42.47 76.15 42.47 75.87 42.46C75.74 42.46 75.68 42.45 75.68 42.35C75.71 41.95 75.73 41.5 75.73 41.08V40.14C75.73 39.56 75.72 39.21 75.69 38.84C75.69 38.78 75.74 38.74 75.82 38.74C76.26 38.76 76.89 38.78 77.49 38.78H80.86C81.22 38.78 81.37 38.74 81.47 38.67C81.52 38.63 81.56 38.61 81.6 38.61C81.66 38.61 81.71 38.64 81.79 38.7C82.05 38.88 82.4 39.2 82.53 39.36C82.58 39.42 82.6 39.48 82.6 39.54C82.6 39.6 82.57 39.67 82.51 39.73C82.38 39.88 82.31 40.14 82.26 40.32C81.96 41.42 81.57 42.46 81.04 43.41C80.47 44.43 79.74 45.35 78.8 46.15C78.72 46.23 78.64 46.26 78.56 46.26C78.49 46.26 78.43 46.24 78.36 46.19C78.06 46.01 77.8 45.9 77.4 45.81C78.6 44.89 79.31 44.06 79.93 42.92C80.46 41.96 80.8 41.09 81.08 39.83H76.92ZM89.68 39.87H89.64C89.41 41.57 88.99 43.13 88.39 44.18C87.96 44.93 87.44 45.33 86.69 45.33C85.81 45.33 84.92 44.39 84.92 42.76C84.92 41.8 85.33 40.88 86.05 40.16C86.89 39.32 87.95 38.88 89.3 38.88C91.7 38.88 93.11 40.36 93.11 42.35C93.11 44.21 92.06 45.38 90.03 45.99C89.82 46.05 89.73 46.01 89.6 45.81C89.49 45.64 89.28 45.41 88.9 45.18C90.59 44.78 91.92 44.08 91.92 42.19C91.92 41 91.02 39.87 89.68 39.87ZM88.48 39.93C87.78 40.07 87.22 40.35 86.77 40.84C86.29 41.38 85.99 42.05 85.99 42.69C85.99 43.61 86.36 44.12 86.67 44.12C86.93 44.12 87.15 43.99 87.42 43.51C87.86 42.7 88.31 41.26 88.48 39.93ZM97.89 37.72C98.82 38.09 99.76 38.28 100.79 38.43C100.9 38.45 100.94 38.53 100.92 38.61C100.88 38.82 100.77 39.3 100.7 39.49C100.67 39.59 100.64 39.64 100.56 39.63C99.47 39.45 98.69 39.26 97.66 38.86C97.61 38.84 97.56 38.79 97.59 38.66C97.66 38.29 97.77 38.02 97.89 37.72ZM95.95 41.02C96.36 40.98 96.6 40.9 97.14 40.73C97.98 40.45 98.67 40.23 99.43 40.23C100.77 40.23 101.54 41.14 101.54 42.61C101.54 43.59 101.19 44.39 100.73 45C100.26 45.64 99.59 46.17 98.8 46.59C98.73 46.62 98.68 46.64 98.63 46.64C98.54 46.64 98.48 46.6 98.39 46.51C98.17 46.3 97.9 46.11 97.56 45.98C98.66 45.46 99.34 44.9 99.76 44.31C100.05 43.9 100.31 43.35 100.31 42.54C100.31 41.71 99.96 41.28 99.38 41.28C98.82 41.28 98.38 41.43 97.81 41.71C97.22 42 97.08 42.1 96.96 42.19C96.88 42.25 96.82 42.29 96.74 42.29C96.61 42.29 96.52 42.16 96.46 42.07C96.32 41.86 96.11 41.42 95.95 41.02ZM107.15 39.76C107.2 39.41 107.24 39.08 107.27 38.84C107.31 38.4 107.3 38.14 107.25 37.87C107.82 37.93 108.19 38 108.45 38.08C108.58 38.12 108.65 38.18 108.65 38.26C108.65 38.31 108.61 38.38 108.58 38.42C108.51 38.51 108.43 38.68 108.41 38.79C108.36 39.06 108.32 39.26 108.27 39.61C108.77 39.54 109.59 39.39 110.15 39.24C110.29 39.2 110.34 39.21 110.36 39.34C110.4 39.57 110.43 39.84 110.43 40.08C110.43 40.19 110.4 40.22 110.31 40.24C109.45 40.43 108.91 40.54 108.07 40.65C107.93 41.48 107.79 42.15 107.61 42.85C108.39 42.17 109.39 41.79 110.48 41.79C111.81 41.79 112.71 42.65 112.71 43.68C112.71 44.56 112.34 45.21 111.57 45.7C110.97 46.09 110.11 46.33 109.02 46.5C108.77 46.54 108.53 46.57 108.28 46.57C108.18 46.57 108.11 46.52 108.03 46.33C107.87 46 107.72 45.81 107.49 45.62C108.95 45.53 109.56 45.4 110.36 45.07C111.13 44.75 111.5 44.29 111.5 43.66C111.5 43.14 111.12 42.71 110.36 42.71C109.28 42.71 108.29 43.21 107.73 43.95C107.64 44.08 107.54 44.2 107.45 44.33C107.38 44.45 107.35 44.49 107.26 44.48C107.04 44.46 106.71 44.35 106.51 44.26C106.35 44.19 106.29 44.15 106.29 44.06C106.29 44.02 106.3 43.95 106.33 43.86C106.38 43.69 106.42 43.54 106.46 43.39C106.68 42.51 106.82 41.77 106.99 40.77C106.45 40.81 105.82 40.86 105.31 40.86C105.2 40.86 105.14 40.81 105.12 40.72C105.09 40.6 105.02 40.18 104.98 39.85C105.76 39.85 106.38 39.82 107.15 39.76ZM48.4879 53.96H46.3579C45.4479 53.96 45.1379 53.98 45.0779 53.98C44.9779 53.98 44.9679 53.97 44.9679 53.87V53.04C44.9679 52.94 44.9779 52.93 45.0779 52.93C45.1379 52.93 45.4479 52.95 46.3579 52.95H48.6079C48.6279 52.61 48.6479 52.25 48.6479 51.87C48.6579 51.39 48.6379 51.03 48.5979 50.71C48.9079 50.72 49.4079 50.74 49.7379 50.79C49.8379 50.81 49.9179 50.86 49.9179 50.93C49.9179 51.01 49.8979 51.06 49.8479 51.14C49.8079 51.23 49.7679 51.4 49.7679 51.84C49.7579 52.21 49.7479 52.58 49.7179 52.95H52.2979C53.2079 52.95 53.5179 52.93 53.5779 52.93C53.6779 52.93 53.6879 52.94 53.6879 53.04V53.87C53.6879 53.97 53.6779 53.98 53.5779 53.98C53.5179 53.98 53.2079 53.96 52.2979 53.96H49.9379C50.5779 55.9 51.9679 57.78 53.9679 58.59C53.7579 58.79 53.5379 59.08 53.3879 59.34C53.2979 59.51 53.2579 59.58 53.1779 59.58C53.1379 59.58 53.0679 59.55 52.9579 59.48C51.3879 58.56 50.0679 56.94 49.3579 55.08C49.2279 55.53 49.0779 55.95 48.8779 56.34C48.1679 57.74 47.1079 58.73 45.7079 59.52C45.5979 59.58 45.5279 59.61 45.4779 59.61C45.3979 59.61 45.3479 59.55 45.2479 59.39C45.0979 59.15 44.8879 58.93 44.6679 58.75C46.2279 58.05 47.2779 57.1 47.8779 55.92C48.1679 55.36 48.3679 54.71 48.4879 53.96ZM48.3979 57.59L49.0379 57.15C49.1479 57.08 49.1679 57.1 49.2379 57.17C49.6779 57.61 50.0179 58.05 50.3679 58.6C50.4279 58.69 50.4279 58.7 50.3079 58.79L49.6579 59.27C49.5979 59.31 49.5579 59.33 49.5279 59.33C49.4879 59.33 49.4679 59.3 49.4379 59.25C49.1279 58.7 48.7579 58.19 48.3379 57.77C48.2679 57.69 48.2679 57.67 48.3979 57.59ZM57.0579 51C57.5079 51.09 57.8879 51.19 58.1479 51.31C58.2779 51.36 58.3379 51.42 58.3379 51.51C58.3379 51.57 58.3179 51.61 58.2679 51.67C58.1979 51.75 58.1479 51.89 58.0879 52.14C57.9479 52.82 57.8679 53.53 57.8079 54.05C57.7879 54.41 57.7579 54.79 57.7779 55.15C57.9979 54.76 58.2079 54.38 58.4779 53.87C58.5679 54.17 58.6679 54.35 58.7879 54.52C58.8379 54.58 58.8479 54.63 58.8479 54.68C58.8479 54.76 58.8079 54.84 58.7479 54.93C58.5279 55.35 58.2979 55.77 58.1579 56.21C58.1279 56.3 58.1179 56.39 58.1079 56.51C58.1079 56.61 58.0679 56.65 57.9779 56.67C57.8579 56.7 57.4279 56.76 57.1779 56.79C57.1079 56.8 57.0579 56.73 57.0379 56.66C56.8779 56.23 56.7379 55.46 56.7379 54.63C56.7379 53.96 56.8479 53.14 56.9779 52.14C57.0179 51.79 57.0579 51.45 57.0579 51ZM60.2579 51.02C60.6979 51.04 61.1079 51.06 61.3979 51.14C61.5979 51.19 61.6179 51.24 61.5979 51.41C61.5779 51.55 61.5779 51.73 61.5779 51.87C61.6479 52.82 61.7179 53.73 61.7179 54.45C61.7179 55.87 61.4879 57.1 60.9579 57.92C60.5679 58.54 59.9379 59.13 59.3079 59.53C59.2379 59.58 59.1679 59.6 59.1079 59.6C59.0379 59.6 58.9779 59.57 58.8979 59.49C58.6779 59.3 58.3679 59.12 58.0479 59.03C58.8579 58.58 59.3479 58.22 59.7479 57.69C60.3279 56.9 60.5879 56.08 60.5879 54.5C60.5879 53.79 60.5379 52.75 60.4679 52.11C60.4179 51.62 60.3679 51.37 60.2579 51.02ZM70.1679 55.31H70.9379C71.4979 55.31 71.6579 55.29 71.7279 55.29C71.8279 55.29 71.8379 55.3 71.8379 55.41C71.8379 55.47 71.8179 55.64 71.8179 56.07V56.72C71.8179 56.98 71.8179 57.14 71.8279 57.25C71.9679 57.26 72.0679 57.26 72.2179 57.26C72.3879 57.26 72.4779 57.19 72.4779 56.97V54.76H68.6879V56.97C68.6879 57.71 68.7079 58 68.7079 58.06C68.7079 58.16 68.6979 58.17 68.5979 58.17H67.8179C67.7079 58.17 67.6979 58.16 67.6979 58.06C67.6979 57.99 67.7179 57.72 67.7179 56.96V55.1C67.7179 54.44 67.6979 54.14 67.6979 54.08C67.6979 53.98 67.7079 53.97 67.8179 53.97C67.8479 53.97 67.9979 53.98 68.3379 53.99V52.09C68.3379 51.47 68.3179 51.16 68.3179 51.09C68.3179 50.99 68.3279 50.98 68.4379 50.98C68.4979 50.98 68.7979 51 69.6479 51H71.5379C72.3879 51 72.6779 50.98 72.7479 50.98C72.8479 50.98 72.8579 50.99 72.8579 51.09C72.8579 51.15 72.8379 51.47 72.8379 52.09V53.99C73.1479 53.98 73.2979 53.97 73.3379 53.97C73.4379 53.97 73.4479 53.98 73.4479 54.08C73.4479 54.14 73.4279 54.44 73.4279 55.05V55.68C73.4279 56.52 73.4479 56.84 73.4479 57.25C73.4479 57.52 73.4279 57.77 73.2179 57.95C73.0279 58.11 72.8079 58.18 72.1379 58.18C71.8379 58.18 71.8279 58.19 71.7979 57.97C71.7679 57.78 71.7379 57.63 71.6879 57.49C71.5979 57.49 71.4179 57.47 70.9379 57.47H70.1679C69.6179 57.47 69.4579 57.49 69.3879 57.49C69.2879 57.49 69.2779 57.48 69.2779 57.38C69.2779 57.31 69.2979 57.14 69.2979 56.72V56.07C69.2979 55.64 69.2779 55.47 69.2779 55.41C69.2779 55.3 69.2879 55.29 69.3879 55.29C69.4579 55.29 69.6179 55.31 70.1679 55.31ZM71.8979 51.83H69.2879V53.99H70.0579V53.22C70.0579 52.78 70.0379 52.58 70.0379 52.52C70.0379 52.42 70.0479 52.41 70.1479 52.41C70.2179 52.41 70.4379 52.43 70.8979 52.43H71.8979V51.83ZM70.9479 53.99H71.8979V53.13H70.9479V53.99ZM70.0879 55.99V56.78H71.0179V55.99H70.0879ZM67.0179 55.46V57.62C67.2279 58.03 67.5079 58.27 67.9079 58.44C68.2679 58.57 68.9179 58.63 69.7879 58.63C71.0779 58.63 72.5779 58.58 74.0779 58.43C73.9279 58.64 73.8479 58.89 73.8179 59.15C73.7679 59.47 73.7679 59.47 73.4479 59.49C72.1779 59.56 70.9879 59.59 69.9479 59.59C68.9179 59.59 68.0879 59.49 67.6079 59.29C67.1479 59.1 66.8279 58.84 66.5679 58.43C66.2679 58.71 65.9279 58.99 65.5979 59.25C65.4879 59.33 65.4279 59.39 65.3779 59.47C65.3379 59.53 65.2879 59.56 65.2379 59.56C65.1879 59.56 65.1379 59.52 65.0879 59.43C64.9479 59.15 64.8379 58.89 64.6979 58.53C64.9479 58.41 65.0879 58.34 65.2979 58.21C65.5579 58.05 65.8179 57.83 66.0479 57.6V55.35H65.6179C65.0979 55.35 64.9679 55.37 64.9179 55.37C64.8079 55.37 64.7979 55.36 64.7979 55.25V54.49C64.7979 54.39 64.8079 54.38 64.9179 54.38C64.9679 54.38 65.0979 54.4 65.6179 54.4H66.2079C66.7279 54.4 66.8779 54.38 66.9279 54.38C67.0279 54.38 67.0379 54.39 67.0379 54.49C67.0379 54.55 67.0179 54.84 67.0179 55.46ZM67.0379 52.65L66.4879 53.09C66.4379 53.13 66.3979 53.16 66.3679 53.16C66.3379 53.16 66.3079 53.13 66.2779 53.08C65.9179 52.48 65.4979 51.94 65.0479 51.52C64.9679 51.45 64.9879 51.43 65.0979 51.35L65.6179 50.98C65.6779 50.94 65.7079 50.92 65.7379 50.92C65.7679 50.92 65.7979 50.94 65.8379 50.97C66.2979 51.4 66.7279 51.89 67.0979 52.45C67.1579 52.54 67.1479 52.56 67.0379 52.65ZM78.4579 52.49C78.3779 52.26 78.3179 52.09 78.2179 51.84C78.1279 51.62 78.0379 51.42 77.8679 51.2C78.2679 51.13 78.6779 51.09 79.0779 51.09C79.2179 51.09 79.2979 51.17 79.2979 51.27C79.2979 51.33 79.2779 51.4 79.2779 51.46C79.2779 51.55 79.2979 51.65 79.3179 51.76C79.3879 52.02 79.4179 52.11 79.4779 52.28C80.2579 52.13 80.5779 52.06 81.2879 51.83C81.3779 51.79 81.4279 51.8 81.4579 51.88C81.5179 52.07 81.5879 52.35 81.6279 52.55C81.6479 52.65 81.5779 52.71 81.5079 52.73C80.9779 52.9 80.4379 53.04 79.7779 53.16C79.8679 53.41 79.9979 53.72 80.1279 54C80.9379 53.83 81.4679 53.66 81.9479 53.48C82.0479 53.43 82.0979 53.45 82.1279 53.54C82.2179 53.77 82.2579 53.96 82.3079 54.2C82.3279 54.29 82.3279 54.34 82.2279 54.38C81.7279 54.57 81.0879 54.76 80.5279 54.88C80.9779 55.63 81.3579 56.15 81.8479 56.6C81.9479 56.69 81.9479 56.73 81.8979 56.84C81.7879 57.07 81.6479 57.27 81.4879 57.46C81.4279 57.53 81.3879 57.56 81.3279 57.56C81.2879 57.56 81.2479 57.54 81.1879 57.5C81.0279 57.37 80.8279 57.28 80.5979 57.18C80.0879 56.96 79.4279 56.86 78.7179 56.86C77.7779 56.86 77.2279 57.15 77.2279 57.62C77.2279 58.27 78.0779 58.48 79.6079 58.48C79.9779 58.48 80.3479 58.44 80.7079 58.42C80.8079 58.42 80.8379 58.47 80.8279 58.55C80.7879 58.8 80.7179 59.19 80.6279 59.46C80.5979 59.56 80.5579 59.6 80.4179 59.61C80.1879 59.63 79.9479 59.64 79.6979 59.64C77.3979 59.64 76.1779 58.99 76.1779 57.76C76.1779 56.69 77.0979 56.02 78.6579 56.02C79.3879 56.02 79.9779 56.1 80.3779 56.27C80.1479 56 79.8979 55.65 79.5479 55.09C78.5179 55.25 77.5379 55.37 76.8079 55.39C76.6979 55.39 76.6579 55.35 76.6279 55.25C76.5679 55.05 76.4779 54.71 76.4479 54.43C77.4479 54.41 78.2479 54.33 79.1379 54.18C79.0379 53.97 78.8879 53.63 78.7579 53.35C77.8379 53.49 77.0979 53.58 76.3279 53.59C76.2079 53.59 76.1479 53.55 76.1279 53.45C76.0979 53.34 76.0279 52.97 75.9679 52.65C76.9479 52.66 77.7479 52.58 78.4579 52.49ZM81.5479 51.44L82.0779 51.07C82.1279 51.03 82.1679 51.04 82.2279 51.09C82.5379 51.33 82.8979 51.73 83.1779 52.16C83.2179 52.22 83.2179 52.27 83.1479 52.32L82.7279 52.63C82.6579 52.68 82.6079 52.67 82.5579 52.6C82.2579 52.14 81.9379 51.76 81.5479 51.44ZM82.4679 50.78L82.9679 50.42C83.0279 50.38 83.0579 50.39 83.1179 50.44C83.4879 50.72 83.8479 51.12 84.0679 51.47C84.1079 51.53 84.1179 51.59 84.0379 51.65L83.6379 51.96C83.5579 52.02 83.5079 51.99 83.4679 51.93C83.1979 51.5 82.8779 51.12 82.4679 50.78ZM89.3821 52.87H89.3421C89.1121 54.57 88.6921 56.13 88.0921 57.18C87.6621 57.93 87.1421 58.33 86.3921 58.33C85.5121 58.33 84.6221 57.39 84.6221 55.76C84.6221 54.8 85.0321 53.88 85.7521 53.16C86.5921 52.32 87.6521 51.88 89.0021 51.88C91.4021 51.88 92.8121 53.36 92.8121 55.35C92.8121 57.21 91.7621 58.38 89.7321 58.99C89.5221 59.05 89.4321 59.01 89.3021 58.81C89.1921 58.64 88.9821 58.41 88.6021 58.18C90.2921 57.78 91.6221 57.08 91.6221 55.19C91.6221 54 90.7221 52.87 89.3821 52.87ZM88.1821 52.93C87.4821 53.07 86.9221 53.35 86.4721 53.84C85.9921 54.38 85.6921 55.05 85.6921 55.69C85.6921 56.61 86.0621 57.12 86.3721 57.12C86.6321 57.12 86.8521 56.99 87.1221 56.51C87.5621 55.7 88.0121 54.26 88.1821 52.93ZM97.8921 53.77H97.4321V54.29H97.7521C98.5721 54.29 98.8521 54.27 98.9121 54.27C99.0121 54.27 99.0121 54.28 99.0121 54.38V54.94C99.0121 55.04 99.0121 55.05 98.9121 55.05C98.8521 55.05 98.5721 55.03 97.7521 55.03H97.4321V55.56H98.1821C99.1121 55.56 99.4321 55.54 99.4921 55.54C99.6021 55.54 99.6121 55.55 99.6121 55.65V56.23C99.6121 56.33 99.6021 56.34 99.4921 56.34C99.4321 56.34 99.1121 56.32 98.1821 56.32H95.6221C94.6921 56.32 94.3621 56.34 94.3021 56.34C94.2021 56.34 94.1921 56.33 94.1921 56.23V55.65C94.1921 55.55 94.2021 55.54 94.3021 55.54C94.3621 55.54 94.6921 55.56 95.6221 55.56H96.5021V55.03H96.1821C95.3421 55.03 95.0821 55.05 95.0221 55.05C94.9221 55.05 94.9121 55.04 94.9121 54.94V54.38C94.9121 54.28 94.9221 54.27 95.0221 54.27C95.0821 54.27 95.3421 54.29 96.1821 54.29H96.5021V53.77H96.0421C95.2421 53.77 94.9821 53.79 94.9321 53.79C94.8321 53.79 94.8221 53.78 94.8221 53.69V53.21H94.4421C94.3421 53.21 94.3321 53.2 94.3321 53.09C94.3321 53.03 94.3521 52.91 94.3521 52.21V51.96C94.3521 51.71 94.3321 51.58 94.3321 51.52C94.3321 51.42 94.3421 51.41 94.4421 51.41C94.5121 51.41 94.8421 51.43 95.7621 51.43H96.4821V51.41C96.4821 51.18 96.4721 50.93 96.4121 50.6C96.7821 50.61 97.1021 50.64 97.4421 50.68C97.5421 50.69 97.6021 50.73 97.6021 50.78C97.6021 50.86 97.5721 50.92 97.5421 50.99C97.4821 51.12 97.4921 51.24 97.4921 51.43H98.1621C99.0921 51.43 99.4121 51.41 99.4721 51.41C99.5821 51.41 99.5921 51.42 99.5921 51.52C99.5921 51.58 99.5721 51.71 99.5721 51.9V52.21C99.5721 52.91 99.5921 53.03 99.5921 53.09C99.5921 53.2 99.5821 53.21 99.4721 53.21H99.1221V53.69C99.1221 53.78 99.1121 53.79 99.0121 53.79C98.9521 53.79 98.6921 53.77 97.8921 53.77ZM95.2721 52.23V53.02C95.3921 53.03 95.6221 53.03 96.0421 53.03H96.5021C96.4921 52.82 96.4721 52.63 96.4421 52.4C96.8121 52.42 97.0721 52.44 97.3821 52.47C97.4821 52.48 97.5421 52.53 97.5421 52.59C97.5421 52.67 97.5121 52.71 97.4821 52.78C97.4421 52.86 97.4321 52.93 97.4321 53.03H97.8921C98.3221 53.03 98.5521 53.03 98.6721 53.02V52.23H95.2721ZM95.8621 59.76H95.0721C94.9721 59.76 94.9621 59.75 94.9621 59.65C94.9621 59.59 94.9821 59.34 94.9821 58.36V57.7C94.9821 57.17 94.9621 56.94 94.9621 56.88C94.9621 56.77 94.9721 56.76 95.0721 56.76C95.1421 56.76 95.4121 56.78 96.2121 56.78H97.7821C98.5821 56.78 98.8521 56.76 98.9221 56.76C99.0221 56.76 99.0321 56.77 99.0321 56.88C99.0321 56.94 99.0121 57.16 99.0121 57.58V58.29C99.0121 59.24 99.0321 59.49 99.0321 59.55C99.0321 59.64 99.0221 59.65 98.9221 59.65H98.1421C98.0521 59.65 98.0421 59.64 98.0421 59.55V59.29H95.9721V59.65C95.9721 59.75 95.9621 59.76 95.8621 59.76ZM95.9721 57.59V58.49H98.0421V57.59H95.9721ZM102.902 52.15V56.37C102.902 57.07 102.932 57.85 102.932 58.35C102.932 58.84 102.862 59.17 102.572 59.37C102.292 59.56 102.022 59.63 101.142 59.63C100.842 59.63 100.842 59.63 100.772 59.31C100.702 59.01 100.612 58.76 100.482 58.53C100.842 58.57 101.082 58.59 101.442 58.59C101.782 58.59 101.882 58.52 101.882 58.2V52.17C101.882 51.53 101.872 51.21 101.802 50.75C102.172 50.76 102.522 50.78 102.862 50.82C102.972 50.83 103.032 50.88 103.032 50.93C103.032 51.02 102.992 51.07 102.962 51.14C102.912 51.26 102.902 51.47 102.902 52.15ZM100.082 55.75V52.99C100.082 52.33 100.072 51.98 100.012 51.51C100.362 51.52 100.682 51.54 101.022 51.58C101.112 51.59 101.162 51.63 101.162 51.69C101.162 51.76 101.112 51.84 101.092 51.91C101.072 52.05 101.072 52.25 101.072 52.98V55.75C101.072 56.6 101.092 57.01 101.092 57.07C101.092 57.17 101.082 57.18 100.972 57.18H100.162C100.072 57.18 100.062 57.17 100.062 57.07C100.062 57.01 100.082 56.6 100.082 55.75ZM106.602 59.75H105.752C105.652 59.75 105.642 59.74 105.642 59.64C105.642 59.58 105.662 59.31 105.662 57.86V57C105.662 56.14 105.642 55.85 105.642 55.79C105.642 55.69 105.652 55.68 105.752 55.68C105.812 55.68 106.162 55.7 107.122 55.7H110.322C111.282 55.7 111.632 55.68 111.692 55.68C111.802 55.68 111.812 55.69 111.812 55.79C111.812 55.85 111.792 56.14 111.792 56.85V57.83C111.792 59.27 111.812 59.54 111.812 59.59C111.812 59.69 111.802 59.7 111.692 59.7H110.842C110.742 59.7 110.732 59.69 110.732 59.59V59.26H106.722V59.64C106.722 59.74 106.712 59.75 106.602 59.75ZM106.722 56.61V58.35H110.732V56.61H106.722ZM106.702 54.64V53.92C106.122 54.37 105.502 54.76 104.852 55.1C104.732 55.16 104.672 55.2 104.622 55.2C104.552 55.2 104.512 55.13 104.432 54.95C104.302 54.68 104.142 54.46 103.962 54.28C105.802 53.45 106.992 52.41 107.812 51.22C107.992 50.96 108.102 50.77 108.202 50.51C108.592 50.57 108.962 50.63 109.252 50.7C109.372 50.74 109.432 50.77 109.432 50.86C109.432 50.91 109.412 50.96 109.332 51.01C109.302 51.03 109.272 51.05 109.252 51.08C110.442 52.6 111.832 53.53 113.522 54.13C113.352 54.34 113.202 54.61 113.102 54.89C113.042 55.08 113.002 55.15 112.922 55.15C112.872 55.15 112.792 55.12 112.682 55.06C111.972 54.74 111.322 54.37 110.732 53.94V54.64C110.732 54.74 110.722 54.75 110.622 54.75C110.562 54.75 110.292 54.73 109.492 54.73H107.942C107.142 54.73 106.882 54.75 106.812 54.75C106.712 54.75 106.702 54.74 106.702 54.64ZM107.942 53.8H109.492C110.082 53.8 110.382 53.79 110.522 53.79C109.802 53.24 109.192 52.6 108.682 51.89C108.162 52.61 107.542 53.23 106.862 53.78C106.982 53.79 107.262 53.8 107.942 53.8ZM120.122 56.51C120.102 55.74 120.092 55.01 120.082 54.22C119.402 54.24 118.702 54.26 118.022 54.21C117.892 54.21 117.852 54.18 117.842 54.08C117.802 53.84 117.772 53.48 117.772 53.17C118.522 53.24 119.302 53.25 120.052 53.2C120.052 52.84 120.042 52.52 120.042 52.15C120.032 51.79 120.002 51.53 119.912 51.17C120.492 51.22 120.792 51.26 121.122 51.36C121.232 51.39 121.302 51.44 121.302 51.53C121.302 51.58 121.282 51.61 121.242 51.7C121.202 51.79 121.172 51.92 121.162 52.05C121.142 52.39 121.142 52.65 121.142 53.11C121.612 53.07 122.132 53 122.562 52.93C122.682 52.9 122.702 52.94 122.722 53.05C122.762 53.23 122.782 53.55 122.782 53.76C122.782 53.85 122.742 53.9 122.672 53.91C122.312 54 121.652 54.08 121.132 54.12C121.132 55.24 121.152 55.94 121.202 56.8C121.792 57.04 122.302 57.32 122.862 57.76C122.952 57.82 122.962 57.85 122.912 57.96C122.782 58.22 122.622 58.5 122.452 58.73C122.422 58.77 122.392 58.79 122.362 58.79C122.332 58.79 122.302 58.77 122.272 58.74C121.962 58.45 121.632 58.2 121.192 57.94C121.112 58.78 120.542 59.24 119.362 59.24C118.212 59.24 117.572 58.7 117.572 57.84C117.572 57.02 118.312 56.43 119.322 56.43C119.582 56.43 119.882 56.46 120.122 56.51ZM120.142 57.46C119.822 57.36 119.552 57.33 119.272 57.33C118.802 57.33 118.522 57.5 118.522 57.81C118.522 58.12 118.742 58.31 119.332 58.31C119.832 58.31 120.152 58.02 120.152 57.66C120.152 57.59 120.152 57.54 120.142 57.46ZM115.502 51.19C115.902 51.29 116.442 51.45 116.642 51.55C116.752 51.61 116.792 51.67 116.792 51.75C116.792 51.82 116.762 51.89 116.722 51.97C116.652 52.09 116.612 52.23 116.542 52.52C116.212 54.03 116.042 55.43 116.042 56.16C116.042 56.56 116.042 57.02 116.072 57.44C116.272 56.98 116.482 56.55 116.692 56.05C116.832 56.37 116.912 56.51 117.042 56.68C117.082 56.73 117.102 56.77 117.102 56.82C117.102 56.87 117.082 56.92 117.042 56.98C116.692 57.77 116.572 58.21 116.532 58.5C116.492 58.78 116.512 58.93 116.522 59.03C116.532 59.1 116.492 59.13 116.402 59.16C116.212 59.23 115.922 59.29 115.652 59.33C115.542 59.36 115.502 59.35 115.452 59.21C115.172 58.5 115.022 57.31 115.022 56.16C115.022 55.2 115.102 54.4 115.432 52.37C115.482 52.02 115.542 51.59 115.502 51.19Z" fill="#333333"/>
<defs>
<filter id="filter0_d_155_294" x="23.8188" y="0" width="153.181" height="184" filterUnits="userSpaceOnUse" color-interpolation-filters="sRGB">
<feFlood flood-opacity="0" result="BackgroundImageFix"/>
<feColorMatrix in="SourceAlpha" type="matrix" values="0 0 0 0 0 0 0 0 0 0 0 0 0 0 0 0 0 0 127 0" result="hardAlpha"/>
<feOffset dy="4"/>
<feGaussianBlur stdDeviation="3.5"/>
<feComposite in2="hardAlpha" operator="out"/>
<feColorMatrix type="matrix" values="0 0 0 0 0.65098 0 0 0 0 0.329412 0 0 0 0 0.329412 0 0 0 0.6 0"/>
<feBlend mode="normal" in2="BackgroundImageFix" result="effect1_dropShadow_155_294"/>
<feBlend mode="normal" in="SourceGraphic" in2="effect1_dropShadow_155_294" result="shape"/>
</filter>
</defs>
</svg>
