<svg width="181" height="178" viewBox="0 0 181 178" fill="none" xmlns="http://www.w3.org/2000/svg">
<path d="M167.384 103.271C164.545 118.153 157.53 131.92 147.159 142.963C136.789 154.007 123.49 161.872 108.816 165.64C94.1416 169.408 78.6985 168.922 64.2901 164.241C49.8817 159.559 37.1027 150.874 27.4457 139.201C17.7888 127.528 11.6526 113.348 9.7538 98.3176C7.85501 83.2871 10.272 68.0266 16.7226 54.3185C23.1731 40.6105 33.3908 29.0207 46.1823 20.903C58.9739 12.7852 73.8111 8.47461 88.961 8.47461L88.961 88.3114L167.384 103.271Z" fill="#FFD5D6"/>
<g filter="url(#filter0_d_155_246)">
<path d="M87.1361 3C99.9627 3 112.631 5.83172 124.237 11.293C135.843 16.7543 146.1 24.7104 154.276 34.5935C162.452 44.4765 168.345 56.0427 171.535 68.4662C174.725 80.8898 175.132 93.8644 172.729 106.464L87.1361 90.1361L87.1361 3Z" fill="#F49798"/>
</g>
<mask id="path-3-outside-1_155_246" maskUnits="userSpaceOnUse" x="36" y="72" width="76" height="55" fill="black">
<rect fill="white" x="36" y="72" width="76" height="55"/>
<path d="M72.6656 116.31V124H38.6227V117.438L54.7213 100.177C56.3391 98.3766 57.6152 96.793 58.5494 95.4258C59.4837 94.0358 60.1559 92.7939 60.566 91.7002C60.999 90.5837 61.2154 89.5241 61.2154 88.5215C61.2154 87.0176 60.9648 85.7301 60.4635 84.6592C59.9622 83.5654 59.2216 82.7223 58.2418 82.1299C57.2848 81.5374 56.0999 81.2412 54.6871 81.2412C53.1832 81.2412 51.8844 81.6058 50.7906 82.335C49.7197 83.0641 48.8994 84.0781 48.3297 85.377C47.7828 86.6758 47.5094 88.1455 47.5094 89.7861H37.6314C37.6314 86.8239 38.3378 84.1123 39.7506 81.6514C41.1633 79.1676 43.1572 77.1966 45.732 75.7383C48.3069 74.2572 51.3603 73.5166 54.8922 73.5166C58.3785 73.5166 61.318 74.0863 63.7105 75.2256C66.1259 76.3421 67.9488 77.96 69.1793 80.0791C70.4326 82.1755 71.0592 84.682 71.0592 87.5986C71.0592 89.2393 70.7971 90.8457 70.273 92.418C69.749 93.9674 68.997 95.5169 68.0172 97.0664C67.0602 98.5931 65.898 100.143 64.5309 101.715C63.1637 103.287 61.6484 104.916 59.985 106.603L51.3375 116.31H72.6656ZM109.548 110.362C109.548 113.484 108.819 116.116 107.361 118.258C105.902 120.377 103.897 121.983 101.345 123.077C98.8158 124.148 95.9447 124.684 92.7318 124.684C89.5189 124.684 86.6365 124.148 84.0844 123.077C81.5323 121.983 79.5157 120.377 78.0346 118.258C76.5535 116.116 75.8129 113.484 75.8129 110.362C75.8129 108.266 76.2344 106.375 77.0775 104.688C77.9206 102.979 79.0941 101.521 80.598 100.313C82.1247 99.083 83.9135 98.1488 85.9643 97.5107C88.015 96.8499 90.2481 96.5195 92.6635 96.5195C95.8992 96.5195 98.793 97.0892 101.345 98.2285C103.897 99.3678 105.902 100.974 107.361 103.048C108.819 105.121 109.548 107.56 109.548 110.362ZM99.6361 109.713C99.6361 108.186 99.3399 106.876 98.7475 105.782C98.1778 104.666 97.3689 103.811 96.3207 103.219C95.2725 102.626 94.0535 102.33 92.6635 102.33C91.2735 102.33 90.0544 102.626 89.0063 103.219C87.9581 103.811 87.1378 104.666 86.5453 105.782C85.9757 106.876 85.6908 108.186 85.6908 109.713C85.6908 111.217 85.9757 112.516 86.5453 113.609C87.1378 114.703 87.9581 115.546 89.0063 116.139C90.0772 116.708 91.3191 116.993 92.7318 116.993C94.1446 116.993 95.3637 116.708 96.3891 116.139C97.4372 115.546 98.2348 114.703 98.7816 113.609C99.3513 112.516 99.6361 111.217 99.6361 109.713ZM108.489 87.4277C108.489 89.957 107.816 92.2015 106.472 94.1611C105.128 96.098 103.259 97.6133 100.867 98.707C98.4968 99.8008 95.7852 100.348 92.7318 100.348C89.6557 100.348 86.9213 99.8008 84.5287 98.707C82.1361 97.6133 80.2676 96.098 78.9232 94.1611C77.5788 92.2015 76.9066 89.957 76.9066 87.4277C76.9066 84.4199 77.5788 81.8906 78.9232 79.8398C80.2904 77.7663 82.1589 76.194 84.5287 75.123C86.9213 74.0521 89.6329 73.5166 92.6635 73.5166C95.7397 73.5166 98.4626 74.0521 100.832 75.123C103.225 76.194 105.093 77.7663 106.438 79.8398C107.805 81.8906 108.489 84.4199 108.489 87.4277ZM98.6449 87.8721C98.6449 86.5277 98.4057 85.3656 97.9272 84.3857C97.4486 83.3831 96.765 82.6084 95.8764 82.0615C95.0105 81.5146 93.9395 81.2412 92.6635 81.2412C91.433 81.2412 90.3734 81.5033 89.4848 82.0273C88.6189 82.5514 87.9467 83.3148 87.4682 84.3174C87.0124 85.2972 86.7846 86.4821 86.7846 87.8721C86.7846 89.2165 87.0124 90.4014 87.4682 91.4268C87.9467 92.4294 88.6303 93.2155 89.5189 93.7852C90.4076 94.3548 91.4786 94.6396 92.7318 94.6396C93.9851 94.6396 95.0447 94.3548 95.9105 93.7852C96.7992 93.2155 97.4714 92.4294 97.9272 91.4268C98.4057 90.4014 98.6449 89.2165 98.6449 87.8721Z"/>
</mask>
<path d="M72.6656 116.31V124H38.6227V117.438L54.7213 100.177C56.3391 98.3766 57.6152 96.793 58.5494 95.4258C59.4837 94.0358 60.1559 92.7939 60.566 91.7002C60.999 90.5837 61.2154 89.5241 61.2154 88.5215C61.2154 87.0176 60.9648 85.7301 60.4635 84.6592C59.9622 83.5654 59.2216 82.7223 58.2418 82.1299C57.2848 81.5374 56.0999 81.2412 54.6871 81.2412C53.1832 81.2412 51.8844 81.6058 50.7906 82.335C49.7197 83.0641 48.8994 84.0781 48.3297 85.377C47.7828 86.6758 47.5094 88.1455 47.5094 89.7861H37.6314C37.6314 86.8239 38.3378 84.1123 39.7506 81.6514C41.1633 79.1676 43.1572 77.1966 45.732 75.7383C48.3069 74.2572 51.3603 73.5166 54.8922 73.5166C58.3785 73.5166 61.318 74.0863 63.7105 75.2256C66.1259 76.3421 67.9488 77.96 69.1793 80.0791C70.4326 82.1755 71.0592 84.682 71.0592 87.5986C71.0592 89.2393 70.7971 90.8457 70.273 92.418C69.749 93.9674 68.997 95.5169 68.0172 97.0664C67.0602 98.5931 65.898 100.143 64.5309 101.715C63.1637 103.287 61.6484 104.916 59.985 106.603L51.3375 116.31H72.6656ZM109.548 110.362C109.548 113.484 108.819 116.116 107.361 118.258C105.902 120.377 103.897 121.983 101.345 123.077C98.8158 124.148 95.9447 124.684 92.7318 124.684C89.5189 124.684 86.6365 124.148 84.0844 123.077C81.5323 121.983 79.5157 120.377 78.0346 118.258C76.5535 116.116 75.8129 113.484 75.8129 110.362C75.8129 108.266 76.2344 106.375 77.0775 104.688C77.9206 102.979 79.0941 101.521 80.598 100.313C82.1247 99.083 83.9135 98.1488 85.9643 97.5107C88.015 96.8499 90.2481 96.5195 92.6635 96.5195C95.8992 96.5195 98.793 97.0892 101.345 98.2285C103.897 99.3678 105.902 100.974 107.361 103.048C108.819 105.121 109.548 107.56 109.548 110.362ZM99.6361 109.713C99.6361 108.186 99.3399 106.876 98.7475 105.782C98.1778 104.666 97.3689 103.811 96.3207 103.219C95.2725 102.626 94.0535 102.33 92.6635 102.33C91.2735 102.33 90.0544 102.626 89.0063 103.219C87.9581 103.811 87.1378 104.666 86.5453 105.782C85.9757 106.876 85.6908 108.186 85.6908 109.713C85.6908 111.217 85.9757 112.516 86.5453 113.609C87.1378 114.703 87.9581 115.546 89.0063 116.139C90.0772 116.708 91.3191 116.993 92.7318 116.993C94.1446 116.993 95.3637 116.708 96.3891 116.139C97.4372 115.546 98.2348 114.703 98.7816 113.609C99.3513 112.516 99.6361 111.217 99.6361 109.713ZM108.489 87.4277C108.489 89.957 107.816 92.2015 106.472 94.1611C105.128 96.098 103.259 97.6133 100.867 98.707C98.4968 99.8008 95.7852 100.348 92.7318 100.348C89.6557 100.348 86.9213 99.8008 84.5287 98.707C82.1361 97.6133 80.2676 96.098 78.9232 94.1611C77.5788 92.2015 76.9066 89.957 76.9066 87.4277C76.9066 84.4199 77.5788 81.8906 78.9232 79.8398C80.2904 77.7663 82.1589 76.194 84.5287 75.123C86.9213 74.0521 89.6329 73.5166 92.6635 73.5166C95.7397 73.5166 98.4626 74.0521 100.832 75.123C103.225 76.194 105.093 77.7663 106.438 79.8398C107.805 81.8906 108.489 84.4199 108.489 87.4277ZM98.6449 87.8721C98.6449 86.5277 98.4057 85.3656 97.9272 84.3857C97.4486 83.3831 96.765 82.6084 95.8764 82.0615C95.0105 81.5146 93.9395 81.2412 92.6635 81.2412C91.433 81.2412 90.3734 81.5033 89.4848 82.0273C88.6189 82.5514 87.9467 83.3148 87.4682 84.3174C87.0124 85.2972 86.7846 86.4821 86.7846 87.8721C86.7846 89.2165 87.0124 90.4014 87.4682 91.4268C87.9467 92.4294 88.6303 93.2155 89.5189 93.7852C90.4076 94.3548 91.4786 94.6396 92.7318 94.6396C93.9851 94.6396 95.0447 94.3548 95.9105 93.7852C96.7992 93.2155 97.4714 92.4294 97.9272 91.4268C98.4057 90.4014 98.6449 89.2165 98.6449 87.8721Z" fill="#D95B5D"/>
<path d="M72.6656 116.31H74.1656C74.1656 115.481 73.4941 114.81 72.6656 114.81V116.31ZM72.6656 124V125.5C73.4941 125.5 74.1656 124.828 74.1656 124H72.6656ZM38.6227 124H37.1227C37.1227 124.828 37.7942 125.5 38.6227 125.5V124ZM38.6227 117.438L37.5257 116.414C37.2667 116.692 37.1227 117.058 37.1227 117.438H38.6227ZM54.7213 100.177L55.8182 101.2C55.8245 101.193 55.8308 101.186 55.8369 101.179L54.7213 100.177ZM58.5494 95.4258L59.7879 96.2721L59.7943 96.2625L58.5494 95.4258ZM60.566 91.7002L59.1675 91.1579C59.1655 91.1631 59.1635 91.1683 59.1615 91.1735L60.566 91.7002ZM60.4635 84.6592L59.0998 85.2842L59.1049 85.2951L60.4635 84.6592ZM58.2418 82.1299L57.4523 83.4053C57.4567 83.408 57.4612 83.4108 57.4657 83.4135L58.2418 82.1299ZM50.7906 82.335L49.9586 81.0869C49.9545 81.0896 49.9505 81.0923 49.9464 81.0951L50.7906 82.335ZM48.3297 85.377L46.956 84.7745C46.953 84.7812 46.9501 84.788 46.9472 84.7949L48.3297 85.377ZM47.5094 89.7861V91.2861C48.3378 91.2861 49.0094 90.6146 49.0094 89.7861H47.5094ZM37.6314 89.7861H36.1314C36.1314 90.6146 36.803 91.2861 37.6314 91.2861V89.7861ZM39.7506 81.6514L41.0515 82.3982L41.0544 82.393L39.7506 81.6514ZM45.732 75.7383L46.4713 77.0435L46.48 77.0385L45.732 75.7383ZM63.7105 75.2256L63.0656 76.5799C63.0708 76.5823 63.076 76.5848 63.0811 76.5871L63.7105 75.2256ZM69.1793 80.0791L67.8821 80.8323C67.8853 80.8378 67.8886 80.8433 67.8918 80.8488L69.1793 80.0791ZM70.273 92.418L71.694 92.8986L71.6961 92.8923L70.273 92.418ZM68.0172 97.0664L66.7494 96.2647L66.7463 96.2697L68.0172 97.0664ZM59.985 106.603L58.9171 105.549C58.8993 105.567 58.8819 105.586 58.8649 105.605L59.985 106.603ZM51.3375 116.31L50.2175 115.312C49.8244 115.753 49.727 116.384 49.9688 116.923C50.2106 117.463 50.7465 117.81 51.3375 117.81V116.31ZM71.1656 116.31V124H74.1656V116.31H71.1656ZM72.6656 122.5H38.6227V125.5H72.6656V122.5ZM40.1227 124V117.438H37.1227V124H40.1227ZM39.7196 118.461L55.8182 101.2L53.6243 99.1537L37.5257 116.414L39.7196 118.461ZM55.8369 101.179C57.4809 99.3503 58.8034 97.7127 59.7879 96.2721L57.3109 94.5795C56.4269 95.8732 55.1974 97.403 53.6056 99.1741L55.8369 101.179ZM59.7943 96.2625C60.7681 94.8137 61.506 93.4657 61.9705 92.2269L59.1615 91.1735C58.8058 92.1222 58.1992 93.2579 57.3045 94.589L59.7943 96.2625ZM61.9646 92.2425C62.4518 90.9858 62.7154 89.7418 62.7154 88.5215H59.7154C59.7154 89.3064 59.5461 90.1815 59.1675 91.1579L61.9646 92.2425ZM62.7154 88.5215C62.7154 86.8556 62.4382 85.3397 61.822 84.0233L59.1049 85.2951C59.4913 86.1206 59.7154 87.1796 59.7154 88.5215H62.7154ZM61.8271 84.0342C61.2072 82.6816 60.2687 81.6025 59.0179 80.8463L57.4657 83.4135C58.1746 83.8421 58.7172 84.4492 59.0999 85.2842L61.8271 84.0342ZM59.0313 80.8545C57.7835 80.082 56.3081 79.7412 54.6871 79.7412V82.7412C55.8916 82.7412 56.7861 82.9929 57.4523 83.4053L59.0313 80.8545ZM54.6871 79.7412C52.931 79.7412 51.3329 80.1707 49.9586 81.0869L51.6227 83.583C52.4358 83.0409 53.4354 82.7412 54.6871 82.7412V79.7412ZM49.9464 81.0951C48.6208 81.9976 47.6277 83.243 46.956 84.7745L49.7034 85.9794C50.171 84.9133 50.8185 84.1306 51.6348 83.5749L49.9464 81.0951ZM46.9472 84.7949C46.3111 86.3057 46.0094 87.978 46.0094 89.7861H49.0094C49.0094 88.313 49.2545 87.0459 49.7121 85.959L46.9472 84.7949ZM47.5094 88.2861H37.6314V91.2861H47.5094V88.2861ZM39.1314 89.7861C39.1314 87.074 39.775 84.6217 41.0515 82.3982L38.4497 80.9046C36.9006 83.6029 36.1314 86.5738 36.1314 89.7861H39.1314ZM41.0544 82.393C42.3284 80.1533 44.1232 78.3733 46.4713 77.0435L44.9928 74.4331C42.1911 76.0199 39.9983 78.182 38.4468 80.9097L41.0544 82.393ZM46.48 77.0385C48.7877 75.711 51.573 75.0166 54.8922 75.0166V72.0166C51.1476 72.0166 47.8261 72.8033 44.9841 74.438L46.48 77.0385ZM54.8922 75.0166C58.2228 75.0166 60.9276 75.5618 63.0656 76.5799L64.3554 73.8713C61.7083 72.6108 58.5342 72.0166 54.8922 72.0166V75.0166ZM63.0811 76.5871C65.242 77.586 66.8198 79.0028 67.8821 80.8323L70.4765 79.3259C69.0778 76.9171 67.0099 75.0982 64.34 73.864L63.0811 76.5871ZM67.8918 80.8488C68.9811 82.6709 69.5592 84.9001 69.5592 87.5986H72.5592C72.5592 84.4638 71.884 81.68 70.4668 79.3094L67.8918 80.8488ZM69.5592 87.5986C69.5592 89.0764 69.3237 90.5227 68.85 91.9436L71.6961 92.8923C72.2706 91.1687 72.5592 89.4021 72.5592 87.5986H69.5592ZM68.8521 91.9374C68.3704 93.3615 67.6731 94.8039 66.7494 96.2647L69.285 97.8681C70.3209 96.23 71.1275 94.5734 71.694 92.8986L68.8521 91.9374ZM66.7463 96.2697C65.8364 97.7211 64.7227 99.2082 63.399 100.731L65.6628 102.699C67.0734 101.077 68.2839 99.4651 69.2881 97.8631L66.7463 96.2697ZM63.399 100.731C62.0549 102.276 60.5614 103.882 58.9171 105.549L61.0528 107.656C62.7354 105.95 64.2724 104.298 65.6628 102.699L63.399 100.731ZM58.8649 105.605L50.2175 115.312L52.4575 117.307L61.105 107.6L58.8649 105.605ZM51.3375 117.81H72.6656V114.81H51.3375V117.81ZM107.361 118.258L108.596 119.108L108.601 119.102L107.361 118.258ZM101.345 123.077L101.93 124.458L101.936 124.456L101.345 123.077ZM84.0844 123.077L83.4935 124.456L83.5039 124.46L84.0844 123.077ZM78.0346 118.258L76.8008 119.111L76.8051 119.117L78.0346 118.258ZM77.0775 104.688L78.4192 105.359L78.4228 105.352L77.0775 104.688ZM80.598 100.313L81.5373 101.483L81.5393 101.481L80.598 100.313ZM85.9643 97.5107L86.4099 98.943C86.4147 98.9415 86.4195 98.94 86.4243 98.9385L85.9643 97.5107ZM107.361 103.048L106.134 103.911L107.361 103.048ZM98.7475 105.782L97.4113 106.464C97.4169 106.475 97.4227 106.486 97.4285 106.497L98.7475 105.782ZM89.0063 103.219L88.2682 101.913L89.0063 103.219ZM86.5453 105.782L85.2203 105.079L85.2149 105.089L86.5453 105.782ZM86.5453 113.609L85.2149 114.302C85.2187 114.309 85.2225 114.317 85.2264 114.324L86.5453 113.609ZM89.0063 116.139L88.2682 117.445C88.2793 117.451 88.2905 117.457 88.3018 117.463L89.0063 116.139ZM96.3891 116.139L97.1175 117.45L97.1272 117.445L96.3891 116.139ZM98.7816 113.609L97.4513 112.916C97.4475 112.924 97.4437 112.931 97.44 112.939L98.7816 113.609ZM106.472 94.1611L107.704 95.0165L107.709 95.0097L106.472 94.1611ZM100.867 98.707L100.243 97.3428L100.238 97.3451L100.867 98.707ZM78.9232 94.1611L77.6863 95.0097L77.691 95.0165L78.9232 94.1611ZM78.9232 79.8398L77.6709 79.0142L77.6688 79.0175L78.9232 79.8398ZM84.5287 75.123L83.9159 73.7539L83.911 73.7562L84.5287 75.123ZM100.832 75.123L100.215 76.49L100.22 76.4921L100.832 75.123ZM106.438 79.8398L105.179 80.6559C105.183 80.6612 105.186 80.6666 105.19 80.6719L106.438 79.8398ZM97.9272 84.3857L96.5734 85.0319L96.5793 85.044L97.9272 84.3857ZM95.8764 82.0615L95.0754 83.3298C95.0803 83.3329 95.0853 83.336 95.0902 83.339L95.8764 82.0615ZM89.4848 82.0273L88.7228 80.7353C88.7179 80.7382 88.713 80.7411 88.7081 80.7441L89.4848 82.0273ZM87.4682 84.3174L86.1144 83.6713C86.1123 83.6758 86.1102 83.6803 86.1081 83.6848L87.4682 84.3174ZM87.4682 91.4268L86.0974 92.036C86.1029 92.0483 86.1086 92.0606 86.1144 92.0729L87.4682 91.4268ZM95.9105 93.7852L95.101 92.5223C95.0961 92.5255 95.0911 92.5288 95.0861 92.532L95.9105 93.7852ZM97.9272 91.4268L96.5679 90.7924C96.5658 90.797 96.5637 90.8015 96.5616 90.8061L97.9272 91.4268ZM108.048 110.362C108.048 113.246 107.378 115.568 106.121 117.414L108.601 119.102C110.261 116.664 111.048 113.723 111.048 110.362H108.048ZM106.125 117.407C104.84 119.275 103.067 120.707 100.754 121.698L101.936 124.456C104.727 123.26 106.965 121.479 108.596 119.108L106.125 117.407ZM100.76 121.696C98.4447 122.676 95.7775 123.184 92.7318 123.184V126.184C96.112 126.184 99.187 125.62 101.93 124.458L100.76 121.696ZM92.7318 123.184C89.6866 123.184 87.006 122.676 84.6648 121.694L83.5039 124.46C86.267 125.62 89.3513 126.184 92.7318 126.184V123.184ZM84.6753 121.698C82.3605 120.706 80.573 119.271 79.264 117.399L76.8051 119.117C78.4584 121.483 80.7041 123.26 83.4935 124.456L84.6753 121.698ZM79.2683 117.405C77.9927 115.56 77.3129 113.241 77.3129 110.362H74.3129C74.3129 113.727 75.1142 116.672 76.8008 119.111L79.2683 117.405ZM77.3129 110.362C77.3129 108.472 77.6914 106.815 78.4192 105.359L75.7359 104.018C74.7775 105.935 74.3129 108.059 74.3129 110.362H77.3129ZM78.4228 105.352C79.1678 103.842 80.2018 102.555 81.5373 101.483L79.6588 99.1439C77.9865 100.487 76.6735 102.117 75.7323 104.025L78.4228 105.352ZM81.5393 101.481C82.9055 100.38 84.5222 99.5303 86.4099 98.943L85.5187 96.0785C83.3047 96.7672 81.344 97.7857 79.6568 99.1456L81.5393 101.481ZM86.4243 98.9385C88.3097 98.331 90.3856 98.0195 92.6635 98.0195V95.0195C90.1106 95.0195 87.7204 95.3689 85.5042 96.083L86.4243 98.9385ZM92.6635 98.0195C95.7215 98.0195 98.402 98.5573 100.734 99.5982L101.957 96.8588C99.1841 95.6211 96.0769 95.0195 92.6635 95.0195V98.0195ZM100.734 99.5982C103.065 100.639 104.847 102.081 106.134 103.911L108.588 102.185C106.958 99.8678 104.73 98.0968 101.957 96.8588L100.734 99.5982ZM106.134 103.911C107.396 105.705 108.048 107.834 108.048 110.362H111.048C111.048 107.285 110.242 104.538 108.588 102.185L106.134 103.911ZM101.136 109.713C101.136 107.993 100.802 106.425 100.066 105.068L97.4285 106.497C97.878 107.327 98.1361 108.38 98.1361 109.713H101.136ZM100.084 105.101C99.386 103.733 98.3741 102.656 97.0588 101.913L95.5826 104.525C96.3636 104.966 96.9696 105.598 97.4113 106.464L100.084 105.101ZM97.0588 101.913C95.7527 101.175 94.2717 100.83 92.6635 100.83V103.83C93.8352 103.83 94.7923 104.078 95.5826 104.525L97.0588 101.913ZM92.6635 100.83C91.0552 100.83 89.5742 101.175 88.2682 101.913L89.7443 104.525C90.5346 104.078 91.4918 103.83 92.6635 103.83V100.83ZM88.2682 101.913C86.9581 102.653 85.9399 103.723 85.2203 105.079L87.8703 106.485C88.3357 105.608 88.958 104.969 89.7443 104.525L88.2682 101.913ZM85.2149 105.089C84.5104 106.442 84.1908 108.001 84.1908 109.713H87.1908C87.1908 108.371 87.4409 107.31 87.8757 106.475L85.2149 105.089ZM84.1908 109.713C84.1908 111.406 84.512 112.953 85.2149 114.302L87.8757 112.916C87.4393 112.079 87.1908 111.028 87.1908 109.713H84.1908ZM85.2264 114.324C85.9484 115.657 86.9662 116.709 88.2682 117.445L89.7443 114.833C88.9499 114.384 88.3272 113.75 87.8643 112.895L85.2264 114.324ZM88.3018 117.463C89.6229 118.166 91.114 118.493 92.7318 118.493V115.493C91.5241 115.493 90.5316 115.251 89.7107 114.814L88.3018 117.463ZM92.7318 118.493C94.3476 118.493 95.8279 118.166 97.1175 117.45L95.6606 114.827C94.8994 115.25 93.9416 115.493 92.7318 115.493V118.493ZM97.1272 117.445C98.4395 116.703 99.4451 115.637 100.123 114.28L97.44 112.939C97.0244 113.77 96.435 114.39 95.651 114.833L97.1272 117.445ZM100.112 114.302C100.815 112.953 101.136 111.406 101.136 109.713H98.1361C98.1361 111.028 97.8876 112.079 97.4513 112.916L100.112 114.302ZM106.989 87.4277C106.989 89.6746 106.397 91.6191 105.235 93.3126L107.709 95.0097C109.236 92.7839 109.989 90.2394 109.989 87.4277H106.989ZM105.24 93.3058C104.066 94.9966 102.42 96.3477 100.243 97.3428L101.49 100.071C104.099 98.8788 106.189 97.1993 107.704 95.0165L105.24 93.3058ZM100.238 97.3451C98.096 98.3337 95.6048 98.8477 92.7318 98.8477V101.848C95.9657 101.848 98.8976 101.268 101.495 100.069L100.238 97.3451ZM92.7318 98.8477C89.8347 98.8477 87.3188 98.3332 85.1524 97.3428L83.9051 100.071C86.5238 101.268 89.4766 101.848 92.7318 101.848V98.8477ZM85.1524 97.3428C82.9756 96.3477 81.3291 94.9966 80.1555 93.3058L77.691 95.0165C79.2062 97.1993 81.2967 98.8788 83.9051 100.071L85.1524 97.3428ZM80.1601 93.3126C78.9984 91.6191 78.4066 89.6746 78.4066 87.4277H75.4066C75.4066 90.2394 76.1593 92.7839 77.6863 95.0097L80.1601 93.3126ZM78.4066 87.4277C78.4066 84.6455 79.0265 82.4183 80.1777 80.6622L77.6688 79.0175C76.1312 81.3629 75.4066 84.1943 75.4066 87.4277H78.4066ZM80.1755 80.6655C81.3791 78.8402 83.0223 77.4499 85.1464 76.4899L83.911 73.7562C81.2955 74.9381 79.2018 76.6924 77.671 79.0142L80.1755 80.6655ZM85.1415 76.4921C87.3135 75.5199 89.8113 75.0166 92.6635 75.0166V72.0166C89.4544 72.0166 86.5291 72.5842 83.9159 73.7539L85.1415 76.4921ZM92.6635 75.0166C95.5651 75.0166 98.0713 75.5213 100.215 76.4899L101.45 73.7562C98.854 72.5829 95.9142 72.0166 92.6635 72.0166V75.0166ZM100.22 76.4921C102.365 77.4524 104.002 78.8401 105.179 80.6559L107.697 79.0238C106.185 76.6925 104.085 74.9356 101.445 73.7539L100.22 76.4921ZM105.19 80.6719C106.36 82.4266 106.989 84.6502 106.989 87.4277H109.989C109.989 84.1897 109.251 81.3546 107.686 79.0078L105.19 80.6719ZM100.145 87.8721C100.145 86.3516 99.8742 84.9544 99.275 83.7275L96.5793 85.044C96.9371 85.7767 97.1449 86.7037 97.1449 87.8721H100.145ZM99.2809 83.7396C98.6863 82.494 97.8134 81.4923 96.6625 80.784L95.0902 83.339C95.7167 83.7245 96.2109 84.2723 96.5734 85.0318L99.2809 83.7396ZM96.6774 80.7933C95.519 80.0617 94.1535 79.7412 92.6635 79.7412V82.7412C93.7255 82.7412 94.5019 82.9676 95.0754 83.3298L96.6774 80.7933ZM92.6635 79.7412C91.2169 79.7412 89.8832 80.0509 88.7228 80.7353L90.2467 83.3194C90.8636 82.9556 91.6491 82.7412 92.6635 82.7412V79.7412ZM88.7081 80.7441C87.5675 81.4344 86.7062 82.4314 86.1144 83.6713L88.8219 84.9635C89.1871 84.1982 89.6702 83.6684 90.2615 83.3106L88.7081 80.7441ZM86.1081 83.6848C85.5378 84.911 85.2846 86.3238 85.2846 87.8721H88.2846C88.2846 86.6404 88.4871 85.6834 88.8282 84.95L86.1081 83.6848ZM85.2846 87.8721C85.2846 89.3855 85.5413 90.7847 86.0974 92.036L88.8389 90.8176C88.4836 90.0181 88.2846 89.0475 88.2846 87.8721H85.2846ZM86.1144 92.0729C86.7068 93.3139 87.5729 94.3194 88.7094 95.048L90.3284 92.5223C89.6877 92.1116 89.1866 91.5448 88.8219 90.7807L86.1144 92.0729ZM88.7094 95.048C89.8818 95.7995 91.2461 96.1396 92.7318 96.1396V93.1396C91.711 93.1396 90.9334 92.9101 90.3284 92.5223L88.7094 95.048ZM92.7318 96.1396C94.2161 96.1396 95.5772 95.8 96.735 95.0383L95.0861 92.532C94.5121 92.9097 93.754 93.1396 92.7318 93.1396V96.1396ZM96.72 95.048C97.8629 94.3154 98.7228 93.3012 99.2927 92.0475L96.5616 90.8061C96.22 91.5575 95.7355 92.1156 95.101 92.5223L96.72 95.048ZM99.2864 92.0611C99.8734 90.8032 100.145 89.3949 100.145 87.8721H97.1449C97.1449 89.038 96.9379 89.9995 96.5679 90.7924L99.2864 92.0611Z" fill="#FFF6F6" mask="url(#path-3-outside-1_155_246)"/>
<mask id="path-5-outside-2_155_246" maskUnits="userSpaceOnUse" x="111" y="72" width="26" height="26" fill="black">
<rect fill="white" x="111" y="72" width="26" height="26"/>
<path d="M112.982 93.9639C112.982 93.3389 113.197 92.8164 113.626 92.3965C114.066 91.9766 114.647 91.7666 115.37 91.7666C116.092 91.7666 116.668 91.9766 117.098 92.3965C117.538 92.8164 117.757 93.3389 117.757 93.9639C117.757 94.5889 117.538 95.1113 117.098 95.5312C116.668 95.9512 116.092 96.1611 115.37 96.1611C114.647 96.1611 114.066 95.9512 113.626 95.5312C113.197 95.1113 112.982 94.5889 112.982 93.9639ZM134.692 92.7041V96H120.102V93.1875L127.002 85.79C127.695 85.0186 128.242 84.3398 128.642 83.7539C129.043 83.1582 129.331 82.626 129.506 82.1572C129.692 81.6787 129.785 81.2246 129.785 80.7949C129.785 80.1504 129.677 79.5986 129.463 79.1396C129.248 78.6709 128.93 78.3096 128.51 78.0557C128.1 77.8018 127.592 77.6748 126.987 77.6748C126.342 77.6748 125.786 77.8311 125.317 78.1436C124.858 78.4561 124.506 78.8906 124.262 79.4473C124.028 80.0039 123.911 80.6338 123.911 81.3369H119.677C119.677 80.0674 119.98 78.9053 120.586 77.8506C121.191 76.7861 122.046 75.9414 123.149 75.3164C124.253 74.6816 125.561 74.3643 127.075 74.3643C128.569 74.3643 129.829 74.6084 130.854 75.0967C131.889 75.5752 132.671 76.2686 133.198 77.1768C133.735 78.0752 134.004 79.1494 134.004 80.3994C134.004 81.1025 133.891 81.791 133.667 82.4648C133.442 83.1289 133.12 83.793 132.7 84.457C132.29 85.1113 131.792 85.7754 131.206 86.4492C130.62 87.123 129.97 87.8213 129.257 88.5439L125.551 92.7041H134.692Z"/>
</mask>
<path d="M112.982 93.9639C112.982 93.3389 113.197 92.8164 113.626 92.3965C114.066 91.9766 114.647 91.7666 115.37 91.7666C116.092 91.7666 116.668 91.9766 117.098 92.3965C117.538 92.8164 117.757 93.3389 117.757 93.9639C117.757 94.5889 117.538 95.1113 117.098 95.5312C116.668 95.9512 116.092 96.1611 115.37 96.1611C114.647 96.1611 114.066 95.9512 113.626 95.5312C113.197 95.1113 112.982 94.5889 112.982 93.9639ZM134.692 92.7041V96H120.102V93.1875L127.002 85.79C127.695 85.0186 128.242 84.3398 128.642 83.7539C129.043 83.1582 129.331 82.626 129.506 82.1572C129.692 81.6787 129.785 81.2246 129.785 80.7949C129.785 80.1504 129.677 79.5986 129.463 79.1396C129.248 78.6709 128.93 78.3096 128.51 78.0557C128.1 77.8018 127.592 77.6748 126.987 77.6748C126.342 77.6748 125.786 77.8311 125.317 78.1436C124.858 78.4561 124.506 78.8906 124.262 79.4473C124.028 80.0039 123.911 80.6338 123.911 81.3369H119.677C119.677 80.0674 119.98 78.9053 120.586 77.8506C121.191 76.7861 122.046 75.9414 123.149 75.3164C124.253 74.6816 125.561 74.3643 127.075 74.3643C128.569 74.3643 129.829 74.6084 130.854 75.0967C131.889 75.5752 132.671 76.2686 133.198 77.1768C133.735 78.0752 134.004 79.1494 134.004 80.3994C134.004 81.1025 133.891 81.791 133.667 82.4648C133.442 83.1289 133.12 83.793 132.7 84.457C132.29 85.1113 131.792 85.7754 131.206 86.4492C130.62 87.123 129.97 87.8213 129.257 88.5439L125.551 92.7041H134.692Z" fill="#D95B5D"/>
<path d="M113.626 92.3965L112.59 91.312C112.586 91.3159 112.582 91.3198 112.578 91.3237L113.626 92.3965ZM117.098 92.3965L116.05 93.4693C116.054 93.4732 116.058 93.4771 116.062 93.481L117.098 92.3965ZM117.098 95.5312L116.062 94.4468C116.058 94.4506 116.054 94.4545 116.05 94.4585L117.098 95.5312ZM113.626 95.5312L112.578 96.604C112.582 96.608 112.586 96.6119 112.59 96.6157L113.626 95.5312ZM114.482 93.9639C114.482 93.7245 114.547 93.5945 114.675 93.4693L112.578 91.3237C111.847 92.0383 111.482 92.9533 111.482 93.9639H114.482ZM114.663 93.481C114.771 93.377 114.955 93.2666 115.37 93.2666V90.2666C114.339 90.2666 113.36 90.5761 112.59 91.312L114.663 93.481ZM115.37 93.2666C115.785 93.2666 115.955 93.3772 116.05 93.4693L118.146 91.3237C117.381 90.5759 116.399 90.2666 115.37 90.2666V93.2666ZM116.062 93.481C116.196 93.609 116.257 93.7355 116.257 93.9639H119.257C119.257 92.9423 118.879 92.0238 118.134 91.312L116.062 93.481ZM116.257 93.9639C116.257 94.1923 116.196 94.3187 116.062 94.4468L118.134 96.6157C118.879 95.9039 119.257 94.9855 119.257 93.9639H116.257ZM116.05 94.4585C115.955 94.5505 115.785 94.6611 115.37 94.6611V97.6611C116.399 97.6611 117.381 97.3518 118.146 96.604L116.05 94.4585ZM115.37 94.6611C114.955 94.6611 114.771 94.5507 114.663 94.4468L112.59 96.6157C113.36 97.3516 114.339 97.6611 115.37 97.6611V94.6611ZM114.675 94.4585C114.547 94.3333 114.482 94.2033 114.482 93.9639H111.482C111.482 94.9745 111.847 95.8894 112.578 96.604L114.675 94.4585ZM134.692 92.7041H136.192C136.192 91.8757 135.52 91.2041 134.692 91.2041V92.7041ZM134.692 96V97.5C135.52 97.5 136.192 96.8284 136.192 96H134.692ZM120.102 96H118.602C118.602 96.8284 119.274 97.5 120.102 97.5V96ZM120.102 93.1875L119.005 92.1644C118.746 92.4421 118.602 92.8077 118.602 93.1875H120.102ZM127.002 85.79L128.099 86.8131C128.105 86.8064 128.111 86.7996 128.117 86.7927L127.002 85.79ZM128.642 83.7539L129.881 84.6002L129.887 84.5907L128.642 83.7539ZM129.506 82.1572L128.108 81.6149C128.106 81.6201 128.104 81.6253 128.102 81.6305L129.506 82.1572ZM129.463 79.1396L128.099 79.7647L128.104 79.7756L129.463 79.1396ZM128.51 78.0557L127.721 79.3311C127.725 79.3338 127.73 79.3366 127.734 79.3393L128.51 78.0557ZM125.317 78.1436L124.485 76.8955C124.481 76.8982 124.477 76.9009 124.473 76.9037L125.317 78.1436ZM124.262 79.4473L122.889 78.8448C122.886 78.8516 122.883 78.8584 122.88 78.8652L124.262 79.4473ZM123.911 81.3369V82.8369C124.739 82.8369 125.411 82.1653 125.411 81.3369H123.911ZM119.677 81.3369H118.177C118.177 82.1653 118.849 82.8369 119.677 82.8369V81.3369ZM120.586 77.8506L121.886 78.5974L121.889 78.5922L120.586 77.8506ZM123.149 75.3164L123.888 76.6216L123.897 76.6166L123.149 75.3164ZM130.854 75.0967L130.209 76.451C130.214 76.4534 130.22 76.4558 130.225 76.4582L130.854 75.0967ZM133.198 77.1768L131.901 77.93C131.904 77.9355 131.907 77.941 131.91 77.9464L133.198 77.1768ZM133.667 82.4648L135.088 82.9455L135.09 82.9392L133.667 82.4648ZM132.7 84.457L131.432 83.6553L131.429 83.6603L132.7 84.457ZM129.257 88.5439L128.19 87.4905C128.172 87.5086 128.154 87.5272 128.137 87.5462L129.257 88.5439ZM125.551 92.7041L124.431 91.7063C124.038 92.1476 123.941 92.7786 124.183 93.3178C124.424 93.8571 124.96 94.2041 125.551 94.2041V92.7041ZM133.192 92.7041V96H136.192V92.7041H133.192ZM134.692 94.5H120.102V97.5H134.692V94.5ZM121.602 96V93.1875H118.602V96H121.602ZM121.199 94.2106L128.099 86.8131L125.905 84.7669L119.005 92.1644L121.199 94.2106ZM128.117 86.7927C128.837 85.9922 129.43 85.2596 129.881 84.6002L127.404 82.9076C127.054 83.4201 126.553 84.0449 125.886 84.7874L128.117 86.7927ZM129.887 84.5907C130.327 83.9361 130.681 83.2977 130.911 82.6839L128.102 81.6305C127.981 81.9543 127.758 82.3803 127.397 82.9172L129.887 84.5907ZM130.905 82.6995C131.145 82.0809 131.285 81.4423 131.285 80.7949H128.285C128.285 81.0069 128.239 81.2765 128.108 81.6149L130.905 82.6995ZM131.285 80.7949C131.285 79.9884 131.151 79.2082 130.821 78.5037L128.104 79.7756C128.204 79.9891 128.285 80.3124 128.285 80.7949H131.285ZM130.826 78.5147C130.493 77.7871 129.977 77.1898 129.286 76.7721L127.734 79.3393C127.883 79.4294 128.003 79.5547 128.099 79.7646L130.826 78.5147ZM129.3 76.7803C128.599 76.3463 127.801 76.1748 126.987 76.1748V79.1748C127.384 79.1748 127.601 79.2572 127.721 79.3311L129.3 76.7803ZM126.987 76.1748C126.09 76.1748 125.234 76.3959 124.485 76.8955L126.149 79.3916C126.337 79.2662 126.595 79.1748 126.987 79.1748V76.1748ZM124.473 76.9037C123.759 77.3896 123.235 78.0555 122.889 78.8448L125.636 80.0498C125.778 79.7258 125.957 79.5226 126.161 79.3835L124.473 76.9037ZM122.88 78.8652C122.556 79.6338 122.411 80.4663 122.411 81.3369H125.411C125.411 80.8013 125.5 80.374 125.645 80.0294L122.88 78.8652ZM123.911 79.8369H119.677V82.8369H123.911V79.8369ZM121.177 81.3369C121.177 80.3175 121.417 79.4146 121.886 78.5974L119.285 77.1038C118.543 78.3959 118.177 79.8173 118.177 81.3369H121.177ZM121.889 78.5922C122.356 77.7718 123.012 77.1181 123.888 76.6216L122.41 74.0112C121.079 74.7647 120.026 75.8005 119.282 77.109L121.889 78.5922ZM123.897 76.6166C124.733 76.1355 125.774 75.8643 127.075 75.8643V72.8643C125.348 72.8643 123.772 73.2278 122.401 74.0162L123.897 76.6166ZM127.075 75.8643C128.413 75.8643 129.438 76.0839 130.209 76.451L131.499 73.7424C130.219 73.1329 128.725 72.8643 127.075 72.8643V75.8643ZM130.225 76.4582C131.005 76.8191 131.542 77.3114 131.901 77.93L134.495 76.4236C133.799 75.2257 132.773 74.3313 131.484 73.7351L130.225 76.4582ZM131.91 77.9464C132.284 78.5707 132.504 79.3675 132.504 80.3994H135.504C135.504 78.9313 135.186 77.5797 134.485 76.4071L131.91 77.9464ZM132.504 80.3994C132.504 80.9397 132.418 81.468 132.244 81.9905L135.09 82.9392C135.365 82.114 135.504 81.2654 135.504 80.3994H132.504ZM132.246 81.9842C132.063 82.523 131.796 83.0799 131.432 83.6553L133.968 85.2587C134.444 84.506 134.821 83.7348 135.088 82.9454L132.246 81.9842ZM131.429 83.6603C131.066 84.2393 130.616 84.8411 130.074 85.465L132.338 87.4335C132.967 86.7097 133.513 85.9833 133.971 85.2537L131.429 83.6603ZM130.074 85.465C129.511 86.1121 128.883 86.7873 128.19 87.4905L130.325 89.5974C131.057 88.8553 131.728 88.134 132.338 87.4335L130.074 85.465ZM128.137 87.5462L124.431 91.7063L126.671 93.7019L130.377 89.5417L128.137 87.5462ZM125.551 94.2041H134.692V91.2041H125.551V94.2041Z" fill="#FFF6F6" mask="url(#path-5-outside-2_155_246)"/>
<mask id="path-7-outside-3_155_246" maskUnits="userSpaceOnUse" x="113" y="98" width="26" height="29" fill="black">
<rect fill="white" x="113" y="98" width="26" height="29"/>
<path d="M114.704 106.218V104.902C114.704 103.957 114.909 103.097 115.319 102.322C115.729 101.547 116.333 100.926 117.13 100.459C117.928 99.9919 118.908 99.7583 120.07 99.7583C121.266 99.7583 122.263 99.9919 123.061 100.459C123.869 100.926 124.473 101.547 124.872 102.322C125.282 103.097 125.487 103.957 125.487 104.902V106.218C125.487 107.141 125.282 107.99 124.872 108.765C124.473 109.539 123.875 110.16 123.078 110.627C122.28 111.095 121.295 111.328 120.121 111.328C118.936 111.328 117.939 111.095 117.13 110.627C116.333 110.16 115.729 109.539 115.319 108.765C114.909 107.99 114.704 107.141 114.704 106.218ZM117.968 104.902V106.218C117.968 106.617 118.042 106.999 118.19 107.363C118.349 107.716 118.589 108.007 118.908 108.235C119.238 108.451 119.637 108.56 120.104 108.56C120.594 108.56 120.993 108.451 121.3 108.235C121.608 108.007 121.836 107.716 121.984 107.363C122.132 106.999 122.206 106.617 122.206 106.218V104.902C122.206 104.481 122.126 104.093 121.967 103.74C121.819 103.376 121.585 103.085 121.266 102.869C120.958 102.641 120.56 102.527 120.07 102.527C119.614 102.527 119.227 102.641 118.908 102.869C118.589 103.085 118.349 103.376 118.19 103.74C118.042 104.093 117.968 104.481 117.968 104.902ZM126.598 120.215V118.899C126.598 117.965 126.803 117.11 127.213 116.335C127.635 115.561 128.244 114.94 129.042 114.473C129.851 114.006 130.842 113.772 132.016 113.772C133.201 113.772 134.192 114.006 134.989 114.473C135.787 114.94 136.391 115.561 136.801 116.335C137.211 117.11 137.416 117.965 137.416 118.899V120.215C137.416 121.149 137.211 122.004 136.801 122.778C136.402 123.553 135.804 124.174 135.006 124.641C134.209 125.108 133.223 125.342 132.05 125.342C130.865 125.342 129.868 125.108 129.059 124.641C128.25 124.174 127.635 123.553 127.213 122.778C126.803 122.004 126.598 121.149 126.598 120.215ZM129.879 118.899V120.215C129.879 120.625 129.971 121.012 130.153 121.377C130.335 121.742 130.586 122.032 130.905 122.249C131.235 122.465 131.617 122.573 132.05 122.573C132.597 122.573 133.024 122.465 133.332 122.249C133.639 122.032 133.85 121.742 133.964 121.377C134.089 121.012 134.152 120.625 134.152 120.215V118.899C134.152 118.489 134.072 118.107 133.913 117.754C133.753 117.389 133.514 117.099 133.195 116.882C132.887 116.654 132.494 116.541 132.016 116.541C131.537 116.541 131.138 116.654 130.819 116.882C130.512 117.099 130.278 117.389 130.119 117.754C129.959 118.107 129.879 118.489 129.879 118.899ZM133.229 103.672L121.078 123.12L118.686 121.855L130.836 102.407L133.229 103.672Z"/>
</mask>
<path d="M114.704 106.218V104.902C114.704 103.957 114.909 103.097 115.319 102.322C115.729 101.547 116.333 100.926 117.13 100.459C117.928 99.9919 118.908 99.7583 120.07 99.7583C121.266 99.7583 122.263 99.9919 123.061 100.459C123.869 100.926 124.473 101.547 124.872 102.322C125.282 103.097 125.487 103.957 125.487 104.902V106.218C125.487 107.141 125.282 107.99 124.872 108.765C124.473 109.539 123.875 110.16 123.078 110.627C122.28 111.095 121.295 111.328 120.121 111.328C118.936 111.328 117.939 111.095 117.13 110.627C116.333 110.16 115.729 109.539 115.319 108.765C114.909 107.99 114.704 107.141 114.704 106.218ZM117.968 104.902V106.218C117.968 106.617 118.042 106.999 118.19 107.363C118.349 107.716 118.589 108.007 118.908 108.235C119.238 108.451 119.637 108.56 120.104 108.56C120.594 108.56 120.993 108.451 121.3 108.235C121.608 108.007 121.836 107.716 121.984 107.363C122.132 106.999 122.206 106.617 122.206 106.218V104.902C122.206 104.481 122.126 104.093 121.967 103.74C121.819 103.376 121.585 103.085 121.266 102.869C120.958 102.641 120.56 102.527 120.07 102.527C119.614 102.527 119.227 102.641 118.908 102.869C118.589 103.085 118.349 103.376 118.19 103.74C118.042 104.093 117.968 104.481 117.968 104.902ZM126.598 120.215V118.899C126.598 117.965 126.803 117.11 127.213 116.335C127.635 115.561 128.244 114.94 129.042 114.473C129.851 114.006 130.842 113.772 132.016 113.772C133.201 113.772 134.192 114.006 134.989 114.473C135.787 114.94 136.391 115.561 136.801 116.335C137.211 117.11 137.416 117.965 137.416 118.899V120.215C137.416 121.149 137.211 122.004 136.801 122.778C136.402 123.553 135.804 124.174 135.006 124.641C134.209 125.108 133.223 125.342 132.05 125.342C130.865 125.342 129.868 125.108 129.059 124.641C128.25 124.174 127.635 123.553 127.213 122.778C126.803 122.004 126.598 121.149 126.598 120.215ZM129.879 118.899V120.215C129.879 120.625 129.971 121.012 130.153 121.377C130.335 121.742 130.586 122.032 130.905 122.249C131.235 122.465 131.617 122.573 132.05 122.573C132.597 122.573 133.024 122.465 133.332 122.249C133.639 122.032 133.85 121.742 133.964 121.377C134.089 121.012 134.152 120.625 134.152 120.215V118.899C134.152 118.489 134.072 118.107 133.913 117.754C133.753 117.389 133.514 117.099 133.195 116.882C132.887 116.654 132.494 116.541 132.016 116.541C131.537 116.541 131.138 116.654 130.819 116.882C130.512 117.099 130.278 117.389 130.119 117.754C129.959 118.107 129.879 118.489 129.879 118.899ZM133.229 103.672L121.078 123.12L118.686 121.855L130.836 102.407L133.229 103.672Z" fill="#D95B5D"/>
<path d="M123.061 100.459L122.302 101.753L122.31 101.758L123.061 100.459ZM124.872 102.322L123.538 103.008C123.541 103.013 123.544 103.019 123.546 103.024L124.872 102.322ZM124.872 108.765L123.546 108.063C123.544 108.068 123.541 108.073 123.538 108.078L124.872 108.765ZM117.13 110.627L116.372 111.922L116.38 111.926L117.13 110.627ZM115.319 108.765L113.993 109.466L115.319 108.765ZM118.19 107.363L116.8 107.928C116.807 107.946 116.815 107.963 116.823 107.981L118.19 107.363ZM118.908 108.235L118.036 109.455C118.052 109.467 118.069 109.479 118.086 109.49L118.908 108.235ZM121.3 108.235L122.164 109.462C122.173 109.455 122.183 109.447 122.193 109.44L121.3 108.235ZM121.984 107.363L123.367 107.943C123.369 107.938 123.371 107.933 123.374 107.928L121.984 107.363ZM121.967 103.74L120.577 104.305C120.584 104.323 120.592 104.34 120.6 104.358L121.967 103.74ZM121.266 102.869L120.373 104.074C120.39 104.086 120.407 104.098 120.424 104.11L121.266 102.869ZM118.908 102.869L119.75 104.11C119.76 104.103 119.77 104.096 119.78 104.089L118.908 102.869ZM118.19 103.74L116.816 103.139C116.813 103.146 116.81 103.153 116.807 103.16L118.19 103.74ZM127.213 116.335L125.896 115.619C125.893 115.624 125.89 115.629 125.888 115.634L127.213 116.335ZM129.042 114.473L128.292 113.174L128.284 113.178L129.042 114.473ZM136.801 116.335L135.475 117.037L136.801 116.335ZM136.801 122.778L135.475 122.076C135.472 122.082 135.47 122.087 135.467 122.092L136.801 122.778ZM129.059 124.641L128.309 125.94L129.059 124.641ZM127.213 122.778L125.888 123.48C125.89 123.485 125.893 123.49 125.896 123.495L127.213 122.778ZM130.905 122.249L130.063 123.49C130.069 123.494 130.076 123.499 130.083 123.503L130.905 122.249ZM133.964 121.377L132.545 120.889C132.541 120.903 132.536 120.916 132.532 120.93L133.964 121.377ZM133.913 117.754L132.538 118.355C132.541 118.361 132.543 118.366 132.546 118.371L133.913 117.754ZM133.195 116.882L132.302 118.088C132.319 118.1 132.335 118.112 132.353 118.124L133.195 116.882ZM130.819 116.882L131.683 118.109L131.691 118.103L130.819 116.882ZM130.119 117.754L131.486 118.371C131.488 118.366 131.491 118.361 131.493 118.355L130.119 117.754ZM133.229 103.672L134.501 104.467C134.722 104.113 134.786 103.684 134.677 103.282C134.569 102.88 134.298 102.54 133.93 102.346L133.229 103.672ZM121.078 123.12L120.377 124.446C121.072 124.814 121.934 124.582 122.35 123.915L121.078 123.12ZM118.686 121.855L117.413 121.061C117.193 121.414 117.129 121.843 117.237 122.246C117.345 122.648 117.616 122.987 117.985 123.182L118.686 121.855ZM130.836 102.407L131.537 101.081C130.842 100.714 129.981 100.945 129.564 101.612L130.836 102.407ZM116.204 106.218V104.902H113.204V106.218H116.204ZM116.204 104.902C116.204 104.182 116.358 103.565 116.645 103.024L113.993 101.62C113.46 102.628 113.204 103.732 113.204 104.902H116.204ZM116.645 103.024C116.917 102.509 117.318 102.088 117.888 101.753L116.372 99.1647C115.348 99.7647 114.541 100.585 113.993 101.62L116.645 103.024ZM117.888 101.753C118.404 101.451 119.106 101.258 120.07 101.258V98.2583C118.709 98.2583 117.452 98.5323 116.372 99.1647L117.888 101.753ZM120.07 101.258C121.076 101.258 121.793 101.455 122.302 101.753L123.819 99.1647C122.733 98.5288 121.456 98.2583 120.07 98.2583V101.258ZM122.31 101.758C122.889 102.092 123.281 102.508 123.538 103.008L126.206 101.635C125.666 100.586 124.85 99.7602 123.811 99.16L122.31 101.758ZM123.546 103.024C123.833 103.565 123.987 104.182 123.987 104.902H126.987C126.987 103.732 126.731 102.628 126.198 101.62L123.546 103.024ZM123.987 104.902V106.218H126.987V104.902H123.987ZM123.987 106.218C123.987 106.91 123.836 107.516 123.546 108.063L126.198 109.466C126.728 108.464 126.987 107.372 126.987 106.218H123.987ZM123.538 108.078C123.278 108.584 122.887 109.001 122.32 109.333L123.836 111.922C124.863 111.32 125.669 110.495 126.206 109.451L123.538 108.078ZM122.32 109.333C121.806 109.634 121.099 109.828 120.121 109.828V112.828C121.49 112.828 122.754 112.555 123.836 111.922L122.32 109.333ZM120.121 109.828C119.13 109.828 118.408 109.633 117.88 109.328L116.38 111.926C117.471 112.556 118.742 112.828 120.121 112.828V109.828ZM117.888 109.333C117.318 108.999 116.917 108.578 116.645 108.063L113.993 109.466C114.541 110.501 115.348 111.322 116.372 111.922L117.888 109.333ZM116.645 108.063C116.355 107.516 116.204 106.91 116.204 106.218H113.204C113.204 107.372 113.462 108.464 113.993 109.466L116.645 108.063ZM116.468 104.902V106.218H119.468V104.902H116.468ZM116.468 106.218C116.468 106.808 116.578 107.382 116.8 107.928L119.58 106.799C119.505 106.616 119.468 106.426 119.468 106.218H116.468ZM116.823 107.981C117.093 108.578 117.504 109.076 118.036 109.455L119.78 107.014C119.673 106.938 119.606 106.855 119.557 106.746L116.823 107.981ZM118.086 109.49C118.702 109.893 119.399 110.06 120.104 110.06V107.06C119.875 107.06 119.774 107.009 119.73 106.98L118.086 109.49ZM120.104 110.06C120.81 110.06 121.537 109.903 122.164 109.462L120.437 107.008C120.437 107.008 120.436 107.009 120.435 107.01C120.433 107.011 120.43 107.012 120.426 107.014C120.418 107.018 120.402 107.024 120.378 107.031C120.327 107.044 120.24 107.06 120.104 107.06V110.06ZM122.193 109.44C122.718 109.052 123.115 108.545 123.367 107.943L120.601 106.783C120.557 106.888 120.498 106.962 120.407 107.03L122.193 109.44ZM123.374 107.928C123.596 107.382 123.706 106.808 123.706 106.218H120.706C120.706 106.426 120.668 106.616 120.594 106.799L123.374 107.928ZM123.706 106.218V104.902H120.706V106.218H123.706ZM123.706 104.902C123.706 104.287 123.588 103.687 123.334 103.123L120.6 104.358C120.664 104.5 120.706 104.675 120.706 104.902H123.706ZM123.356 103.176C123.099 102.542 122.678 102.014 122.108 101.627L120.424 104.11C120.492 104.156 120.538 104.209 120.577 104.305L123.356 103.176ZM122.159 101.663C121.529 101.196 120.791 101.027 120.07 101.027V104.027C120.2 104.027 120.281 104.042 120.324 104.055C120.346 104.061 120.359 104.066 120.365 104.069C120.368 104.071 120.37 104.072 120.371 104.073C120.373 104.074 120.373 104.074 120.373 104.074L122.159 101.663ZM120.07 101.027C119.354 101.027 118.649 101.21 118.036 101.648L119.78 104.089C119.805 104.071 119.874 104.027 120.07 104.027V101.027ZM118.065 101.627C117.504 102.008 117.085 102.524 116.816 103.139L119.564 104.341C119.614 104.227 119.673 104.162 119.75 104.11L118.065 101.627ZM116.807 103.16C116.574 103.715 116.468 104.302 116.468 104.902H119.468C119.468 104.66 119.51 104.472 119.573 104.32L116.807 103.16ZM128.098 120.215V118.899H125.098V120.215H128.098ZM128.098 118.899C128.098 118.193 128.251 117.582 128.539 117.037L125.888 115.634C125.356 116.639 125.098 117.737 125.098 118.899H128.098ZM128.531 117.052C128.816 116.529 129.226 116.103 129.8 115.767L128.284 113.178C127.263 113.777 126.454 114.592 125.896 115.619L128.531 117.052ZM129.792 115.772C130.322 115.466 131.039 115.272 132.016 115.272V112.272C130.645 112.272 129.38 112.545 128.292 113.174L129.792 115.772ZM132.016 115.272C133.008 115.272 133.72 115.467 134.231 115.767L135.747 113.178C134.664 112.544 133.393 112.272 132.016 112.272V115.272ZM134.231 115.767C134.802 116.101 135.203 116.523 135.475 117.037L138.126 115.634C137.579 114.599 136.772 113.778 135.747 113.178L134.231 115.767ZM135.475 117.037C135.763 117.582 135.916 118.193 135.916 118.899H138.916C138.916 117.737 138.659 116.639 138.126 115.634L135.475 117.037ZM135.916 118.899V120.215H138.916V118.899H135.916ZM135.916 120.215C135.916 120.921 135.763 121.532 135.475 122.076L138.126 123.48C138.659 122.475 138.916 121.377 138.916 120.215H135.916ZM135.467 122.092C135.207 122.598 134.816 123.014 134.248 123.347L135.764 125.935C136.792 125.334 137.597 124.508 138.134 123.465L135.467 122.092ZM134.248 123.347C133.735 123.647 133.028 123.842 132.05 123.842V126.842C133.419 126.842 134.683 126.569 135.764 125.935L134.248 123.347ZM132.05 123.842C131.059 123.842 130.337 123.647 129.809 123.342L128.309 125.94C129.399 126.57 130.671 126.842 132.05 126.842V123.842ZM129.809 123.342C129.225 123.005 128.813 122.579 128.531 122.061L125.896 123.495C126.457 124.527 127.276 125.343 128.309 125.94L129.809 123.342ZM128.539 122.076C128.251 121.532 128.098 120.921 128.098 120.215H125.098C125.098 121.377 125.356 122.475 125.888 123.48L128.539 122.076ZM128.379 118.899V120.215H131.379V118.899H128.379ZM128.379 120.215C128.379 120.856 128.524 121.474 128.811 122.048L131.494 120.706C131.417 120.551 131.379 120.394 131.379 120.215H128.379ZM128.811 122.048C129.102 122.628 129.519 123.121 130.063 123.49L131.747 121.007C131.653 120.943 131.569 120.855 131.494 120.706L128.811 122.048ZM130.083 123.503C130.681 123.895 131.354 124.073 132.05 124.073V121.073C131.88 121.073 131.79 121.035 131.727 120.994L130.083 123.503ZM132.05 124.073C132.772 124.073 133.543 123.934 134.195 123.475L132.468 121.022C132.504 120.996 132.422 121.073 132.05 121.073V124.073ZM134.195 123.475C134.777 123.066 135.185 122.499 135.396 121.824L132.532 120.93C132.521 120.967 132.51 120.982 132.506 120.987C132.503 120.993 132.493 121.004 132.468 121.022L134.195 123.475ZM135.382 121.865C135.565 121.333 135.652 120.78 135.652 120.215H132.652C132.652 120.47 132.613 120.691 132.545 120.889L135.382 121.865ZM135.652 120.215V118.899H132.652V120.215H135.652ZM135.652 118.899C135.652 118.289 135.532 117.695 135.28 117.137L132.546 118.371C132.612 118.519 132.652 118.689 132.652 118.899H135.652ZM135.287 117.153C135.018 116.538 134.598 116.022 134.037 115.641L132.353 118.124C132.43 118.176 132.488 118.241 132.538 118.355L135.287 117.153ZM134.088 115.677C133.463 115.214 132.734 115.041 132.016 115.041V118.041C132.137 118.041 132.212 118.055 132.252 118.067C132.289 118.077 132.301 118.087 132.302 118.088L134.088 115.677ZM132.016 115.041C131.295 115.041 130.573 115.215 129.947 115.662L131.691 118.103C131.704 118.094 131.78 118.041 132.016 118.041V115.041ZM129.956 115.656C129.411 116.039 129.007 116.552 128.744 117.153L131.493 118.355C131.549 118.227 131.612 118.158 131.683 118.109L129.956 115.656ZM128.752 117.137C128.499 117.695 128.379 118.289 128.379 118.899H131.379C131.379 118.689 131.419 118.519 131.486 118.371L128.752 117.137ZM131.957 102.877L119.806 122.325L122.35 123.915L134.501 104.467L131.957 102.877ZM121.779 121.794L119.387 120.529L117.985 123.182L120.377 124.446L121.779 121.794ZM119.958 122.65L132.109 103.202L129.564 101.612L117.413 121.061L119.958 122.65ZM130.135 103.733L132.528 104.998L133.93 102.346L131.537 101.081L130.135 103.733Z" fill="#FFF6F6" mask="url(#path-7-outside-3_155_246)"/>
<rect x="37" y="33" width="98" height="32" rx="8" fill="white"/>
<path d="M58.84 41.41H60.6C60.6 41.09 60.59 40.69 60.58 40.4C60.57 40.27 60.56 40.14 60.53 39.94C59.87 40.06 58.93 40.21 58.16 40.26C58.01 40.28 57.95 40.15 57.91 40.04C57.81 39.84 57.67 39.63 57.4 39.35C58.65 39.29 59.43 39.16 60.37 38.98C61.06 38.83 61.56 38.72 62.02 38.55C62.49 38.37 62.66 38.27 62.88 38.1C63.22 38.35 63.54 38.6 63.7 38.8C63.78 38.88 63.83 38.97 63.83 39.08C63.83 39.19 63.73 39.21 63.57 39.22C63.36 39.25 63.15 39.34 62.94 39.39C62.33 39.56 61.72 39.71 61.13 39.83C61.39 39.86 61.62 39.9 61.78 39.96C61.86 39.98 61.91 40.03 61.91 40.1C61.91 40.15 61.88 40.2 61.85 40.27C61.81 40.36 61.79 40.46 61.78 40.61C61.77 40.83 61.77 41.06 61.77 41.4H63.01C63.64 41.4 64.49 41.35 64.94 41.33C65.04 41.33 65.04 41.38 65.05 41.49C65.07 41.75 65.06 42.06 65.05 42.29C65.04 42.43 65.04 42.47 64.92 42.47C64.29 42.45 63.71 42.44 62.98 42.44H61.75C61.67 43.29 61.53 43.89 61.25 44.45C60.9 45.19 60.31 45.89 59.66 46.32C59.6 46.36 59.55 46.39 59.49 46.39C59.44 46.39 59.38 46.37 59.31 46.33C58.95 46.14 58.58 46.02 58.25 45.95C59.25 45.36 59.71 44.85 60.12 44.1C60.38 43.59 60.52 43.06 60.56 42.44H58.78C58.42 42.44 57.68 42.44 57.19 42.48C57.06 42.49 57.03 42.41 57 42.25C56.95 42.06 56.9 41.65 56.9 41.34C57.61 41.4 58.35 41.41 58.84 41.41ZM68.92 39.83V41.08C68.92 41.43 68.92 41.92 68.93 42.28C68.93 42.44 68.91 42.45 68.75 42.46C68.47 42.47 68.15 42.47 67.87 42.46C67.74 42.46 67.68 42.45 67.68 42.35C67.71 41.95 67.73 41.5 67.73 41.08V40.14C67.73 39.56 67.72 39.21 67.69 38.84C67.69 38.78 67.74 38.74 67.82 38.74C68.26 38.76 68.89 38.78 69.49 38.78H72.86C73.22 38.78 73.37 38.74 73.47 38.67C73.52 38.63 73.56 38.61 73.6 38.61C73.66 38.61 73.71 38.64 73.79 38.7C74.05 38.88 74.4 39.2 74.53 39.36C74.58 39.42 74.6 39.48 74.6 39.54C74.6 39.6 74.57 39.67 74.51 39.73C74.38 39.88 74.31 40.14 74.26 40.32C73.96 41.42 73.57 42.46 73.04 43.41C72.47 44.43 71.74 45.35 70.8 46.15C70.72 46.23 70.64 46.26 70.56 46.26C70.49 46.26 70.43 46.24 70.36 46.19C70.06 46.01 69.8 45.9 69.4 45.81C70.6 44.89 71.31 44.06 71.93 42.92C72.46 41.96 72.8 41.09 73.08 39.83H68.92ZM78.92 39.83V41.08C78.92 41.43 78.92 41.92 78.93 42.28C78.93 42.44 78.91 42.45 78.75 42.46C78.47 42.47 78.15 42.47 77.87 42.46C77.74 42.46 77.68 42.45 77.68 42.35C77.71 41.95 77.73 41.5 77.73 41.08V40.14C77.73 39.56 77.72 39.21 77.69 38.84C77.69 38.78 77.74 38.74 77.82 38.74C78.26 38.76 78.89 38.78 79.49 38.78H82.86C83.22 38.78 83.37 38.74 83.47 38.67C83.52 38.63 83.56 38.61 83.6 38.61C83.66 38.61 83.71 38.64 83.79 38.7C84.05 38.88 84.4 39.2 84.53 39.36C84.58 39.42 84.6 39.48 84.6 39.54C84.6 39.6 84.57 39.67 84.51 39.73C84.38 39.88 84.31 40.14 84.26 40.32C83.96 41.42 83.57 42.46 83.04 43.41C82.47 44.43 81.74 45.35 80.8 46.15C80.72 46.23 80.64 46.26 80.56 46.26C80.49 46.26 80.43 46.24 80.36 46.19C80.06 46.01 79.8 45.9 79.4 45.81C80.6 44.89 81.31 44.06 81.93 42.92C82.46 41.96 82.8 41.09 83.08 39.83H78.92ZM91.68 39.87H91.64C91.41 41.57 90.99 43.13 90.39 44.18C89.96 44.93 89.44 45.33 88.69 45.33C87.81 45.33 86.92 44.39 86.92 42.76C86.92 41.8 87.33 40.88 88.05 40.16C88.89 39.32 89.95 38.88 91.3 38.88C93.7 38.88 95.11 40.36 95.11 42.35C95.11 44.21 94.06 45.38 92.03 45.99C91.82 46.05 91.73 46.01 91.6 45.81C91.49 45.64 91.28 45.41 90.9 45.18C92.59 44.78 93.92 44.08 93.92 42.19C93.92 41 93.02 39.87 91.68 39.87ZM90.48 39.93C89.78 40.07 89.22 40.35 88.77 40.84C88.29 41.38 87.99 42.05 87.99 42.69C87.99 43.61 88.36 44.12 88.67 44.12C88.93 44.12 89.15 43.99 89.42 43.51C89.86 42.7 90.31 41.26 90.48 39.93ZM99.89 37.72C100.82 38.09 101.76 38.28 102.79 38.43C102.9 38.45 102.94 38.53 102.92 38.61C102.88 38.82 102.77 39.3 102.7 39.49C102.67 39.59 102.64 39.64 102.56 39.63C101.47 39.45 100.69 39.26 99.66 38.86C99.61 38.84 99.56 38.79 99.59 38.66C99.66 38.29 99.77 38.02 99.89 37.72ZM97.95 41.02C98.36 40.98 98.6 40.9 99.14 40.73C99.98 40.45 100.67 40.23 101.43 40.23C102.77 40.23 103.54 41.14 103.54 42.61C103.54 43.59 103.19 44.39 102.73 45C102.26 45.64 101.59 46.17 100.8 46.59C100.73 46.62 100.68 46.64 100.63 46.64C100.54 46.64 100.48 46.6 100.39 46.51C100.17 46.3 99.9 46.11 99.56 45.98C100.66 45.46 101.34 44.9 101.76 44.31C102.05 43.9 102.31 43.35 102.31 42.54C102.31 41.71 101.96 41.28 101.38 41.28C100.82 41.28 100.38 41.43 99.81 41.71C99.22 42 99.08 42.1 98.96 42.19C98.88 42.25 98.82 42.29 98.74 42.29C98.61 42.29 98.52 42.16 98.46 42.07C98.32 41.86 98.11 41.42 97.95 41.02ZM109.15 39.76C109.2 39.41 109.24 39.08 109.27 38.84C109.31 38.4 109.3 38.14 109.25 37.87C109.82 37.93 110.19 38 110.45 38.08C110.58 38.12 110.65 38.18 110.65 38.26C110.65 38.31 110.61 38.38 110.58 38.42C110.51 38.51 110.43 38.68 110.41 38.79C110.36 39.06 110.32 39.26 110.27 39.61C110.77 39.54 111.59 39.39 112.15 39.24C112.29 39.2 112.34 39.21 112.36 39.34C112.4 39.57 112.43 39.84 112.43 40.08C112.43 40.19 112.4 40.22 112.31 40.24C111.45 40.43 110.91 40.54 110.07 40.65C109.93 41.48 109.79 42.15 109.61 42.85C110.39 42.17 111.39 41.79 112.48 41.79C113.81 41.79 114.71 42.65 114.71 43.68C114.71 44.56 114.34 45.21 113.57 45.7C112.97 46.09 112.11 46.33 111.02 46.5C110.77 46.54 110.53 46.57 110.28 46.57C110.18 46.57 110.11 46.52 110.03 46.33C109.87 46 109.72 45.81 109.49 45.62C110.95 45.53 111.56 45.4 112.36 45.07C113.13 44.75 113.5 44.29 113.5 43.66C113.5 43.14 113.12 42.71 112.36 42.71C111.28 42.71 110.29 43.21 109.73 43.95C109.64 44.08 109.54 44.2 109.45 44.33C109.38 44.45 109.35 44.49 109.26 44.48C109.04 44.46 108.71 44.35 108.51 44.26C108.35 44.19 108.29 44.15 108.29 44.06C108.29 44.02 108.3 43.95 108.33 43.86C108.38 43.69 108.42 43.54 108.46 43.39C108.68 42.51 108.82 41.77 108.99 40.77C108.45 40.81 107.82 40.86 107.31 40.86C107.2 40.86 107.14 40.81 107.12 40.72C107.09 40.6 107.02 40.18 106.98 39.85C107.76 39.85 108.38 39.82 109.15 39.76ZM56.46 55.48V57.77C56.46 58.07 56.48 58.22 56.56 58.31C56.67 58.43 57 58.48 57.86 58.48C58.81 58.48 59.19 58.39 59.33 58.22C59.48 58.05 59.57 57.75 59.61 56.87C59.79 56.99 60.02 57.09 60.26 57.15C60.57 57.24 60.57 57.24 60.55 57.55C60.48 58.42 60.31 58.78 60.05 59.02C59.75 59.31 59.26 59.43 57.86 59.43C56.49 59.43 56.04 59.34 55.77 59.1C55.59 58.93 55.49 58.7 55.49 58.02V52.49C55.49 51.78 55.47 51.45 55.47 51.39C55.47 51.29 55.48 51.28 55.58 51.28C55.65 51.28 55.95 51.3 56.82 51.3H58.76C59.63 51.3 59.93 51.28 60 51.28C60.1 51.28 60.11 51.29 60.11 51.39C60.11 51.45 60.09 51.78 60.09 52.49V54.79C60.09 55.5 60.11 55.81 60.11 55.86C60.11 55.96 60.1 55.97 60 55.97H59.25C59.15 55.97 59.14 55.96 59.14 55.86V55.48H56.46ZM59.14 52.18H58.25V54.6H59.14V52.18ZM56.46 54.6H57.33V52.18H56.46V54.6ZM54.85 52.7V57.3C54.85 57.76 54.87 58.24 54.87 58.64C54.87 59.02 54.84 59.24 54.61 59.43C54.45 59.58 54.21 59.67 53.73 59.69C53.43 59.7 53.42 59.71 53.36 59.39C53.31 59.13 53.21 58.88 53.11 58.73C53.34 58.75 53.52 58.75 53.71 58.74C53.9 58.72 53.98 58.65 53.98 58.38V56.55H52.94C52.85 58 52.64 58.76 52.28 59.53C52.22 59.65 52.18 59.71 52.13 59.71C52.09 59.71 52.04 59.67 51.96 59.58C51.77 59.36 51.54 59.17 51.35 59.07C51.87 58.13 52.12 57.08 52.12 54.34V52.7C52.12 51.66 52.1 51.12 52.1 51.06C52.1 50.96 52.11 50.95 52.21 50.95C52.28 50.95 52.47 50.97 53.06 50.97H53.91C54.5 50.97 54.7 50.95 54.76 50.95C54.86 50.95 54.87 50.96 54.87 51.06C54.87 51.12 54.85 51.66 54.85 52.7ZM52.98 55.63H53.98V54.2H53V54.35C53 54.82 52.99 55.25 52.98 55.63ZM53.98 51.92H53V53.28H53.98V51.92ZM66.57 54.24H65.02C64.04 54.24 63.7 54.26 63.64 54.26C63.54 54.26 63.53 54.25 63.53 54.15V53.46C63.53 53.36 63.54 53.35 63.64 53.35C63.7 53.35 64.04 53.37 65.02 53.37H65.34V52.58C64.44 52.58 64.12 52.6 64.06 52.6C63.96 52.6 63.95 52.59 63.95 52.49V51.81C63.95 51.72 63.96 51.71 64.06 51.71C64.12 51.71 64.44 51.73 65.34 51.73V51.57C65.34 51.18 65.33 50.92 65.28 50.65C65.58 50.66 65.99 50.68 66.27 50.71C66.36 50.72 66.41 50.76 66.41 50.8C66.41 50.86 66.39 50.9 66.36 50.97C66.32 51.07 66.3 51.23 66.3 51.54V51.73H67.68V51.57C67.68 51.18 67.67 50.92 67.62 50.65C67.93 50.66 68.34 50.68 68.61 50.71C68.7 50.72 68.75 50.76 68.75 50.8C68.75 50.86 68.73 50.9 68.7 50.97C68.66 51.07 68.64 51.23 68.64 51.54V51.73H68.68C69.65 51.73 69.99 51.71 70.05 51.71C70.15 51.71 70.16 51.72 70.16 51.81V52.49C70.16 52.59 70.15 52.6 70.05 52.6C69.99 52.6 69.65 52.58 68.68 52.58H68.64V53.37H69.09C70.07 53.37 70.41 53.35 70.46 53.35C70.57 53.35 70.58 53.36 70.58 53.46V54.15C70.58 54.25 70.57 54.26 70.46 54.26C70.41 54.26 70.07 54.24 69.09 54.24H67.47V54.89H68.58C69.55 54.89 69.89 54.87 69.96 54.87C70.06 54.87 70.07 54.88 70.07 54.98C70.07 55.04 70.05 55.43 70.05 56.29V57.37C70.05 57.82 70.08 58.36 70.08 58.67C70.08 59.04 70.05 59.3 69.85 59.48C69.65 59.65 69.37 59.7 68.69 59.71C68.39 59.71 68.38 59.72 68.32 59.39C68.27 59.15 68.19 58.97 68.09 58.82C68.42 58.85 68.65 58.85 68.86 58.85C69.06 58.85 69.11 58.78 69.11 58.59V55.76H67.45V57.53H67.91V56.92C67.91 56.64 67.9 56.41 67.86 56.16C68.1 56.16 68.44 56.18 68.62 56.21C68.68 56.22 68.73 56.26 68.73 56.31C68.73 56.35 68.72 56.39 68.7 56.43C68.66 56.5 68.64 56.62 68.64 56.85V57.76C68.64 58.22 68.66 58.37 68.66 58.43C68.66 58.54 68.65 58.55 68.55 58.55H68.02C67.92 58.55 67.91 58.54 67.91 58.43V58.28H66.13V58.72C66.13 58.82 66.12 58.83 66.01 58.83H65.46C65.35 58.83 65.34 58.82 65.34 58.72C65.34 58.66 65.36 58.47 65.36 57.98V56.92C65.36 56.63 65.35 56.41 65.31 56.16C65.53 56.16 65.91 56.18 66.1 56.21C66.18 56.22 66.22 56.27 66.22 56.31C66.22 56.36 66.2 56.4 66.18 56.46C66.15 56.53 66.13 56.64 66.13 56.85V57.53H66.59V55.76H64.9V58.57C64.9 59.28 64.92 59.62 64.92 59.67C64.92 59.77 64.91 59.78 64.81 59.78H64.05C63.95 59.78 63.94 59.77 63.94 59.67C63.94 59.61 63.96 59.3 63.96 58.57V56.21C63.96 55.37 63.94 55.05 63.94 54.98C63.94 54.88 63.95 54.87 64.05 54.87C64.12 54.87 64.47 54.89 65.44 54.89H66.57V54.24ZM66.3 53.37H67.68V52.58H66.3V53.37ZM62.74 55.92C62.86 56.07 63.08 56.24 63.31 56.38C63.58 56.55 63.58 56.57 63.5 56.87C63.29 57.68 63.01 58.49 62.73 59.16C62.66 59.33 62.61 59.46 62.6 59.56C62.59 59.64 62.55 59.69 62.5 59.69C62.46 59.69 62.4 59.68 62.32 59.64C62.08 59.51 61.79 59.34 61.52 59.13C61.67 58.91 61.8 58.68 61.93 58.37C62.23 57.61 62.5 56.9 62.74 55.92ZM61.47 53.83L61.91 53.27C61.99 53.17 62.01 53.17 62.1 53.22C62.55 53.5 63.01 53.83 63.43 54.22C63.47 54.25 63.49 54.28 63.49 54.3C63.49 54.33 63.47 54.36 63.43 54.42L62.97 55.04C62.92 55.11 62.89 55.14 62.86 55.14C62.83 55.14 62.81 55.12 62.77 55.09C62.36 54.67 61.91 54.31 61.47 54.02C61.43 53.99 61.4 53.97 61.4 53.94C61.4 53.92 61.43 53.88 61.47 53.83ZM61.79 51.34L62.26 50.84C62.36 50.73 62.37 50.74 62.47 50.79C62.91 51.08 63.4 51.48 63.77 51.86C63.84 51.93 63.85 51.94 63.75 52.06L63.28 52.62C63.17 52.75 63.16 52.75 63.08 52.67C62.69 52.23 62.23 51.83 61.78 51.53C61.74 51.5 61.71 51.48 61.71 51.45C61.71 51.43 61.74 51.39 61.79 51.34ZM75.12 54.32H73.07C72.16 54.32 71.85 54.34 71.79 54.34C71.69 54.34 71.68 54.33 71.68 54.23V53.39C71.68 53.29 71.69 53.28 71.79 53.28C71.85 53.28 72.16 53.3 73.07 53.3H75.25C75.28 52.85 75.3 52.36 75.3 51.85C75.3 51.2 75.28 50.93 75.24 50.66C75.58 50.67 76.05 50.7 76.38 50.73C76.53 50.75 76.57 50.79 76.57 50.85C76.57 50.92 76.54 50.98 76.51 51.06C76.46 51.16 76.43 51.32 76.42 51.8C76.41 52.31 76.39 52.81 76.35 53.3H78.94C79.86 53.3 80.16 53.28 80.23 53.28C80.33 53.28 80.34 53.29 80.34 53.39V54.23C80.34 54.33 80.33 54.34 80.23 54.34C80.16 54.34 79.86 54.32 78.94 54.32H76.55C77.28 56.57 78.55 57.81 80.61 58.65C80.4 58.89 80.22 59.16 80.08 59.43C79.99 59.6 79.95 59.67 79.88 59.67C79.83 59.67 79.76 59.64 79.65 59.59C77.93 58.71 76.72 57.56 75.95 55.49C75.85 55.81 75.74 56.11 75.61 56.39C75.01 57.69 73.94 58.78 72.43 59.55C72.31 59.6 72.24 59.64 72.19 59.64C72.12 59.64 72.08 59.57 71.99 59.41C71.85 59.15 71.66 58.9 71.44 58.69C73.15 57.98 74.1 57.07 74.69 55.79C74.89 55.37 75.03 54.87 75.12 54.32ZM77.4 51.49L77.88 51.09C77.98 51 78 51.01 78.09 51.07C78.56 51.43 78.99 51.82 79.41 52.33C79.48 52.41 79.48 52.43 79.37 52.53L78.83 53.01C78.71 53.11 78.7 53.12 78.63 53.03C78.27 52.53 77.83 52.07 77.37 51.69C77.33 51.66 77.31 51.63 77.31 51.6C77.31 51.57 77.34 51.54 77.4 51.49ZM86.68 52.87H86.64C86.41 54.57 85.99 56.13 85.39 57.18C84.96 57.93 84.44 58.33 83.69 58.33C82.81 58.33 81.92 57.39 81.92 55.76C81.92 54.8 82.33 53.88 83.05 53.16C83.89 52.32 84.95 51.88 86.3 51.88C88.7 51.88 90.11 53.36 90.11 55.35C90.11 57.21 89.06 58.38 87.03 58.99C86.82 59.05 86.73 59.01 86.6 58.81C86.49 58.64 86.28 58.41 85.9 58.18C87.59 57.78 88.92 57.08 88.92 55.19C88.92 54 88.02 52.87 86.68 52.87ZM85.48 52.93C84.78 53.07 84.22 53.35 83.77 53.84C83.29 54.38 82.99 55.05 82.99 55.69C82.99 56.61 83.36 57.12 83.67 57.12C83.93 57.12 84.15 56.99 84.42 56.51C84.86 55.7 85.31 54.26 85.48 52.93ZM95.19 53.77H94.73V54.29H95.05C95.87 54.29 96.15 54.27 96.21 54.27C96.31 54.27 96.31 54.28 96.31 54.38V54.94C96.31 55.04 96.31 55.05 96.21 55.05C96.15 55.05 95.87 55.03 95.05 55.03H94.73V55.56H95.48C96.41 55.56 96.73 55.54 96.79 55.54C96.9 55.54 96.91 55.55 96.91 55.65V56.23C96.91 56.33 96.9 56.34 96.79 56.34C96.73 56.34 96.41 56.32 95.48 56.32H92.92C91.99 56.32 91.66 56.34 91.6 56.34C91.5 56.34 91.49 56.33 91.49 56.23V55.65C91.49 55.55 91.5 55.54 91.6 55.54C91.66 55.54 91.99 55.56 92.92 55.56H93.8V55.03H93.48C92.64 55.03 92.38 55.05 92.32 55.05C92.22 55.05 92.21 55.04 92.21 54.94V54.38C92.21 54.28 92.22 54.27 92.32 54.27C92.38 54.27 92.64 54.29 93.48 54.29H93.8V53.77H93.34C92.54 53.77 92.28 53.79 92.23 53.79C92.13 53.79 92.12 53.78 92.12 53.69V53.21H91.74C91.64 53.21 91.63 53.2 91.63 53.09C91.63 53.03 91.65 52.91 91.65 52.21V51.96C91.65 51.71 91.63 51.58 91.63 51.52C91.63 51.42 91.64 51.41 91.74 51.41C91.81 51.41 92.14 51.43 93.06 51.43H93.78V51.41C93.78 51.18 93.77 50.93 93.71 50.6C94.08 50.61 94.4 50.64 94.74 50.68C94.84 50.69 94.9 50.73 94.9 50.78C94.9 50.86 94.87 50.92 94.84 50.99C94.78 51.12 94.79 51.24 94.79 51.43H95.46C96.39 51.43 96.71 51.41 96.77 51.41C96.88 51.41 96.89 51.42 96.89 51.52C96.89 51.58 96.87 51.71 96.87 51.9V52.21C96.87 52.91 96.89 53.03 96.89 53.09C96.89 53.2 96.88 53.21 96.77 53.21H96.42V53.69C96.42 53.78 96.41 53.79 96.31 53.79C96.25 53.79 95.99 53.77 95.19 53.77ZM92.57 52.23V53.02C92.69 53.03 92.92 53.03 93.34 53.03H93.8C93.79 52.82 93.77 52.63 93.74 52.4C94.11 52.42 94.37 52.44 94.68 52.47C94.78 52.48 94.84 52.53 94.84 52.59C94.84 52.67 94.81 52.71 94.78 52.78C94.74 52.86 94.73 52.93 94.73 53.03H95.19C95.62 53.03 95.85 53.03 95.97 53.02V52.23H92.57ZM93.16 59.76H92.37C92.27 59.76 92.26 59.75 92.26 59.65C92.26 59.59 92.28 59.34 92.28 58.36V57.7C92.28 57.17 92.26 56.94 92.26 56.88C92.26 56.77 92.27 56.76 92.37 56.76C92.44 56.76 92.71 56.78 93.51 56.78H95.08C95.88 56.78 96.15 56.76 96.22 56.76C96.32 56.76 96.33 56.77 96.33 56.88C96.33 56.94 96.31 57.16 96.31 57.58V58.29C96.31 59.24 96.33 59.49 96.33 59.55C96.33 59.64 96.32 59.65 96.22 59.65H95.44C95.35 59.65 95.34 59.64 95.34 59.55V59.29H93.27V59.65C93.27 59.75 93.26 59.76 93.16 59.76ZM93.27 57.59V58.49H95.34V57.59H93.27ZM100.2 52.15V56.37C100.2 57.07 100.23 57.85 100.23 58.35C100.23 58.84 100.16 59.17 99.87 59.37C99.59 59.56 99.32 59.63 98.44 59.63C98.14 59.63 98.14 59.63 98.07 59.31C98 59.01 97.91 58.76 97.78 58.53C98.14 58.57 98.38 58.59 98.74 58.59C99.08 58.59 99.18 58.52 99.18 58.2V52.17C99.18 51.53 99.17 51.21 99.1 50.75C99.47 50.76 99.82 50.78 100.16 50.82C100.27 50.83 100.33 50.88 100.33 50.93C100.33 51.02 100.29 51.07 100.26 51.14C100.21 51.26 100.2 51.47 100.2 52.15ZM97.38 55.75V52.99C97.38 52.33 97.37 51.98 97.31 51.51C97.66 51.52 97.98 51.54 98.32 51.58C98.41 51.59 98.46 51.63 98.46 51.69C98.46 51.76 98.41 51.84 98.39 51.91C98.37 52.05 98.37 52.25 98.37 52.98V55.75C98.37 56.6 98.39 57.01 98.39 57.07C98.39 57.17 98.38 57.18 98.27 57.18H97.46C97.37 57.18 97.36 57.17 97.36 57.07C97.36 57.01 97.38 56.6 97.38 55.75ZM103.9 59.75H103.05C102.95 59.75 102.94 59.74 102.94 59.64C102.94 59.58 102.96 59.31 102.96 57.86V57C102.96 56.14 102.94 55.85 102.94 55.79C102.94 55.69 102.95 55.68 103.05 55.68C103.11 55.68 103.46 55.7 104.42 55.7H107.62C108.58 55.7 108.93 55.68 108.99 55.68C109.1 55.68 109.11 55.69 109.11 55.79C109.11 55.85 109.09 56.14 109.09 56.85V57.83C109.09 59.27 109.11 59.54 109.11 59.59C109.11 59.69 109.1 59.7 108.99 59.7H108.14C108.04 59.7 108.03 59.69 108.03 59.59V59.26H104.02V59.64C104.02 59.74 104.01 59.75 103.9 59.75ZM104.02 56.61V58.35H108.03V56.61H104.02ZM104 54.64V53.92C103.42 54.37 102.8 54.76 102.15 55.1C102.03 55.16 101.97 55.2 101.92 55.2C101.85 55.2 101.81 55.13 101.73 54.95C101.6 54.68 101.44 54.46 101.26 54.28C103.1 53.45 104.29 52.41 105.11 51.22C105.29 50.96 105.4 50.77 105.5 50.51C105.89 50.57 106.26 50.63 106.55 50.7C106.67 50.74 106.73 50.77 106.73 50.86C106.73 50.91 106.71 50.96 106.63 51.01C106.6 51.03 106.57 51.05 106.55 51.08C107.74 52.6 109.13 53.53 110.82 54.13C110.65 54.34 110.5 54.61 110.4 54.89C110.34 55.08 110.3 55.15 110.22 55.15C110.17 55.15 110.09 55.12 109.98 55.06C109.27 54.74 108.62 54.37 108.03 53.94V54.64C108.03 54.74 108.02 54.75 107.92 54.75C107.86 54.75 107.59 54.73 106.79 54.73H105.24C104.44 54.73 104.18 54.75 104.11 54.75C104.01 54.75 104 54.74 104 54.64ZM105.24 53.8H106.79C107.38 53.8 107.68 53.79 107.82 53.79C107.1 53.24 106.49 52.6 105.98 51.89C105.46 52.61 104.84 53.23 104.16 53.78C104.28 53.79 104.56 53.8 105.24 53.8ZM117.42 56.51C117.4 55.74 117.39 55.01 117.38 54.22C116.7 54.24 116 54.26 115.32 54.21C115.19 54.21 115.15 54.18 115.14 54.08C115.1 53.84 115.07 53.48 115.07 53.17C115.82 53.24 116.6 53.25 117.35 53.2C117.35 52.84 117.34 52.52 117.34 52.15C117.33 51.79 117.3 51.53 117.21 51.17C117.79 51.22 118.09 51.26 118.42 51.36C118.53 51.39 118.6 51.44 118.6 51.53C118.6 51.58 118.58 51.61 118.54 51.7C118.5 51.79 118.47 51.92 118.46 52.05C118.44 52.39 118.44 52.65 118.44 53.11C118.91 53.07 119.43 53 119.86 52.93C119.98 52.9 120 52.94 120.02 53.05C120.06 53.23 120.08 53.55 120.08 53.76C120.08 53.85 120.04 53.9 119.97 53.91C119.61 54 118.95 54.08 118.43 54.12C118.43 55.24 118.45 55.94 118.5 56.8C119.09 57.04 119.6 57.32 120.16 57.76C120.25 57.82 120.26 57.85 120.21 57.96C120.08 58.22 119.92 58.5 119.75 58.73C119.72 58.77 119.69 58.79 119.66 58.79C119.63 58.79 119.6 58.77 119.57 58.74C119.26 58.45 118.93 58.2 118.49 57.94C118.41 58.78 117.84 59.24 116.66 59.24C115.51 59.24 114.87 58.7 114.87 57.84C114.87 57.02 115.61 56.43 116.62 56.43C116.88 56.43 117.18 56.46 117.42 56.51ZM117.44 57.46C117.12 57.36 116.85 57.33 116.57 57.33C116.1 57.33 115.82 57.5 115.82 57.81C115.82 58.12 116.04 58.31 116.63 58.31C117.13 58.31 117.45 58.02 117.45 57.66C117.45 57.59 117.45 57.54 117.44 57.46ZM112.8 51.19C113.2 51.29 113.74 51.45 113.94 51.55C114.05 51.61 114.09 51.67 114.09 51.75C114.09 51.82 114.06 51.89 114.02 51.97C113.95 52.09 113.91 52.23 113.84 52.52C113.51 54.03 113.34 55.43 113.34 56.16C113.34 56.56 113.34 57.02 113.37 57.44C113.57 56.98 113.78 56.55 113.99 56.05C114.13 56.37 114.21 56.51 114.34 56.68C114.38 56.73 114.4 56.77 114.4 56.82C114.4 56.87 114.38 56.92 114.34 56.98C113.99 57.77 113.87 58.21 113.83 58.5C113.79 58.78 113.81 58.93 113.82 59.03C113.83 59.1 113.79 59.13 113.7 59.16C113.51 59.23 113.22 59.29 112.95 59.33C112.84 59.36 112.8 59.35 112.75 59.21C112.47 58.5 112.32 57.31 112.32 56.16C112.32 55.2 112.4 54.4 112.73 52.37C112.78 52.02 112.84 51.59 112.8 51.19Z" fill="#333333"/>
<defs>
<filter id="filter0_d_155_246" x="80.749" y="0.26274" width="99.9101" height="116.238" filterUnits="userSpaceOnUse" color-interpolation-filters="sRGB">
<feFlood flood-opacity="0" result="BackgroundImageFix"/>
<feColorMatrix in="SourceAlpha" type="matrix" values="0 0 0 0 0 0 0 0 0 0 0 0 0 0 0 0 0 0 127 0" result="hardAlpha"/>
<feOffset dy="3.64968"/>
<feGaussianBlur stdDeviation="3.19347"/>
<feComposite in2="hardAlpha" operator="out"/>
<feColorMatrix type="matrix" values="0 0 0 0 0.649951 0 0 0 0 0.327599 0 0 0 0 0.331065 0 0 0 0.6 0"/>
<feBlend mode="normal" in2="BackgroundImageFix" result="effect1_dropShadow_155_246"/>
<feBlend mode="normal" in="SourceGraphic" in2="effect1_dropShadow_155_246" result="shape"/>
</filter>
</defs>
</svg>
