<svg width="187" height="153" viewBox="0 0 187 153" fill="none" xmlns="http://www.w3.org/2000/svg">
<path d="M8.38394 74.6434C8.18868 74.8302 8.02739 75.0594 7.90853 75.3056C7.84062 75.4499 7.81515 75.5094 7.75573 75.5094C7.71328 75.5094 7.66234 75.4754 7.56047 75.4075C5.939 74.3633 4.95424 72.9116 4.56373 71.3496C4.11379 73.1408 3.04413 74.5331 1.49058 75.416C1.3972 75.4669 1.33777 75.5009 1.29532 75.5009C1.2359 75.5009 1.20194 75.4414 1.12554 75.2971C0.981217 75.0594 0.81143 74.8811 0.633153 74.7283C2.86585 73.6926 3.95249 71.5703 3.93551 69.1933C3.92702 68.8197 3.91854 68.4632 3.87609 68.0897C4.20717 68.1066 4.61466 68.1491 4.92028 68.1915C5.03064 68.2085 5.08158 68.2594 5.08158 68.3274C5.08158 68.4207 5.03913 68.4717 4.99668 68.5396C4.94575 68.6245 4.92877 68.8282 4.92877 69.0999C4.92028 69.2018 4.92028 69.3036 4.92028 69.4055C5.28532 71.8929 6.35498 73.5398 8.38394 74.6434ZM15.5999 74.8896H10.4299C9.67432 74.8896 9.41115 74.9066 9.36021 74.9066C9.27532 74.9066 9.26683 74.8981 9.26683 74.8132V74.1001C9.26683 74.0152 9.27532 74.0067 9.36021 74.0067C9.41115 74.0067 9.67432 74.0237 10.4299 74.0237H12.4758V69.6262H10.9817C10.1582 69.6262 9.88656 69.6432 9.83562 69.6432C9.75073 69.6432 9.74224 69.6347 9.74224 69.5498V68.8367C9.74224 68.7518 9.75073 68.7433 9.83562 68.7433C9.88656 68.7433 10.1582 68.7603 10.9817 68.7603H15.0566C15.8716 68.7603 16.1432 68.7433 16.1942 68.7433C16.279 68.7433 16.2875 68.7518 16.2875 68.8367V69.5498C16.2875 69.6347 16.279 69.6432 16.1942 69.6432C16.1432 69.6432 15.8716 69.6262 15.0566 69.6262H13.4351V74.0237H15.5999C16.3554 74.0237 16.6186 74.0067 16.6696 74.0067C16.7544 74.0067 16.7629 74.0152 16.7629 74.1001V74.8132C16.7629 74.8981 16.7544 74.9066 16.6696 74.9066C16.6186 74.9066 16.3554 74.8896 15.5999 74.8896ZM20.8209 70.8827H20.7784C19.9464 70.8827 19.6493 70.8996 19.5984 70.8996C19.5135 70.8996 19.505 70.8911 19.505 70.8063V70.1865C19.505 70.1016 19.5135 70.0931 19.5984 70.0931C19.6493 70.0931 19.9464 70.1101 20.7784 70.1101H21.2708C21.3811 69.847 21.4745 69.5753 21.5509 69.2782C21.1944 69.3206 20.8293 69.3546 20.4473 69.3885C20.2011 69.414 20.2011 69.414 20.1417 69.2187C20.0653 68.9556 19.9634 68.7264 19.8616 68.599C21.3217 68.5311 22.3914 68.4123 23.2573 68.2C23.5714 68.1236 23.7497 68.0472 23.9195 67.9538C24.1402 68.1151 24.3524 68.3104 24.5137 68.4887C24.5731 68.5481 24.5986 68.5905 24.5986 68.65C24.5986 68.7009 24.5392 68.7518 24.4458 68.7518C24.327 68.7603 24.1826 68.8028 24.0044 68.8367C23.512 68.9556 23.0111 69.0574 22.4848 69.1423C22.3999 69.4904 22.298 69.813 22.1791 70.1101H24.0298C24.8618 70.1101 25.1589 70.0931 25.2099 70.0931C25.2863 70.0931 25.2947 70.1016 25.2947 70.1865V70.8063C25.2947 70.8911 25.2863 70.8996 25.2099 70.8996C25.1589 70.8996 24.8618 70.8827 24.0298 70.8827H23.478C23.911 71.4684 24.5901 71.9014 25.4476 72.1476C25.3202 72.2919 25.2099 72.4702 25.1165 72.6909C25.0486 72.8437 25.0231 72.9031 24.9637 72.9031C24.9212 72.9031 24.8618 72.8777 24.7599 72.8267C23.7582 72.3513 23.0281 71.7146 22.5442 70.8827H21.8056C21.3642 71.6467 20.7529 72.2494 19.887 72.8097C19.7936 72.8692 19.7342 72.9031 19.6918 72.9031C19.6323 72.9031 19.5984 72.8437 19.5305 72.7249C19.4116 72.5126 19.2843 72.3343 19.14 72.224C19.904 71.825 20.4388 71.392 20.8209 70.8827ZM22.1961 72.6484V73.6247C22.1961 74.0407 22.2046 74.4227 22.2046 74.7453C22.2046 75.0849 22.1622 75.2801 21.9584 75.4499C21.8056 75.5688 21.5934 75.6027 21.0586 75.6027C20.7869 75.6027 20.7954 75.6027 20.736 75.3566C20.685 75.1358 20.6171 74.9321 20.5067 74.7793C20.7614 74.8047 20.9312 74.8132 21.135 74.8132C21.3217 74.8132 21.3811 74.7538 21.3811 74.567V72.7758C21.3811 72.3768 21.3727 72.0966 21.3217 71.8589C21.6189 71.8759 21.9499 71.9099 22.1622 71.9523C22.2386 71.9608 22.2895 72.0033 22.2895 72.0457C22.2895 72.0881 22.2725 72.1306 22.2556 72.1646C22.2216 72.224 22.1961 72.3089 22.1961 72.6484ZM17.5779 75.1104C17.7392 74.8727 17.8411 74.7029 17.9684 74.4142C18.1891 73.9219 18.4438 73.2427 18.673 72.3853C18.8004 72.5126 18.9787 72.6739 19.1569 72.8013C19.3777 72.9541 19.3777 72.9541 19.3097 73.2003C19.106 73.8879 18.8683 74.5501 18.6306 75.1358C18.5712 75.2801 18.5372 75.399 18.5287 75.4754C18.5202 75.5433 18.4948 75.5943 18.4353 75.5943C18.3844 75.5943 18.3335 75.5773 18.2656 75.5433C18.0618 75.433 17.8241 75.2971 17.5779 75.1104ZM20.4558 72.8182L20.9142 73.022C21.0076 73.0559 21.0331 73.0814 21.0076 73.1663C20.8039 73.82 20.4473 74.5416 20.0993 75.0594C20.0738 75.1019 20.0483 75.1189 20.0229 75.1189C19.9974 75.1189 19.9719 75.1104 19.9295 75.0764L19.4626 74.7538C19.3607 74.6859 19.3607 74.6604 19.4116 74.5925C19.8021 74.0662 20.1162 73.3955 20.2945 72.8522C20.3285 72.7588 20.337 72.7673 20.4558 72.8182ZM23.7327 72.9795L24.1402 72.7673C24.2336 72.7164 24.259 72.7079 24.3185 72.7843C24.709 73.3106 25.0146 73.8794 25.2863 74.5076C25.3202 74.601 25.3117 74.6265 25.2183 74.6774L24.7429 74.9406C24.692 74.966 24.658 74.983 24.6411 74.983C24.6071 74.983 24.5901 74.966 24.5731 74.9151C24.293 74.2105 24.0129 73.6841 23.6648 73.1239C23.6223 73.0474 23.6478 73.0305 23.7327 72.9795ZM22.5951 72.9371L23.0366 72.7928C23.1469 72.7588 23.1639 72.7588 23.1979 72.8352C23.4441 73.37 23.6733 74.0492 23.8261 74.7199C23.8431 74.7963 23.8346 74.8302 23.7242 74.8642L23.2064 75.034C23.096 75.0679 23.0705 75.0764 23.0536 74.983C22.9262 74.3633 22.731 73.6502 22.5017 73.0814C22.4678 72.9965 22.4848 72.971 22.5951 72.9371ZM17.9684 68.5396L18.3589 68.0812C18.4269 67.9963 18.4523 67.9963 18.5287 68.0387C18.9447 68.2849 19.3352 68.5905 19.7003 68.9301C19.7342 68.9556 19.7512 68.9726 19.7512 68.998C19.7512 69.0235 19.7342 69.049 19.7003 69.0999L19.3182 69.6347C19.2503 69.7196 19.2333 69.7111 19.1654 69.6602C18.7919 69.2951 18.3759 68.9471 17.9684 68.7009C17.926 68.6754 17.909 68.6584 17.909 68.6415C17.909 68.616 17.926 68.5905 17.9684 68.5396ZM17.6373 70.6789L17.9854 70.2205C18.0533 70.1356 18.0788 70.1356 18.1552 70.178C18.5712 70.4073 18.9787 70.6959 19.3692 71.044C19.4031 71.0779 19.4201 71.0949 19.4201 71.1119C19.4201 71.1373 19.4031 71.1628 19.3692 71.2137L18.9787 71.7571C18.9532 71.7995 18.9362 71.8165 18.9107 71.8165C18.8938 71.8165 18.8683 71.7995 18.8343 71.7656C18.4778 71.409 18.0618 71.0949 17.6458 70.8402C17.6034 70.8147 17.5779 70.7978 17.5779 70.7808C17.5779 70.7553 17.6034 70.7214 17.6373 70.6789ZM33.5973 70.7723V72.5296C33.5973 74.7453 33.6143 75.1868 33.6143 75.2377C33.6143 75.3311 33.6058 75.3396 33.5209 75.3396H32.8078C32.7314 75.3396 32.7229 75.3311 32.7229 75.2377V74.6604H31.4665V75.3056C31.4665 75.399 31.458 75.4075 31.3646 75.4075H30.677C30.5836 75.4075 30.5751 75.399 30.5751 75.3056C30.5751 75.2547 30.5921 74.8047 30.5921 72.5636V71.0185C30.5921 69.4649 30.5751 68.998 30.5751 68.9386C30.5751 68.8537 30.5836 68.8452 30.677 68.8452C30.7279 68.8452 30.9402 68.8622 31.5599 68.8622H32.638C33.2578 68.8622 33.47 68.8452 33.5209 68.8452C33.6058 68.8452 33.6143 68.8537 33.6143 68.9386C33.6143 68.9895 33.5973 69.4564 33.5973 70.7723ZM32.7229 69.6772H31.4665V73.8539H32.7229V69.6772ZM29.1574 70.3988H28.3254C28.266 71.3241 28.1557 72.1561 27.9774 72.8607C27.7567 73.7351 27.4256 74.5586 26.8398 75.3141C26.7634 75.4075 26.721 75.4584 26.6785 75.4584C26.6361 75.4584 26.6021 75.416 26.5342 75.3141C26.3644 75.0509 26.1861 74.8642 25.9994 74.7114C26.5766 74.0322 26.8992 73.404 27.1284 72.5466C27.3067 71.9014 27.4001 71.2392 27.4426 70.3988H27.3322C26.6106 70.3988 26.3644 70.4157 26.3135 70.4157C26.2286 70.4157 26.2201 70.4073 26.2201 70.3224V69.6857C26.2201 69.6008 26.2286 69.6008 26.3135 69.6008C26.3644 69.6008 26.6106 69.6093 27.3322 69.6093H27.468C27.4765 69.448 27.4765 69.2782 27.4765 69.0914C27.4765 68.5651 27.4595 68.3019 27.4171 67.8944C27.7227 67.9029 28.0283 67.9199 28.3339 67.9453C28.4188 67.9623 28.4613 67.9963 28.4613 68.0387C28.4613 68.0982 28.4188 68.1915 28.4018 68.2764C28.3764 68.3868 28.3594 68.599 28.3594 69.1169C28.3594 69.2867 28.3594 69.448 28.3509 69.6093H28.9027C29.6328 69.6093 29.879 69.6008 29.9299 69.6008C30.0148 69.6008 30.0318 69.6093 30.0318 69.6942C30.0148 69.9828 30.0148 70.229 30.0148 70.5006C29.9978 72.173 29.9214 73.5229 29.7686 74.4567C29.6583 75.1189 29.3272 75.4075 28.6905 75.4075C28.5207 75.4075 28.3849 75.4075 28.2236 75.3905C28.0028 75.3735 28.0028 75.3735 27.9774 75.1019C27.9519 74.8811 27.901 74.6774 27.8246 74.4906C28.0877 74.5416 28.3 74.5586 28.5292 74.5586C28.7669 74.5586 28.8688 74.4652 28.9367 74.0322C29.0555 73.2936 29.1319 72.0712 29.1574 70.3988ZM36.0508 70.4412H35.5584C35.5159 70.7893 35.4565 71.1373 35.3801 71.4345C35.3377 71.5788 35.3207 71.6382 35.2697 71.6382C35.2358 71.6382 35.1764 71.6043 35.083 71.5533C34.9471 71.4854 34.7264 71.4175 34.5821 71.3835C34.8198 70.594 34.9132 69.8215 34.9387 69.1593C34.9471 68.998 34.9471 68.8282 34.9217 68.616C35.1509 68.6415 35.431 68.6754 35.6348 68.7094C35.7282 68.7264 35.7621 68.7603 35.7621 68.8113C35.7621 68.8622 35.7536 68.8877 35.7282 68.9471C35.6942 69.015 35.6857 69.0999 35.6772 69.2357C35.6687 69.3716 35.6603 69.5074 35.6433 69.6517H36.0508V69.1848C36.0508 68.582 36.0338 68.3274 35.9828 67.9029C36.297 67.9114 36.5686 67.9284 36.8573 67.9623C36.9421 67.9708 36.9931 68.0048 36.9931 68.0472C36.9931 68.1151 36.9676 68.1576 36.9421 68.2255C36.8997 68.3274 36.8912 68.5396 36.8912 69.1678V69.6517C37.3411 69.6517 37.5109 69.6347 37.5534 69.6347C37.6383 69.6347 37.6468 69.6432 37.6468 69.7196V70.2969C38.0967 69.7621 38.3768 69.2018 38.5891 68.5736C38.657 68.3528 38.7079 68.1491 38.7419 67.8944C38.9711 67.9284 39.2937 67.9793 39.5399 68.0387C39.6333 68.0642 39.6842 68.0982 39.6842 68.1576C39.6842 68.217 39.6587 68.2594 39.5993 68.3274C39.5399 68.3953 39.4974 68.5056 39.4295 68.7179C39.3531 68.9471 39.2597 69.1763 39.1579 69.414H41.1359C41.7811 69.414 41.9848 69.397 42.0358 69.397C42.1291 69.397 42.1546 69.4225 42.1546 69.5074C42.1461 69.7366 42.1376 69.9658 42.1376 70.1696C42.1207 72.1985 42.0527 73.2767 41.8914 74.2529C41.7556 75.1613 41.3821 75.5943 40.6265 75.5943C40.4737 75.5943 40.236 75.5943 40.0153 75.5773C39.7521 75.5603 39.7521 75.5603 39.7012 75.2801C39.6503 75.0085 39.5823 74.8047 39.4974 74.6434C39.888 74.7114 40.1851 74.7283 40.4907 74.7283C40.8727 74.7283 41.0001 74.4737 41.068 74.0237C41.1953 73.1069 41.2972 72.1646 41.3311 70.3563C40.7284 72.4956 39.888 74.0067 38.4193 75.1443C38.3174 75.2207 38.258 75.2632 38.2071 75.2632C38.1476 75.2632 38.1052 75.2122 38.0288 75.1019C37.8845 74.8896 37.7147 74.7368 37.5619 74.635C39.1664 73.5483 40.0323 72.0966 40.5841 70.178H40.0238C39.6248 71.4939 39.0051 72.4871 38.1476 73.2682C38.0543 73.3616 37.9948 73.404 37.9439 73.404C37.893 73.404 37.8505 73.3616 37.7741 73.2597C37.6298 73.0814 37.4515 72.9286 37.2987 72.8267C38.1901 72.173 38.8353 71.3156 39.2088 70.178H38.7589C38.5806 70.4752 38.3684 70.7638 38.1307 71.0355C38.0373 71.1373 37.9948 71.1798 37.9524 71.1798C37.9014 71.1798 37.859 71.1373 37.7656 71.044C37.6043 70.8911 37.426 70.7723 37.2817 70.6874L37.5024 70.4582C37.4175 70.4582 37.2308 70.4497 36.8912 70.4412V71.808C37.1374 71.6891 37.4006 71.5618 37.6807 71.409C37.6807 71.5618 37.6807 71.791 37.6977 71.9778C37.7147 72.2325 37.7147 72.241 37.4855 72.3598C37.2817 72.4702 37.0865 72.572 36.8912 72.6654V74.1001C36.8912 75.0679 36.9082 75.5518 36.9082 75.5943C36.9082 75.6791 36.8997 75.6876 36.8148 75.6876H36.1272C36.0423 75.6876 36.0338 75.6791 36.0338 75.5943C36.0338 75.5433 36.0508 75.0679 36.0508 74.1086V73.0559C35.8555 73.1408 35.6518 73.2172 35.4565 73.2936C35.3292 73.3531 35.2273 73.404 35.1848 73.4464C35.1339 73.4974 35.0915 73.5313 35.0405 73.5313C34.9811 73.5313 34.9387 73.5059 34.9047 73.438C34.8028 73.1918 34.701 72.8777 34.6161 72.6145C34.8962 72.5551 35.1339 72.4871 35.4141 72.3938C35.6263 72.3259 35.8385 72.2494 36.0508 72.173V70.4412ZM12.7899 80.3206H10.4638C9.69979 80.3206 9.43662 80.3376 9.38568 80.3376C9.30079 80.3376 9.2923 80.3291 9.2923 80.2357V79.5481C9.2923 79.4547 9.30079 79.4462 9.38568 79.4462C9.43662 79.4462 9.69979 79.4632 10.4638 79.4632H15.5744C16.3385 79.4632 16.5932 79.4462 16.6526 79.4462C16.7375 79.4462 16.746 79.4547 16.746 79.5481V80.2357C16.746 80.3291 16.7375 80.3376 16.6526 80.3376C16.5932 80.3376 16.3385 80.3206 15.5744 80.3206H13.8086C13.6813 80.5668 13.5455 80.813 13.4012 81.0507V85.3124C13.4012 86.0934 13.4181 86.4839 13.4181 86.5348C13.4181 86.6197 13.4096 86.6282 13.3247 86.6282H12.5437C12.4588 86.6282 12.4503 86.6197 12.4503 86.5348C12.4503 86.4754 12.4673 86.0934 12.4673 85.3124V82.3156C11.7457 83.1476 10.8713 83.8692 9.86958 84.4549C9.77619 84.5059 9.72526 84.5398 9.68281 84.5398C9.62339 84.5398 9.58943 84.4889 9.50454 84.3446C9.37719 84.1408 9.24136 83.9795 9.03762 83.8267C10.6676 83.0202 12.0089 81.7808 12.7899 80.3206ZM13.7237 81.9845L14.1227 81.5855C14.1567 81.5516 14.1822 81.5346 14.2076 81.5346C14.2331 81.5346 14.2501 81.5516 14.284 81.5855C14.9717 82.4684 16.0583 83.2919 17.0176 83.7249C16.8563 83.8946 16.712 84.1069 16.5932 84.3106C16.5167 84.4464 16.4828 84.5059 16.4319 84.5059C16.3894 84.5059 16.3385 84.4634 16.2281 84.404C15.2943 83.8692 14.3604 83.0372 13.6898 82.1713C13.6304 82.0949 13.6389 82.0694 13.7237 81.9845ZM22.0518 80.6517H21.1265C20.286 80.6517 20.0059 80.6687 19.9549 80.6687C19.87 80.6687 19.8616 80.6602 19.8616 80.5753V79.9386C19.8616 79.8537 19.87 79.8452 19.9549 79.8452C20.0059 79.8452 20.286 79.8622 21.1265 79.8622H22.0518V79.8113C22.0518 79.3783 22.0433 79.1576 22.0009 78.9114C22.3065 78.9199 22.5951 78.9284 22.8668 78.9623C22.9517 78.9708 23.0111 79.0048 23.0111 79.0557C23.0111 79.1151 22.9856 79.1746 22.9602 79.2255C22.9262 79.3019 22.9007 79.4292 22.9007 79.8113V79.8622H24.0977C24.9297 79.8622 25.2183 79.8452 25.2608 79.8452C25.3542 79.8452 25.3627 79.8537 25.3627 79.9386V80.5753C25.3627 80.6602 25.3542 80.6687 25.2608 80.6687C25.2183 80.6687 24.9297 80.6517 24.0977 80.6517H22.9007V81.3054H23.6648C24.4713 81.3054 24.7599 81.2884 24.8109 81.2884C24.8957 81.2884 24.9042 81.2969 24.9042 81.3818C24.9042 81.4327 24.8873 81.611 24.8873 82.0609V82.9269C24.8873 83.3683 24.9042 83.5551 24.9042 83.606C24.9042 83.6909 24.8957 83.6994 24.8109 83.6994C24.7599 83.6994 24.4713 83.6824 23.6648 83.6824H22.8074C22.7649 84.022 22.7055 84.3106 22.6121 84.5483C22.5357 84.7351 22.4593 84.9049 22.3659 85.0662C23.1809 85.4737 24.2081 85.6434 25.507 85.6944C25.4051 85.8557 25.3117 86.0764 25.2523 86.3056C25.2014 86.5688 25.2014 86.5688 24.9297 86.5518C23.6563 86.4584 22.6546 86.1868 21.8481 85.7029C21.483 86.0255 20.9567 86.3141 20.1587 86.5688C20.0738 86.5943 20.0144 86.6112 19.9719 86.6112C19.887 86.6112 19.8531 86.5518 19.7852 86.399C19.6918 86.1783 19.5814 86 19.4456 85.8642C20.2606 85.6859 20.7869 85.4737 21.1519 85.202C20.8463 84.9388 20.5747 84.6247 20.337 84.2767C20.286 84.2003 20.2945 84.1833 20.3964 84.1239L20.8293 83.8777C20.9227 83.8267 20.9482 83.8267 20.9991 83.8946C21.2029 84.1748 21.4236 84.4125 21.6698 84.6162C21.7292 84.5144 21.7717 84.4125 21.8226 84.3021C21.8905 84.1239 21.9414 83.9201 21.9754 83.6824H21.3387C20.5322 83.6824 20.2436 83.6994 20.2011 83.6994C20.1162 83.6994 20.1077 83.6909 20.1077 83.606C20.1077 83.5551 20.1247 83.3683 20.1247 82.9269V82.0609C20.1247 81.611 20.1077 81.4412 20.1077 81.3818C20.1077 81.2969 20.1162 81.2884 20.2011 81.2884C20.2436 81.2884 20.5322 81.3054 21.3387 81.3054H22.0518V80.6517ZM22.8753 82.9608H24.0553V82.0355H22.9007L22.8753 82.9608ZM22.0518 82.0355H20.9397V82.9608H22.0348C22.0433 82.6891 22.0518 82.375 22.0518 82.0355ZM18.4523 85.2784V83.3259C18.4523 83.0202 18.4608 82.6552 18.4693 82.2901C18.3165 82.5109 18.1467 82.7231 17.9769 82.9269C17.9175 83.0033 17.8666 83.0372 17.8326 83.0372C17.7902 83.0372 17.7562 82.9863 17.7307 82.8844C17.6628 82.6043 17.5524 82.3411 17.4251 82.1713C18.1127 81.3988 18.6306 80.448 18.9617 79.4547C19.0296 79.2594 19.072 79.0557 19.089 78.852C19.3777 78.9284 19.6663 79.0133 19.904 79.1066C19.9974 79.1491 20.0483 79.1746 20.0483 79.234C20.0483 79.2934 20.0229 79.3359 19.9549 79.3868C19.8955 79.4292 19.8531 79.5056 19.7767 79.7264C19.6408 80.1169 19.4795 80.4904 19.3097 80.8554V85.2784C19.3097 86.1104 19.3267 86.5263 19.3267 86.5688C19.3267 86.6537 19.3182 86.6622 19.2333 86.6622H18.5287C18.4438 86.6622 18.4353 86.6537 18.4353 86.5688C18.4353 86.5179 18.4523 86.1104 18.4523 85.2784ZM33.3511 80.7536V84.5144C33.3511 84.9049 33.3681 85.3378 33.3681 85.6859C33.3681 86 33.2832 86.2122 33.088 86.3735C32.9267 86.5179 32.672 86.5943 31.9674 86.5943C31.7042 86.5943 31.7042 86.5943 31.6533 86.3481C31.5938 86.0764 31.5174 85.8811 31.4156 85.7029C31.7636 85.7283 31.9249 85.7368 32.2051 85.7368C32.4003 85.7368 32.4767 85.6519 32.4767 85.4567V84.0474H30.4817V85.0577C30.4817 85.8811 30.4987 86.2632 30.4987 86.3141C30.4987 86.399 30.4902 86.4075 30.4053 86.4075H29.6753C29.5904 86.4075 29.5819 86.399 29.5819 86.3141C29.5819 86.2547 29.5988 85.8811 29.5988 85.0577V84.0474H27.6633C27.5444 85.1001 27.3152 85.7538 26.9247 86.399C26.8568 86.5179 26.8143 86.5688 26.7719 86.5688C26.7294 86.5688 26.687 86.5263 26.5936 86.433C26.3899 86.2292 26.1946 86.1019 25.9909 86C26.6106 85.202 26.8653 84.1918 26.8653 82.1458V80.7536C26.8653 79.8707 26.8483 79.4123 26.8483 79.3613C26.8483 79.2679 26.8568 79.2594 26.9502 79.2594C27.0011 79.2594 27.2982 79.2764 28.1132 79.2764H32.1032C32.9267 79.2764 33.2153 79.2594 33.2747 79.2594C33.3596 79.2594 33.3681 79.2679 33.3681 79.3613C33.3681 79.4123 33.3511 79.8707 33.3511 80.7536ZM30.4817 83.2579H32.4767V82.0609H30.4817V83.2579ZM32.4767 80.0914H30.4817V81.2714H32.4767V80.0914ZM27.7227 83.2579H29.5988V82.0609H27.7482V82.1543C27.7482 82.5618 27.7397 82.9269 27.7227 83.2579ZM27.7482 81.2714H29.5988V80.0914H27.7482V81.2714Z" fill="#97634A"/>
<path d="M86.0017 147.334V145.883C85.5772 145.917 85.1443 145.951 84.5755 145.951C84.4312 145.951 84.3887 145.9 84.3717 145.772C84.3463 145.611 84.3123 145.331 84.2783 145.034C84.4991 145.068 84.7198 145.076 84.9405 145.076C85.2971 145.076 85.6621 145.042 86.0187 145.008C86.0187 144.728 86.0272 144.406 86.0272 144.04C86.0272 143.82 86.0187 143.574 85.9677 143.353C86.3922 143.378 86.7487 143.438 86.978 143.506C87.0798 143.531 87.1477 143.591 87.1477 143.667C87.1477 143.701 87.1308 143.743 87.0968 143.803C87.0374 143.913 86.9949 144.023 86.978 144.134C86.9525 144.355 86.944 144.567 86.9355 144.838C87.309 144.762 87.6571 144.652 88.0222 144.524C88.0986 144.499 88.158 144.516 88.1665 144.601C88.2004 144.813 88.2174 145.042 88.2174 145.263C88.2174 145.348 88.1919 145.373 88.107 145.399C87.5467 145.577 87.4024 145.619 86.8931 145.721C86.8846 146.129 86.8846 146.545 86.8761 146.952C87.6741 146.613 88.4212 146.477 88.9645 146.485C90.0172 146.494 90.7727 147.165 90.7727 148.183C90.7727 149.27 90.0766 149.907 88.9305 149.907C88.6843 149.907 88.4127 149.873 88.2344 149.83C88.0986 149.796 88.0476 149.711 88.0476 149.576C88.0306 149.389 87.9712 149.1 87.7929 148.854C88.2004 148.99 88.54 149.007 88.8541 149.007C89.3295 149.007 89.771 148.735 89.771 148.132C89.771 147.581 89.4314 147.275 88.8371 147.275C88.3532 147.275 87.7675 147.402 86.8931 147.852C86.9016 148.209 86.91 148.497 86.927 148.871C86.9525 149.244 86.9949 149.779 86.9949 149.975C86.9949 150.093 87.0119 150.221 86.8676 150.255C86.6808 150.306 86.4092 150.348 86.2394 150.357C86.146 150.365 86.112 150.297 86.0356 150.187C85.8064 149.873 85.365 149.465 84.8302 149.1C84.7368 149.151 84.6349 149.219 84.5585 149.287C84.516 149.329 84.4566 149.346 84.4142 149.346C84.3463 149.346 84.2783 149.295 84.2274 149.21C84.134 149.058 83.9642 148.701 83.8369 148.421C84.0576 148.37 84.3378 148.277 84.6179 148.124C84.983 147.92 85.382 147.691 86.0017 147.334ZM86.0441 148.226C85.8064 148.387 85.5178 148.582 85.2122 148.803C85.4499 148.93 85.7385 149.075 86.0102 149.185C86.0781 149.202 86.1036 149.194 86.0951 149.117C86.0781 148.896 86.0611 148.506 86.0441 148.226ZM88.8796 145.008C88.9899 144.779 89.1258 144.558 89.2701 144.346C89.3295 144.253 89.355 144.227 89.4144 144.244C90.1954 144.473 90.7727 144.83 91.2142 145.28C91.2481 145.314 91.2651 145.339 91.2651 145.365C91.2651 145.39 91.2481 145.416 91.2311 145.45C91.1208 145.619 90.9 145.883 90.7727 146.052C90.7472 146.086 90.6284 146.095 90.6029 146.052C90.153 145.552 89.5587 145.237 88.8796 145.008ZM97.5302 145.254H96.4606C95.6626 145.254 95.3909 145.271 95.34 145.271C95.2551 145.271 95.2466 145.263 95.2466 145.17V144.524C95.2466 144.439 95.2551 144.431 95.34 144.431C95.3909 144.431 95.6626 144.448 96.4606 144.448H97.5133V144.134C97.5048 143.565 97.5048 143.302 97.4538 142.92C97.7934 142.928 98.0226 142.945 98.3197 142.979C98.4046 142.996 98.4641 143.03 98.4641 143.073C98.4641 143.132 98.4386 143.183 98.4131 143.242C98.3622 143.344 98.3537 143.429 98.3537 143.896V144.448H98.6169C99.4064 144.448 99.678 144.431 99.729 144.431C99.8139 144.431 99.8224 144.439 99.8224 144.524V145.17C99.8224 145.263 99.8139 145.271 99.729 145.271C99.678 145.271 99.4064 145.254 98.6169 145.254H98.3792C98.4216 146.468 98.532 147.504 98.7187 148.412C98.8461 149.032 99.0159 149.397 99.1602 149.397C99.2875 149.397 99.3724 149.1 99.4064 148.268C99.5677 148.387 99.7375 148.48 99.8818 148.54C100.128 148.642 100.111 148.676 100.086 148.939C99.9667 150.076 99.695 150.475 99.2111 150.475C98.7442 150.475 98.2433 150.059 97.9123 148.701C97.6915 147.793 97.5727 146.57 97.5302 145.254ZM94.8561 148.625V149.21C94.8561 150.195 94.8731 150.382 94.8731 150.433C94.8731 150.518 94.8646 150.526 94.7797 150.526H94.16C94.0751 150.526 94.0666 150.518 94.0666 150.433V150.204H93.294V150.586C93.294 150.671 93.2856 150.679 93.2007 150.679H92.5894C92.496 150.679 92.4876 150.671 92.4876 150.586C92.4876 150.535 92.5045 150.34 92.5045 149.312V148.769C92.5045 148.234 92.4876 148.03 92.4876 147.971C92.4876 147.886 92.496 147.878 92.5894 147.878C92.6404 147.878 92.8186 147.895 93.362 147.895H93.9987C94.542 147.895 94.7203 147.878 94.7797 147.878C94.8646 147.878 94.8731 147.886 94.8731 147.971C94.8731 148.022 94.8561 148.226 94.8561 148.625ZM94.0666 148.599H93.294V149.508H94.0666V148.599ZM95.9173 146.171H96.537C97.0124 146.171 97.1482 146.154 97.1992 146.154C97.2925 146.154 97.301 146.163 97.301 146.256V146.842C97.301 146.935 97.2925 146.944 97.1992 146.944C97.1482 146.944 97.0294 146.935 96.6728 146.927V148.625C96.9784 148.531 97.2925 148.429 97.6151 148.311C97.5982 148.438 97.5897 148.625 97.5812 148.803C97.5812 149.075 97.5812 149.075 97.335 149.168C96.7407 149.397 96.1889 149.576 95.6626 149.728C95.4928 149.762 95.4419 149.796 95.3909 149.83C95.3485 149.864 95.306 149.881 95.2721 149.881C95.2211 149.881 95.1872 149.847 95.1617 149.771C95.1108 149.601 95.0344 149.278 94.9834 148.99C95.2551 148.964 95.4928 148.922 95.7305 148.871L95.8663 148.845V146.927C95.4334 146.927 95.306 146.944 95.2551 146.944C95.1702 146.944 95.1617 146.935 95.1617 146.842V146.256C95.1617 146.163 95.1702 146.154 95.2551 146.154C95.306 146.154 95.4419 146.171 95.9173 146.171ZM93.1582 144.389H94.0241C94.6693 144.389 94.8816 144.372 94.924 144.372C95.0089 144.372 95.0174 144.38 95.0174 144.465V145.068C95.0174 145.161 95.0089 145.17 94.924 145.17C94.8816 145.17 94.6693 145.153 94.0241 145.153H93.1582C92.5045 145.153 92.3008 145.17 92.2499 145.17C92.165 145.17 92.1565 145.161 92.1565 145.068V144.465C92.1565 144.38 92.165 144.372 92.2499 144.372C92.3008 144.372 92.5045 144.389 93.1582 144.389ZM93.3704 143.225H94.0241C94.5674 143.225 94.7372 143.209 94.7882 143.209C94.8816 143.209 94.8816 143.217 94.8816 143.302V143.862C94.8816 143.947 94.8816 143.956 94.7882 143.956C94.7372 143.956 94.5674 143.939 94.0241 143.939H93.3704C92.8186 143.939 92.6489 143.956 92.5979 143.956C92.513 143.956 92.5045 143.947 92.5045 143.862V143.302C92.5045 143.217 92.513 143.209 92.5979 143.209C92.6489 143.209 92.8186 143.225 93.3704 143.225ZM93.3789 145.594H93.9817C94.491 145.594 94.6439 145.577 94.6948 145.577C94.7882 145.577 94.7967 145.586 94.7967 145.67V146.222C94.7967 146.307 94.7882 146.316 94.6948 146.316C94.6439 146.316 94.491 146.299 93.9817 146.299H93.3789C92.8611 146.299 92.7083 146.316 92.6573 146.316C92.5724 146.316 92.564 146.307 92.564 146.222V145.67C92.564 145.586 92.5724 145.577 92.6573 145.577C92.7083 145.577 92.8611 145.594 93.3789 145.594ZM93.3789 146.74H93.9817C94.491 146.74 94.6439 146.723 94.6948 146.723C94.7882 146.723 94.7967 146.732 94.7967 146.816V147.36C94.7967 147.445 94.7882 147.453 94.6948 147.453C94.6439 147.453 94.491 147.436 93.9817 147.436H93.3789C92.8611 147.436 92.7083 147.453 92.6573 147.453C92.5724 147.453 92.564 147.445 92.564 147.36V146.816C92.564 146.732 92.5724 146.723 92.6573 146.723C92.7083 146.723 92.8611 146.74 93.3789 146.74ZM98.6848 143.302L99.0753 143.132C99.1772 143.081 99.1942 143.09 99.2536 143.166C99.4488 143.429 99.5847 143.675 99.729 143.998C99.7629 144.074 99.7375 144.108 99.6271 144.159L99.2281 144.346C99.1093 144.406 99.1008 144.389 99.0753 144.304C98.948 143.973 98.8036 143.709 98.6169 143.446C98.5659 143.37 98.5829 143.344 98.6848 143.302ZM102.522 143.302C102.912 143.344 103.32 143.387 103.583 143.455C103.727 143.489 103.787 143.531 103.787 143.616C103.787 143.709 103.736 143.811 103.702 143.896C103.66 144.015 103.626 144.278 103.583 144.932C103.498 146.239 103.456 147.105 103.456 148.217C103.456 149.075 103.558 149.27 104.237 149.27C104.992 149.27 106.172 148.811 107.208 147.708C107.242 148.03 107.318 148.311 107.403 148.514C107.446 148.608 107.471 148.667 107.471 148.718C107.471 148.795 107.437 148.862 107.301 148.981C106.385 149.822 105.188 150.255 104.084 150.255C102.997 150.255 102.488 149.822 102.488 148.523C102.488 147.097 102.564 145.874 102.607 144.855C102.624 144.355 102.649 143.811 102.522 143.302ZM112.854 144.304H112.624C111.792 144.304 111.512 144.321 111.461 144.321C111.376 144.321 111.368 144.312 111.368 144.227V143.599C111.368 143.506 111.376 143.497 111.461 143.497C111.512 143.497 111.792 143.514 112.624 143.514H115.63C116.462 143.514 116.742 143.497 116.793 143.497C116.877 143.497 116.886 143.506 116.886 143.599V144.227C116.886 144.312 116.877 144.321 116.793 144.321C116.742 144.321 116.462 144.304 115.63 144.304H115.086V145.611H115.349C116.173 145.611 116.47 145.594 116.529 145.594C116.614 145.594 116.623 145.603 116.623 145.687C116.623 145.738 116.606 146.069 116.606 147.08V148.557C116.606 150.051 116.623 150.365 116.623 150.416C116.623 150.501 116.614 150.509 116.529 150.509H115.867C115.782 150.509 115.774 150.501 115.774 150.416V150.059H112.217V150.45C112.217 150.535 112.208 150.543 112.123 150.543H111.47C111.385 150.543 111.376 150.535 111.376 150.45C111.376 150.399 111.393 150.085 111.393 148.582V147.241C111.393 146.069 111.376 145.747 111.376 145.687C111.376 145.603 111.385 145.594 111.47 145.594C111.521 145.594 111.809 145.611 112.633 145.611H112.854V144.304ZM115.774 146.358H115.086V149.304H115.774V146.358ZM113.643 149.304H114.297V146.358H113.643V149.304ZM112.217 149.304H112.854V146.358H112.217V149.304ZM113.643 145.611H114.297V144.304H113.643V145.611ZM109.84 149.312V147.513C109.84 147.207 109.84 146.825 109.848 146.46C109.721 146.647 109.577 146.825 109.424 147.012C109.356 147.088 109.305 147.131 109.271 147.131C109.22 147.131 109.195 147.08 109.178 146.986C109.127 146.698 109.025 146.392 108.923 146.214C109.577 145.45 110.035 144.516 110.375 143.48C110.434 143.276 110.485 143.081 110.51 142.869C110.791 142.954 111.054 143.039 111.291 143.158C111.376 143.192 111.427 143.234 111.427 143.31C111.427 143.37 111.385 143.412 111.334 143.463C111.275 143.514 111.241 143.591 111.164 143.803C111.011 144.236 110.859 144.635 110.68 145.017V149.312C110.68 150.136 110.697 150.552 110.697 150.594C110.697 150.679 110.689 150.688 110.604 150.688H109.916C109.831 150.688 109.823 150.679 109.823 150.594C109.823 150.543 109.84 150.136 109.84 149.312ZM122.421 143.701H124C124.068 143.701 124.119 143.692 124.153 143.675C124.187 143.658 124.221 143.65 124.246 143.65C124.314 143.65 124.391 143.675 124.577 143.871C124.756 144.074 124.781 144.134 124.781 144.202C124.781 144.261 124.756 144.304 124.688 144.355C124.628 144.397 124.577 144.456 124.492 144.609C124.212 145.136 123.864 145.611 123.44 146.044C124.059 146.46 124.781 146.757 125.562 146.935C125.443 147.114 125.35 147.317 125.299 147.521C125.231 147.784 125.231 147.784 124.968 147.716C124.841 147.674 124.705 147.631 124.586 147.581C124.586 147.64 124.569 147.878 124.569 148.412V149.16C124.569 150.314 124.586 150.526 124.586 150.569C124.586 150.654 124.577 150.662 124.492 150.662H123.822C123.737 150.662 123.728 150.654 123.728 150.569V150.238H121.75V150.577C121.75 150.662 121.742 150.671 121.657 150.671H121.003C120.918 150.671 120.91 150.662 120.91 150.577C120.91 150.526 120.927 150.314 120.927 149.168V148.523C120.927 148.073 120.918 147.835 120.91 147.708L120.655 147.81C120.562 147.844 120.502 147.869 120.452 147.869C120.375 147.869 120.341 147.801 120.273 147.64C120.214 147.47 120.103 147.283 119.985 147.148C120.842 146.876 121.589 146.494 122.2 146.044C121.937 145.772 121.708 145.475 121.513 145.153C121.334 145.365 121.148 145.56 120.944 145.747C120.842 145.84 120.791 145.883 120.749 145.883C120.698 145.883 120.647 145.832 120.562 145.721C120.443 145.577 120.316 145.45 120.171 145.356C120.078 145.356 119.925 145.348 119.704 145.348C119.934 145.747 120.205 146.086 120.511 146.367C120.401 146.519 120.299 146.706 120.239 146.901C120.205 147.012 120.188 147.063 120.146 147.063C120.12 147.063 120.078 147.02 120.019 146.935C119.874 146.74 119.73 146.519 119.611 146.282C119.611 148.582 119.67 150.424 119.67 150.569C119.67 150.662 119.662 150.671 119.569 150.671H118.881C118.796 150.671 118.788 150.662 118.788 150.569C118.788 150.433 118.839 148.795 118.847 146.808C118.652 147.496 118.363 148.132 118.015 148.684C117.964 148.769 117.922 148.82 117.888 148.82C117.854 148.82 117.82 148.778 117.794 148.684C117.726 148.463 117.625 148.234 117.497 148.039C118.058 147.292 118.49 146.434 118.771 145.348H118.592C117.998 145.348 117.811 145.365 117.76 145.365C117.684 145.365 117.675 145.356 117.675 145.271V144.669C117.675 144.584 117.684 144.575 117.76 144.575C117.811 144.575 117.998 144.592 118.592 144.592H118.822V144.057C118.822 143.531 118.813 143.251 118.754 142.894C119.076 142.903 119.339 142.92 119.603 142.954C119.687 142.962 119.747 142.996 119.747 143.047C119.747 143.115 119.721 143.166 119.696 143.225C119.645 143.327 119.637 143.463 119.637 144.04V144.592C120.137 144.592 120.299 144.575 120.35 144.575C120.435 144.575 120.443 144.584 120.443 144.669V145.102C120.969 144.584 121.402 143.964 121.691 143.31C121.767 143.141 121.818 142.988 121.852 142.826C122.141 142.869 122.404 142.92 122.633 142.979C122.727 143.005 122.769 143.039 122.769 143.081C122.769 143.124 122.744 143.158 122.701 143.2C122.633 143.259 122.591 143.327 122.54 143.438L122.421 143.701ZM121.75 148.285V149.499H123.728V148.285H121.75ZM121.36 147.513H123.491C124 147.513 124.263 147.504 124.391 147.504C123.813 147.258 123.287 146.969 122.829 146.604C122.404 146.944 121.912 147.249 121.36 147.513ZM122.022 144.431L121.988 144.49C122.2 144.881 122.48 145.229 122.803 145.535C123.16 145.187 123.448 144.813 123.652 144.431H122.022Z" fill="#97634A"/>
<path d="M173.092 74.217H175.435C176.242 74.217 176.513 74.2 176.573 74.2C176.658 74.2 176.666 74.2085 176.666 74.2934C176.666 74.3528 176.649 74.5736 176.649 75.0829V76.3139C176.649 76.8232 176.666 77.044 176.666 77.0949C176.666 77.1883 176.658 77.1968 176.573 77.1968C176.513 77.1968 176.242 77.1798 175.435 77.1798H173.092C172.294 77.1798 172.014 77.1968 171.963 77.1968C171.878 77.1968 171.87 77.1883 171.87 77.0949C171.87 77.044 171.887 76.8232 171.887 76.3139V75.0829C171.887 74.5736 171.87 74.3528 171.87 74.2934C171.87 74.2085 171.878 74.2 171.963 74.2C172.014 74.2 172.294 74.217 173.092 74.217ZM172.761 75.032V76.3648H175.775V75.032H172.761ZM175.35 81.6452H174.688C174.612 81.6452 174.603 81.6367 174.603 81.5518C174.603 81.4924 174.62 81.2547 174.62 79.9558V79.1663C174.62 78.3598 174.603 78.1136 174.603 78.0627C174.603 77.9693 174.612 77.9608 174.688 77.9608C174.748 77.9608 174.968 77.9778 175.622 77.9778H176.794C177.447 77.9778 177.668 77.9608 177.719 77.9608C177.804 77.9608 177.812 77.9693 177.812 78.0627C177.812 78.1136 177.795 78.3598 177.795 79.039V79.9473C177.795 81.2207 177.812 81.4584 177.812 81.5094C177.812 81.6027 177.804 81.6112 177.719 81.6112H177.048C176.963 81.6112 176.955 81.6027 176.955 81.5094V81.1358H175.444V81.5518C175.444 81.6367 175.435 81.6452 175.35 81.6452ZM175.444 78.7758V80.3463H176.955V78.7758H175.444ZM171.471 81.6452H170.8C170.715 81.6452 170.707 81.6367 170.707 81.5433C170.707 81.4924 170.724 81.2547 170.724 79.9558V79.1663C170.724 78.3513 170.707 78.1136 170.707 78.0542C170.707 77.9693 170.715 77.9608 170.8 77.9608C170.86 77.9608 171.072 77.9778 171.7 77.9778H172.812C173.449 77.9778 173.661 77.9608 173.72 77.9608C173.805 77.9608 173.814 77.9693 173.814 78.0542C173.814 78.1051 173.797 78.3513 173.797 79.022V79.9134C173.797 81.1868 173.814 81.433 173.814 81.4839C173.814 81.5688 173.805 81.5773 173.72 81.5773H173.058C172.982 81.5773 172.973 81.5688 172.973 81.4839V81.1358H171.564V81.5433C171.564 81.6367 171.556 81.6452 171.471 81.6452ZM171.564 78.7758V80.3463H172.973V78.7758H171.564ZM181.785 76.7468H182.999C182.957 76.7299 182.923 76.7044 182.872 76.6534C182.719 76.5176 182.532 76.4157 182.346 76.3309C182.855 75.8894 182.991 75.5329 182.991 74.8707C182.991 74.5651 182.991 74.3019 182.957 74.1236C183.254 74.1576 183.466 74.2 183.721 74.2594C184.256 74.217 184.842 74.1236 185.241 74.0302C185.385 73.9878 185.512 73.9453 185.64 73.8859C185.818 74.0387 185.928 74.1746 186.089 74.3783C186.132 74.4292 186.166 74.4802 186.166 74.5396C186.166 74.582 186.14 74.6245 186.064 74.6245C185.971 74.6245 185.869 74.616 185.724 74.6415C185.164 74.7603 184.561 74.8282 183.78 74.8792V75.1678C183.78 75.2018 183.772 75.2357 183.772 75.2697H185.275C186.098 75.2697 186.387 75.2527 186.438 75.2527C186.514 75.2527 186.522 75.2612 186.522 75.3546V75.8385C186.522 75.9234 186.514 75.9319 186.438 75.9319C186.387 75.9319 186.098 75.9149 185.275 75.9149H185.241V76.3224C185.241 76.5091 185.241 76.645 185.249 76.7383C185.359 76.7383 185.427 76.7299 185.453 76.7299C185.538 76.7299 185.546 76.7383 185.546 76.8232C185.546 76.8827 185.529 77.1289 185.529 77.6891V79.3785C185.529 79.9388 185.546 80.185 185.546 80.236C185.546 80.3293 185.538 80.3378 185.453 80.3378C185.393 80.3378 185.096 80.3209 184.273 80.3209H184.128C184.808 80.6944 185.623 80.8981 186.582 80.9915C186.463 81.1443 186.353 81.3226 186.268 81.5009C186.191 81.6622 186.157 81.7216 186.073 81.7216C186.03 81.7216 185.971 81.7131 185.877 81.6961C185.02 81.5433 184.128 81.2377 183.5 80.8472C183.415 80.7963 183.424 80.7878 183.526 80.7199L184.018 80.3209H181.378C181.556 80.4227 181.726 80.5161 181.887 80.6434C181.972 80.7029 181.998 80.7368 181.998 80.7708C181.998 80.8302 181.964 80.8727 181.87 80.8896C181.777 80.9151 181.684 80.966 181.539 81.034C181.072 81.2717 180.393 81.5348 179.612 81.6791C179.527 81.6961 179.468 81.7046 179.425 81.7046C179.332 81.7046 179.306 81.6622 179.222 81.4924C179.145 81.3311 179.035 81.1698 178.891 81.0085C179.655 80.9236 180.461 80.7283 180.953 80.4991C181.055 80.4482 181.149 80.3973 181.251 80.3209C180.427 80.3209 180.138 80.3378 180.088 80.3378C179.994 80.3378 179.986 80.3293 179.986 80.236C179.986 80.185 180.003 79.9388 180.003 79.3785V77.6891C180.003 77.1289 179.986 76.8827 179.986 76.8232C179.986 76.7383 179.994 76.7299 180.088 76.7299C180.13 76.7299 180.368 76.7468 180.962 76.7468C180.962 76.6534 180.97 76.5176 180.97 76.3309V75.9149H180.215C180.13 76.2969 179.969 76.6704 179.68 77.0524C179.604 77.1628 179.57 77.2222 179.519 77.2222C179.476 77.2222 179.425 77.1713 179.332 77.0779C179.162 76.9081 178.992 76.7808 178.806 76.6789C179.391 76.1696 179.502 75.5583 179.502 74.8282C179.502 74.5651 179.493 74.3274 179.459 74.1406C179.739 74.1746 179.977 74.2085 180.223 74.2594C180.767 74.217 181.251 74.1321 181.65 74.0302C181.794 74.0048 181.938 73.9538 182.049 73.8859C182.227 74.0302 182.346 74.1746 182.507 74.3783C182.549 74.4292 182.592 74.4802 182.592 74.5396C182.592 74.582 182.549 74.633 182.465 74.633C182.388 74.633 182.286 74.6245 182.142 74.6584C181.565 74.7773 181.055 74.8367 180.291 74.8877V75.2697H181.505C182.244 75.2697 182.482 75.2527 182.532 75.2527C182.617 75.2527 182.626 75.2612 182.626 75.3546V75.8385C182.626 75.9234 182.617 75.9319 182.532 75.9319C182.49 75.9319 182.286 75.9234 181.777 75.9149V76.3309C181.777 76.5176 181.777 76.6534 181.785 76.7468ZM184.672 79.7011V79.2682H180.852V79.7011H184.672ZM180.852 78.7249H184.672V78.3174H180.852V78.7249ZM184.672 77.375H180.852V77.774H184.672V77.375ZM184.434 75.9149H183.653C183.568 76.1526 183.441 76.3903 183.254 76.6025C183.195 76.6789 183.144 76.7299 183.101 76.7468H184.426C184.426 76.6534 184.434 76.5176 184.434 76.3224V75.9149Z" fill="#97634A"/>
<path d="M82.2833 7.42772H80.7807C79.9997 7.42772 79.7365 7.4447 79.6856 7.4447C79.6007 7.4447 79.5922 7.43621 79.5922 7.35132V6.72311C79.5922 6.63821 79.6007 6.62972 79.6856 6.62972C79.7365 6.62972 79.9997 6.6467 80.7807 6.6467H82.7672V6.35806C82.7672 5.97604 82.7588 5.79777 82.7078 5.45819C83.0134 5.46668 83.3275 5.49215 83.6162 5.51762C83.7011 5.52611 83.752 5.57704 83.752 5.61949C83.752 5.68741 83.718 5.74683 83.6926 5.82323C83.6501 5.92511 83.6416 6.10338 83.6416 6.34958V6.6467H85.73C86.5026 6.6467 86.7657 6.62972 86.8167 6.62972C86.91 6.62972 86.9185 6.63821 86.9185 6.72311V7.35132C86.9185 7.43621 86.91 7.4447 86.8167 7.4447C86.7657 7.4447 86.5026 7.42772 85.73 7.42772H84.0916C84.8217 8.33609 86.0102 9.01523 87.2666 9.42272C87.1053 9.57553 86.9695 9.77079 86.8676 9.99151C86.7997 10.1443 86.7657 10.2037 86.6978 10.2037C86.6469 10.2037 86.5875 10.1698 86.4856 10.1273C85.348 9.62647 84.2868 8.8794 83.6162 7.94557C83.6332 9.42272 83.6586 10.3481 83.6586 10.5603C83.6586 10.6452 83.6501 10.6537 83.5652 10.6537H82.8352C82.7503 10.6537 82.7418 10.6452 82.7418 10.5603C82.7418 10.3566 82.7757 9.42272 82.7842 7.97104C82.1136 8.8794 81.1288 9.60949 80.0506 10.1358C79.9573 10.1868 79.8978 10.2122 79.8554 10.2122C79.7875 10.2122 79.7535 10.1443 79.6771 10C79.5668 9.78777 79.4394 9.60949 79.2866 9.47366C80.4921 9.03221 81.5957 8.28515 82.2833 7.42772ZM80.577 3.26794L81.1203 3.07268C81.2222 3.03024 81.2222 3.03024 81.2816 3.10664C81.5278 3.42924 81.6976 3.71787 81.8759 4.09141C81.9098 4.15932 81.9013 4.19328 81.791 4.23572L81.2561 4.43947H84.4821C84.6604 4.12536 84.8217 3.79428 84.983 3.41226C85.0254 3.30189 85.0679 3.16606 85.1018 2.96232C85.3989 3.02175 85.713 3.12362 85.9508 3.217C86.0272 3.25096 86.0696 3.28492 86.0696 3.33585C86.0696 3.38679 86.0526 3.41226 85.9932 3.46319C85.9423 3.51413 85.8828 3.56507 85.8404 3.64147C85.6876 3.93011 85.5348 4.18479 85.3735 4.43947H85.5433C86.3497 4.43947 86.6299 4.42249 86.6893 4.42249C86.7742 4.42249 86.7827 4.43098 86.7827 4.52436C86.7827 4.5753 86.7657 4.71113 86.7657 4.92336V5.26294C86.7657 5.97604 86.7827 6.10338 86.7827 6.15432C86.7827 6.23921 86.7742 6.2477 86.6893 6.2477H85.9847C85.8998 6.2477 85.8913 6.23921 85.8913 6.15432V5.22049H80.6704V6.14583C80.6704 6.23921 80.6619 6.2477 80.577 6.2477H79.8724C79.7875 6.2477 79.779 6.23921 79.779 6.14583C79.779 6.09489 79.796 5.96755 79.796 5.26294V4.99128C79.796 4.71113 79.779 4.5753 79.779 4.52436C79.779 4.43098 79.7875 4.42249 79.8724 4.42249C79.9318 4.42249 80.2204 4.43947 81.0184 4.43947H81.0609C80.8656 3.98104 80.7213 3.71787 80.5176 3.40377C80.4666 3.32736 80.4751 3.30189 80.577 3.26794ZM82.5805 3.10664L83.1068 2.92836C83.2087 2.89441 83.2257 2.90289 83.2766 2.9793C83.5313 3.35283 83.6671 3.63298 83.8199 4.015C83.8539 4.09989 83.8539 4.11687 83.7435 4.15932L83.1747 4.37155C83.0474 4.414 83.0389 4.414 83.0049 4.32911C82.8606 3.92162 82.6908 3.5396 82.5041 3.24247C82.4531 3.15758 82.4616 3.14909 82.5805 3.10664ZM89.7964 6.1713H89.2192C88.4466 6.1713 88.1919 6.18828 88.141 6.18828C88.0561 6.18828 88.0476 6.17979 88.0476 6.09489V5.61949C88.0476 5.5346 88.0561 5.52611 88.141 5.52611C88.1919 5.52611 88.4466 5.54309 89.2192 5.54309H91.2651V5.16106H90.136C89.304 5.16106 89.0154 5.17804 88.9645 5.17804C88.8796 5.17804 88.8711 5.16955 88.8711 5.08466V4.66019C88.8711 4.58379 88.8796 4.5753 88.9645 4.5753C89.0154 4.5753 89.304 4.59228 90.136 4.59228H91.2651V4.19328H89.6946C88.8796 4.19328 88.6079 4.21026 88.557 4.21026C88.4721 4.21026 88.4636 4.20177 88.4636 4.11687V3.65845C88.4636 3.57355 88.4721 3.56507 88.557 3.56507C88.6079 3.56507 88.8796 3.58204 89.6946 3.58204H90.1275C90.0426 3.4547 89.9407 3.31038 89.8219 3.16606C89.7625 3.08966 89.754 3.07268 89.8728 3.03872L90.4162 2.88592C90.5095 2.86045 90.5265 2.84347 90.5775 2.91987C90.7557 3.12362 90.9255 3.34434 91.0698 3.58204H92.3432C92.4112 3.46319 92.4876 3.34434 92.564 3.19153C92.6234 3.08117 92.6658 2.97081 92.7083 2.818C92.9799 2.86894 93.2346 2.92836 93.4893 3.01326C93.5487 3.03024 93.5997 3.0557 93.5997 3.10664C93.5997 3.16606 93.5487 3.20002 93.5063 3.22549C93.4469 3.26794 93.3874 3.32736 93.345 3.40377C93.3025 3.46319 93.2686 3.52262 93.2346 3.58204H93.8204C94.6354 3.58204 94.907 3.56507 94.958 3.56507C95.0429 3.56507 95.0513 3.57355 95.0513 3.65845V4.11687C95.0513 4.20177 95.0429 4.21026 94.958 4.21026C94.907 4.21026 94.6354 4.19328 93.8204 4.19328H92.131V4.59228H93.362C94.1854 4.59228 94.4741 4.5753 94.525 4.5753C94.6184 4.5753 94.6269 4.58379 94.6269 4.66019V5.08466C94.6269 5.16955 94.6184 5.17804 94.525 5.17804C94.4741 5.17804 94.1854 5.16106 93.362 5.16106H92.131V5.54309H94.2873C95.0598 5.54309 95.3145 5.52611 95.3654 5.52611C95.4503 5.52611 95.4588 5.5346 95.4588 5.61949V6.09489C95.4588 6.17979 95.4503 6.18828 95.3654 6.18828C95.3145 6.18828 95.0598 6.1713 94.2873 6.1713H93.6336C94.1515 6.75706 94.8476 7.15606 95.8239 7.42772C95.6796 7.58902 95.5777 7.75032 95.4928 7.95406C95.4334 8.10687 95.4079 8.17479 95.34 8.17479C95.2975 8.17479 95.2381 8.14932 95.1447 8.10687C94.6608 7.90313 94.2364 7.64845 93.8628 7.35981V8.1663C93.8628 8.59077 93.8798 8.78602 93.8798 8.83696C93.8798 8.86243 93.8798 8.87092 93.8713 8.89638L93.9732 8.81149C94.0666 8.71811 94.1769 8.60774 94.2533 8.4804C94.4741 8.58228 94.6863 8.70962 94.8646 8.82847C94.907 8.86243 94.9495 8.88789 94.9495 8.93034C94.9495 8.98128 94.9155 9.00674 94.8476 9.03221C94.7797 9.05768 94.7372 9.08315 94.6014 9.19351C94.3977 9.35481 94.1515 9.53309 93.8883 9.69438C94.3382 9.80474 94.8561 9.87266 95.4503 9.90662C95.34 10.0255 95.2381 10.2292 95.1702 10.433C95.0853 10.6791 95.0598 10.6791 94.7967 10.6452C93.6761 10.5009 92.7507 10.2207 91.9952 9.601C91.9782 9.6774 91.9697 9.7623 91.9612 9.83021C91.9357 10.1104 91.9357 10.1104 91.6811 10.1528C90.8746 10.3141 90.0002 10.4499 89.0833 10.5433C88.939 10.5603 88.8456 10.5858 88.8032 10.6112C88.7692 10.6282 88.7268 10.6537 88.6758 10.6537C88.6334 10.6537 88.5994 10.6197 88.574 10.5348C88.523 10.3905 88.4466 10.0934 88.3872 9.83021C88.7268 9.83021 88.973 9.81323 89.2956 9.78777L89.5502 9.7623V7.47017C89.2107 7.74183 88.8456 7.97104 88.4466 8.1663C88.3447 8.21723 88.2853 8.2427 88.2429 8.2427C88.1835 8.2427 88.1495 8.18328 88.0901 8.04745C88.0137 7.86917 87.8863 7.69089 87.759 7.57204C88.6419 7.19002 89.3295 6.70613 89.7964 6.1713ZM90.2803 6.78253H91.3075V6.76555C91.3075 6.6467 91.299 6.46843 91.2651 6.30713L92.0461 6.3326C92.131 6.34109 92.1904 6.37504 92.1904 6.41749C92.1904 6.45145 92.165 6.4854 92.131 6.53634C92.097 6.59577 92.097 6.68066 92.097 6.76555V6.78253H93.2261C93.0479 6.58728 92.8781 6.38353 92.7337 6.1713H90.7812C90.6199 6.38353 90.4586 6.59577 90.2803 6.78253ZM93.0988 8.39551V8.0814H90.3652V8.39551H93.0988ZM90.3652 8.90487V9.6774C90.8406 9.61798 91.333 9.54157 91.8254 9.44819C91.6471 9.28689 91.4858 9.10862 91.3245 8.90487H90.3652ZM93.0988 7.29189H90.3652V7.58902H93.0988V7.29189ZM93.8459 8.92185H93.7864C93.7355 8.92185 93.3959 8.90487 92.6828 8.90487H92.2668C92.5045 9.11711 92.7847 9.29538 93.0988 9.4397C93.3874 9.26143 93.6421 9.08315 93.8459 8.92185ZM96.3842 8.6417C97.2756 7.85219 97.8868 6.8844 98.2264 6.11187C98.4556 5.59402 98.5829 5.16106 98.6084 4.85545C99.0413 5.00826 99.4234 5.16106 99.6611 5.28841C99.7375 5.32236 99.7629 5.3733 99.7629 5.42423C99.7629 5.48366 99.729 5.54309 99.678 5.59402C99.5847 5.68741 99.5167 5.80626 99.3809 6.11187C98.88 7.24096 98.3792 8.10687 97.5642 8.9643C97.4878 9.04919 97.4114 9.09164 97.3265 9.09164C97.2586 9.09164 97.1992 9.06617 97.1312 9.00674C96.9614 8.87092 96.6898 8.73509 96.3842 8.6417ZM100.722 5.41575C101.028 5.212 101.257 5.0507 101.401 4.95732C101.444 4.92336 101.486 4.90638 101.52 4.90638C101.563 4.90638 101.597 4.92336 101.648 4.9743C102.573 5.89964 103.286 7.00326 103.778 8.08989C103.804 8.13234 103.812 8.1663 103.812 8.20874C103.812 8.25968 103.787 8.30213 103.727 8.34457C103.566 8.47192 103.295 8.65019 103.023 8.79451C102.912 8.84545 102.853 8.82847 102.819 8.71811C102.191 7.30038 101.563 6.30713 100.722 5.41575ZM101.945 4.2527L102.395 3.9386C102.437 3.90464 102.471 3.91313 102.522 3.95558C102.785 4.15932 103.091 4.49889 103.328 4.86394C103.362 4.91487 103.362 4.95732 103.303 4.99977L102.946 5.26294C102.887 5.30538 102.845 5.29689 102.802 5.23747C102.547 4.84696 102.276 4.52436 101.945 4.2527ZM102.726 3.69241L103.15 3.38679C103.201 3.35283 103.227 3.36132 103.278 3.40377C103.592 3.64147 103.897 3.98104 104.084 4.27817C104.118 4.32911 104.126 4.38004 104.059 4.43098L103.719 4.69415C103.651 4.74509 103.609 4.71962 103.575 4.66868C103.345 4.30364 103.074 3.98104 102.726 3.69241ZM109.602 4.44796H107.921C107.539 4.44796 107.115 4.45645 106.758 4.48192C106.673 4.48192 106.648 4.43098 106.639 4.29515C106.614 4.11687 106.597 3.74334 106.597 3.48017C107.115 3.53111 107.369 3.5396 107.989 3.5396H109.517C110.069 3.5396 110.519 3.51413 110.85 3.49715C110.926 3.49715 110.952 3.5396 110.952 3.63298C110.969 3.84521 110.969 4.08292 110.952 4.29515C110.952 4.43947 110.926 4.47343 110.799 4.46494C110.519 4.46494 110.12 4.44796 109.602 4.44796ZM110.247 6.26468L107.352 6.27317C106.928 6.27317 106.503 6.28166 106.079 6.30713C106.003 6.30713 105.969 6.25619 105.952 6.14583C105.901 5.9336 105.884 5.61949 105.858 5.28841C106.342 5.33934 106.86 5.35632 107.42 5.35632H110.332C110.477 5.35632 110.646 5.33934 110.782 5.26294C110.825 5.22898 110.859 5.212 110.892 5.212C110.935 5.212 110.977 5.23747 111.02 5.27143C111.224 5.43272 111.453 5.64496 111.589 5.79777C111.648 5.85719 111.674 5.91662 111.674 5.97604C111.674 6.02698 111.648 6.0864 111.58 6.13734C111.444 6.2477 111.385 6.34109 111.291 6.53634C110.443 8.34457 109.466 9.40574 107.828 10.2886C107.76 10.3226 107.709 10.3481 107.658 10.3481C107.599 10.3481 107.539 10.3141 107.471 10.2462C107.242 10.0424 106.97 9.91511 106.682 9.80474C108.252 9.07466 109.636 7.90313 110.247 6.26468ZM114.127 4.71113C114.314 4.48192 114.56 4.21875 114.721 4.04896C114.755 4.00651 114.798 3.98104 114.84 3.98104C114.874 3.98104 114.908 3.99802 114.95 4.02349C115.383 4.2527 116.088 4.77055 116.572 5.22898C116.623 5.27992 116.648 5.31387 116.648 5.34783C116.648 5.38179 116.631 5.41575 116.597 5.45819C116.47 5.62798 116.19 5.96755 116.071 6.09489C116.029 6.13734 116.003 6.16281 115.969 6.16281C115.935 6.16281 115.901 6.13734 115.859 6.09489C115.349 5.56855 114.738 5.08466 114.127 4.71113ZM114.314 8.94732C114.747 8.82847 115.01 8.75206 115.46 8.52285C116.495 7.98802 117.047 7.63147 117.905 6.94383C118.94 6.10338 119.509 5.56006 120.231 4.63472C120.282 5.05919 120.358 5.34783 120.468 5.62798C120.494 5.68741 120.511 5.73834 120.511 5.78928C120.511 5.86568 120.468 5.9336 120.375 6.04396C119.925 6.5703 119.195 7.24945 118.423 7.8437C117.718 8.39551 117.005 8.87092 115.859 9.50762C115.477 9.73683 115.366 9.82172 115.29 9.89813C115.239 9.94906 115.188 9.98302 115.137 9.98302C115.095 9.98302 115.044 9.94906 114.993 9.88964C114.781 9.65194 114.517 9.30387 114.314 8.94732ZM124.416 4.09989H126.751C127.056 4.09989 127.209 4.09141 127.336 4.02349C127.37 3.99802 127.396 3.98953 127.43 3.98953C127.481 3.98953 127.523 4.02349 127.574 4.05745C127.769 4.21026 127.965 4.43098 128.126 4.6517C128.151 4.69415 128.168 4.72811 128.168 4.76206C128.168 4.813 128.134 4.87243 128.058 4.93185C127.948 5.02523 127.837 5.15258 127.744 5.30538C127.396 5.89964 127.065 6.37504 126.657 6.89289C127.472 7.49564 128.228 8.15781 129.009 8.94732C129.051 8.98977 129.077 9.03221 129.077 9.06617C129.077 9.10013 129.06 9.14257 129.017 9.19351C128.856 9.38877 128.661 9.59251 128.448 9.77079C128.415 9.80474 128.381 9.82172 128.347 9.82172C128.304 9.82172 128.27 9.79626 128.228 9.75381C127.515 8.92185 126.785 8.25119 126.021 7.64845C125.061 8.65019 124.093 9.37179 123.168 9.88964C123.092 9.9236 123.032 9.95755 122.973 9.95755C122.922 9.95755 122.871 9.93209 122.829 9.88115C122.642 9.65194 122.396 9.48215 122.115 9.32934C123.44 8.65868 124.229 8.05594 125.104 7.16455C125.715 6.52785 126.182 5.92511 126.7 5.03372L124.509 5.04221C124.068 5.04221 123.627 5.05919 123.168 5.09315C123.1 5.10164 123.075 5.04221 123.058 4.94883C123.015 4.77055 122.981 4.36306 122.981 4.06594C123.44 4.09989 123.864 4.09989 124.416 4.09989Z" fill="#97634A"/>
<rect x="44" y="78.5166" width="85.5834" height="85.5834" transform="rotate(-45 44 78.5166)" fill="white"/>
<path d="M103.249 16.7009V22H102.375V17.7382L101.08 18.1771V17.4553L103.144 16.7009H103.249ZM108.155 18.917V19.7802C108.155 20.1937 108.114 20.5468 108.032 20.8393C107.952 21.1295 107.836 21.3653 107.684 21.5466C107.531 21.728 107.349 21.861 107.136 21.9456C106.926 22.0302 106.69 22.0725 106.429 22.0725C106.221 22.0725 106.027 22.0459 105.849 21.9927C105.672 21.9395 105.512 21.8561 105.37 21.7425C105.227 21.6288 105.105 21.4825 105.003 21.3036C104.904 21.1223 104.827 20.9058 104.771 20.6544C104.718 20.4029 104.692 20.1115 104.692 19.7802V18.917C104.692 18.5011 104.733 18.1505 104.815 17.8652C104.897 17.5774 105.014 17.3441 105.167 17.1651C105.319 16.9838 105.5 16.852 105.711 16.7698C105.923 16.6876 106.16 16.6465 106.422 16.6465C106.632 16.6465 106.825 16.6731 107.002 16.7263C107.181 16.7771 107.34 16.8581 107.481 16.9693C107.623 17.0805 107.744 17.2256 107.843 17.4045C107.945 17.5811 108.022 17.795 108.076 18.0465C108.129 18.2956 108.155 18.5857 108.155 18.917ZM107.281 19.9036V18.7864C107.281 18.5761 107.269 18.3911 107.245 18.2315C107.221 18.0695 107.184 17.9329 107.136 17.8216C107.09 17.708 107.032 17.6161 106.962 17.546C106.892 17.4734 106.812 17.4215 106.723 17.39C106.633 17.3562 106.533 17.3392 106.422 17.3392C106.286 17.3392 106.165 17.3658 106.059 17.419C105.953 17.4698 105.863 17.552 105.791 17.6657C105.718 17.7793 105.662 17.9292 105.624 18.1154C105.587 18.2992 105.569 18.5229 105.569 18.7864V19.9036C105.569 20.1164 105.581 20.3038 105.606 20.4658C105.63 20.6278 105.666 20.7668 105.714 20.8829C105.763 20.9965 105.821 21.0908 105.888 21.1658C105.959 21.2383 106.038 21.2915 106.128 21.3254C106.22 21.3592 106.32 21.3761 106.429 21.3761C106.567 21.3761 106.689 21.3495 106.795 21.2964C106.902 21.2432 106.991 21.1585 107.064 21.0425C107.136 20.924 107.191 20.7704 107.227 20.5818C107.263 20.3932 107.281 20.1671 107.281 19.9036Z" fill="#97634A"/>
<path d="M106.363 33.5601C106.363 33.8889 106.287 34.1658 106.135 34.3907C105.982 34.6155 105.774 34.786 105.511 34.9021C105.25 35.0157 104.955 35.0725 104.626 35.0725C104.297 35.0725 104.001 35.0157 103.737 34.9021C103.474 34.786 103.266 34.6155 103.113 34.3907C102.961 34.1658 102.885 33.8889 102.885 33.5601C102.885 33.3424 102.927 33.1454 103.012 32.9689C103.096 32.7899 103.216 32.6364 103.371 32.5082C103.528 32.3776 103.712 32.2773 103.922 32.2072C104.135 32.1371 104.367 32.102 104.618 32.102C104.952 32.102 105.251 32.1637 105.514 32.287C105.778 32.4103 105.985 32.5808 106.135 32.7984C106.287 33.016 106.363 33.2699 106.363 33.5601ZM105.485 33.5165C105.485 33.34 105.449 33.1853 105.376 33.0523C105.304 32.9193 105.202 32.8165 105.072 32.744C104.941 32.6714 104.79 32.6352 104.618 32.6352C104.444 32.6352 104.293 32.6714 104.165 32.744C104.037 32.8165 103.937 32.9193 103.864 33.0523C103.794 33.1853 103.759 33.34 103.759 33.5165C103.759 33.6955 103.794 33.8502 103.864 33.9808C103.934 34.109 104.034 34.2069 104.165 34.2746C104.296 34.3423 104.449 34.3761 104.626 34.3761C104.802 34.3761 104.955 34.3423 105.083 34.2746C105.211 34.2069 105.31 34.109 105.38 33.9808C105.45 33.8502 105.485 33.6955 105.485 33.5165ZM106.243 31.1082C106.243 31.3717 106.173 31.6063 106.033 31.8118C105.895 32.0174 105.704 32.1794 105.46 32.2979C105.216 32.4139 104.938 32.4719 104.626 32.4719C104.311 32.4719 104.031 32.4139 103.784 32.2979C103.54 32.1794 103.348 32.0174 103.208 31.8118C103.07 31.6063 103.001 31.3717 103.001 31.1082C103.001 30.7938 103.07 30.5291 103.208 30.3139C103.348 30.0962 103.54 29.9306 103.784 29.817C104.028 29.7033 104.308 29.6465 104.622 29.6465C104.936 29.6465 105.216 29.7033 105.46 29.817C105.704 29.9306 105.895 30.0962 106.033 30.3139C106.173 30.5291 106.243 30.7938 106.243 31.1082ZM105.369 31.1372C105.369 30.98 105.338 30.8422 105.275 30.7237C105.214 30.6028 105.129 30.5085 105.017 30.4408C104.906 30.3731 104.774 30.3392 104.622 30.3392C104.47 30.3392 104.338 30.3719 104.227 30.4372C104.115 30.5025 104.03 30.5943 103.969 30.7128C103.909 30.8313 103.879 30.9728 103.879 31.1372C103.879 31.2992 103.909 31.4407 103.969 31.5616C104.03 31.68 104.115 31.7731 104.227 31.8408C104.34 31.9085 104.473 31.9424 104.626 31.9424C104.778 31.9424 104.91 31.9085 105.021 31.8408C105.132 31.7731 105.218 31.68 105.279 31.5616C105.339 31.4407 105.369 31.2992 105.369 31.1372Z" fill="#97634A"/>
<path d="M105.551 41.6864H105.659V42.4009H105.598C105.286 42.4009 105.016 42.4493 104.789 42.546C104.564 42.6427 104.379 42.7757 104.234 42.945C104.089 43.1142 103.98 43.3125 103.908 43.5398C103.837 43.7647 103.802 44.0041 103.802 44.258V45.0885C103.802 45.2989 103.825 45.4851 103.871 45.6471C103.917 45.8067 103.981 45.9409 104.064 46.0497C104.148 46.1561 104.245 46.2371 104.354 46.2927C104.462 46.3483 104.58 46.3761 104.705 46.3761C104.836 46.3761 104.955 46.3495 105.061 46.2964C105.167 46.2407 105.258 46.1646 105.333 46.0678C105.408 45.9711 105.465 45.8563 105.503 45.7233C105.542 45.5903 105.561 45.4452 105.561 45.288C105.561 45.1381 105.542 44.9979 105.503 44.8673C105.467 44.7343 105.413 44.6182 105.34 44.5191C105.268 44.4175 105.177 44.339 105.068 44.2833C104.962 44.2253 104.838 44.1963 104.698 44.1963C104.524 44.1963 104.366 44.2374 104.223 44.3196C104.083 44.4018 103.969 44.5094 103.882 44.6424C103.798 44.773 103.752 44.912 103.744 45.0595L103.411 44.9507C103.43 44.7258 103.48 44.5239 103.559 44.345C103.642 44.1661 103.749 44.0137 103.882 43.888C104.015 43.7623 104.169 43.6667 104.343 43.6015C104.519 43.5338 104.713 43.4999 104.923 43.4999C105.179 43.4999 105.402 43.5483 105.59 43.645C105.779 43.7417 105.935 43.8735 106.058 44.0403C106.184 44.2048 106.277 44.3934 106.338 44.6062C106.401 44.8165 106.432 45.0366 106.432 45.2663C106.432 45.5202 106.393 45.7571 106.316 45.9772C106.239 46.1948 106.125 46.3858 105.975 46.5502C105.827 46.7147 105.647 46.8428 105.435 46.9347C105.224 47.0266 104.985 47.0725 104.716 47.0725C104.433 47.0725 104.181 47.0181 103.958 46.9093C103.738 46.8005 103.551 46.6506 103.396 46.4596C103.244 46.2685 103.128 46.0485 103.048 45.7994C102.968 45.5504 102.928 45.2868 102.928 45.0088V44.646C102.928 44.2447 102.979 43.8662 103.081 43.5108C103.182 43.1529 103.338 42.8374 103.548 42.5641C103.761 42.2909 104.033 42.0769 104.365 41.9221C104.696 41.765 105.091 41.6864 105.551 41.6864Z" fill="#97634A"/>
<path d="M106.426 57.1176V57.814H102.618L102.589 57.288L104.866 53.719H105.566L104.808 55.0175L103.499 57.1176H106.426ZM105.766 53.719V59H104.892V53.719H105.766Z" fill="#97634A"/>
<path d="M106.328 70.3036V71H102.788V70.4015L104.507 68.5264C104.696 68.3136 104.845 68.1298 104.953 67.975C105.062 67.8203 105.138 67.6813 105.182 67.5579C105.228 67.4322 105.251 67.3101 105.251 67.1916C105.251 67.0248 105.219 66.8785 105.156 66.7527C105.096 66.6246 105.007 66.5242 104.888 66.4517C104.77 66.3767 104.626 66.3392 104.456 66.3392C104.261 66.3392 104.096 66.3816 103.963 66.4662C103.83 66.5508 103.73 66.6681 103.662 66.818C103.594 66.9655 103.561 67.1348 103.561 67.3258H102.686C102.686 67.0187 102.757 66.7382 102.897 66.4843C103.037 66.228 103.24 66.0249 103.506 65.875C103.772 65.7226 104.093 65.6465 104.467 65.6465C104.82 65.6465 105.12 65.7057 105.367 65.8242C105.614 65.9427 105.801 66.1107 105.929 66.3284C106.06 66.546 106.125 66.8035 106.125 67.1009C106.125 67.2654 106.098 67.4286 106.045 67.5906C105.992 67.7526 105.916 67.9146 105.817 68.0766C105.72 68.2362 105.605 68.397 105.472 68.559C105.339 68.7186 105.193 68.8806 105.033 69.045L103.891 70.3036H106.328Z" fill="#97634A"/>
<path d="M108.517 22L165.033 78.5166L104.517 139.033L44 78.5166L100.517 22" stroke="#DFCBC2" stroke-width="0.53"/>
<path d="M108.173 33.3115L153.379 78.5166L104.965 126.93L56.552 78.5166L101.757 33.3115" stroke="#DFCBC2" stroke-width="0.53"/>
<path d="M108.066 46L140.583 78.5166L104.273 114.827L67.9631 78.5166L100.48 46" stroke="#DFCBC2" stroke-width="0.53"/>
<path d="M108.258 57.8461L128.929 78.5166L104.722 102.723L80.5154 78.5166L101.186 57.8461" stroke="#DFCBC2" stroke-width="0.53"/>
<path d="M107.299 69.6828L116.133 78.5166L104.03 90.6199L91.9265 78.5166L100.76 69.6828" stroke="#DFCBC2" stroke-width="0.53"/>
<path d="M44.3569 78.931L104.882 26.351L165.408 78.931L104.882 126.545L44.3569 78.931Z" fill="#FFD5D6" fill-opacity="0.3" stroke="#F49798" stroke-width="0.53"/>
</svg>
