<svg width="185" height="151" viewBox="0 0 185 151" fill="none" xmlns="http://www.w3.org/2000/svg">
<path d="M100.329 16.0117L162.25 60.9997L138.598 133.792H62.0601L38.4085 60.9997L100.329 16.0117Z" fill="white"/>
<path d="M96.0598 19.1143L38.4084 61.0004L62.06 133.792H138.598L162.25 61.0004L104.598 19.1143" stroke="#DFCBC2" stroke-width="0.533666"/>
<path d="M99.3019 14.4797V19.8096H98.4228V15.523L97.1204 15.9645V15.2385L99.1962 14.4797H99.3019ZM104.236 16.7087V17.5769C104.236 17.9928 104.195 18.3479 104.112 18.6422C104.032 18.934 103.915 19.1712 103.762 19.3536C103.609 19.536 103.425 19.6697 103.211 19.7548C103 19.84 102.763 19.8825 102.5 19.8825C102.291 19.8825 102.096 19.8558 101.916 19.8023C101.739 19.7488 101.578 19.6649 101.435 19.5506C101.291 19.4362 101.168 19.2891 101.066 19.1091C100.966 18.9267 100.889 18.7091 100.833 18.4561C100.779 18.2032 100.752 17.9101 100.752 17.5769V16.7087C100.752 16.2904 100.794 15.9377 100.876 15.6507C100.959 15.3613 101.077 15.1266 101.23 14.9466C101.384 14.7642 101.566 14.6317 101.778 14.549C101.992 14.4663 102.23 14.425 102.493 14.425C102.704 14.425 102.899 14.4517 103.076 14.5052C103.256 14.5563 103.417 14.6378 103.558 14.7496C103.701 14.8615 103.823 15.0074 103.923 15.1874C104.025 15.365 104.103 15.5802 104.156 15.8331C104.21 16.0836 104.236 16.3755 104.236 16.7087ZM103.357 17.701V16.5773C103.357 16.3658 103.345 16.1797 103.321 16.0192C103.296 15.8562 103.26 15.7188 103.211 15.607C103.165 15.4926 103.107 15.4002 103.036 15.3297C102.966 15.2567 102.885 15.2044 102.795 15.1728C102.705 15.1388 102.604 15.1218 102.493 15.1218C102.356 15.1218 102.235 15.1485 102.128 15.202C102.021 15.2531 101.931 15.3358 101.858 15.4501C101.785 15.5644 101.729 15.7152 101.69 15.9024C101.654 16.0873 101.635 16.3123 101.635 16.5773V17.701C101.635 17.915 101.647 18.1035 101.672 18.2664C101.696 18.4294 101.733 18.5692 101.781 18.686C101.83 18.8003 101.888 18.8951 101.956 18.9705C102.027 19.0435 102.107 19.097 102.197 19.131C102.29 19.1651 102.39 19.1821 102.5 19.1821C102.639 19.1821 102.761 19.1553 102.868 19.1018C102.975 19.0483 103.065 18.9632 103.138 18.8465C103.211 18.7273 103.266 18.5729 103.302 18.3832C103.339 18.1935 103.357 17.9661 103.357 17.701Z" fill="#97634A"/>
<path d="M102.446 31.1699C102.446 31.5006 102.369 31.7791 102.216 32.0053C102.063 32.2315 101.853 32.4029 101.588 32.5197C101.326 32.634 101.029 32.6911 100.698 32.6911C100.367 32.6911 100.07 32.634 99.8044 32.5197C99.5393 32.4029 99.3302 32.2315 99.177 32.0053C99.0237 31.7791 98.9471 31.5006 98.9471 31.1699C98.9471 30.951 98.9897 30.7528 99.0748 30.5752C99.1599 30.3953 99.2803 30.2408 99.436 30.1119C99.5941 29.9806 99.7789 29.8797 99.9905 29.8091C100.205 29.7386 100.438 29.7033 100.691 29.7033C101.027 29.7033 101.327 29.7653 101.592 29.8894C101.857 30.0134 102.065 30.1849 102.216 30.4038C102.369 30.6226 102.446 30.878 102.446 31.1699ZM101.563 31.1261C101.563 30.9485 101.526 30.7929 101.453 30.6591C101.38 30.5254 101.278 30.422 101.147 30.349C101.016 30.2761 100.864 30.2396 100.691 30.2396C100.516 30.2396 100.364 30.2761 100.235 30.349C100.106 30.422 100.005 30.5254 99.9321 30.6591C99.8616 30.7929 99.8263 30.9485 99.8263 31.1261C99.8263 31.3061 99.8616 31.4617 99.9321 31.593C100.003 31.7219 100.104 31.8204 100.235 31.8885C100.366 31.9566 100.521 31.9907 100.698 31.9907C100.876 31.9907 101.029 31.9566 101.158 31.8885C101.287 31.8204 101.387 31.7219 101.457 31.593C101.528 31.4617 101.563 31.3061 101.563 31.1261ZM102.325 28.7037C102.325 28.9688 102.255 29.2048 102.114 29.4115C101.975 29.6182 101.783 29.7812 101.537 29.9003C101.292 30.0171 101.012 30.0754 100.698 30.0754C100.382 30.0754 100.1 30.0171 99.8519 29.9003C99.6062 29.7812 99.4129 29.6182 99.2718 29.4115C99.1332 29.2048 99.0639 28.9688 99.0639 28.7037C99.0639 28.3876 99.1332 28.1213 99.2718 27.9048C99.4129 27.6859 99.6062 27.5193 99.8519 27.405C100.098 27.2907 100.378 27.2336 100.695 27.2336C101.011 27.2336 101.292 27.2907 101.537 27.405C101.783 27.5193 101.975 27.6859 102.114 27.9048C102.255 28.1213 102.325 28.3876 102.325 28.7037ZM101.446 28.7329C101.446 28.5748 101.414 28.4362 101.351 28.317C101.29 28.1954 101.204 28.1006 101.092 28.0325C100.98 27.9644 100.848 27.9303 100.695 27.9303C100.541 27.9303 100.409 27.9632 100.297 28.0288C100.185 28.0945 100.099 28.1869 100.038 28.3061C99.9771 28.4253 99.9467 28.5676 99.9467 28.7329C99.9467 28.8959 99.9771 29.0382 100.038 29.1598C100.099 29.2789 100.185 29.3726 100.297 29.4407C100.411 29.5088 100.545 29.5428 100.698 29.5428C100.851 29.5428 100.984 29.5088 101.096 29.4407C101.208 29.3726 101.294 29.2789 101.355 29.1598C101.416 29.0382 101.446 28.8959 101.446 28.7329Z" fill="#97634A"/>
<path d="M101.628 41.1477H101.738V41.8664H101.676C101.362 41.8664 101.091 41.915 100.862 42.0123C100.636 42.1096 100.45 42.2434 100.304 42.4136C100.158 42.5838 100.049 42.7833 99.9759 43.0119C99.9054 43.2381 99.8701 43.4789 99.8701 43.7342V44.5696C99.8701 44.7812 99.8932 44.9685 99.9394 45.1314C99.9856 45.292 100.05 45.4269 100.133 45.5364C100.218 45.6434 100.315 45.7249 100.425 45.7808C100.534 45.8367 100.652 45.8647 100.778 45.8647C100.91 45.8647 101.029 45.838 101.136 45.7845C101.243 45.7285 101.334 45.6519 101.41 45.5546C101.485 45.4573 101.542 45.3418 101.581 45.2081C101.62 45.0743 101.639 44.9284 101.639 44.7703C101.639 44.6195 101.62 44.4784 101.581 44.3471C101.545 44.2133 101.49 44.0966 101.417 43.9969C101.344 43.8947 101.253 43.8157 101.143 43.7598C101.036 43.7014 100.912 43.6722 100.771 43.6722C100.596 43.6722 100.437 43.7135 100.293 43.7962C100.152 43.8789 100.038 43.9872 99.9504 44.1209C99.8652 44.2523 99.819 44.3921 99.8117 44.5405L99.4761 44.431C99.4956 44.2048 99.5454 44.0017 99.6257 43.8218C99.7084 43.6418 99.8166 43.4886 99.9504 43.3621C100.084 43.2356 100.239 43.1396 100.414 43.0739C100.591 43.0058 100.786 42.9718 100.997 42.9718C101.255 42.9718 101.479 43.0204 101.669 43.1177C101.858 43.215 102.015 43.3475 102.139 43.5153C102.266 43.6807 102.359 43.8704 102.42 44.0844C102.483 44.296 102.515 44.5173 102.515 44.7484C102.515 45.0038 102.476 45.2421 102.398 45.4634C102.32 45.6823 102.206 45.8744 102.055 46.0398C101.907 46.2052 101.726 46.3341 101.512 46.4265C101.3 46.5189 101.059 46.5651 100.789 46.5651C100.505 46.5651 100.251 46.5104 100.027 46.401C99.8057 46.2915 99.6172 46.1408 99.4615 45.9486C99.3083 45.7565 99.1916 45.5352 99.1113 45.2847C99.031 45.0342 98.9909 44.7691 98.9909 44.4894V44.1246C98.9909 43.7208 99.042 43.3402 99.1441 42.9827C99.2463 42.6228 99.4032 42.3054 99.6147 42.0306C99.8288 41.7557 100.102 41.5405 100.436 41.3848C100.769 41.2268 101.166 41.1477 101.628 41.1477Z" fill="#97634A"/>
<path d="M102.632 56.34V57.0405H98.8012L98.772 56.5115L101.063 52.9218H101.767L101.005 54.2278L99.6877 56.34H102.632ZM101.968 52.9218V58.2334H101.089V52.9218H101.968Z" fill="#97634A"/>
<path d="M102.533 71.408V72.1084H98.9727V71.5065L100.702 69.6204C100.892 69.4064 101.041 69.2215 101.151 69.0659C101.26 68.9102 101.337 68.7704 101.38 68.6463C101.427 68.5199 101.45 68.3971 101.45 68.2779C101.45 68.1101 101.418 67.9629 101.355 67.8365C101.294 67.7076 101.204 67.6066 101.085 67.5337C100.966 67.4583 100.821 67.4206 100.651 67.4206C100.454 67.4206 100.288 67.4631 100.155 67.5483C100.021 67.6334 99.92 67.7513 99.8519 67.9021C99.7838 68.0505 99.7497 68.2207 99.7497 68.4129H98.8705C98.8705 68.104 98.9411 67.8219 99.0821 67.5665C99.2232 67.3087 99.4275 67.1044 99.695 66.9536C99.9625 66.8004 100.285 66.7238 100.662 66.7238C101.017 66.7238 101.318 66.7834 101.566 66.9026C101.815 67.0217 102.003 67.1908 102.132 67.4096C102.263 67.6285 102.329 67.8875 102.329 68.1867C102.329 68.3521 102.302 68.5162 102.249 68.6792C102.195 68.8421 102.119 69.0051 102.019 69.168C101.922 69.3285 101.806 69.4903 101.672 69.6532C101.539 69.8137 101.391 69.9767 101.231 70.1421L100.082 71.408H102.533Z" fill="#97634A"/>
<path d="M96.5937 32.2129L50.5637 65.6556L69.3687 123.531H130.223L149.028 65.6556L102.998 32.2129" stroke="#DFCBC2" stroke-width="0.533666"/>
<path d="M96.5935 45.0215L62.7446 69.6141L76.8968 113.17H122.694L136.846 69.6141L102.997 45.0215" stroke="#DFCBC2" stroke-width="0.533666"/>
<path d="M96.5936 58.1631L74.9519 73.5722L84.6452 102.808H116.013L125.707 73.5722L104.065 58.1631" stroke="#DFCBC2" stroke-width="0.533666"/>
<path d="M96.5064 71.0879L88.1482 77.1605L92.801 91.4802H107.858L112.51 77.1605L104.152 71.0879" stroke="#DFCBC2" stroke-width="0.533666"/>
<path d="M78.3675 7.41279H76.8561C76.0706 7.41279 75.8059 7.42987 75.7547 7.42987C75.6693 7.42987 75.6607 7.42133 75.6607 7.33594V6.70408C75.6607 6.61869 75.6693 6.61015 75.7547 6.61015C75.8059 6.61015 76.0706 6.62723 76.8561 6.62723H78.8542V6.33692C78.8542 5.95268 78.8456 5.77337 78.7944 5.43182C79.1018 5.44036 79.4177 5.46597 79.708 5.49159C79.7934 5.50013 79.8447 5.55136 79.8447 5.59405C79.8447 5.66236 79.8105 5.72213 79.7849 5.79898C79.7422 5.90145 79.7337 6.08076 79.7337 6.32838V6.62723H81.8342C82.6112 6.62723 82.8759 6.61015 82.9271 6.61015C83.021 6.61015 83.0296 6.61869 83.0296 6.70408V7.33594C83.0296 7.42133 83.021 7.42987 82.9271 7.42987C82.8759 7.42987 82.6112 7.41279 81.8342 7.41279H80.1862C80.9205 8.32642 82.1159 9.00952 83.3797 9.41937C83.2174 9.57307 83.0808 9.76946 82.9784 9.99146C82.91 10.1452 82.8759 10.2049 82.8076 10.2049C82.7563 10.2049 82.6966 10.1708 82.5941 10.1281C81.4499 9.6243 80.3826 8.8729 79.708 7.93365C79.7251 9.41937 79.7507 10.3501 79.7507 10.5636C79.7507 10.6489 79.7422 10.6575 79.6568 10.6575H78.9225C78.8371 10.6575 78.8286 10.6489 78.8286 10.5636C78.8286 10.3586 78.8627 9.41937 78.8713 7.95926C78.1967 8.8729 77.2062 9.60722 76.1218 10.1366C76.0279 10.1879 75.9681 10.2135 75.9254 10.2135C75.8571 10.2135 75.823 10.1452 75.7461 10C75.6351 9.78653 75.507 9.60722 75.3533 9.4706C76.5658 9.02659 77.6758 8.27519 78.3675 7.41279ZM76.6512 3.22885L77.1977 3.03246C77.3001 2.98977 77.3001 2.98977 77.3599 3.06661C77.6075 3.39108 77.7783 3.6814 77.9576 4.0571C77.9918 4.12541 77.9832 4.15956 77.8722 4.20225L77.3343 4.40718H80.579C80.7583 4.09125 80.9205 3.75824 81.0828 3.374C81.1255 3.263 81.1682 3.12638 81.2023 2.92146C81.5012 2.98123 81.8171 3.08369 82.0562 3.17762C82.133 3.21177 82.1757 3.24593 82.1757 3.29716C82.1757 3.34839 82.1586 3.374 82.0989 3.42524C82.0476 3.47647 81.9879 3.5277 81.9452 3.60455C81.7915 3.89486 81.6378 4.15102 81.4755 4.40718H81.6463C82.4575 4.40718 82.7393 4.3901 82.799 4.3901C82.8844 4.3901 82.893 4.39864 82.893 4.49257C82.893 4.5438 82.8759 4.68042 82.8759 4.89388V5.23543C82.8759 5.95268 82.893 6.08076 82.893 6.13199C82.893 6.21738 82.8844 6.22591 82.799 6.22591H82.0903C82.0049 6.22591 81.9964 6.21738 81.9964 6.13199V5.19274H76.7451V6.12345C76.7451 6.21738 76.7366 6.22591 76.6512 6.22591H75.9425C75.8571 6.22591 75.8486 6.21738 75.8486 6.12345C75.8486 6.07222 75.8657 5.94414 75.8657 5.23543V4.96219C75.8657 4.68042 75.8486 4.5438 75.8486 4.49257C75.8486 4.39864 75.8571 4.3901 75.9425 4.3901C76.0023 4.3901 76.2926 4.40718 77.0952 4.40718H77.1379C76.9415 3.94609 76.7964 3.6814 76.5914 3.36547C76.5402 3.28862 76.5487 3.263 76.6512 3.22885ZM78.6663 3.06661L79.1957 2.8873C79.2982 2.85315 79.3153 2.86169 79.3665 2.93853C79.6227 3.31423 79.7593 3.59601 79.913 3.98025C79.9471 4.06564 79.9471 4.08271 79.8361 4.12541L79.264 4.33887C79.136 4.38157 79.1274 4.38157 79.0933 4.29618C78.9481 3.88632 78.7773 3.50208 78.5895 3.20323C78.5383 3.11784 78.5468 3.10931 78.6663 3.06661ZM85.9242 6.14907H85.3436C84.5665 6.14907 84.3104 6.16614 84.2592 6.16614C84.1738 6.16614 84.1652 6.15761 84.1652 6.07222V5.59405C84.1652 5.50867 84.1738 5.50013 84.2592 5.50013C84.3104 5.50013 84.5665 5.51721 85.3436 5.51721H87.4014V5.13297H86.2657C85.4289 5.13297 85.1386 5.15004 85.0874 5.15004C85.002 5.15004 84.9935 5.14151 84.9935 5.05612V4.62919C84.9935 4.55234 85.002 4.5438 85.0874 4.5438C85.1386 4.5438 85.4289 4.56088 86.2657 4.56088H87.4014V4.15956H85.8217C85.002 4.15956 84.7288 4.17664 84.6775 4.17664C84.5922 4.17664 84.5836 4.1681 84.5836 4.08271V3.62163C84.5836 3.53624 84.5922 3.5277 84.6775 3.5277C84.7288 3.5277 85.002 3.54478 85.8217 3.54478H86.2572C86.1718 3.4167 86.0693 3.27154 85.9498 3.12638C85.89 3.04954 85.8815 3.03246 86.001 2.9983L86.5475 2.84461C86.6414 2.81899 86.6585 2.80191 86.7097 2.87876C86.8891 3.08369 87.0598 3.3057 87.205 3.54478H88.4858C88.5541 3.42524 88.6309 3.3057 88.7078 3.152C88.7676 3.041 88.8103 2.92999 88.8529 2.7763C89.1262 2.82753 89.3823 2.8873 89.6385 2.97269C89.6983 2.98977 89.7495 3.01538 89.7495 3.06661C89.7495 3.12638 89.6983 3.16054 89.6556 3.18615C89.5958 3.22885 89.536 3.28862 89.4933 3.36547C89.4507 3.42524 89.4165 3.48501 89.3823 3.54478H89.9715C90.7912 3.54478 91.0645 3.5277 91.1157 3.5277C91.2011 3.5277 91.2096 3.53624 91.2096 3.62163V4.08271C91.2096 4.1681 91.2011 4.17664 91.1157 4.17664C91.0645 4.17664 90.7912 4.15956 89.9715 4.15956H88.2723V4.56088H89.5104C90.3387 4.56088 90.629 4.5438 90.6802 4.5438C90.7741 4.5438 90.7827 4.55234 90.7827 4.62919V5.05612C90.7827 5.14151 90.7741 5.15004 90.6802 5.15004C90.629 5.15004 90.3387 5.13297 89.5104 5.13297H88.2723V5.51721H90.4411C91.2182 5.51721 91.4743 5.50013 91.5255 5.50013C91.6109 5.50013 91.6195 5.50867 91.6195 5.59405V6.07222C91.6195 6.15761 91.6109 6.16614 91.5255 6.16614C91.4743 6.16614 91.2182 6.14907 90.4411 6.14907H89.7837C90.3045 6.73823 91.0047 7.13955 91.9866 7.41279C91.8415 7.57502 91.739 7.73726 91.6536 7.94218C91.5939 8.09588 91.5682 8.16419 91.4999 8.16419C91.4572 8.16419 91.3975 8.13857 91.3035 8.09588C90.8168 7.89095 90.3899 7.63479 90.0142 7.34448V8.15565C90.0142 8.58258 90.0313 8.77897 90.0313 8.8302C90.0313 8.85582 90.0313 8.86436 90.0227 8.88997L90.1252 8.80459C90.2191 8.71066 90.3301 8.59966 90.407 8.47158C90.629 8.57404 90.8425 8.70212 91.0218 8.82167C91.0645 8.85582 91.1072 8.88144 91.1072 8.92413C91.1072 8.97536 91.073 9.00098 91.0047 9.02659C90.9364 9.05221 90.8937 9.07783 90.7571 9.18883C90.5521 9.35106 90.3045 9.53037 90.0398 9.69261C90.4924 9.80361 91.0132 9.87192 91.6109 9.90607C91.4999 10.0256 91.3975 10.2305 91.3292 10.4355C91.2438 10.6831 91.2182 10.6831 90.9535 10.6489C89.8264 10.5038 88.8956 10.222 88.1357 9.59868C88.1186 9.67553 88.1101 9.76092 88.1015 9.82923C88.0759 10.111 88.0759 10.111 87.8198 10.1537C87.0086 10.3159 86.1291 10.4525 85.2069 10.5465C85.0618 10.5636 84.9679 10.5892 84.9252 10.6148C84.891 10.6319 84.8483 10.6575 84.7971 10.6575C84.7544 10.6575 84.7202 10.6233 84.6946 10.5379C84.6434 10.3928 84.5665 10.0939 84.5068 9.82923C84.8483 9.82923 85.0959 9.81215 85.4204 9.78653L85.6766 9.76092V7.45548C85.335 7.72872 84.9679 7.95926 84.5665 8.15565C84.4641 8.20688 84.4043 8.2325 84.3616 8.2325C84.3018 8.2325 84.2677 8.17273 84.2079 8.03611C84.1311 7.8568 84.003 7.67749 83.8749 7.55795C84.7629 7.17371 85.4546 6.687 85.9242 6.14907ZM86.4109 6.76385H87.4441V6.74677C87.4441 6.62723 87.4355 6.44792 87.4014 6.28569L88.1869 6.3113C88.2723 6.31984 88.3321 6.35399 88.3321 6.39669C88.3321 6.43084 88.3065 6.465 88.2723 6.51623C88.2382 6.576 88.2382 6.66139 88.2382 6.74677V6.76385H89.3738C89.1945 6.56746 89.0237 6.36253 88.8786 6.14907H86.9147C86.7524 6.36253 86.5902 6.576 86.4109 6.76385ZM89.2457 8.38619V8.07026H86.4963V8.38619H89.2457ZM86.4963 8.89851V9.67553C86.9744 9.61576 87.4697 9.53891 87.9649 9.44499C87.7856 9.28275 87.6234 9.10344 87.4611 8.89851H86.4963ZM89.2457 7.27617H86.4963V7.57502H89.2457V7.27617ZM89.9971 8.91559H89.9374C89.8861 8.91559 89.5446 8.89851 88.8273 8.89851H88.4089C88.648 9.11198 88.9298 9.29129 89.2457 9.43645C89.536 9.25714 89.7922 9.07783 89.9971 8.91559ZM92.5502 8.63382C93.4467 7.83972 94.0615 6.86631 94.4031 6.0893C94.6336 5.56844 94.7617 5.13297 94.7873 4.82558C95.2228 4.97927 95.607 5.13297 95.8461 5.26105C95.923 5.2952 95.9486 5.34643 95.9486 5.39767C95.9486 5.45744 95.9144 5.51721 95.8632 5.56844C95.7693 5.66236 95.7009 5.78191 95.5643 6.0893C95.0605 7.22494 94.5568 8.09588 93.7371 8.95828C93.6602 9.04367 93.5834 9.08636 93.498 9.08636C93.4297 9.08636 93.3699 9.06075 93.3016 9.00098C93.1308 8.86436 92.8576 8.72774 92.5502 8.63382ZM96.9134 5.38913C97.2208 5.1842 97.4514 5.02197 97.5965 4.92804C97.6392 4.89388 97.6819 4.87681 97.7161 4.87681C97.7588 4.87681 97.7929 4.89388 97.8441 4.94512C98.7749 5.87583 99.4921 6.98586 99.9874 8.0788C100.013 8.1215 100.022 8.15565 100.022 8.19834C100.022 8.24958 99.9959 8.29227 99.9361 8.33496C99.7739 8.46304 99.5006 8.64235 99.2274 8.78751C99.1164 8.83874 99.0566 8.82167 99.0225 8.71066C98.3906 7.28471 97.7588 6.28569 96.9134 5.38913ZM98.143 4.21933L98.5955 3.9034C98.6382 3.86925 98.6724 3.87779 98.7236 3.92048C98.9883 4.12541 99.2957 4.46695 99.5348 4.83411C99.569 4.88535 99.569 4.92804 99.5092 4.97073L99.1506 5.23543C99.0908 5.27812 99.0481 5.26959 99.0054 5.20982C98.7492 4.81704 98.476 4.49257 98.143 4.21933ZM98.9286 3.65578L99.3555 3.34839C99.4067 3.31423 99.4323 3.32277 99.4836 3.36547C99.7995 3.60455 100.107 3.94609 100.295 4.24495C100.329 4.29618 100.337 4.34741 100.269 4.39864L99.9276 4.66334C99.8593 4.71457 99.8166 4.68896 99.7824 4.63773C99.5519 4.27056 99.2786 3.94609 98.9286 3.65578ZM105.845 4.41572H104.154C103.77 4.41572 103.343 4.42426 102.984 4.44988C102.899 4.44988 102.873 4.39864 102.865 4.26202C102.839 4.08271 102.822 3.70701 102.822 3.44231C103.343 3.49355 103.599 3.50208 104.223 3.50208H105.759C106.314 3.50208 106.767 3.47647 107.1 3.45939C107.177 3.45939 107.203 3.50208 107.203 3.59601C107.22 3.80948 107.22 4.04856 107.203 4.26202C107.203 4.40718 107.177 4.44134 107.049 4.4328C106.767 4.4328 106.366 4.41572 105.845 4.41572ZM106.494 6.24299L103.582 6.25153C103.155 6.25153 102.728 6.26007 102.301 6.28569C102.224 6.28569 102.19 6.23445 102.173 6.12345C102.122 5.90998 102.105 5.59405 102.079 5.26105C102.566 5.31228 103.087 5.32936 103.65 5.32936H106.579C106.724 5.32936 106.895 5.31228 107.032 5.23543C107.074 5.20128 107.109 5.1842 107.143 5.1842C107.185 5.1842 107.228 5.20982 107.271 5.24397C107.476 5.4062 107.706 5.61967 107.843 5.77337C107.903 5.83314 107.928 5.89291 107.928 5.95268C107.928 6.00391 107.903 6.06368 107.834 6.11491C107.698 6.22591 107.638 6.31984 107.544 6.51623C106.69 8.33496 105.708 9.40229 104.06 10.2903C103.992 10.3245 103.941 10.3501 103.89 10.3501C103.83 10.3501 103.77 10.3159 103.702 10.2476C103.471 10.0427 103.198 9.91461 102.908 9.80361C104.487 9.06929 105.879 7.89095 106.494 6.24299ZM110.396 4.68042C110.584 4.44988 110.831 4.18518 110.994 4.0144C111.028 3.97171 111.071 3.94609 111.113 3.94609C111.147 3.94609 111.182 3.96317 111.224 3.98879C111.66 4.21933 112.368 4.74019 112.855 5.20128C112.906 5.25251 112.932 5.28666 112.932 5.32082C112.932 5.35497 112.915 5.38913 112.881 5.43182C112.753 5.60259 112.471 5.94414 112.351 6.07222C112.309 6.11491 112.283 6.14053 112.249 6.14053C112.215 6.14053 112.181 6.11491 112.138 6.07222C111.626 5.54282 111.011 5.05612 110.396 4.68042ZM110.584 8.94121C111.019 8.82167 111.284 8.74482 111.737 8.51427C112.778 7.97634 113.333 7.61772 114.196 6.92608C115.237 6.08076 115.809 5.53428 116.535 4.60357C116.586 5.0305 116.663 5.32082 116.774 5.60259C116.8 5.66236 116.817 5.7136 116.817 5.76483C116.817 5.84168 116.774 5.90998 116.68 6.02099C116.228 6.55038 115.494 7.23348 114.717 7.83118C114.008 8.38619 113.291 8.86436 112.138 9.50476C111.754 9.7353 111.643 9.82069 111.566 9.89754C111.515 9.94877 111.463 9.98292 111.412 9.98292C111.369 9.98292 111.318 9.94877 111.267 9.889C111.053 9.64992 110.789 9.29983 110.584 8.94121ZM120.745 4.06564H123.093C123.4 4.06564 123.554 4.0571 123.682 3.98879C123.716 3.96317 123.742 3.95463 123.776 3.95463C123.827 3.95463 123.87 3.98879 123.921 4.02294C124.118 4.17664 124.314 4.39864 124.476 4.62065C124.502 4.66334 124.519 4.6975 124.519 4.73165C124.519 4.78288 124.485 4.84265 124.408 4.90242C124.297 4.99635 124.186 5.12443 124.092 5.27812C123.742 5.87583 123.409 6.35399 122.999 6.87485C123.819 7.4811 124.579 8.14711 125.364 8.94121C125.407 8.9839 125.433 9.02659 125.433 9.06075C125.433 9.0949 125.415 9.1376 125.373 9.18883C125.211 9.38522 125.014 9.59014 124.801 9.76946C124.767 9.80361 124.732 9.82069 124.698 9.82069C124.656 9.82069 124.621 9.79507 124.579 9.75238C123.861 8.91559 123.127 8.24104 122.359 7.63479C121.394 8.64235 120.42 9.36814 119.49 9.889C119.413 9.92315 119.353 9.95731 119.293 9.95731C119.242 9.95731 119.191 9.93169 119.148 9.88046C118.96 9.64992 118.713 9.47914 118.431 9.32545C119.763 8.65089 120.557 8.04465 121.436 7.14809C122.051 6.50769 122.521 5.90145 123.042 5.00489L120.839 5.01343C120.395 5.01343 119.951 5.0305 119.49 5.06466C119.421 5.0732 119.396 5.01343 119.379 4.9195C119.336 4.74019 119.302 4.33033 119.302 4.03148C119.763 4.06564 120.19 4.06564 120.745 4.06564Z" fill="#97634A"/>
<path d="M170.065 58.6796H172.421C173.232 58.6796 173.506 58.6625 173.565 58.6625C173.651 58.6625 173.659 58.671 173.659 58.7564C173.659 58.8162 173.642 59.0382 173.642 59.5505V60.7886C173.642 61.3009 173.659 61.5229 173.659 61.5742C173.659 61.6681 173.651 61.6766 173.565 61.6766C173.506 61.6766 173.232 61.6596 172.421 61.6596H170.065C169.262 61.6596 168.98 61.6766 168.929 61.6766C168.844 61.6766 168.835 61.6681 168.835 61.5742C168.835 61.5229 168.852 61.3009 168.852 60.7886V59.5505C168.852 59.0382 168.835 58.8162 168.835 58.7564C168.835 58.671 168.844 58.6625 168.929 58.6625C168.98 58.6625 169.262 58.6796 170.065 58.6796ZM169.732 59.4993V60.8398H172.763V59.4993H169.732ZM172.336 66.1509H171.67C171.593 66.1509 171.584 66.1424 171.584 66.057C171.584 65.9972 171.601 65.7581 171.601 64.4517V63.6576C171.601 62.8464 171.584 62.5988 171.584 62.5476C171.584 62.4537 171.593 62.4451 171.67 62.4451C171.73 62.4451 171.952 62.4622 172.609 62.4622H173.787C174.445 62.4622 174.667 62.4451 174.718 62.4451C174.803 62.4451 174.812 62.4537 174.812 62.5476C174.812 62.5988 174.795 62.8464 174.795 63.5295V64.4432C174.795 65.724 174.812 65.963 174.812 66.0143C174.812 66.1082 174.803 66.1167 174.718 66.1167H174.044C173.958 66.1167 173.95 66.1082 173.95 66.0143V65.6386H172.43V66.057C172.43 66.1424 172.421 66.1509 172.336 66.1509ZM172.43 63.2648V64.8445H173.95V63.2648H172.43ZM168.434 66.1509H167.759C167.674 66.1509 167.665 66.1424 167.665 66.0484C167.665 65.9972 167.682 65.7581 167.682 64.4517V63.6576C167.682 62.8379 167.665 62.5988 167.665 62.539C167.665 62.4537 167.674 62.4451 167.759 62.4451C167.819 62.4451 168.032 62.4622 168.664 62.4622H169.783C170.423 62.4622 170.637 62.4451 170.696 62.4451C170.782 62.4451 170.79 62.4537 170.79 62.539C170.79 62.5903 170.773 62.8379 170.773 63.5124V64.409C170.773 65.6898 170.79 65.9374 170.79 65.9887C170.79 66.074 170.782 66.0826 170.696 66.0826H170.03C169.954 66.0826 169.945 66.074 169.945 65.9887V65.6386H168.528V66.0484C168.528 66.1424 168.519 66.1509 168.434 66.1509ZM168.528 63.2648V64.8445H169.945V63.2648H168.528ZM178.808 61.2241H180.029C179.986 61.207 179.952 61.1814 179.901 61.1302C179.747 60.9935 179.56 60.8911 179.372 60.8057C179.884 60.3617 180.021 60.0031 180.021 59.337C180.021 59.0297 180.021 58.765 179.986 58.5856C180.285 58.6198 180.499 58.6625 180.755 58.7223C181.293 58.6796 181.882 58.5856 182.283 58.4917C182.429 58.449 182.557 58.4063 182.685 58.3466C182.864 58.5003 182.975 58.6369 183.137 58.8418C183.18 58.893 183.214 58.9443 183.214 59.004C183.214 59.0467 183.188 59.0894 183.112 59.0894C183.018 59.0894 182.915 59.0809 182.77 59.1065C182.207 59.226 181.6 59.2944 180.815 59.3456V59.6359C180.815 59.6701 180.806 59.7042 180.806 59.7384H182.318C183.146 59.7384 183.436 59.7213 183.487 59.7213C183.564 59.7213 183.573 59.7298 183.573 59.8237V60.3105C183.573 60.3958 183.564 60.4044 183.487 60.4044C183.436 60.4044 183.146 60.3873 182.318 60.3873H182.283V60.7972C182.283 60.985 182.283 61.1216 182.292 61.2155C182.403 61.2155 182.471 61.207 182.497 61.207C182.582 61.207 182.591 61.2155 182.591 61.3009C182.591 61.3607 182.574 61.6083 182.574 62.1719V63.8711C182.574 64.4346 182.591 64.6822 182.591 64.7335C182.591 64.8274 182.582 64.8359 182.497 64.8359C182.437 64.8359 182.138 64.8189 181.31 64.8189H181.165C181.848 65.1946 182.668 65.3995 183.632 65.4934C183.513 65.6471 183.402 65.8264 183.317 66.0057C183.24 66.168 183.206 66.2277 183.12 66.2277C183.077 66.2277 183.018 66.2192 182.924 66.2021C182.061 66.0484 181.165 65.741 180.533 65.3483C180.448 65.297 180.456 65.2885 180.559 65.2202L181.054 64.8189H178.398C178.578 64.9213 178.748 65.0152 178.911 65.1433C178.996 65.2031 179.022 65.2373 179.022 65.2714C179.022 65.3312 178.987 65.3739 178.894 65.391C178.8 65.4166 178.706 65.4678 178.561 65.5361C178.091 65.7752 177.408 66.0399 176.622 66.185C176.537 66.2021 176.477 66.2107 176.434 66.2107C176.34 66.2107 176.315 66.168 176.229 65.9972C176.153 65.835 176.042 65.6727 175.896 65.5105C176.665 65.4251 177.476 65.2287 177.971 64.9982C178.074 64.9469 178.168 64.8957 178.27 64.8189C177.442 64.8189 177.152 64.8359 177.1 64.8359C177.006 64.8359 176.998 64.8274 176.998 64.7335C176.998 64.6822 177.015 64.4346 177.015 63.8711V62.1719C177.015 61.6083 176.998 61.3607 176.998 61.3009C176.998 61.2155 177.006 61.207 177.1 61.207C177.143 61.207 177.382 61.2241 177.98 61.2241C177.98 61.1302 177.988 60.9935 177.988 60.8057V60.3873H177.228C177.143 60.7715 176.981 61.1472 176.691 61.5315C176.614 61.6425 176.58 61.7023 176.528 61.7023C176.486 61.7023 176.434 61.651 176.34 61.5571C176.17 61.3863 175.999 61.2582 175.811 61.1558C176.4 60.6435 176.511 60.0287 176.511 59.2944C176.511 59.0297 176.503 58.7906 176.469 58.6027C176.75 58.6369 176.989 58.671 177.237 58.7223C177.783 58.6796 178.27 58.5942 178.672 58.4917C178.817 58.4661 178.962 58.4149 179.073 58.3466C179.252 58.4917 179.372 58.6369 179.534 58.8418C179.577 58.893 179.619 58.9443 179.619 59.004C179.619 59.0467 179.577 59.098 179.491 59.098C179.414 59.098 179.312 59.0894 179.167 59.1236C178.586 59.2431 178.074 59.3029 177.305 59.3541V59.7384H178.526C179.269 59.7384 179.508 59.7213 179.56 59.7213C179.645 59.7213 179.653 59.7298 179.653 59.8237V60.3105C179.653 60.3958 179.645 60.4044 179.56 60.4044C179.517 60.4044 179.312 60.3958 178.8 60.3873V60.8057C178.8 60.9935 178.8 61.1302 178.808 61.2241ZM181.711 64.1955V63.7601H177.869V64.1955H181.711ZM177.869 63.2136H181.711V62.8037H177.869V63.2136ZM181.711 61.8559H177.869V62.2573H181.711V61.8559ZM181.472 60.3873H180.687C180.601 60.6264 180.473 60.8655 180.285 61.0789C180.226 61.1558 180.174 61.207 180.132 61.2241H181.464C181.464 61.1302 181.472 60.9935 181.472 60.7972V60.3873Z" fill="#97634A"/>
<path d="M7.43293 64.9555V62.872C7.43293 62.2743 7.43293 62.0096 7.37316 61.5912C7.68909 61.5998 7.91109 61.6169 8.20141 61.651C8.28679 61.6596 8.33803 61.7023 8.33803 61.7535C8.33803 61.8133 8.31241 61.8559 8.28679 61.8986C8.2441 61.9926 8.23556 62.1548 8.23556 62.8635V64.8786C8.23556 65.6215 8.25264 65.9972 8.25264 66.0484C8.25264 66.1338 8.2441 66.1424 8.15017 66.1424H7.52685C7.44147 66.1424 7.43293 66.1338 7.43293 66.0484V65.7154H4.27363V66.074C4.27363 66.1594 4.26509 66.168 4.1797 66.168H3.55638C3.46245 66.168 3.45392 66.1594 3.45392 66.074C3.45392 66.0228 3.47099 65.6642 3.47099 64.9213V62.8635C3.47099 62.2316 3.46245 61.967 3.40268 61.5742C3.72715 61.5827 3.9577 61.5998 4.24801 61.6339C4.3334 61.6425 4.38463 61.6852 4.38463 61.7279C4.38463 61.7962 4.35047 61.8559 4.32486 61.9072C4.28216 62.0096 4.27363 62.189 4.27363 62.8464V64.9555H7.43293ZM1.87426 64.6054V59.6615C1.87426 59.0553 1.86573 58.782 1.80596 58.3722C2.13042 58.3807 2.40366 58.3978 2.68544 58.4319C2.77082 58.4405 2.82206 58.4746 2.82206 58.5173C2.82206 58.5771 2.80498 58.6283 2.77936 58.6881C2.73667 58.7991 2.71959 59.0126 2.71959 59.6359V64.5969C2.71959 65.5617 2.73667 66.0484 2.73667 66.0911C2.73667 66.185 2.72813 66.1936 2.64274 66.1936H1.95111C1.86573 66.1936 1.85719 66.185 1.85719 66.0911C1.85719 66.0484 1.87426 65.5617 1.87426 64.6054ZM7.18531 64.1016L6.79253 64.4517C6.74984 64.4944 6.71568 64.5115 6.69007 64.5115C6.66445 64.5115 6.64737 64.4944 6.62176 64.4602C6.42537 64.1955 6.22044 63.9308 6.00697 63.6832C5.75081 64.0418 5.45196 64.3749 5.15311 64.631C5.06772 64.7079 5.01649 64.7591 4.96526 64.7591C4.91403 64.7591 4.87133 64.7079 4.77741 64.6139C4.64079 64.4602 4.50417 64.3578 4.35047 64.2724C4.82864 63.9052 5.18726 63.5124 5.46904 63.1026C5.17872 62.8123 4.87987 62.5476 4.58956 62.3085C4.52125 62.2573 4.51271 62.2316 4.61517 62.1463L4.94818 61.8559C5.01649 61.7876 5.05064 61.7962 5.11895 61.8389C5.37511 62.0267 5.61419 62.2231 5.85328 62.4366C5.91305 62.317 5.96428 62.189 6.01551 62.0609C6.11798 61.8218 6.19482 61.5742 6.24606 61.3009C6.4766 61.3692 6.79253 61.4802 6.9633 61.5486C7.05723 61.5827 7.09138 61.6339 7.09138 61.6937C7.09138 61.7449 7.04869 61.8047 6.98038 61.8559C6.90353 61.9328 6.8523 62.0438 6.78399 62.2231C6.69007 62.4793 6.57052 62.744 6.42537 63.0087C6.70714 63.3075 6.97184 63.6149 7.21092 63.9223C7.26216 63.9906 7.27069 64.0162 7.18531 64.1016ZM6.57906 60.8484C6.98892 60.1141 7.21946 59.6103 7.43293 58.9955C7.46708 58.876 7.50978 58.7137 7.53539 58.5003C7.82571 58.5856 8.10748 58.6796 8.3551 58.7906C8.41487 58.8247 8.44903 58.8503 8.44903 58.9101C8.44903 58.9699 8.3978 59.0211 8.3551 59.0723C8.29533 59.1321 8.2441 59.2431 8.20995 59.32C8.00502 59.8237 7.74886 60.3702 7.45001 60.9252C7.3817 61.0533 7.339 61.1045 7.27923 61.1045C7.228 61.1045 7.16823 61.0704 7.0743 61.0192C6.91207 60.9423 6.75837 60.8911 6.57906 60.8484ZM3.55638 58.987L4.0687 58.8162C4.16262 58.782 4.18824 58.782 4.23947 58.8674C4.54686 59.3627 4.76887 59.8664 4.99941 60.5154C5.02503 60.6093 5.01649 60.6264 4.90549 60.6691L4.37609 60.8484C4.26509 60.8825 4.23947 60.8825 4.20532 60.7972C4.00893 60.1568 3.77838 59.6274 3.48807 59.1321C3.44538 59.0553 3.45392 59.0211 3.55638 58.987ZM5.12749 58.56L5.63127 58.4234C5.73374 58.3893 5.77643 58.3978 5.81912 58.4832C6.09236 59.004 6.29729 59.5164 6.48514 60.1397C6.51075 60.2251 6.50221 60.2421 6.37413 60.2848L5.84474 60.4471C5.73374 60.4812 5.71666 60.4898 5.69104 60.3873C5.52027 59.7298 5.33242 59.2687 5.05064 58.7052C5.00795 58.6198 5.01649 58.5942 5.12749 58.56ZM1.1314 60.1397L1.53272 60.2251C1.63518 60.2507 1.65226 60.2678 1.64372 60.3617C1.6181 61.0619 1.53272 61.7279 1.36195 62.2573C1.33633 62.3427 1.31925 62.3341 1.22533 62.2914L0.806933 62.1206C0.704469 62.078 0.69593 62.0353 0.721546 61.9499C0.866703 61.4888 0.960628 60.8825 0.994783 60.1994C0.994783 60.1141 1.01186 60.1141 1.1314 60.1397ZM2.9416 60.0714L3.25753 59.9774C3.34291 59.9518 3.36853 59.9518 3.40268 60.0287C3.5393 60.3617 3.66738 60.7715 3.73569 61.1899C3.75277 61.2839 3.75277 61.3095 3.64177 61.3436L3.28314 61.4632C3.17214 61.4973 3.14652 61.4973 3.12945 61.4034C3.06114 61.0106 2.98429 60.541 2.85621 60.208C2.82206 60.1226 2.83059 60.1055 2.9416 60.0714ZM14.7506 62.317C14.8359 61.9243 14.8957 61.5998 14.9299 61.2155C14.9469 61.0277 14.9469 60.8655 14.9213 60.6349C15.3653 60.7459 15.7069 60.874 15.9118 61.0021C15.9887 61.0448 16.0314 61.1558 15.9716 61.2326C15.9203 61.3436 15.8606 61.4376 15.835 61.5656C15.7667 61.9243 15.6813 62.3 15.5959 62.6671C16.0826 62.9147 16.612 63.2477 16.9279 63.4868C17.0133 63.5381 17.0048 63.5808 16.9791 63.6661C16.8938 63.8711 16.7144 64.2297 16.612 64.4005C16.5864 64.4432 16.5607 64.4602 16.5351 64.4602C16.501 64.4602 16.4668 64.4346 16.4327 64.4005C16.057 64.076 15.7154 63.8284 15.3141 63.5978C14.8786 64.5798 14.4175 65.2031 13.5893 65.8435C13.5124 65.9033 13.4698 65.9374 13.4185 65.9374C13.3844 65.9374 13.3502 65.9203 13.2904 65.8777C13.0599 65.6898 12.8464 65.6044 12.5476 65.5276C13.6149 64.7847 14.1358 64.076 14.4602 63.2136C13.9906 62.9745 13.3844 62.7867 12.7696 62.6927C12.317 63.632 12.0694 64.0589 11.7279 64.4005C11.4119 64.7335 11.0704 64.8701 10.6349 64.8701C10.1397 64.8701 9.61882 64.5285 9.61882 63.7003C9.61882 62.6415 10.7118 61.8133 12.1377 61.8133C12.4195 61.1045 12.633 60.5068 12.8464 59.7896C12.3768 59.8408 11.9499 59.8921 11.6681 59.9262C11.5486 59.9433 11.4205 59.9689 11.2839 60.0201C11.2412 60.0372 11.1814 60.0543 11.1302 60.0543C11.0619 60.0543 11.0192 60.0201 10.9935 59.9604C10.9167 59.7896 10.8313 59.4566 10.7459 59.0297C11.0021 59.0809 11.2412 59.0894 11.4973 59.0809C11.9072 59.0809 12.3341 59.0382 12.8208 58.9699C13.0343 58.9357 13.1282 58.893 13.2392 58.8247C13.2734 58.7991 13.3161 58.7906 13.3502 58.7906C13.3929 58.7906 13.4356 58.7991 13.4698 58.8247C13.6832 58.9528 13.8881 59.1236 14.0504 59.2944C14.1016 59.3456 14.1272 59.3883 14.1272 59.4395C14.1272 59.4907 14.0931 59.5334 14.0418 59.5847C13.9138 59.7042 13.8796 59.8664 13.8113 60.0287C13.5893 60.6093 13.3502 61.2753 13.0941 61.8901C13.632 61.9584 14.1358 62.0865 14.7506 62.317ZM11.8389 62.6244C10.9679 62.6586 10.4215 63.1111 10.4215 63.5978C10.4215 63.8711 10.5154 63.9906 10.7203 63.9906C10.8825 63.9906 11.0448 63.8796 11.2156 63.6661C11.4119 63.4185 11.6169 63.077 11.8389 62.6244ZM18.3368 61.7023L18.7637 61.3095C18.7979 61.2753 18.8235 61.2668 18.8491 61.2668C18.8747 61.2668 18.9003 61.2753 18.926 61.3095C19.2675 61.651 19.609 62.0011 19.9335 62.3597C20.0787 61.9072 20.1897 61.3351 20.2409 60.5751H19.0711C18.3368 60.5751 18.0892 60.5922 18.0379 60.5922C17.9525 60.5922 17.944 60.5837 17.944 60.4898V59.8494C17.944 59.764 17.9525 59.7554 18.0379 59.7554C18.0892 59.7554 18.3368 59.7725 19.0711 59.7725H19.5066V59.226C19.5066 58.8503 19.4895 58.6283 19.4383 58.3978C19.7542 58.4063 20.0274 58.4149 20.3434 58.4576C20.4288 58.4576 20.48 58.4917 20.48 58.543C20.48 58.6027 20.4544 58.6454 20.4288 58.7137C20.4031 58.782 20.3861 58.893 20.3861 59.226V59.7725H20.6337C21.3765 59.7725 21.6242 59.7554 21.6754 59.7554C21.7608 59.7554 21.7693 59.764 21.7693 59.8494V60.4898C21.7693 60.5837 21.7608 60.5922 21.6754 60.5922C21.6327 60.5922 21.4876 60.5837 21.1289 60.5751C21.0435 61.6169 20.8557 62.428 20.591 63.1026C20.9411 63.5381 21.2741 63.9906 21.59 64.4688C21.6412 64.5371 21.6498 64.5627 21.5644 64.6481L21.0606 65.1092C21.0265 65.1433 20.9923 65.1689 20.9667 65.1689C20.9411 65.1689 20.924 65.1433 20.8898 65.0921C20.6678 64.6993 20.4288 64.3236 20.1726 63.9565C19.7713 64.6481 19.165 65.3312 18.6271 65.8093C18.5417 65.8862 18.4905 65.9289 18.4478 65.9289C18.3966 65.9289 18.3539 65.8691 18.277 65.7496C18.1575 65.5446 17.9952 65.3824 17.8159 65.2458C18.5844 64.6481 19.054 64.1528 19.5749 63.1794C19.2077 62.7269 18.7893 62.2914 18.3282 61.8559C18.2599 61.8047 18.2599 61.7791 18.3368 61.7023ZM24.7493 61.0704V63.41C24.7493 64.0077 24.7664 64.6566 24.7664 65.1348C24.7664 65.5703 24.7152 65.7581 24.5017 65.9374C24.3224 66.074 23.9723 66.1253 23.144 66.1253C22.8879 66.1253 22.8879 66.1338 22.8281 65.8691C22.7598 65.6044 22.683 65.3995 22.572 65.2287C22.905 65.2543 23.2892 65.2629 23.5454 65.2543C23.793 65.2543 23.8613 65.186 23.8613 64.9811V61.0704H23.0416C22.3243 61.0704 22.0853 61.0875 22.034 61.0875C21.9486 61.0875 21.9401 61.0789 21.9401 60.9935V60.3019C21.9401 60.2165 21.9486 60.208 22.034 60.208C22.0853 60.208 22.3243 60.2251 23.0416 60.2251H23.8613V59.6188C23.8613 59.0723 23.8528 58.7991 23.8101 58.4149C24.1175 58.4234 24.4334 58.4405 24.7152 58.4661C24.8005 58.4746 24.8518 58.5173 24.8518 58.56C24.8518 58.6369 24.8262 58.6796 24.8005 58.7393C24.7493 58.8418 24.7493 59.0297 24.7493 59.6017V60.2251C25.2873 60.2251 25.4922 60.208 25.5349 60.208C25.6203 60.208 25.6288 60.2165 25.6288 60.3019V60.9935C25.6288 61.0789 25.6203 61.0875 25.5349 61.0875C25.4922 61.0875 25.2873 61.0789 24.7493 61.0704ZM21.8376 62.0096L22.3243 61.7193C22.4097 61.6681 22.4439 61.6681 22.4951 61.7364C22.8879 62.1975 23.2294 62.744 23.4856 63.3331C23.5198 63.4185 23.5112 63.4441 23.4258 63.4954L22.8794 63.8113C22.7769 63.8711 22.7598 63.8625 22.7257 63.7771C22.4695 63.1794 22.1706 62.6415 21.7949 62.1633C21.7352 62.0865 21.7522 62.0609 21.8376 62.0096ZM30.6751 62.2231H31.9901C32.8269 62.2231 33.1257 62.206 33.1855 62.206C33.2624 62.206 33.2709 62.2146 33.2709 62.3C33.2709 62.3512 33.2538 62.4707 33.2538 62.7354V62.8464C33.2538 63.0855 33.2709 63.3588 33.2709 63.5466C33.2709 63.7942 33.2197 63.965 33.066 64.0675C32.9208 64.1699 32.6817 64.2212 32.1438 64.2212C31.8706 64.2212 31.8535 64.2212 31.8022 63.9565C31.7681 63.7857 31.7254 63.6576 31.6485 63.521C31.9218 63.5381 32.0926 63.5466 32.1865 63.5466C32.3743 63.5466 32.417 63.4954 32.417 63.3246V62.9233H30.6751V63.3331C31.5546 64.2638 32.6903 64.8018 34.2443 65.186C34.1077 65.3483 33.9881 65.5446 33.8857 65.7496C33.8003 65.9118 33.7747 65.9716 33.7064 65.9716C33.6551 65.9716 33.5954 65.9545 33.5014 65.9203C32.2804 65.519 31.3753 64.9726 30.6495 64.2041C30.6581 65.2116 30.6922 65.9118 30.6922 66.0826C30.6922 66.168 30.6837 66.1765 30.5983 66.1765H29.8981C29.8213 66.1765 29.8127 66.168 29.8127 66.0826C29.8127 65.9118 29.8469 65.2543 29.8554 64.2553C29.1382 64.9726 28.2075 65.519 27.106 65.9374C27.0121 65.9716 26.9523 65.9887 26.9011 65.9887C26.8242 65.9887 26.7901 65.9289 26.7132 65.7667C26.6107 65.5788 26.4827 65.3995 26.3546 65.2629C27.8745 64.8189 29.0101 64.2041 29.8298 63.3417V62.9233H28.2331V63.6405C28.2331 63.9821 28.2502 64.1187 28.2502 64.1699C28.2502 64.2553 28.2416 64.2638 28.1648 64.2638H27.4646C27.3792 64.2638 27.3707 64.2553 27.3707 64.1699C27.3707 64.1102 27.3878 63.965 27.3878 63.5551V62.9233C27.3878 62.522 27.3707 62.3597 27.3707 62.3C27.3707 62.2146 27.3792 62.206 27.4646 62.206C27.5244 62.206 27.8232 62.2231 28.66 62.2231H29.8298V61.7876H27.8403C27.0548 61.7876 26.7901 61.8047 26.7388 61.8047C26.6449 61.8047 26.6364 61.7962 26.6364 61.7108V61.1131C26.6364 61.0277 26.6449 61.0192 26.7388 61.0192C26.7901 61.0192 27.0548 61.0362 27.8403 61.0362H29.8298C29.8298 60.7801 29.8213 60.6349 29.7786 60.3958C30.0433 60.4044 30.2994 60.43 30.5641 60.4556L30.4788 60.3873C30.3165 60.2678 30.1457 60.1738 30.0006 60.1226C30.4104 59.6786 30.6922 59.2175 30.8459 58.8076C30.8971 58.6796 30.9398 58.5344 30.974 58.3466C31.2131 58.3807 31.5546 58.4405 31.7339 58.4746C31.8193 58.5003 31.862 58.5259 31.862 58.5942C31.862 58.6625 31.8279 58.6881 31.7681 58.7308C31.7083 58.7735 31.6998 58.8247 31.6485 58.9699C31.6229 59.0211 31.6059 59.0723 31.5888 59.1236H32.861C33.6637 59.1236 33.9454 59.1065 33.9967 59.1065C34.0821 59.1065 34.0906 59.115 34.0906 59.2004V59.7554C34.0906 59.8408 34.0821 59.8494 33.9967 59.8494C33.9454 59.8494 33.6637 59.8323 32.861 59.8323H32.639C32.7671 60.0201 32.8696 60.2336 32.9635 60.4556C32.9977 60.541 32.9891 60.5581 32.8867 60.5837L32.3231 60.7203C32.195 60.7545 32.1694 60.7374 32.1438 60.652C32.0413 60.3617 31.9132 60.0799 31.7681 59.8323H31.2387C31.1362 59.9945 31.0167 60.1653 30.863 60.3531C30.8032 60.4385 30.7605 60.4898 30.7264 60.5068C30.752 60.5239 30.7605 60.541 30.7605 60.5581C30.7605 60.6093 30.7435 60.6435 30.7178 60.6947C30.6922 60.7545 30.6751 60.8398 30.6751 61.0362H32.7671C33.5527 61.0362 33.8174 61.0192 33.8686 61.0192C33.9625 61.0192 33.9711 61.0277 33.9711 61.1131V61.7108C33.9711 61.7962 33.9625 61.8047 33.8686 61.8047C33.8174 61.8047 33.5527 61.7876 32.7671 61.7876H30.6751V62.2231ZM28.2758 59.8323H27.8574C27.6781 60.1141 27.4646 60.3873 27.2084 60.6605C27.1145 60.7545 27.0718 60.8057 27.0206 60.8057C26.9694 60.8057 26.9181 60.7545 26.8157 60.6605C26.6449 60.4983 26.4656 60.3702 26.329 60.3019C26.8498 59.8494 27.2255 59.3285 27.4646 58.8076C27.5415 58.6369 27.5756 58.5259 27.6183 58.338C27.9001 58.3722 28.1733 58.4319 28.4124 58.4746C28.5063 58.5003 28.549 58.5259 28.549 58.5942C28.549 58.6625 28.5063 58.6966 28.4466 58.7308C28.3953 58.765 28.3697 58.8162 28.3099 58.9443L28.2331 59.1236H29.1382C29.864 59.1236 30.1031 59.1065 30.1543 59.1065C30.2397 59.1065 30.2482 59.115 30.2482 59.2004V59.7554C30.2482 59.8408 30.2397 59.8494 30.1543 59.8494C30.1031 59.8494 29.8725 59.8323 29.1296 59.8323C29.2492 60.0287 29.3431 60.2251 29.437 60.4471C29.4712 60.5325 29.4712 60.5495 29.3517 60.5751L28.7625 60.7203C28.6344 60.7545 28.6173 60.7374 28.5917 60.652C28.5063 60.3446 28.3953 60.0799 28.2758 59.8323Z" fill="#97634A"/>
<path d="M135.243 145.004V143.544C134.816 143.578 134.381 143.613 133.809 143.613C133.664 143.613 133.621 143.561 133.604 143.433C133.578 143.271 133.544 142.989 133.51 142.69C133.732 142.725 133.954 142.733 134.176 142.733C134.535 142.733 134.902 142.699 135.26 142.665C135.26 142.383 135.269 142.059 135.269 141.691C135.269 141.469 135.26 141.222 135.209 141C135.636 141.025 135.995 141.085 136.225 141.153C136.328 141.179 136.396 141.239 136.396 141.316C136.396 141.35 136.379 141.393 136.345 141.452C136.285 141.563 136.242 141.674 136.225 141.785C136.2 142.007 136.191 142.221 136.183 142.494C136.558 142.417 136.908 142.306 137.276 142.178C137.352 142.152 137.412 142.17 137.421 142.255C137.455 142.468 137.472 142.699 137.472 142.921C137.472 143.006 137.446 143.032 137.361 143.058C136.797 143.237 136.652 143.28 136.14 143.382C136.131 143.792 136.131 144.21 136.123 144.62C136.926 144.279 137.677 144.142 138.223 144.151C139.282 144.159 140.042 144.834 140.042 145.858C140.042 146.951 139.342 147.592 138.189 147.592C137.942 147.592 137.668 147.557 137.489 147.515C137.352 147.481 137.301 147.395 137.301 147.259C137.284 147.071 137.224 146.78 137.045 146.533C137.455 146.669 137.796 146.687 138.112 146.687C138.591 146.687 139.035 146.413 139.035 145.807C139.035 145.252 138.693 144.945 138.095 144.945C137.609 144.945 137.019 145.073 136.14 145.525C136.148 145.884 136.157 146.174 136.174 146.55C136.2 146.926 136.242 147.464 136.242 147.66C136.242 147.779 136.259 147.908 136.114 147.942C135.926 147.993 135.653 148.036 135.482 148.044C135.389 148.053 135.354 147.984 135.278 147.873C135.047 147.557 134.603 147.148 134.065 146.78C133.971 146.832 133.869 146.9 133.792 146.968C133.749 147.011 133.689 147.028 133.647 147.028C133.578 147.028 133.51 146.977 133.459 146.891C133.365 146.738 133.194 146.379 133.066 146.097C133.288 146.046 133.57 145.952 133.852 145.799C134.219 145.594 134.62 145.363 135.243 145.004ZM135.286 145.901C135.047 146.063 134.757 146.26 134.449 146.482C134.688 146.61 134.979 146.755 135.252 146.866C135.32 146.883 135.346 146.874 135.337 146.798C135.32 146.576 135.303 146.183 135.286 145.901ZM138.138 142.665C138.249 142.434 138.386 142.212 138.531 141.999C138.591 141.905 138.616 141.879 138.676 141.896C139.461 142.127 140.042 142.486 140.486 142.938C140.52 142.972 140.537 142.998 140.537 143.023C140.537 143.049 140.52 143.075 140.503 143.109C140.392 143.28 140.17 143.544 140.042 143.715C140.017 143.749 139.897 143.758 139.871 143.715C139.419 143.211 138.821 142.895 138.138 142.665ZM146.839 142.912H145.763C144.96 142.912 144.687 142.93 144.636 142.93C144.551 142.93 144.542 142.921 144.542 142.827V142.178C144.542 142.093 144.551 142.084 144.636 142.084C144.687 142.084 144.96 142.101 145.763 142.101H146.822V141.785C146.813 141.213 146.813 140.949 146.762 140.564C147.104 140.573 147.334 140.59 147.633 140.624C147.718 140.641 147.778 140.675 147.778 140.718C147.778 140.778 147.753 140.829 147.727 140.889C147.676 140.991 147.667 141.077 147.667 141.546V142.101H147.932C148.726 142.101 148.999 142.084 149.05 142.084C149.136 142.084 149.144 142.093 149.144 142.178V142.827C149.144 142.921 149.136 142.93 149.05 142.93C148.999 142.93 148.726 142.912 147.932 142.912H147.693C147.735 144.133 147.846 145.175 148.034 146.089C148.162 146.712 148.333 147.079 148.478 147.079C148.606 147.079 148.692 146.78 148.726 145.944C148.888 146.063 149.059 146.157 149.204 146.217C149.452 146.319 149.435 146.354 149.409 146.618C149.289 147.762 149.016 148.164 148.53 148.164C148.06 148.164 147.556 147.745 147.223 146.379C147.001 145.465 146.882 144.236 146.839 142.912ZM144.149 146.302V146.891C144.149 147.882 144.166 148.07 144.166 148.121C144.166 148.206 144.158 148.215 144.072 148.215H143.449C143.364 148.215 143.355 148.206 143.355 148.121V147.89H142.578V148.275C142.578 148.36 142.57 148.369 142.484 148.369H141.869C141.775 148.369 141.767 148.36 141.767 148.275C141.767 148.223 141.784 148.027 141.784 146.994V146.447C141.784 145.91 141.767 145.705 141.767 145.645C141.767 145.559 141.775 145.551 141.869 145.551C141.921 145.551 142.1 145.568 142.646 145.568H143.287C143.833 145.568 144.013 145.551 144.072 145.551C144.158 145.551 144.166 145.559 144.166 145.645C144.166 145.696 144.149 145.901 144.149 146.302ZM143.355 146.277H142.578V147.19H143.355V146.277ZM145.217 143.835H145.84C146.318 143.835 146.455 143.818 146.506 143.818C146.6 143.818 146.608 143.826 146.608 143.92V144.509C146.608 144.603 146.6 144.612 146.506 144.612C146.455 144.612 146.335 144.603 145.976 144.595V146.302C146.284 146.208 146.6 146.106 146.924 145.986C146.907 146.114 146.899 146.302 146.89 146.482C146.89 146.755 146.89 146.755 146.642 146.849C146.045 147.079 145.49 147.259 144.96 147.412C144.79 147.446 144.738 147.481 144.687 147.515C144.644 147.549 144.602 147.566 144.568 147.566C144.516 147.566 144.482 147.532 144.457 147.455C144.405 147.284 144.329 146.96 144.277 146.669C144.551 146.644 144.79 146.601 145.029 146.55L145.165 146.524V144.595C144.73 144.595 144.602 144.612 144.551 144.612C144.465 144.612 144.457 144.603 144.457 144.509V143.92C144.457 143.826 144.465 143.818 144.551 143.818C144.602 143.818 144.738 143.835 145.217 143.835ZM142.441 142.041H143.312C143.961 142.041 144.175 142.024 144.218 142.024C144.303 142.024 144.311 142.033 144.311 142.118V142.725C144.311 142.819 144.303 142.827 144.218 142.827C144.175 142.827 143.961 142.81 143.312 142.81H142.441C141.784 142.81 141.579 142.827 141.528 142.827C141.442 142.827 141.434 142.819 141.434 142.725V142.118C141.434 142.033 141.442 142.024 141.528 142.024C141.579 142.024 141.784 142.041 142.441 142.041ZM142.655 140.872H143.312C143.859 140.872 144.03 140.855 144.081 140.855C144.175 140.855 144.175 140.863 144.175 140.949V141.512C144.175 141.597 144.175 141.606 144.081 141.606C144.03 141.606 143.859 141.589 143.312 141.589H142.655C142.1 141.589 141.929 141.606 141.878 141.606C141.793 141.606 141.784 141.597 141.784 141.512V140.949C141.784 140.863 141.793 140.855 141.878 140.855C141.929 140.855 142.1 140.872 142.655 140.872ZM142.663 143.254H143.27C143.782 143.254 143.936 143.237 143.987 143.237C144.081 143.237 144.089 143.245 144.089 143.331V143.886C144.089 143.971 144.081 143.98 143.987 143.98C143.936 143.98 143.782 143.963 143.27 143.963H142.663C142.143 143.963 141.989 143.98 141.938 143.98C141.852 143.98 141.844 143.971 141.844 143.886V143.331C141.844 143.245 141.852 143.237 141.938 143.237C141.989 143.237 142.143 143.254 142.663 143.254ZM142.663 144.407H143.27C143.782 144.407 143.936 144.39 143.987 144.39C144.081 144.39 144.089 144.398 144.089 144.484V145.03C144.089 145.115 144.081 145.124 143.987 145.124C143.936 145.124 143.782 145.107 143.27 145.107H142.663C142.143 145.107 141.989 145.124 141.938 145.124C141.852 145.124 141.844 145.115 141.844 145.03V144.484C141.844 144.398 141.852 144.39 141.938 144.39C141.989 144.39 142.143 144.407 142.663 144.407ZM148 140.949L148.393 140.778C148.495 140.727 148.512 140.735 148.572 140.812C148.769 141.077 148.905 141.324 149.05 141.649C149.085 141.726 149.059 141.76 148.948 141.811L148.547 141.999C148.427 142.059 148.419 142.041 148.393 141.956C148.265 141.623 148.12 141.358 147.932 141.094C147.881 141.017 147.898 140.991 148 140.949ZM151.86 140.949C152.252 140.991 152.662 141.034 152.927 141.102C153.072 141.136 153.132 141.179 153.132 141.264C153.132 141.358 153.081 141.461 153.046 141.546C153.004 141.666 152.97 141.93 152.927 142.588C152.842 143.903 152.799 144.774 152.799 145.892C152.799 146.755 152.901 146.951 153.584 146.951C154.344 146.951 155.531 146.49 156.573 145.38C156.607 145.705 156.684 145.986 156.769 146.191C156.812 146.285 156.838 146.345 156.838 146.396C156.838 146.473 156.803 146.541 156.667 146.661C155.745 147.506 154.541 147.942 153.431 147.942C152.338 147.942 151.825 147.506 151.825 146.2C151.825 144.765 151.902 143.536 151.945 142.511C151.962 142.007 151.988 141.461 151.86 140.949ZM162.251 141.956H162.021C161.184 141.956 160.902 141.973 160.851 141.973C160.765 141.973 160.757 141.965 160.757 141.879V141.247C160.757 141.153 160.765 141.145 160.851 141.145C160.902 141.145 161.184 141.162 162.021 141.162H165.043C165.88 141.162 166.162 141.145 166.213 141.145C166.298 141.145 166.307 141.153 166.307 141.247V141.879C166.307 141.965 166.298 141.973 166.213 141.973C166.162 141.973 165.88 141.956 165.043 141.956H164.497V143.271H164.762C165.59 143.271 165.889 143.254 165.948 143.254C166.034 143.254 166.042 143.263 166.042 143.348C166.042 143.399 166.025 143.732 166.025 144.748V146.234C166.025 147.737 166.042 148.053 166.042 148.104C166.042 148.189 166.034 148.198 165.948 148.198H165.282C165.197 148.198 165.188 148.189 165.188 148.104V147.745H161.611V148.138C161.611 148.223 161.602 148.232 161.517 148.232H160.859C160.774 148.232 160.765 148.223 160.765 148.138C160.765 148.087 160.783 147.771 160.783 146.26V144.91C160.783 143.732 160.765 143.408 160.765 143.348C160.765 143.263 160.774 143.254 160.859 143.254C160.911 143.254 161.201 143.271 162.029 143.271H162.251V141.956ZM165.188 144.022H164.497V146.985H165.188V144.022ZM163.045 146.985H163.703V144.022H163.045V146.985ZM161.611 146.985H162.251V144.022H161.611V146.985ZM163.045 143.271H163.703V141.956H163.045V143.271ZM159.22 146.994V145.184C159.22 144.876 159.22 144.492 159.228 144.125C159.1 144.313 158.955 144.492 158.802 144.68C158.733 144.757 158.682 144.799 158.648 144.799C158.597 144.799 158.571 144.748 158.554 144.654C158.503 144.364 158.4 144.057 158.298 143.877C158.955 143.109 159.416 142.17 159.758 141.128C159.818 140.923 159.869 140.727 159.894 140.513C160.176 140.598 160.441 140.684 160.68 140.803C160.765 140.838 160.817 140.88 160.817 140.957C160.817 141.017 160.774 141.06 160.723 141.111C160.663 141.162 160.629 141.239 160.552 141.452C160.398 141.888 160.245 142.289 160.065 142.673V146.994C160.065 147.822 160.082 148.241 160.082 148.283C160.082 148.369 160.074 148.377 159.988 148.377H159.297C159.211 148.377 159.203 148.369 159.203 148.283C159.203 148.232 159.22 147.822 159.22 146.994ZM171.874 141.35H173.462C173.531 141.35 173.582 141.341 173.616 141.324C173.65 141.307 173.684 141.299 173.71 141.299C173.778 141.299 173.855 141.324 174.043 141.521C174.222 141.726 174.248 141.785 174.248 141.854C174.248 141.913 174.222 141.956 174.154 142.007C174.094 142.05 174.043 142.11 173.958 142.264C173.676 142.793 173.326 143.271 172.899 143.707C173.522 144.125 174.248 144.424 175.034 144.603C174.914 144.782 174.82 144.987 174.769 145.192C174.701 145.457 174.701 145.457 174.436 145.389C174.308 145.346 174.171 145.303 174.052 145.252C174.052 145.312 174.034 145.551 174.034 146.089V146.84C174.034 148.001 174.052 148.215 174.052 148.258C174.052 148.343 174.043 148.352 173.958 148.352H173.283C173.198 148.352 173.189 148.343 173.189 148.258V147.925H171.2V148.266C171.2 148.352 171.191 148.36 171.106 148.36H170.448C170.363 148.36 170.354 148.352 170.354 148.266C170.354 148.215 170.371 148.001 170.371 146.849V146.2C170.371 145.747 170.363 145.508 170.354 145.38L170.098 145.483C170.004 145.517 169.944 145.542 169.893 145.542C169.816 145.542 169.782 145.474 169.714 145.312C169.654 145.141 169.543 144.953 169.424 144.817C170.286 144.543 171.037 144.159 171.652 143.707C171.388 143.433 171.157 143.134 170.961 142.81C170.781 143.023 170.593 143.22 170.388 143.408C170.286 143.502 170.235 143.544 170.192 143.544C170.141 143.544 170.09 143.493 170.004 143.382C169.885 143.237 169.757 143.109 169.611 143.015C169.518 143.015 169.364 143.006 169.142 143.006C169.372 143.408 169.646 143.749 169.953 144.031C169.842 144.185 169.74 144.373 169.68 144.569C169.646 144.68 169.629 144.731 169.586 144.731C169.56 144.731 169.518 144.688 169.458 144.603C169.313 144.407 169.167 144.185 169.048 143.946C169.048 146.26 169.108 148.112 169.108 148.258C169.108 148.352 169.099 148.36 169.005 148.36H168.314C168.228 148.36 168.22 148.352 168.22 148.258C168.22 148.121 168.271 146.473 168.279 144.475C168.083 145.167 167.793 145.807 167.443 146.362C167.391 146.447 167.349 146.499 167.315 146.499C167.28 146.499 167.246 146.456 167.221 146.362C167.152 146.14 167.05 145.91 166.922 145.713C167.485 144.962 167.921 144.099 168.203 143.006H168.023C167.426 143.006 167.238 143.023 167.186 143.023C167.11 143.023 167.101 143.015 167.101 142.93V142.323C167.101 142.238 167.11 142.229 167.186 142.229C167.238 142.229 167.426 142.246 168.023 142.246H168.254V141.708C168.254 141.179 168.245 140.897 168.186 140.539C168.51 140.547 168.775 140.564 169.039 140.598C169.125 140.607 169.185 140.641 169.185 140.692C169.185 140.761 169.159 140.812 169.133 140.872C169.082 140.974 169.074 141.111 169.074 141.691V142.246C169.577 142.246 169.74 142.229 169.791 142.229C169.876 142.229 169.885 142.238 169.885 142.323V142.759C170.414 142.238 170.85 141.615 171.14 140.957C171.217 140.786 171.268 140.633 171.302 140.47C171.592 140.513 171.857 140.564 172.088 140.624C172.182 140.65 172.224 140.684 172.224 140.727C172.224 140.769 172.199 140.803 172.156 140.846C172.088 140.906 172.045 140.974 171.994 141.085L171.874 141.35ZM171.2 145.961V147.182H173.189V145.961H171.2ZM170.807 145.184H172.95C173.462 145.184 173.727 145.175 173.855 145.175C173.275 144.928 172.745 144.637 172.284 144.27C171.857 144.612 171.362 144.919 170.807 145.184ZM171.473 142.084L171.439 142.144C171.652 142.537 171.934 142.887 172.258 143.194C172.617 142.844 172.907 142.468 173.112 142.084H171.473Z" fill="#97634A"/>
<path d="M33.8555 143.544H33.8128C32.976 143.544 32.6772 143.561 32.626 143.561C32.5406 143.561 32.532 143.553 32.532 143.467V142.844C32.532 142.759 32.5406 142.75 32.626 142.75C32.6772 142.75 32.976 142.767 33.8128 142.767H34.3081C34.4191 142.503 34.513 142.229 34.5899 141.93C34.2312 141.973 33.8641 142.007 33.4798 142.041C33.2322 142.067 33.2322 142.067 33.1724 141.871C33.0956 141.606 32.9931 141.375 32.8907 141.247C34.3593 141.179 35.4352 141.06 36.3061 140.846C36.6221 140.769 36.8014 140.692 36.9721 140.598C37.1941 140.761 37.4076 140.957 37.5698 141.136C37.6296 141.196 37.6552 141.239 37.6552 141.299C37.6552 141.35 37.5955 141.401 37.5015 141.401C37.382 141.41 37.2368 141.452 37.0575 141.486C36.5623 141.606 36.0585 141.708 35.5291 141.794C35.4437 142.144 35.3413 142.468 35.2217 142.767H37.0831C37.9199 142.767 38.2188 142.75 38.27 142.75C38.3469 142.75 38.3554 142.759 38.3554 142.844V143.467C38.3554 143.553 38.3469 143.561 38.27 143.561C38.2188 143.561 37.9199 143.544 37.0831 143.544H36.5281C36.9636 144.133 37.6467 144.569 38.5091 144.817C38.381 144.962 38.27 145.141 38.1761 145.363C38.1078 145.517 38.0822 145.576 38.0224 145.576C37.9797 145.576 37.9199 145.551 37.8175 145.5C36.8099 145.021 36.0756 144.381 35.5889 143.544H34.846C34.402 144.313 33.7872 144.919 32.9163 145.483C32.8224 145.542 32.7626 145.576 32.7199 145.576C32.6601 145.576 32.626 145.517 32.5577 145.397C32.4381 145.184 32.31 145.004 32.1649 144.893C32.9334 144.492 33.4713 144.057 33.8555 143.544ZM35.2388 145.32V146.302C35.2388 146.721 35.2473 147.105 35.2473 147.429C35.2473 147.771 35.2046 147.967 34.9997 148.138C34.846 148.258 34.6325 148.292 34.0946 148.292C33.8214 148.292 33.8299 148.292 33.7701 148.044C33.7189 147.822 33.6506 147.617 33.5396 147.464C33.7958 147.489 33.9665 147.498 34.1715 147.498C34.3593 147.498 34.4191 147.438 34.4191 147.25V145.448C34.4191 145.047 34.4105 144.765 34.3593 144.526C34.6582 144.543 34.9912 144.577 35.2046 144.62C35.2815 144.629 35.3327 144.671 35.3327 144.714C35.3327 144.757 35.3156 144.799 35.2986 144.834C35.2644 144.893 35.2388 144.979 35.2388 145.32ZM30.5938 147.797C30.756 147.557 30.8585 147.387 30.9865 147.096C31.2085 146.601 31.4647 145.918 31.6952 145.056C31.8233 145.184 32.0026 145.346 32.182 145.474C32.404 145.628 32.404 145.628 32.3356 145.875C32.1307 146.567 31.8916 147.233 31.6526 147.822C31.5928 147.967 31.5586 148.087 31.5501 148.164C31.5416 148.232 31.5159 148.283 31.4562 148.283C31.4049 148.283 31.3537 148.266 31.2854 148.232C31.0805 148.121 30.8414 147.984 30.5938 147.797ZM33.4884 145.491L33.9495 145.696C34.0434 145.73 34.069 145.756 34.0434 145.841C33.8385 146.499 33.4798 147.224 33.1297 147.745C33.1041 147.788 33.0785 147.805 33.0529 147.805C33.0273 147.805 33.0017 147.797 32.959 147.762L32.4893 147.438C32.3869 147.37 32.3869 147.344 32.4381 147.276C32.8309 146.746 33.1468 146.072 33.3261 145.525C33.3603 145.431 33.3688 145.44 33.4884 145.491ZM36.7843 145.653L37.1941 145.44C37.2881 145.389 37.3137 145.38 37.3735 145.457C37.7662 145.986 38.0736 146.558 38.3469 147.19C38.381 147.284 38.3725 147.31 38.2786 147.361L37.8004 147.626C37.7492 147.651 37.715 147.668 37.6979 147.668C37.6638 147.668 37.6467 147.651 37.6296 147.6C37.3478 146.891 37.0661 146.362 36.716 145.799C36.6733 145.722 36.6989 145.705 36.7843 145.653ZM35.6401 145.611L36.0841 145.465C36.1951 145.431 36.2122 145.431 36.2464 145.508C36.494 146.046 36.7245 146.729 36.8782 147.404C36.8953 147.481 36.8868 147.515 36.7757 147.549L36.2549 147.72C36.1439 147.754 36.1183 147.762 36.1012 147.668C35.9731 147.045 35.7767 146.328 35.5462 145.756C35.512 145.67 35.5291 145.645 35.6401 145.611ZM30.9865 141.188L31.3793 140.727C31.4476 140.641 31.4732 140.641 31.5501 140.684C31.9685 140.931 32.3613 141.239 32.7284 141.58C32.7626 141.606 32.7797 141.623 32.7797 141.649C32.7797 141.674 32.7626 141.7 32.7284 141.751L32.3442 142.289C32.2759 142.375 32.2588 142.366 32.1905 142.315C31.8148 141.948 31.3964 141.597 30.9865 141.35C30.9438 141.324 30.9268 141.307 30.9268 141.29C30.9268 141.264 30.9438 141.239 30.9865 141.188ZM30.6535 143.339L31.0036 142.878C31.0719 142.793 31.0975 142.793 31.1744 142.836C31.5928 143.066 32.0026 143.356 32.3954 143.707C32.4296 143.741 32.4467 143.758 32.4467 143.775C32.4467 143.8 32.4296 143.826 32.3954 143.877L32.0026 144.424C31.977 144.466 31.9599 144.484 31.9343 144.484C31.9173 144.484 31.8916 144.466 31.8575 144.432C31.4989 144.074 31.0805 143.758 30.6621 143.502C30.6194 143.476 30.5938 143.459 30.5938 143.442C30.5938 143.416 30.6194 143.382 30.6535 143.339ZM46.7062 143.433V145.201C46.7062 147.429 46.7233 147.873 46.7233 147.925C46.7233 148.019 46.7147 148.027 46.6294 148.027H45.9121C45.8353 148.027 45.8267 148.019 45.8267 147.925V147.344H44.563V147.993C44.563 148.087 44.5545 148.095 44.4605 148.095H43.7689C43.675 148.095 43.6664 148.087 43.6664 147.993C43.6664 147.942 43.6835 147.489 43.6835 145.235V143.681C43.6835 142.118 43.6664 141.649 43.6664 141.589C43.6664 141.504 43.675 141.495 43.7689 141.495C43.8201 141.495 44.0336 141.512 44.6569 141.512H45.7413C46.3647 141.512 46.5781 141.495 46.6294 141.495C46.7147 141.495 46.7233 141.504 46.7233 141.589C46.7233 141.64 46.7062 142.11 46.7062 143.433ZM45.8267 142.332H44.563V146.533H45.8267V142.332ZM42.2405 143.058H41.4037C41.3439 143.988 41.2329 144.825 41.0536 145.534C40.8316 146.413 40.4986 147.242 39.9094 148.001C39.8326 148.095 39.7899 148.147 39.7472 148.147C39.7045 148.147 39.6704 148.104 39.602 148.001C39.4313 147.737 39.252 147.549 39.0641 147.395C39.6447 146.712 39.9692 146.08 40.1997 145.218C40.3791 144.569 40.473 143.903 40.5157 143.058H40.4047C39.6789 143.058 39.4313 143.075 39.38 143.075C39.2947 143.075 39.2861 143.066 39.2861 142.981V142.34C39.2861 142.255 39.2947 142.255 39.38 142.255C39.4313 142.255 39.6789 142.264 40.4047 142.264H40.5413C40.5498 142.101 40.5498 141.93 40.5498 141.743C40.5498 141.213 40.5328 140.949 40.4901 140.539C40.7975 140.547 41.1048 140.564 41.4122 140.59C41.4976 140.607 41.5403 140.641 41.5403 140.684C41.5403 140.744 41.4976 140.838 41.4805 140.923C41.4549 141.034 41.4379 141.247 41.4379 141.768C41.4379 141.939 41.4379 142.101 41.4293 142.264H41.9843C42.7187 142.264 42.9663 142.255 43.0175 142.255C43.1029 142.255 43.12 142.264 43.12 142.349C43.1029 142.639 43.1029 142.887 43.1029 143.16C43.0858 144.842 43.009 146.2 42.8553 147.139C42.7443 147.805 42.4113 148.095 41.7709 148.095C41.6001 148.095 41.4635 148.095 41.3012 148.078C41.0792 148.061 41.0792 148.061 41.0536 147.788C41.028 147.566 40.9768 147.361 40.8999 147.173C41.1646 147.224 41.3781 147.242 41.6086 147.242C41.8477 147.242 41.9502 147.148 42.0185 146.712C42.138 145.969 42.2149 144.74 42.2405 143.058ZM49.1739 143.1H48.6786C48.6359 143.45 48.5762 143.8 48.4993 144.099C48.4566 144.244 48.4395 144.304 48.3883 144.304C48.3542 144.304 48.2944 144.27 48.2005 144.219C48.0638 144.151 47.8418 144.082 47.6967 144.048C47.9358 143.254 48.0297 142.477 48.0553 141.811C48.0638 141.649 48.0638 141.478 48.0382 141.264C48.2688 141.29 48.5506 141.324 48.7555 141.358C48.8494 141.375 48.8836 141.41 48.8836 141.461C48.8836 141.512 48.875 141.538 48.8494 141.597C48.8152 141.666 48.8067 141.751 48.7982 141.888C48.7896 142.024 48.7811 142.161 48.764 142.306H49.1739V141.837C49.1739 141.23 49.1568 140.974 49.1056 140.547C49.4215 140.556 49.6947 140.573 49.985 140.607C50.0704 140.616 50.1217 140.65 50.1217 140.692C50.1217 140.761 50.096 140.803 50.0704 140.872C50.0277 140.974 50.0192 141.188 50.0192 141.819V142.306C50.4717 142.306 50.6425 142.289 50.6852 142.289C50.7706 142.289 50.7791 142.298 50.7791 142.375V142.955C51.2317 142.417 51.5135 141.854 51.7269 141.222C51.7952 141 51.8465 140.795 51.8806 140.539C52.1112 140.573 52.4356 140.624 52.6833 140.684C52.7772 140.709 52.8284 140.744 52.8284 140.803C52.8284 140.863 52.8028 140.906 52.743 140.974C52.6833 141.042 52.6406 141.153 52.5723 141.367C52.4954 141.597 52.4015 141.828 52.299 142.067H54.2885C54.9375 142.067 55.1424 142.05 55.1936 142.05C55.2875 142.05 55.3132 142.076 55.3132 142.161C55.3046 142.392 55.2961 142.622 55.2961 142.827C55.279 144.868 55.2107 145.952 55.0485 146.934C54.9118 147.848 54.5361 148.283 53.7762 148.283C53.6225 148.283 53.3834 148.283 53.1614 148.266C52.8967 148.249 52.8967 148.249 52.8455 147.967C52.7943 147.694 52.726 147.489 52.6406 147.327C53.0333 147.395 53.3322 147.412 53.6396 147.412C54.0238 147.412 54.1519 147.156 54.2202 146.704C54.3483 145.781 54.4508 144.834 54.4849 143.015C53.8787 145.167 53.0333 146.687 51.5562 147.831C51.4537 147.908 51.3939 147.95 51.3427 147.95C51.2829 147.95 51.2402 147.899 51.1634 147.788C51.0182 147.575 50.8474 147.421 50.6938 147.318C52.3076 146.225 53.1785 144.765 53.7335 142.836H53.17C52.7686 144.159 52.1453 145.158 51.2829 145.944C51.189 146.038 51.1292 146.08 51.078 146.08C51.0268 146.08 50.9841 146.038 50.9072 145.935C50.7621 145.756 50.5828 145.602 50.4291 145.5C51.3256 144.842 51.9746 143.98 52.3503 142.836H51.8977C51.7184 143.134 51.5049 143.425 51.2658 143.698C51.1719 143.8 51.1292 143.843 51.0865 143.843C51.0353 143.843 50.9926 143.8 50.8987 143.707C50.7364 143.553 50.5571 143.433 50.412 143.348L50.634 143.117C50.5486 143.117 50.3607 143.109 50.0192 143.1V144.475C50.2668 144.355 50.5315 144.227 50.8133 144.074C50.8133 144.227 50.8133 144.458 50.8304 144.646C50.8474 144.902 50.8474 144.91 50.6169 145.03C50.412 145.141 50.2156 145.243 50.0192 145.337V146.78C50.0192 147.754 50.0363 148.241 50.0363 148.283C50.0363 148.369 50.0277 148.377 49.9424 148.377H49.2507C49.1653 148.377 49.1568 148.369 49.1568 148.283C49.1568 148.232 49.1739 147.754 49.1739 146.789V145.73C48.9775 145.816 48.7726 145.892 48.5762 145.969C48.4481 146.029 48.3456 146.08 48.3029 146.123C48.2517 146.174 48.209 146.208 48.1578 146.208C48.098 146.208 48.0553 146.183 48.0212 146.114C47.9187 145.867 47.8162 145.551 47.7308 145.286C48.0126 145.226 48.2517 145.158 48.5335 145.064C48.7469 144.996 48.9604 144.919 49.1739 144.842V143.1ZM59.9326 141.973H57.593C56.8245 141.973 56.5598 141.99 56.5086 141.99C56.4232 141.99 56.4147 141.982 56.4147 141.888V141.196C56.4147 141.102 56.4232 141.094 56.5086 141.094C56.5598 141.094 56.8245 141.111 57.593 141.111H62.7333C63.5017 141.111 63.7579 141.094 63.8177 141.094C63.9031 141.094 63.9116 141.102 63.9116 141.196V141.888C63.9116 141.982 63.9031 141.99 63.8177 141.99C63.7579 141.99 63.5017 141.973 62.7333 141.973H60.9572C60.8291 142.221 60.6925 142.468 60.5474 142.708V146.994C60.5474 147.779 60.5644 148.172 60.5644 148.223C60.5644 148.309 60.5559 148.317 60.4705 148.317H59.685C59.5996 148.317 59.591 148.309 59.591 148.223C59.591 148.164 59.6081 147.779 59.6081 146.994V143.98C58.8823 144.817 58.0028 145.542 56.9953 146.132C56.9014 146.183 56.8501 146.217 56.8074 146.217C56.7477 146.217 56.7135 146.166 56.6281 146.021C56.5 145.816 56.3634 145.653 56.1585 145.5C57.7979 144.688 59.147 143.442 59.9326 141.973ZM60.8718 143.647L61.2731 143.245C61.3073 143.211 61.3329 143.194 61.3585 143.194C61.3841 143.194 61.4012 143.211 61.4354 143.245C62.127 144.133 63.22 144.962 64.1848 145.397C64.0226 145.568 63.8774 145.781 63.7579 145.986C63.681 146.123 63.6469 146.183 63.5957 146.183C63.553 146.183 63.5017 146.14 63.3907 146.08C62.4515 145.542 61.5122 144.706 60.8377 143.835C60.7779 143.758 60.7864 143.732 60.8718 143.647ZM69.2482 142.306H68.3175C67.4722 142.306 67.1904 142.323 67.1392 142.323C67.0538 142.323 67.0453 142.315 67.0453 142.229V141.589C67.0453 141.504 67.0538 141.495 67.1392 141.495C67.1904 141.495 67.4722 141.512 68.3175 141.512H69.2482V141.461C69.2482 141.025 69.2397 140.803 69.197 140.556C69.5044 140.564 69.7947 140.573 70.068 140.607C70.1533 140.616 70.2131 140.65 70.2131 140.701C70.2131 140.761 70.1875 140.82 70.1619 140.872C70.1277 140.949 70.1021 141.077 70.1021 141.461V141.512H71.3061C72.1429 141.512 72.4332 141.495 72.4759 141.495C72.5698 141.495 72.5783 141.504 72.5783 141.589V142.229C72.5783 142.315 72.5698 142.323 72.4759 142.323C72.4332 142.323 72.1429 142.306 71.3061 142.306H70.1021V142.964H70.8706C71.6818 142.964 71.9721 142.947 72.0233 142.947C72.1087 142.947 72.1172 142.955 72.1172 143.041C72.1172 143.092 72.1002 143.271 72.1002 143.724V144.595C72.1002 145.039 72.1172 145.226 72.1172 145.278C72.1172 145.363 72.1087 145.372 72.0233 145.372C71.9721 145.372 71.6818 145.354 70.8706 145.354H70.0082C69.9655 145.696 69.9057 145.986 69.8118 146.225C69.735 146.413 69.6581 146.584 69.5642 146.746C70.3839 147.156 71.4171 147.327 72.7235 147.378C72.621 147.54 72.5271 147.762 72.4673 147.993C72.4161 148.258 72.4161 148.258 72.1429 148.241C70.8621 148.147 69.8545 147.873 69.0433 147.387C68.6762 147.711 68.1468 148.001 67.3441 148.258C67.2587 148.283 67.199 148.3 67.1563 148.3C67.0709 148.3 67.0367 148.241 66.9684 148.087C66.8745 147.865 66.7635 147.686 66.6269 147.549C67.4466 147.37 67.976 147.156 68.3432 146.883C68.0358 146.618 67.7625 146.302 67.5234 145.952C67.4722 145.875 67.4807 145.858 67.5832 145.799L68.0187 145.551C68.1126 145.5 68.1382 145.5 68.1895 145.568C68.3944 145.85 68.6164 146.089 68.864 146.294C68.9238 146.191 68.9665 146.089 69.0177 145.978C69.086 145.799 69.1372 145.594 69.1714 145.354H68.531C67.7198 145.354 67.4295 145.372 67.3868 145.372C67.3014 145.372 67.2929 145.363 67.2929 145.278C67.2929 145.226 67.31 145.039 67.31 144.595V143.724C67.31 143.271 67.2929 143.1 67.2929 143.041C67.2929 142.955 67.3014 142.947 67.3868 142.947C67.4295 142.947 67.7198 142.964 68.531 142.964H69.2482V142.306ZM70.0765 144.629H71.2634V143.698H70.1021L70.0765 144.629ZM69.2482 143.698H68.1297V144.629H69.2312C69.2397 144.355 69.2482 144.04 69.2482 143.698ZM65.6279 146.96V144.996C65.6279 144.688 65.6364 144.321 65.6449 143.954C65.4912 144.176 65.3205 144.39 65.1497 144.595C65.0899 144.671 65.0387 144.706 65.0045 144.706C64.9618 144.706 64.9277 144.654 64.9021 144.552C64.8338 144.27 64.7228 144.005 64.5947 143.835C65.2863 143.058 65.8072 142.101 66.1402 141.102C66.2085 140.906 66.2512 140.701 66.2683 140.496C66.5586 140.573 66.8489 140.658 67.088 140.752C67.1819 140.795 67.2331 140.82 67.2331 140.88C67.2331 140.94 67.2075 140.983 67.1392 141.034C67.0794 141.077 67.0367 141.153 66.9599 141.375C66.8233 141.768 66.661 142.144 66.4903 142.511V146.96C66.4903 147.797 66.5073 148.215 66.5073 148.258C66.5073 148.343 66.4988 148.352 66.4134 148.352H65.7047C65.6193 148.352 65.6108 148.343 65.6108 148.258C65.6108 148.206 65.6279 147.797 65.6279 146.96ZM80.6132 142.409V146.191C80.6132 146.584 80.6303 147.02 80.6303 147.37C80.6303 147.686 80.5449 147.899 80.3485 148.061C80.1863 148.206 79.9301 148.283 79.2214 148.283C78.9567 148.283 78.9567 148.283 78.9055 148.036C78.8457 147.762 78.7688 147.566 78.6664 147.387C79.0165 147.412 79.1787 147.421 79.4605 147.421C79.6569 147.421 79.7337 147.335 79.7337 147.139V145.722H77.7271V146.738C77.7271 147.566 77.7442 147.95 77.7442 148.001C77.7442 148.087 77.7357 148.095 77.6503 148.095H76.916C76.8306 148.095 76.822 148.087 76.822 148.001C76.822 147.942 76.8391 147.566 76.8391 146.738V145.722H74.8923C74.7728 146.78 74.5422 147.438 74.1494 148.087C74.0811 148.206 74.0384 148.258 73.9957 148.258C73.953 148.258 73.9104 148.215 73.8164 148.121C73.6115 147.916 73.4151 147.788 73.2102 147.686C73.8335 146.883 74.0897 145.867 74.0897 143.809V142.409C74.0897 141.521 74.0726 141.06 74.0726 141.008C74.0726 140.914 74.0811 140.906 74.1751 140.906C74.2263 140.906 74.5251 140.923 75.3448 140.923H79.358C80.1863 140.923 80.4766 140.906 80.5363 140.906C80.6217 140.906 80.6303 140.914 80.6303 141.008C80.6303 141.06 80.6132 141.521 80.6132 142.409ZM77.7271 144.928H79.7337V143.724H77.7271V144.928ZM79.7337 141.743H77.7271V142.93H79.7337V141.743ZM74.9521 144.928H76.8391V143.724H74.9777V143.818C74.9777 144.227 74.9691 144.595 74.9521 144.928ZM74.9777 142.93H76.8391V141.743H74.9777V142.93Z" fill="#97634A"/>
<path d="M100.228 23.0023L100.019 22.8211L99.8457 23.0372L62.7311 69.3331L62.6608 69.4207L62.6744 69.5322L69.1744 123.032L69.1984 123.23L69.3954 123.263L138.395 134.763L138.662 134.808L138.703 134.54L149.203 65.5401L149.225 65.3946L149.114 65.2982L100.228 23.0023Z" fill="#FFD5D6" fill-opacity="0.3" stroke="#F49798" stroke-width="0.533666"/>
</svg>
