<svg width="48" height="38" viewBox="0 0 48 38" fill="none" xmlns="http://www.w3.org/2000/svg">
<g clip-path="url(#clip0_44_8910)">
<path d="M42.4812 6.4901L10.6674 1.78774C7.92776 1.3828 5.37977 3.27457 4.97483 6.01418L2.79281 20.7767C2.38787 23.5163 4.27963 26.0643 7.01924 26.4692L14.1825 27.528C14.871 27.6298 15.4999 27.9733 15.9564 28.4983L20.9174 34.1944C21.515 34.8813 22.5236 35.0304 23.2944 34.5457L29.6911 30.5284C30.28 30.1579 30.9813 30.011 31.6699 30.1128L38.8331 31.1716C41.5727 31.5765 44.1207 29.6847 44.5256 26.9451L46.7077 12.1826C47.1126 9.44303 45.2208 6.89504 42.4812 6.4901Z" fill="#A7A7A7"/>
<path d="M42.0506 5.52612L9.00937 0.642345C6.6089 0.287536 4.37604 1.94533 4.02123 4.34579L1.65779 20.3357C1.30298 22.7361 2.96077 24.969 5.36124 25.3238L13.4435 26.5184C13.9339 26.5909 14.3838 26.8359 14.7094 27.2111L19.7639 33.0156C20.4243 33.7748 21.5387 33.9395 22.3905 33.4038L28.9081 29.3098C29.3281 29.0463 29.8283 28.9403 30.3202 29.013L38.4025 30.2076C40.8029 30.5624 43.0358 28.9046 43.3906 26.5041L45.754 10.5143C46.1089 8.1138 44.4511 5.88093 42.0506 5.52612Z" fill="#F44E66"/>
<path d="M18.7046 20.9377L13.7844 15.9497C13.2416 15.3999 12.8436 14.7125 12.7024 13.952C12.1253 10.8332 15.6235 7.85168 18.7236 9.83716C18.7947 9.88368 18.8656 9.93167 18.9363 9.98112L20.1909 10.8822L21.6524 10.3826C21.7346 10.3542 21.8164 10.3288 21.8977 10.3063C25.4397 9.3026 27.9257 13.1686 26.471 15.9871C26.1161 16.6728 25.536 17.2172 24.8574 17.5864L18.7046 20.9377Z" fill="white"/>
<path d="M32.5082 22.2281L31.2647 22.0443L32.2304 15.5109C32.3287 14.8459 32.4423 14.219 32.5713 13.6305C32.4483 13.7219 32.3112 13.8171 32.1603 13.9148C32.0093 14.0125 31.3262 14.4216 30.111 15.1422L29.565 14.1673L32.876 12.3103L33.9507 12.4692L32.5082 22.2281Z" fill="white"/>
</g>
<defs>
<clipPath id="clip0_44_8910">
<rect width="43.3735" height="31.8938" fill="white" transform="translate(4.66357) rotate(8.40793)"/>
</clipPath>
</defs>
</svg>
