<svg width="206" height="51" viewBox="0 0 206 51" fill="none" xmlns="http://www.w3.org/2000/svg">
<mask id="path-1-inside-1_155_255" fill="white">
<path fill-rule="evenodd" clip-rule="evenodd" d="M20.5 0C9.17816 0 0 9.17816 0 20.5C0 31.8218 9.17816 41 20.5 41H100.226L106 51L111.774 41H185.5C196.822 41 206 31.8218 206 20.5C206 9.17816 196.822 0 185.5 0H20.5Z"/>
</mask>
<path fill-rule="evenodd" clip-rule="evenodd" d="M20.5 0C9.17816 0 0 9.17816 0 20.5C0 31.8218 9.17816 41 20.5 41H100.226L106 51L111.774 41H185.5C196.822 41 206 31.8218 206 20.5C206 9.17816 196.822 0 185.5 0H20.5Z" fill="#FFF6F6"/>
<path d="M100.226 41L101.093 40.5L100.804 40H100.226V41ZM106 51L105.134 51.5L106 53L106.866 51.5L106 51ZM111.774 41V40H111.196L110.907 40.5L111.774 41ZM1 20.5C1 9.73045 9.73045 1 20.5 1V-1C8.62588 -1 -1 8.62588 -1 20.5H1ZM20.5 40C9.73044 40 1 31.2696 1 20.5H-1C-1 32.3741 8.62587 42 20.5 42V40ZM100.226 40H20.5V42H100.226V40ZM106.866 50.5L101.093 40.5L99.3605 41.5L105.134 51.5L106.866 50.5ZM110.907 40.5L105.134 50.5L106.866 51.5L112.64 41.5L110.907 40.5ZM185.5 40H111.774V42H185.5V40ZM205 20.5C205 31.2696 196.27 40 185.5 40V42C197.374 42 207 32.3741 207 20.5H205ZM185.5 1C196.27 1 205 9.73045 205 20.5H207C207 8.62588 197.374 -1 185.5 -1V1ZM20.5 1H185.5V-1H20.5V1Z" fill="#F49798" mask="url(#path-1-inside-1_155_255)"/>
</svg>
