<svg width="267" height="51" viewBox="0 0 267 51" fill="none" xmlns="http://www.w3.org/2000/svg">
<mask id="path-1-inside-1_155_311" fill="white">
<path fill-rule="evenodd" clip-rule="evenodd" d="M20.5 0C9.17816 0 0 9.17816 0 20.5C0 31.8218 9.17816 41 20.5 41H127.226L133 51L138.774 41H246.5C257.822 41 267 31.8218 267 20.5C267 9.17816 257.822 0 246.5 0H20.5Z"/>
</mask>
<path fill-rule="evenodd" clip-rule="evenodd" d="M20.5 0C9.17816 0 0 9.17816 0 20.5C0 31.8218 9.17816 41 20.5 41H127.226L133 51L138.774 41H246.5C257.822 41 267 31.8218 267 20.5C267 9.17816 257.822 0 246.5 0H20.5Z" fill="#FFF6F6"/>
<path d="M127.226 41L128.093 40.5L127.804 40H127.226V41ZM133 51L132.134 51.5L133 53L133.866 51.5L133 51ZM138.774 41V40H138.196L137.907 40.5L138.774 41ZM1 20.5C1 9.73045 9.73045 1 20.5 1V-1C8.62588 -1 -1 8.62588 -1 20.5H1ZM20.5 40C9.73044 40 1 31.2696 1 20.5H-1C-1 32.3741 8.62587 42 20.5 42V40ZM127.226 40H20.5V42H127.226V40ZM133.866 50.5L128.093 40.5L126.36 41.5L132.134 51.5L133.866 50.5ZM137.907 40.5L132.134 50.5L133.866 51.5L139.64 41.5L137.907 40.5ZM246.5 40H138.774V42H246.5V40ZM266 20.5C266 31.2696 257.27 40 246.5 40V42C258.374 42 268 32.3741 268 20.5H266ZM246.5 1C257.27 1 266 9.73045 266 20.5H268C268 8.62588 258.374 -1 246.5 -1V1ZM20.5 1H246.5V-1H20.5V1Z" fill="#F49798" mask="url(#path-1-inside-1_155_311)"/>
</svg>
