<svg width="68" height="67" viewBox="0 0 68 67" fill="none" xmlns="http://www.w3.org/2000/svg">
<g clip-path="url(#clip0_44_8846)">
<path d="M30.4784 30.506C27.5805 33.0973 24.4887 39.8788 24.944 46.893C25.4285 53.922 28.9933 59.2959 32.6769 58.9017C36.3606 58.5075 39.3094 51.3597 43.0297 50.031C46.75 48.7023 52.9351 49.6571 56.3089 45.9888C59.6827 42.3205 50.7469 32.8143 45.278 29.952C39.7944 27.1187 35.0828 26.3656 30.4642 30.4621L30.4784 30.506Z" fill="#FBDF73"/>
<path d="M49.7255 14.3306C47.1886 13.77 44.6855 16.306 44.1162 19.9382C43.5469 23.5704 45.1557 26.957 47.7074 27.4885C50.2443 28.0491 52.7617 25.557 53.331 21.9248C53.9003 18.2926 52.2623 14.8912 49.7255 14.3306Z" fill="#FBDF73"/>
<path d="M25.5003 30.2034C27.8995 27.871 27.1489 23.0891 23.6712 19.6291C20.2373 16.155 15.5418 15.2267 13.1865 17.5448C10.8164 19.892 11.6845 24.5872 15.1041 28.0175C18.5676 31.4335 23.0868 32.4918 25.5151 30.1743L25.5003 30.2034Z" fill="#FBDF73"/>
<path d="M17.1113 34.5764C13.8078 33.0749 10.2519 33.9376 9.34217 36.2964C8.4764 38.641 10.3209 41.7812 13.654 43.2244C16.9723 44.6968 20.4399 43.9357 21.3935 41.5626C22.3471 39.1895 20.4005 36.0339 17.0822 34.5615L17.1113 34.5764Z" fill="#FBDF73"/>
<path d="M39.5141 14.5846C38.12 9.91442 34.333 6.77335 31.0697 7.56528C27.8064 8.35721 26.2957 12.829 27.6756 17.4553C29.0994 22.0673 32.6959 25.2945 35.9443 24.5317C39.1928 23.7688 40.8056 19.3124 39.529 14.5555L39.5141 14.5846Z" fill="#FBDF73"/>
<path d="M36.8003 40.687L37.7144 40.687C38.0698 40.687 38.3639 40.6257 38.5967 40.5029C38.8337 40.3802 39.0093 40.2109 39.1235 39.9951C39.2378 39.7793 39.2949 39.5317 39.2949 39.2524C39.2949 38.9604 39.242 38.7108 39.1362 38.5034C39.0347 38.2918 38.8781 38.1289 38.6665 38.0146C38.4591 37.9004 38.1947 37.8433 37.873 37.8433C37.6022 37.8433 37.3568 37.8983 37.1367 38.0083C36.9209 38.1141 36.7495 38.2664 36.6226 38.4653C36.4956 38.66 36.4321 38.8927 36.4321 39.1636L34.896 39.1636C34.896 38.6727 35.0251 38.2368 35.2832 37.856C35.5413 37.4751 35.8926 37.1768 36.3369 36.9609C36.7855 36.7409 37.2891 36.6309 37.8477 36.6309C38.4443 36.6309 38.9648 36.7303 39.4092 36.9292C39.8577 37.1239 40.2069 37.4159 40.4565 37.8052C40.7062 38.1945 40.8311 38.6769 40.8311 39.2524C40.8311 39.5148 40.7697 39.7814 40.647 40.0522C40.5243 40.3231 40.3423 40.5706 40.1011 40.7949C39.8599 41.015 39.5594 41.1948 39.1997 41.3345C38.84 41.4699 38.4232 41.5376 37.9492 41.5376L36.8003 41.5376L36.8003 40.687ZM36.8003 41.8804L36.8003 41.0425L37.9492 41.0425C38.4909 41.0425 38.9521 41.106 39.333 41.2329C39.7181 41.3599 40.0312 41.5355 40.2725 41.7598C40.5137 41.9798 40.6893 42.2316 40.7993 42.5151C40.9136 42.7987 40.9707 43.0991 40.9707 43.4165C40.9707 43.8481 40.8924 44.2332 40.7358 44.5718C40.5835 44.9061 40.3656 45.1896 40.082 45.4224C39.7985 45.6551 39.4663 45.8307 39.0854 45.9492C38.7088 46.0677 38.2983 46.127 37.854 46.127C37.4562 46.127 37.0754 46.0719 36.7114 45.9619C36.3475 45.8519 36.0216 45.689 35.7339 45.4731C35.4461 45.2531 35.2176 44.9801 35.0483 44.6543C34.8833 44.3242 34.8008 43.9434 34.8008 43.5117L36.3306 43.5117C36.3306 43.7868 36.394 44.0301 36.521 44.2417C36.6522 44.4491 36.8341 44.612 37.0669 44.7305C37.3039 44.849 37.5747 44.9082 37.8794 44.9082C38.201 44.9082 38.4782 44.8511 38.7109 44.7368C38.9437 44.6226 39.1214 44.4533 39.2441 44.229C39.3711 44.0047 39.4346 43.7339 39.4346 43.4165C39.4346 43.0568 39.3647 42.7648 39.2251 42.5405C39.0854 42.3162 38.8866 42.1512 38.6284 42.0454C38.3703 41.9354 38.0656 41.8804 37.7144 41.8804L36.8003 41.8804Z" fill="#663E2A"/>
</g>
<defs>
<clipPath id="clip0_44_8846">
<rect width="51.6315" height="48.2351" fill="white" transform="translate(21.9141) rotate(27.021)"/>
</clipPath>
</defs>
</svg>
