<svg width="77" height="61" viewBox="0 0 77 61" fill="none" xmlns="http://www.w3.org/2000/svg">
<path d="M1.74677 40.6408C5.17919 44.933 10.2175 45.8394 10.2175 45.8394L34.7767 18.4682L44.2233 27.3293L51.5901 19.8556L49.6334 17.8989L44.4023 23.1277L34.8161 14.0899L46.7726 0C46.7726 0 57.1838 0 58.8268 0C60.4698 0 61.2948 1.37115 61.841 2.46566C62.3895 3.56018 64.5809 7.39699 64.5809 7.39699L76.068 7.95711C76.068 7.95711 77.1625 18.8563 71.4085 18.8563C71.4085 18.8563 70.8624 22.4188 68.1225 22.4188C65.3826 22.4188 60.7277 22.4188 60.7277 22.4188C60.7277 22.4188 54.1232 29.9693 53.1866 31.2033C51.6737 33.1996 51.4296 33.3785 52.1013 35.1913C53.6444 39.3557 58.8756 51.0963 59.9121 53.8128C62.0083 59.2997 55.4687 61.5515 53.0007 57.3708C49.4985 51.4331 45.4944 44.9332 45.4944 44.9332L43.3494 47.9357C43.3494 47.9357 45.0668 50.5083 44.6368 54.3707C50.6418 54.3707 52.2315 60.8033 47.2118 60.8033C38.6318 60.8033 18.4719 60.8033 18.4719 60.8033C10.9656 60.8033 9.89664 56.9433 9.89664 52.651C3.88939 54.3704 -3.40066 47.0756 1.74677 40.6408Z" fill="#663E2A"/>
<path d="M27.5293 43.0693L30.1475 45.1475L29.0332 46.125L26.4629 44.0674L27.5293 43.0693ZM30.168 39.1455V39.6924C30.168 40.4443 30.07 41.1188 29.874 41.7158C29.6781 42.3128 29.3978 42.821 29.0332 43.2402C28.6686 43.6595 28.2334 43.9808 27.7275 44.2041C27.2217 44.4229 26.6611 44.5322 26.0459 44.5322C25.4352 44.5322 24.877 44.4229 24.3711 44.2041C23.8698 43.9808 23.4346 43.6595 23.0654 43.2402C22.6963 42.821 22.4092 42.3128 22.2041 41.7158C22.0036 41.1188 21.9033 40.4443 21.9033 39.6924V39.1455C21.9033 38.3936 22.0036 37.7214 22.2041 37.1289C22.4046 36.5319 22.6872 36.0238 23.0518 35.6045C23.4209 35.1807 23.8561 34.8594 24.3574 34.6406C24.8633 34.4173 25.4215 34.3057 26.0322 34.3057C26.6475 34.3057 27.208 34.4173 27.7139 34.6406C28.2243 34.8594 28.6618 35.1807 29.0264 35.6045C29.391 36.0238 29.6712 36.5319 29.8672 37.1289C30.0677 37.7214 30.168 38.3936 30.168 39.1455ZM28.4453 39.6924V39.1318C28.4453 38.5758 28.3906 38.0859 28.2812 37.6621C28.1764 37.2337 28.0192 36.876 27.8096 36.5889C27.6045 36.2972 27.3516 36.0785 27.0508 35.9326C26.7546 35.7822 26.415 35.707 26.0322 35.707C25.6585 35.707 25.3236 35.7822 25.0273 35.9326C24.7311 36.0785 24.4782 36.2972 24.2686 36.5889C24.0589 36.876 23.8994 37.2337 23.79 37.6621C23.6807 38.0859 23.626 38.5758 23.626 39.1318V39.6924C23.626 40.2484 23.6807 40.7406 23.79 41.1689C23.8994 41.5973 24.0589 41.9596 24.2686 42.2559C24.4827 42.5475 24.738 42.7686 25.0342 42.9189C25.335 43.0648 25.6722 43.1377 26.0459 43.1377C26.4287 43.1377 26.7682 43.0648 27.0645 42.9189C27.3607 42.7686 27.6113 42.5475 27.8164 42.2559C28.0215 41.9596 28.1764 41.5973 28.2812 41.1689C28.3906 40.7406 28.4453 40.2484 28.4453 39.6924ZM31.8154 43.5752C31.8154 43.32 31.902 43.1058 32.0752 42.9326C32.2484 42.7549 32.4831 42.666 32.7793 42.666C33.0801 42.666 33.3148 42.7549 33.4834 42.9326C33.6566 43.1058 33.7432 43.32 33.7432 43.5752C33.7432 43.8304 33.6566 44.0446 33.4834 44.2178C33.3148 44.391 33.0801 44.4775 32.7793 44.4775C32.4831 44.4775 32.2484 44.391 32.0752 44.2178C31.902 44.0446 31.8154 43.8304 31.8154 43.5752ZM42.2197 43.083V44.3955H35.5479V43.2676L38.7881 39.7334C39.1436 39.3324 39.4238 38.986 39.6289 38.6943C39.834 38.4027 39.9775 38.1406 40.0596 37.9082C40.1462 37.6712 40.1895 37.4411 40.1895 37.2178C40.1895 36.9033 40.1302 36.6276 40.0117 36.3906C39.8978 36.1491 39.7292 35.96 39.5059 35.8232C39.2826 35.682 39.0114 35.6113 38.6924 35.6113C38.3232 35.6113 38.0133 35.6911 37.7627 35.8506C37.512 36.0101 37.3229 36.2311 37.1953 36.5137C37.0677 36.7917 37.0039 37.1107 37.0039 37.4707H35.3564C35.3564 36.8919 35.4886 36.3633 35.7529 35.8848C36.0173 35.4017 36.4001 35.0189 36.9014 34.7363C37.4027 34.4492 38.0065 34.3057 38.7129 34.3057C39.3783 34.3057 39.9434 34.4173 40.4082 34.6406C40.873 34.8639 41.2262 35.1807 41.4678 35.5908C41.7139 36.001 41.8369 36.4863 41.8369 37.0469C41.8369 37.3568 41.7868 37.6644 41.6865 37.9697C41.5863 38.2751 41.4427 38.5804 41.2559 38.8857C41.0736 39.1865 40.8571 39.4896 40.6064 39.7949C40.3558 40.0957 40.0801 40.401 39.7793 40.7109L37.626 43.083H42.2197Z" fill="white"/>
</svg>
