<svg width="34" height="31" viewBox="0 0 34 31" fill="none" xmlns="http://www.w3.org/2000/svg">
<g clip-path="url(#clip0_44_8401)">
<path d="M9.50791 22.8164C9.43061 22.7048 9.36619 22.6103 9.31895 22.5502C9.29318 22.5201 9.276 22.4944 9.26312 22.4772C9.25024 22.46 9.24594 22.4514 9.24594 22.4514C9.24594 22.4514 9.22447 22.4901 9.19012 22.5588C9.16005 22.6275 9.11711 22.722 9.06987 22.8422C8.97969 23.0827 8.88521 23.4177 8.85944 23.7913C8.84226 23.9802 8.85944 24.1649 8.89809 24.3539C8.93674 24.5428 9.00116 24.7318 9.09564 24.9078C9.1214 24.9508 9.14717 24.9937 9.17294 25.041C9.203 25.0839 9.23735 25.1226 9.26742 25.1612C9.33613 25.2385 9.41343 25.3115 9.49932 25.3802C9.6711 25.5177 9.87723 25.6293 10.122 25.7109C10.4312 25.4447 10.4999 25.1054 10.4484 24.749C10.4226 24.5729 10.3668 24.3925 10.2895 24.2164C10.2723 24.1735 10.2508 24.1306 10.2294 24.0833C10.2122 24.0404 10.1907 23.9931 10.1735 23.9502C10.1306 23.86 10.0877 23.7741 10.0447 23.6882C9.95453 23.5164 9.85146 23.3575 9.75698 23.2115C9.6711 23.0612 9.58521 22.9238 9.50791 22.8122V22.8164Z" fill="#535B62"/>
<path d="M8.13803 22.0907L8.10797 21.9575C8.06502 21.7815 8.01349 21.614 7.95766 21.4637C7.9319 21.3907 7.90183 21.3177 7.87607 21.2489C7.85459 21.1802 7.83312 21.1158 7.81165 21.0557C7.72576 20.8195 7.65705 20.6692 7.65705 20.6692C7.65705 20.6692 7.5411 20.798 7.39509 21.017C7.32208 21.1244 7.24049 21.2575 7.16319 21.4035C7.08589 21.5496 7.00859 21.717 6.96135 21.8888C6.91411 22.0606 6.87975 22.241 6.86687 22.4299C6.86257 22.5244 6.86257 22.6146 6.86687 22.7091C6.86687 22.7563 6.87546 22.8035 6.88405 22.8508C6.89264 22.8937 6.90552 22.941 6.9227 22.9839C6.98282 23.16 7.073 23.3318 7.20184 23.4907C7.26625 23.568 7.33926 23.6453 7.42944 23.7097C7.51963 23.7741 7.62269 23.8342 7.73435 23.8857C8.09079 23.671 8.21962 23.3575 8.2411 23.0226C8.25827 22.8508 8.24968 22.6704 8.21962 22.49C8.20674 22.3999 8.18527 22.314 8.1638 22.2238C8.15091 22.1808 8.14232 22.1379 8.12944 22.095L8.13803 22.0907Z" fill="#535B62"/>
<path d="M5.56133 21.6612C5.63004 21.7342 5.71164 21.8072 5.80182 21.8717C6.18832 21.7214 6.39446 21.4422 6.49752 21.1244C6.52329 21.0471 6.54476 20.9612 6.56623 20.8796C6.58341 20.7938 6.60059 20.7079 6.60918 20.622C6.63065 20.4459 6.62636 20.2741 6.62206 20.1066C6.62206 19.9349 6.62206 19.7674 6.60488 19.6128C6.592 19.4582 6.56623 19.325 6.56194 19.2005C6.54047 18.96 6.50611 18.8054 6.50611 18.8054C6.50611 18.8054 6.36439 18.9128 6.17544 19.1017C6.07667 19.1962 5.9693 19.3079 5.86194 19.4367C5.80611 19.5011 5.75029 19.5698 5.70305 19.6428C5.65151 19.7158 5.60427 19.7889 5.56133 19.8662C5.47115 20.0208 5.39385 20.1925 5.33802 20.3643C5.30796 20.4502 5.28648 20.5404 5.26931 20.6306C5.26072 20.7207 5.25642 20.8066 5.26072 20.8968C5.26931 21.0729 5.31225 21.2533 5.39814 21.4207C5.43679 21.5066 5.49691 21.5839 5.56562 21.6569L5.56133 21.6612Z" fill="#535B62"/>
<path d="M4.12707 19.4325C4.17431 19.5141 4.23443 19.5914 4.30314 19.6687C4.71112 19.5828 4.97308 19.3466 5.14915 19.0631C5.17062 19.0288 5.1921 18.9901 5.21357 18.9558C5.23504 18.9171 5.25651 18.8785 5.27369 18.8398C5.31234 18.7625 5.3467 18.6809 5.37676 18.5993C5.43688 18.4362 5.47982 18.2687 5.50989 18.1012C5.54854 17.9337 5.58289 17.7705 5.60007 17.6202C5.61295 17.5429 5.61725 17.4742 5.62584 17.4055C5.63013 17.3368 5.63442 17.2724 5.64301 17.2122C5.67308 16.9717 5.67737 16.8171 5.67737 16.8171C5.67737 16.8171 5.51847 16.903 5.29516 17.0619C5.18351 17.1392 5.05467 17.2337 4.92154 17.3454C4.78842 17.457 4.66388 17.5816 4.53934 17.719C4.41909 17.8564 4.30314 18.0067 4.20866 18.1699C4.16142 18.2515 4.11848 18.3331 4.08412 18.4147C4.05406 18.4963 4.0283 18.5822 4.01112 18.6681C3.97676 18.8398 3.97676 19.0116 4.01112 19.1834C4.0283 19.2693 4.06695 19.3509 4.11419 19.4325H4.12707Z" fill="#535B62"/>
<path d="M4.45766 16.701C4.56931 16.5765 4.67668 16.4305 4.76686 16.2759C4.85704 16.1256 4.93005 15.9624 4.99447 15.8078C5.12759 15.49 5.23066 15.1808 5.28649 14.9489C5.3552 14.717 5.38526 14.5581 5.38526 14.5581C5.38526 14.5581 5.21778 14.6268 4.97729 14.7557C4.85704 14.8201 4.71533 14.9017 4.57361 14.9918C4.43189 15.0863 4.28588 15.1937 4.14416 15.3139C3.86073 15.5544 3.58588 15.8464 3.46134 16.1642C3.39263 16.3231 3.35828 16.4906 3.35828 16.6624C3.36257 16.8299 3.42269 17.0017 3.52147 17.1648C3.92515 17.1391 4.23005 16.9501 4.45766 16.6967V16.701Z" fill="#535B62"/>
<path d="M3.92518 14.5453C3.9896 14.4895 4.05402 14.4293 4.11414 14.3649C4.17426 14.3005 4.23438 14.2318 4.29021 14.1631C4.40187 14.0214 4.50064 13.8711 4.58653 13.725C4.62947 13.652 4.66812 13.579 4.70677 13.5017C4.74542 13.4244 4.78407 13.3514 4.81843 13.2784C4.88714 13.1324 4.94297 12.9993 4.98591 12.8833C5.0718 12.6514 5.12334 12.4968 5.12334 12.4968C5.12334 12.4968 4.95156 12.5527 4.70677 12.6686C4.46199 12.7803 4.13991 12.9477 3.8307 13.1625C3.6761 13.2698 3.5258 13.3901 3.38837 13.5189C3.25525 13.6477 3.1393 13.7852 3.04911 13.9312C2.95893 14.0772 2.89451 14.2361 2.86874 14.3993C2.85157 14.5625 2.86874 14.7299 2.93746 14.9017C3.32825 14.9189 3.65463 14.7729 3.91659 14.5496L3.92518 14.5453Z" fill="#535B62"/>
<path d="M2.76995 12.4753C3.14357 12.5225 3.47424 12.4023 3.75338 12.2004C3.8951 12.1016 4.02393 11.9814 4.13988 11.8483C4.26442 11.7194 4.37178 11.582 4.47055 11.4446C4.56933 11.3072 4.65092 11.1655 4.73681 11.0366C4.81841 10.9078 4.88712 10.7918 4.94295 10.6888C4.99877 10.5857 5.04172 10.4998 5.07178 10.4397C5.10184 10.3796 5.11902 10.3452 5.11902 10.3452C5.11902 10.3452 5.07607 10.3538 5.00307 10.3753C4.92577 10.3925 4.827 10.4268 4.70246 10.4698C4.45767 10.5556 4.127 10.6845 3.80491 10.8648C3.72332 10.9078 3.64602 10.9593 3.56442 11.0066C3.48712 11.0581 3.41412 11.1139 3.34541 11.1698C3.20369 11.2857 3.07915 11.4102 2.97608 11.5477C2.76565 11.8182 2.67976 12.136 2.76565 12.4753H2.76995Z" fill="#535B62"/>
<path d="M4.02826 9.64112C4.3117 9.47364 4.59084 9.24174 4.81415 9.00983C4.86998 8.94971 4.92151 8.89388 4.97304 8.83376C5.02887 8.77793 5.08041 8.72211 5.12765 8.67057C5.22212 8.56321 5.30801 8.46014 5.37243 8.37425C5.43685 8.28837 5.49697 8.21536 5.53562 8.16812C5.57427 8.11659 5.59574 8.09082 5.59574 8.09082C5.59574 8.09082 5.42826 8.1037 5.17488 8.15094C4.92151 8.19818 4.59513 8.27978 4.26016 8.4129C4.09268 8.47732 3.9252 8.55892 3.7706 8.6491C3.62029 8.74358 3.48287 8.85094 3.36692 8.97118C3.30679 9.03131 3.25526 9.09572 3.20802 9.16014C3.16078 9.22456 3.12213 9.29327 3.09637 9.36628C3.04483 9.51229 3.02336 9.66689 3.04913 9.83008C3.40557 9.89879 3.73624 9.80861 4.02397 9.64112H4.02826Z" fill="#535B62"/>
<path d="M6.33864 6.1626C6.2141 6.1626 6.06379 6.17548 5.9049 6.18836C5.74171 6.20554 5.57852 6.23131 5.40674 6.26996C5.23496 6.30861 5.05889 6.35585 4.8914 6.42027C4.80551 6.45033 4.72392 6.48468 4.64232 6.52763C4.56502 6.56628 4.49202 6.61352 4.4276 6.66076C4.15705 6.85401 3.94233 7.10308 3.92944 7.42088C4.25153 7.53683 4.5822 7.49388 4.88711 7.38652C5.20919 7.27916 5.50981 7.10308 5.77606 6.91842C6.0595 6.74235 6.2871 6.5491 6.46318 6.40738C6.64354 6.26566 6.7509 6.17119 6.7509 6.17119C6.7509 6.17119 6.58772 6.1626 6.33864 6.17119V6.1626Z" fill="#535B62"/>
<path d="M7.94046 4.30739C7.69567 4.28592 7.3607 4.27304 7.02144 4.3031C6.67788 4.33316 6.30856 4.40187 5.99507 4.54359C5.69875 4.6896 5.44108 4.89573 5.33801 5.18776C5.47544 5.26506 5.62145 5.308 5.77605 5.32518C5.93494 5.34236 6.09813 5.32947 6.26132 5.30371C6.42451 5.27365 6.5877 5.2307 6.75089 5.17058C6.90979 5.11475 7.06439 5.04604 7.22328 4.97733C7.53678 4.8399 7.79874 4.68101 8.00487 4.56076C8.21101 4.44481 8.33984 4.35892 8.33984 4.35892C8.33984 4.35892 8.18524 4.33316 7.94046 4.31169V4.30739Z" fill="#535B62"/>
<path d="M7.70425 2.59385C7.41223 2.73127 7.15885 2.93311 7.05579 3.21655C7.56683 3.52575 8.29689 3.29385 8.88093 3.00612C9.18154 2.86011 9.45639 2.70121 9.64964 2.57667C9.84719 2.45213 9.96743 2.36195 9.96743 2.36195C9.96743 2.36195 9.3705 2.28035 8.69627 2.35336C8.3613 2.38771 7.99627 2.46072 7.70425 2.59814V2.59385Z" fill="#535B62"/>
<path d="M23.6496 25.711C23.8943 25.6294 24.1005 25.5134 24.2723 25.376C24.3581 25.3073 24.4354 25.2343 24.5042 25.157C24.5385 25.1183 24.5729 25.0797 24.5986 25.0367C24.6287 24.9938 24.6502 24.9508 24.6759 24.9036C24.7704 24.7275 24.8348 24.5386 24.8735 24.3496C24.9078 24.1607 24.9336 23.976 24.9121 23.787C24.8864 23.4134 24.7919 23.0785 24.7017 22.838C24.6545 22.7177 24.6115 22.6189 24.5815 22.5502C24.5471 22.4815 24.5256 22.4429 24.5256 22.4429C24.5256 22.4429 24.5213 22.4515 24.5084 22.4686C24.4956 22.4858 24.4784 22.5116 24.4526 22.5416C24.4054 22.6061 24.3367 22.6962 24.2637 22.8079C24.1864 22.9196 24.1005 23.057 24.0146 23.2073C23.9158 23.3533 23.817 23.5122 23.7269 23.684C23.6796 23.7699 23.6367 23.8557 23.598 23.9459C23.5766 23.9889 23.5594 24.0361 23.5379 24.0791C23.5164 24.122 23.495 24.165 23.4778 24.2122C23.4005 24.3883 23.3447 24.5686 23.3189 24.7447C23.2673 25.0968 23.3361 25.4404 23.6453 25.7067L23.6496 25.711Z" fill="#535B62"/>
<path d="M26.3809 21.0214C26.2349 20.8067 26.119 20.6736 26.119 20.6736C26.119 20.6736 26.046 20.8196 25.9644 21.0601C25.9429 21.1202 25.9214 21.1846 25.9 21.2533C25.8742 21.322 25.8441 21.3908 25.8184 21.4681C25.7625 21.6184 25.711 21.7858 25.6681 21.9619L25.638 22.0951C25.6251 22.138 25.6122 22.1809 25.6036 22.2239C25.5822 22.3098 25.565 22.4 25.5478 22.4901C25.5177 22.6662 25.5092 22.8466 25.5263 23.0227C25.5521 23.3619 25.6809 23.6711 26.0331 23.8858C26.1447 23.8343 26.2435 23.7742 26.338 23.7098C26.4282 23.6454 26.4969 23.5681 26.5656 23.4908C26.6944 23.3362 26.7889 23.1644 26.8447 22.984C26.8576 22.9411 26.8705 22.8938 26.8834 22.8509C26.892 22.8036 26.8963 22.7564 26.9006 22.7092C26.9091 22.6147 26.9092 22.5202 26.9049 22.43C26.8963 22.2454 26.8619 22.0607 26.8104 21.8889C26.7631 21.7214 26.6858 21.5497 26.6085 21.4036C26.5312 21.2576 26.4496 21.1245 26.3766 21.0171L26.3809 21.0214Z" fill="#535B62"/>
<path d="M28.2189 19.8662C28.1717 19.7889 28.1244 19.7116 28.0772 19.6428C28.03 19.5698 27.9698 19.5011 27.9183 19.4367C27.811 19.3079 27.6993 19.1919 27.6048 19.1017C27.4116 18.9171 27.2698 18.8054 27.2698 18.8054C27.2698 18.8054 27.2398 18.96 27.214 19.2005C27.2097 19.325 27.184 19.4582 27.1711 19.6128C27.1582 19.7674 27.1496 19.9306 27.1539 20.1066C27.1496 20.2741 27.1453 20.4502 27.1668 20.622C27.1754 20.7079 27.1925 20.7938 27.2097 20.8796C27.2312 20.9655 27.2527 21.0471 27.2784 21.1244C27.3815 21.4379 27.5876 21.7171 27.9741 21.8717C28.0686 21.8072 28.1459 21.7342 28.2189 21.6612C28.2876 21.5882 28.3478 21.5066 28.3864 21.425C28.468 21.2576 28.5109 21.0815 28.5238 20.9011C28.5281 20.8109 28.5238 20.725 28.5152 20.6349C28.4981 20.5447 28.4766 20.4545 28.4465 20.3686C28.3907 20.1925 28.3134 20.025 28.2232 19.8704L28.2189 19.8662Z" fill="#535B62"/>
<path d="M28.6269 19.063C28.803 19.3464 29.0649 19.5826 29.4729 19.6685C29.5459 19.5912 29.6017 19.5139 29.649 19.4323C29.6962 19.3507 29.7349 19.2691 29.752 19.1832C29.7907 19.0115 29.7864 18.8354 29.752 18.6679C29.7349 18.582 29.7134 18.4961 29.6833 18.4145C29.649 18.3329 29.606 18.2471 29.5588 18.1698C29.4643 18.0109 29.3527 17.8605 29.2281 17.7231C29.1036 17.5857 28.9833 17.4612 28.8459 17.3495C28.7128 17.2379 28.584 17.1434 28.4723 17.0661C28.249 16.9115 28.0901 16.8213 28.0901 16.8213C28.0901 16.8213 28.0901 16.9759 28.1201 17.2164C28.1287 17.2765 28.133 17.3409 28.1416 17.4096C28.1502 17.4783 28.1545 17.5513 28.1674 17.6244C28.1889 17.7747 28.2189 17.9378 28.2576 18.1053C28.2876 18.2685 28.3306 18.436 28.3907 18.6035C28.4208 18.6851 28.4551 18.7667 28.4938 18.844C28.5152 18.8826 28.5324 18.9213 28.5539 18.9599C28.5754 18.9986 28.5925 19.0329 28.614 19.0716L28.6269 19.063Z" fill="#535B62"/>
<path d="M30.422 16.6668C30.422 16.4993 30.3834 16.3318 30.3189 16.1729C30.1944 15.8551 29.9196 15.5588 29.6361 15.3226C29.4944 15.2024 29.3441 15.095 29.2067 15.0005C29.065 14.9061 28.9232 14.8288 28.803 14.76C28.5625 14.6312 28.395 14.5625 28.395 14.5625C28.395 14.5625 28.4251 14.7171 28.4938 14.9533C28.5496 15.1852 28.6484 15.4944 28.7858 15.8122C28.8459 15.9711 28.9232 16.13 29.0134 16.2803C29.1036 16.4306 29.211 16.5766 29.3226 16.7054C29.5502 16.9588 29.8551 17.1478 30.2588 17.1735C30.3576 17.006 30.4177 16.8386 30.422 16.6711V16.6668Z" fill="#535B62"/>
<path d="M30.903 14.3949C30.8816 14.2317 30.8128 14.0771 30.7227 13.9268C30.6325 13.7808 30.5165 13.6391 30.3834 13.5145C30.2503 13.3857 30.0957 13.2654 29.9411 13.1581C29.6319 12.9433 29.3098 12.7759 29.065 12.6642C28.8202 12.5526 28.6484 12.4924 28.6484 12.4924C28.6484 12.4924 28.7 12.6427 28.7859 12.8789C28.8288 12.9949 28.8889 13.1323 28.9533 13.274C28.9877 13.347 29.0221 13.42 29.065 13.4973C29.1037 13.5703 29.1423 13.6433 29.1852 13.7206C29.2711 13.871 29.3699 14.0213 29.4816 14.1587C29.5374 14.2274 29.5975 14.2961 29.6576 14.3605C29.7178 14.4249 29.7779 14.4851 29.8466 14.5409C30.1128 14.7642 30.4349 14.9102 30.8257 14.893C30.8944 14.7213 30.9116 14.5538 30.8944 14.3906L30.903 14.3949Z" fill="#535B62"/>
<path d="M30.7956 11.5477C30.6926 11.4102 30.5637 11.2857 30.4263 11.1698C30.3576 11.1139 30.2846 11.0581 30.2073 11.0066C30.13 10.955 30.0484 10.9078 29.9711 10.8648C29.649 10.6845 29.3226 10.5556 29.0735 10.4698C28.949 10.4268 28.8502 10.3967 28.7729 10.3753C28.6956 10.3581 28.657 10.3452 28.657 10.3452C28.657 10.3452 28.6742 10.3796 28.7042 10.4397C28.7343 10.4998 28.7729 10.5857 28.8288 10.6888C28.8846 10.7918 28.9533 10.9121 29.0349 11.0366C29.1208 11.1612 29.1981 11.3072 29.3012 11.4446C29.3999 11.582 29.5116 11.7237 29.6361 11.8483C29.7564 11.9771 29.8809 12.0974 30.0226 12.2004C30.3018 12.4023 30.6324 12.5225 31.0061 12.4753C31.0919 12.136 31.0061 11.8182 30.7956 11.5477Z" fill="#535B62"/>
<path d="M30.568 9.16014C30.5208 9.09572 30.4693 9.03131 30.4091 8.97118C30.2932 8.85094 30.1515 8.74358 30.0055 8.6491C29.8509 8.55462 29.6834 8.47732 29.5159 8.4129C29.1809 8.27978 28.8545 8.19389 28.6012 8.15094C28.3478 8.1037 28.176 8.09082 28.176 8.09082C28.176 8.09082 28.1975 8.12088 28.2361 8.16812C28.2748 8.21965 28.3349 8.28837 28.3993 8.37425C28.468 8.46014 28.5496 8.56321 28.6441 8.67057C28.6914 8.72211 28.7429 8.78223 28.7987 8.83376C28.8503 8.89388 28.9018 8.94971 28.9576 9.00983C29.1809 9.24603 29.4601 9.47793 29.7435 9.64541C30.0355 9.8086 30.3662 9.90308 30.7226 9.83437C30.7484 9.67118 30.7269 9.51658 30.6754 9.37057C30.6496 9.29756 30.611 9.22885 30.5637 9.16444L30.568 9.16014Z" fill="#535B62"/>
<path d="M29.3526 6.65627C29.2839 6.60903 29.2152 6.56179 29.1336 6.52314C29.052 6.48449 28.9704 6.45014 28.8845 6.41578C28.717 6.35136 28.541 6.30413 28.3692 6.26548C28.1974 6.22683 28.0342 6.20106 27.871 6.18388C27.7078 6.1667 27.5618 6.15811 27.4373 6.15811C27.1882 6.14953 27.025 6.15811 27.025 6.15811C27.025 6.15811 27.1324 6.25689 27.3128 6.39431C27.4888 6.53603 27.7164 6.72498 27.9999 6.90535C28.2618 7.09001 28.5624 7.26609 28.8888 7.37345C29.198 7.4851 29.5244 7.52375 29.8465 7.4078C29.8379 7.09001 29.6189 6.84093 29.3526 6.64768V6.65627Z" fill="#535B62"/>
<path d="M27.7809 4.53919C27.4674 4.40177 27.0981 4.32876 26.7545 4.2987C26.4153 4.26864 26.076 4.28152 25.8355 4.303C25.595 4.32447 25.4404 4.35024 25.4404 4.35024C25.4404 4.35024 25.5693 4.43612 25.7754 4.55208C25.9815 4.67232 26.2435 4.83122 26.557 4.96864C26.7159 5.03735 26.8705 5.10606 27.0294 5.16189C27.1883 5.21772 27.3558 5.26496 27.5189 5.29502C27.6821 5.32508 27.8453 5.33367 28.0042 5.31649C28.1588 5.29931 28.3048 5.26066 28.4423 5.17907C28.3392 4.88704 28.0815 4.67661 27.7852 4.5349L27.7809 4.53919Z" fill="#535B62"/>
<path d="M24.895 3.00167C25.479 3.2937 26.2091 3.5213 26.7201 3.2121C26.6128 2.92867 26.3637 2.73112 26.0717 2.58941C25.7796 2.44769 25.4189 2.37898 25.0839 2.34462C24.4097 2.27591 23.8085 2.35321 23.8085 2.35321C23.8085 2.35321 23.9287 2.4434 24.1263 2.56793C24.3195 2.69247 24.5987 2.85137 24.8993 2.99738L24.895 3.00167Z" fill="#535B62"/>
<path d="M31.2895 17.4741C31.6588 17.5385 32.0066 17.4397 32.3244 17.2293C32.4962 17.1219 32.6379 16.9802 32.7796 16.8256C32.9171 16.671 33.0459 16.4992 33.1618 16.3232C33.3809 15.9753 33.5312 15.606 33.6385 15.3311C33.733 15.0563 33.7759 14.8673 33.7759 14.8673C33.7759 14.8673 33.6042 14.9446 33.3508 15.0821C33.2263 15.1508 33.0845 15.2324 32.9214 15.3268C32.7625 15.4213 32.595 15.5287 32.4275 15.6446C32.0968 15.8765 31.7876 16.1471 31.5471 16.452C31.5342 16.4649 31.5257 16.4821 31.5171 16.4949C31.633 15.9538 31.7275 15.4127 31.8005 14.8673C32.1097 14.8545 32.3802 14.7256 32.6121 14.5281C32.6809 14.468 32.7496 14.3992 32.814 14.3305C32.8741 14.2575 32.9299 14.1845 32.9858 14.1029C33.0931 13.944 33.1876 13.7723 33.2692 13.5962C33.3078 13.5103 33.3465 13.4201 33.3809 13.3342C33.4109 13.2483 33.441 13.1667 33.4667 13.0851C33.5183 12.9219 33.5612 12.7716 33.5913 12.6385C33.6557 12.3765 33.6729 12.2005 33.6729 12.2005C33.6729 12.2005 33.5183 12.2864 33.2864 12.4281C33.0545 12.5698 32.7539 12.7759 32.4704 13.0207C32.3287 13.141 32.1913 13.2741 32.0667 13.4158C32.0152 13.4759 31.9637 13.5361 31.9164 13.5962C31.9422 13.1367 31.9508 12.6729 31.9336 12.2134C32.1526 12.1532 32.3416 12.033 32.5048 11.8655C32.625 11.741 32.7324 11.595 32.8226 11.4404C32.9085 11.2815 32.9815 11.1097 33.0373 10.9379C33.0931 10.7661 33.149 10.5943 33.179 10.4269C33.2091 10.2637 33.2306 10.1048 33.2434 9.97165C33.2563 9.83852 33.2649 9.72687 33.2692 9.64957C33.2692 9.57227 33.2692 9.52503 33.2692 9.52503C33.2692 9.52503 33.2348 9.55079 33.1747 9.59374C33.1146 9.63668 33.0287 9.7011 32.9256 9.7827C32.7238 9.94588 32.4576 10.1692 32.2128 10.4269C32.1526 10.4913 32.0925 10.56 32.0367 10.6287C31.9766 10.6974 31.9207 10.7661 31.8649 10.8391C31.8477 10.8606 31.8391 10.8778 31.822 10.8993C31.7618 10.4569 31.6802 10.0189 31.5729 9.58515C31.779 9.50785 31.9465 9.37043 32.0753 9.19435C32.2815 8.93239 32.376 8.57595 32.4275 8.21951C32.4404 8.12933 32.4533 8.04344 32.4576 7.95325C32.4576 7.86737 32.4576 7.77718 32.4576 7.69559C32.4533 7.5281 32.4404 7.36921 32.4275 7.23608C32.4146 7.10295 32.3931 6.9913 32.3717 6.91399C32.3545 6.83669 32.3416 6.79375 32.3416 6.79375C32.3416 6.79375 32.2299 6.90541 32.0796 7.09007C31.9293 7.27473 31.7146 7.5281 31.5342 7.81154C31.4441 7.95325 31.3625 8.09927 31.2895 8.25387C31.2594 8.30969 31.2379 8.36552 31.2122 8.42565C31.0318 7.92319 30.8342 7.45939 30.6152 7.02995C30.8385 6.93117 30.9931 6.7551 31.0919 6.53608C31.2036 6.25694 31.2207 5.9005 31.1821 5.54836C31.1263 5.2048 31.0275 4.86124 30.9287 4.61646C30.8257 4.37167 30.7398 4.21278 30.7398 4.21278C30.7398 4.21278 30.6625 4.33732 30.5594 4.53057C30.5079 4.62934 30.452 4.74529 30.4005 4.86983C30.349 4.99867 30.2846 5.14038 30.233 5.29069C30.1815 5.44099 30.1342 5.5913 30.1085 5.7459C30.0956 5.8232 30.0827 5.9005 30.0784 5.9778C30.0784 6.00357 30.0784 6.03363 30.0741 6.0594C29.7563 5.56124 29.4085 5.10173 29.0263 4.65081C29.1336 4.59499 29.2195 4.52627 29.2839 4.44039C29.3655 4.33302 29.4128 4.20848 29.4342 4.06677C29.4557 3.92505 29.4514 3.77474 29.4257 3.61155C29.3999 3.45266 29.3612 3.28518 29.2968 3.13057C29.1766 2.82137 29.0177 2.51647 28.8803 2.30174C28.7385 2.09131 28.6312 1.95389 28.6312 1.95389C28.6312 1.95389 28.5797 2.07843 28.5195 2.27168C28.4594 2.46493 28.395 2.7269 28.352 3.02321C28.3134 3.31524 28.3134 3.62444 28.3907 3.91217C28.395 3.93364 28.3993 3.95082 28.4079 3.97229C27.9612 3.50419 27.4674 3.04039 26.9306 2.55512C27.4631 2.2545 27.3171 1.62751 27.0208 1.05635C26.8662 0.77721 26.6772 0.519542 26.5226 0.326291C26.3723 0.137335 26.2563 0.0170898 26.2563 0.0170898C26.2563 0.0170898 26.106 0.502364 26.1103 1.05206C26.1103 1.3269 26.1576 1.61463 26.2735 1.88518C26.2993 1.94101 26.3251 1.99254 26.3551 2.04408C25.8656 1.61034 25.011 1.16371 25.011 1.16371C28.4079 4.00664 30.9974 7.44651 31.3839 11.3888C31.5214 12.8189 31.3496 14.2489 31.1263 15.6704C30.8772 17.2722 30.4692 18.8698 29.6404 20.3557C28.3563 22.6532 26.6428 24.4912 24.3153 25.9256C24.3153 25.9256 20.8196 27.6777 17.0705 27.7164C16.9803 27.7164 16.8901 27.7164 16.7999 27.7164C16.757 27.7164 16.7141 27.7164 16.6711 27.7164C12.9693 27.6648 9.42635 25.9256 9.42635 25.9256C7.09875 24.4912 5.38526 22.6532 4.10122 20.3557C3.27239 18.8698 2.86871 17.2722 2.61534 15.6704C2.39202 14.2489 2.22025 12.8232 2.35767 11.3888C2.74417 7.44651 5.33803 4.00664 8.73065 1.16371C8.73065 1.16371 7.87605 1.61034 7.38648 2.04408C7.41654 1.99254 7.44661 1.94101 7.46808 1.88518C7.57973 1.61463 7.62697 1.3269 7.63127 1.05206C7.63556 0.502364 7.48526 0.0170898 7.48526 0.0170898C7.48526 0.0170898 7.3736 0.137335 7.219 0.326291C7.06869 0.515247 6.87544 0.772915 6.72084 1.05635C6.42452 1.62751 6.27851 2.2588 6.81103 2.55941C6.27422 3.04469 5.78035 3.50849 5.33373 3.97658C5.33803 3.95511 5.34661 3.93793 5.35091 3.91646C5.4325 3.62873 5.4325 3.31953 5.38956 3.02751C5.34661 2.73548 5.2822 2.46923 5.22207 2.27598C5.16195 2.08273 5.11042 1.95819 5.11042 1.95819C5.11042 1.95819 5.00306 2.09561 4.86563 2.30604C4.72821 2.52076 4.56932 2.82567 4.44907 3.13487C4.38465 3.28947 4.346 3.45266 4.32024 3.61585C4.29447 3.77474 4.29018 3.92934 4.31165 4.07106C4.33312 4.21278 4.38036 4.33732 4.46196 4.44468C4.52637 4.53057 4.61226 4.59928 4.71962 4.65511C4.33742 5.10173 3.98527 5.56553 3.67177 6.06369C3.67177 6.03363 3.66748 6.00786 3.66748 5.9821C3.66319 5.9048 3.6503 5.8275 3.63742 5.7502C3.60736 5.5956 3.56441 5.44099 3.51288 5.29498C3.46135 5.14897 3.39693 5.00296 3.3454 4.87842C3.28957 4.74959 3.23374 4.63364 3.1865 4.53916C3.08773 4.34161 3.01043 4.22137 3.01043 4.22137C3.01043 4.22137 2.92454 4.38026 2.82147 4.62505C2.7227 4.87413 2.62393 5.21339 2.5681 5.55695C2.52945 5.9048 2.54663 6.26553 2.65828 6.54467C2.75705 6.76369 2.91165 6.93976 3.13497 7.03853C2.91595 7.47227 2.7184 7.93178 2.53804 8.43423C2.51656 8.37841 2.4908 8.31828 2.46074 8.26246C2.38773 8.11215 2.30614 7.96184 2.21595 7.82013C2.03558 7.53669 1.82516 7.28332 1.67056 7.09866C1.52025 6.914 1.40859 6.80234 1.40859 6.80234C1.40859 6.80234 1.4 6.84528 1.37853 6.92258C1.36135 6.99988 1.33559 7.11154 1.3227 7.24467C1.30982 7.3778 1.29694 7.53669 1.29264 7.70418C1.29264 7.79007 1.29264 7.87595 1.29264 7.96184C1.29694 8.05203 1.30982 8.13792 1.3227 8.2281C1.37424 8.58454 1.47301 8.93669 1.67485 9.20294C1.80798 9.38331 1.97117 9.51644 2.1773 9.59374C2.06994 10.0275 1.98835 10.4655 1.92822 10.9078C1.91534 10.8864 1.90246 10.8692 1.88528 10.8477C1.83374 10.7747 1.77362 10.706 1.7135 10.6373C1.65767 10.5686 1.59755 10.4999 1.53743 10.4355C1.29264 10.1778 1.03068 9.95018 0.824546 9.79128C0.721479 9.70969 0.63559 9.64527 0.575468 9.60233C0.515345 9.55938 0.48099 9.53362 0.48099 9.53362C0.48099 9.53362 0.48099 9.58086 0.48099 9.65816C0.485284 9.73546 0.493873 9.84711 0.506756 9.98024C0.51964 10.1134 0.541112 10.2723 0.571173 10.4355C0.59694 10.6029 0.652768 10.7747 0.708596 10.9465C0.768718 11.1183 0.841724 11.2901 0.927614 11.4489C1.0178 11.6078 1.12516 11.7539 1.2454 11.8741C1.40859 12.0373 1.59755 12.1575 1.81657 12.2219C1.79939 12.6815 1.80798 13.1453 1.83374 13.6048C1.78651 13.5446 1.73927 13.4845 1.68344 13.4244C1.5589 13.2827 1.42148 13.1538 1.27976 13.0293C0.996325 12.7845 0.695713 12.5827 0.463812 12.4367C0.231911 12.2907 0.0773102 12.2091 0.0773102 12.2091C0.0773102 12.2091 0.0944881 12.3894 0.158905 12.6471C0.188966 12.7759 0.231911 12.9305 0.283444 13.0894C0.309211 13.171 0.339272 13.2526 0.369334 13.3385C0.403689 13.4244 0.442339 13.5146 0.48099 13.6005C0.562584 13.7765 0.657062 13.9483 0.764424 14.1072C0.815958 14.1845 0.87608 14.2618 0.936203 14.3348C1.00062 14.4078 1.06933 14.4722 1.13804 14.5324C1.36994 14.7342 1.64479 14.8587 1.9497 14.8716C2.0227 15.417 2.11718 15.9624 2.23313 16.4992C2.22454 16.4863 2.21166 16.4692 2.20307 16.4563C1.96258 16.1557 1.65338 15.8851 1.3227 15.6489C1.15951 15.533 0.987736 15.4256 0.828841 15.3311C0.669946 15.2367 0.528229 15.1551 0.399395 15.0864C0.146022 14.9489 -0.0257568 14.8716 -0.0257568 14.8716C-0.0257568 14.8716 0.0171878 15.0606 0.111666 15.3354C0.219027 15.6146 0.369334 15.9796 0.588351 16.3275C0.704302 16.5035 0.828841 16.6753 0.970558 16.8299C1.11228 16.9845 1.25399 17.1219 1.42577 17.2336C1.74356 17.4397 2.09141 17.5428 2.46074 17.4784C2.47791 17.5471 2.49509 17.6158 2.51227 17.6845C2.6411 18.1655 2.7957 18.6422 2.98037 19.1103C2.94601 19.0759 2.91165 19.0416 2.873 19.0029C2.7957 18.9342 2.71411 18.8655 2.62822 18.8011C2.54233 18.7366 2.46074 18.6722 2.37055 18.6121C2.19019 18.4919 2.00123 18.3802 1.80798 18.2814C1.61902 18.1784 1.41718 18.0925 1.24111 18.0109C1.06504 17.9293 0.901847 17.8606 0.76013 17.8047C0.476695 17.6931 0.283444 17.6287 0.283444 17.6287C0.283444 17.6287 0.365039 17.8219 0.511051 18.1011C0.584057 18.2428 0.691418 18.4017 0.807369 18.5692C0.923319 18.7366 1.05645 18.9127 1.20246 19.0802C1.36135 19.2477 1.52884 19.4109 1.70491 19.5526C1.7908 19.6256 1.88098 19.69 1.97546 19.7501C2.0227 19.7802 2.06565 19.806 2.11288 19.836C2.16442 19.8618 2.21166 19.8876 2.2589 19.909C2.63681 20.0808 3.01902 20.1323 3.37975 20.0121C3.64171 20.536 3.94233 21.0514 4.29447 21.5452C4.23864 21.5023 4.18282 21.4636 4.12269 21.425C4.02821 21.3649 3.92515 21.309 3.82208 21.2575C3.72331 21.2017 3.62024 21.1544 3.51717 21.1029C3.30675 21.0084 3.08343 20.9225 2.86442 20.8495C2.75276 20.8109 2.6454 20.7765 2.53374 20.7465C2.42638 20.7164 2.32331 20.682 2.22454 20.652C2.027 20.5919 1.84233 20.5446 1.68344 20.506C1.36565 20.4287 1.15522 20.39 1.15522 20.39C1.15522 20.39 1.28405 20.579 1.50307 20.8495C1.60614 20.9869 1.75644 21.133 1.91534 21.2919C2.07853 21.4465 2.2546 21.6096 2.44356 21.7642C2.6454 21.9145 2.86012 22.052 3.07484 22.1679C3.18221 22.228 3.29386 22.2796 3.40122 22.3268C3.50858 22.3741 3.61595 22.4127 3.7319 22.4428C4.16993 22.5587 4.57361 22.5501 4.91287 22.3569C5.25214 22.782 5.61287 23.2115 5.99508 23.628C5.9779 23.6195 5.96502 23.6152 5.94784 23.6066C5.89201 23.5851 5.83618 23.5636 5.77606 23.5422C5.72023 23.5207 5.6644 23.4992 5.60858 23.482C5.49263 23.4434 5.37668 23.409 5.25643 23.379C5.01594 23.3188 4.77116 23.2673 4.52637 23.2287C4.27729 23.19 4.05398 23.1514 3.83496 23.1256C3.62024 23.0998 3.4184 23.0783 3.24662 23.0612C2.90307 23.0311 2.67975 23.0225 2.67975 23.0225C2.67975 23.0225 2.86012 23.1943 3.15644 23.4348C3.22944 23.4949 3.31104 23.5593 3.39693 23.6237C3.48282 23.6882 3.58589 23.7526 3.68895 23.8213C3.89509 23.9544 4.1184 24.0875 4.3503 24.2121C4.41042 24.2421 4.46625 24.2722 4.52637 24.3023C4.58649 24.328 4.65091 24.3581 4.71533 24.3796C4.83987 24.4311 4.9687 24.4783 5.09324 24.517C5.34232 24.6029 5.5914 24.663 5.8233 24.6931C6.22268 24.736 6.57912 24.6845 6.85826 24.5127C7.17176 24.8133 7.49814 25.1053 7.8374 25.3802C7.73433 25.3673 7.63127 25.3501 7.52391 25.3415C7.26624 25.3158 6.99569 25.3115 6.7509 25.3029C6.25275 25.2857 5.77177 25.3072 5.41533 25.3329C5.23925 25.3458 5.09324 25.3587 4.99017 25.3673C4.8914 25.3759 4.83557 25.3845 4.83557 25.3845C4.83557 25.3845 4.84846 25.3931 4.87422 25.4102C4.89999 25.4274 4.93864 25.4489 4.99017 25.479C5.09324 25.5391 5.23925 25.6207 5.41962 25.7194C5.59999 25.8139 5.81042 25.9213 6.04232 26.0286C6.28281 26.1274 6.54047 26.2262 6.80673 26.3121C6.93986 26.355 7.07299 26.3937 7.20612 26.4323C7.27483 26.4495 7.33924 26.4667 7.40796 26.4839C7.47667 26.4967 7.54538 26.5096 7.61409 26.5225C7.88894 26.5655 8.1509 26.5869 8.39568 26.5826C8.73065 26.574 9.01838 26.5053 9.25028 26.3679C9.37911 26.4409 9.50365 26.5139 9.63678 26.5826C9.66684 26.5998 9.68831 26.6041 9.70549 26.5998C11.4662 27.5704 13.6478 28.1673 15.4429 28.382C14.0042 28.6483 12.3165 28.9446 10.5257 29.2151L8.58893 30.8599C8.58893 30.8599 12.9435 29.4084 17.0061 28.4851C21.0686 29.4084 25.4232 30.8599 25.4232 30.8599L23.4864 29.2151C21.6484 28.936 19.9177 28.6311 18.4576 28.3605C20.6778 28.1072 22.5459 27.4544 24.0404 26.5998C24.0576 26.5998 24.0705 26.5955 24.0919 26.5826C24.2208 26.5139 24.3496 26.4409 24.4784 26.3679C24.706 26.5053 24.9981 26.574 25.333 26.5826C25.5778 26.5912 25.8398 26.5655 26.1146 26.5225C26.1833 26.5096 26.2521 26.501 26.3208 26.4839C26.3895 26.4667 26.4539 26.4495 26.5226 26.4323C26.6557 26.398 26.7932 26.355 26.9263 26.3121C27.1925 26.2262 27.4502 26.1274 27.6907 26.0286C27.9226 25.9213 28.133 25.8139 28.3134 25.7151C28.4938 25.6207 28.6398 25.5348 28.7428 25.4747C28.7944 25.4446 28.833 25.4231 28.8588 25.4059C28.8846 25.3888 28.8974 25.3802 28.8974 25.3802C28.8974 25.3802 28.8416 25.3759 28.7428 25.363C28.6398 25.3544 28.4938 25.3415 28.3177 25.3286C27.9612 25.3029 27.4846 25.2814 26.9864 25.2986C26.7416 25.3115 26.4711 25.3115 26.2134 25.3415C26.1103 25.3501 26.003 25.363 25.8999 25.3802C26.2392 25.1053 26.5655 24.8133 26.879 24.5127C27.1582 24.6802 27.5146 24.7317 27.914 24.6931C28.1459 24.663 28.395 24.6029 28.6441 24.5213C28.7686 24.4783 28.8974 24.4311 29.022 24.3796C29.0864 24.3538 29.1465 24.328 29.2109 24.3023C29.2711 24.2722 29.3312 24.2421 29.387 24.2121C29.6189 24.0875 29.8422 23.9544 30.0484 23.8213C30.1514 23.7526 30.2502 23.6925 30.3404 23.6237C30.4263 23.555 30.5079 23.4949 30.5809 23.4348C30.8729 23.1943 31.0576 23.0225 31.0576 23.0225C31.0576 23.0225 30.8342 23.0311 30.4907 23.0612C30.3189 23.0783 30.1171 23.0955 29.9023 23.1256C29.6833 23.1514 29.46 23.19 29.2109 23.2287C28.9661 23.2673 28.7214 23.3188 28.4809 23.379C28.3606 23.409 28.2447 23.4434 28.1287 23.482C28.0729 23.4992 28.0171 23.5207 27.9612 23.5422C27.9054 23.5636 27.8453 23.5808 27.7895 23.6023C27.7723 23.6066 27.7594 23.6152 27.7422 23.6237C28.1244 23.2029 28.4852 22.7777 28.8244 22.3526C29.1637 22.5458 29.5717 22.5544 30.0054 22.4385C30.1171 22.4084 30.2244 22.3698 30.3361 22.3225C30.4434 22.2753 30.5551 22.2238 30.6625 22.1636C30.8772 22.0477 31.0919 21.906 31.2937 21.7599C31.4827 21.6053 31.6631 21.4465 31.8263 21.2876C31.9852 21.133 32.1355 20.9827 32.2385 20.8452C32.4575 20.5747 32.5864 20.3857 32.5864 20.3857C32.5864 20.3857 32.376 20.4244 32.0582 20.5017C31.8993 20.5403 31.7146 20.5919 31.5171 20.6477C31.4183 20.6777 31.3152 20.7078 31.2079 20.7422C31.1005 20.7765 30.9888 20.8109 30.8772 20.8495C30.6539 20.9225 30.4349 21.0084 30.2244 21.1029C30.1171 21.1501 30.014 21.2017 29.9195 21.2575C29.8165 21.309 29.7177 21.3649 29.6232 21.425C29.5631 21.4636 29.503 21.5023 29.4471 21.5452C29.7993 21.0514 30.0999 20.536 30.3618 20.0121C30.7269 20.1366 31.1091 20.0808 31.4827 19.909C31.5299 19.8876 31.5815 19.8618 31.6287 19.836C31.676 19.8103 31.7189 19.7802 31.7661 19.7501C31.8563 19.69 31.9465 19.6256 32.0367 19.5526C32.2128 19.4109 32.3802 19.2477 32.5391 19.0802C32.6852 18.9127 32.814 18.7366 32.9342 18.5692C33.0459 18.4017 33.1575 18.2428 33.2305 18.1011C33.3766 17.8219 33.4582 17.6287 33.4582 17.6287C33.4582 17.6287 33.2649 17.6931 32.9815 17.8047C32.8398 17.8606 32.6723 17.9293 32.5005 18.0109C32.3287 18.0925 32.1269 18.1827 31.9336 18.2814C31.7404 18.3802 31.5471 18.4919 31.371 18.6121C31.2809 18.6722 31.1993 18.7366 31.1134 18.8011C31.0275 18.8655 30.9459 18.9299 30.8686 19.0029C30.8299 19.0373 30.7956 19.0716 30.7612 19.106C30.9459 18.6379 31.1005 18.1612 31.2293 17.6802C31.2465 17.6115 31.2637 17.5428 31.2809 17.4784L31.2895 17.4741Z" fill="#535B62"/>
<path d="M12.0593 20V18.5252C15.6059 15.3472 17.6777 12.9067 17.6777 10.9052C17.6777 9.60591 16.993 8.79826 15.7464 8.79826C14.7807 8.79826 14.0258 9.41278 13.3586 10.1502L11.9364 8.74559C13.1303 7.46388 14.3067 6.77914 16.08 6.77914C18.5205 6.77914 20.1709 8.34176 20.1709 10.7647C20.1709 13.135 18.2045 15.6633 15.8342 17.9809C16.4838 17.9106 17.3441 17.8229 17.9587 17.8229H20.7679V20H12.0593Z" fill="#535B62"/>
</g>
<defs>
<clipPath id="clip0_44_8401">
<rect width="33.7759" height="30.86" fill="white"/>
</clipPath>
</defs>
</svg>
