<svg width="42" height="41" viewBox="0 0 42 41" fill="none" xmlns="http://www.w3.org/2000/svg">
<g clip-path="url(#clip0_44_9799)">
<path d="M18.6608 18.6781C16.8865 20.2646 14.9935 24.4166 15.2723 28.7111C15.5689 33.0147 17.7514 36.305 20.0068 36.0636C22.2622 35.8222 24.0676 31.4459 26.3454 30.6324C28.6232 29.8189 32.4101 30.4035 34.4757 28.1575C36.5414 25.9116 31.0703 20.0913 27.722 18.3388C24.3645 16.6041 21.4799 16.143 18.652 18.6512L18.6608 18.6781Z" fill="#FBDF73"/>
<path d="M30.4449 8.77404C28.8917 8.43082 27.3592 9.98352 27.0106 12.2074C26.662 14.4312 27.6471 16.5047 29.2094 16.8301C30.7626 17.1733 32.3039 15.6475 32.6524 13.4237C33.001 11.1998 31.9981 9.11726 30.4449 8.77404Z" fill="#FBDF73"/>
<path d="M15.6128 18.4919C17.0818 17.0638 16.6222 14.1361 14.4929 12.0177C12.3905 9.8906 9.51562 9.32224 8.07356 10.7415C6.62242 12.1786 7.15397 15.0533 9.24762 17.1535C11.3682 19.245 14.1351 19.893 15.6219 18.4741L15.6128 18.4919Z" fill="#FBDF73"/>
<path d="M10.4766 21.1692C8.45403 20.25 6.27686 20.7781 5.71989 22.2223C5.18982 23.6578 6.31913 25.5804 8.35987 26.4641C10.3915 27.3655 12.5146 26.8995 13.0984 25.4466C13.6823 23.9937 12.4905 22.0616 10.4588 21.1601L10.4766 21.1692Z" fill="#FBDF73"/>
<path d="M24.1929 8.92947C23.3393 6.07009 21.0207 4.14694 19.0227 4.63181C17.0247 5.11668 16.0998 7.85459 16.9447 10.6871C17.8164 13.5108 20.0184 15.4867 22.0073 15.0196C23.9962 14.5526 24.9836 11.8241 24.202 8.91165L24.1929 8.92947Z" fill="#FBDF73"/>
<path d="M24.0398 22.5261L24.0398 28.2041L23.1031 28.2041L23.1031 23.6376L21.7157 24.1078L21.7157 23.3344L23.9271 22.5261L24.0398 22.5261Z" fill="#663E2A"/>
</g>
<defs>
<clipPath id="clip0_44_9799">
<rect width="31.6119" height="29.5324" fill="white" transform="translate(13.4171) rotate(27.021)"/>
</clipPath>
</defs>
</svg>
