<svg width="59" height="66" viewBox="0 0 59 66" fill="none" xmlns="http://www.w3.org/2000/svg">
<path d="M44.8495 36.0173C45.0887 35.0172 45.0715 34.0044 44.9398 33.0736C44.7999 32.0812 44.5301 31.1809 44.3024 30.4868C43.8583 29.1311 43.677 27.6926 44.6313 26.4769L44.6224 26.4654C45.0766 26.1053 45.4698 25.7357 45.7733 25.3839C45.9393 25.1917 46.078 25.006 46.1849 24.8291C46.4196 26.8376 47.8352 29.8519 48.5725 31.798C48.9015 32.6665 49.1712 33.5661 49.2851 34.465C49.427 35.5809 49.3296 36.6962 48.8098 37.7491C48.7653 37.84 48.7214 37.931 48.6788 38.0214C48.5414 37.9068 48.3518 37.8598 48.1673 37.9132L46.6932 38.3407L44.5416 38.9642L44.3488 38.2994C44.2998 38.1302 44.1236 38.0335 43.955 38.0824L43.6235 38.1785C43.6611 38.0882 43.7005 37.9991 43.7425 37.9107C43.9206 37.534 44.1363 37.1669 44.3609 36.803C44.5231 36.5409 44.6892 36.2801 44.8495 36.0173Z" fill="#417E7D"/>
<path d="M45.3308 16.063C39.9256 15.0954 37.1213 10.1413 37.2612 7.10468C37.3026 6.81457 37.3509 6.51556 37.405 6.20764C36.8337 6.97617 36.2535 7.8274 35.7604 8.73463C35.3825 8.83133 34.2043 9.93132 33.4822 11.2056C32.7601 12.4806 32.4942 13.9298 32.1614 14.7213C31.496 16.3054 30.3883 17.3755 29.761 17.7604L29.5377 17.7801C29.4907 17.7617 29.4423 17.7445 29.3933 17.7299C28.9785 17.6026 28.4969 17.6096 28.1655 17.8463C27.8461 18.0741 27.6062 18.4233 27.4555 18.8248C27.4332 18.8833 27.4128 18.9431 27.395 19.0042L27.2595 18.9724C26.5705 18.5837 26.4102 17.3564 26.8383 16.0917L26.755 16.063C26.295 14.9452 26.3319 12.9037 26.8988 11.8361C26.9026 11.8285 26.907 11.8208 26.9109 11.8138L26.8663 11.7897C26.4751 10.5809 27.1857 9.31293 27.911 8.26956C28.6884 7.15176 29.5167 6.06831 30.3922 5.02494C31.6442 3.53241 33.0241 2.73398 34.7368 1.80576C36.4501 0.877545 38.5533 0.766209 41.0294 1.39478C42.8261 1.30253 44.5903 1.83057 45.9638 2.99291C47.3367 4.15589 48.3617 5.03957 49.2453 6.60653C50.1596 8.22885 50.9434 9.92432 51.5866 11.6713C52.0567 12.9488 52.203 14.9516 51.1559 15.8219C51.5083 16.9594 51.145 18.1879 50.5387 18.8248C50.388 18.4233 50.1481 18.0741 49.8287 17.8463C49.4973 17.6096 49.0157 17.6026 48.6009 17.7299C48.466 17.7712 48.3381 17.8259 48.2242 17.8927C47.1262 17.4665 46.1559 16.8449 45.3308 16.063Z" fill="#417E7D"/>
<path d="M53.22 53.347L48.8557 38.292C48.8239 38.1819 48.7609 38.089 48.6788 38.0216C48.7214 37.9306 48.7653 37.8396 48.8099 37.7486C49.3296 36.6957 49.427 35.5805 49.2851 34.4646L49.3443 34.4531C50.812 34.8877 52.1327 35.3693 53.1666 36.2332C54.9906 37.7582 60.9677 52.2006 61.0796 53.9431C61.1916 55.6863 59.7856 58.352 58.4572 58.9889C58.0373 59.1905 56.7032 59.4953 55.0752 59.8191C51.5551 60.5176 46.6608 61.3014 46.6608 61.3014C46.7397 60.5526 46.7867 59.7777 46.7969 58.9952C46.8147 57.6751 46.7301 56.3346 46.524 55.066C46.4985 54.907 46.4705 54.7498 46.4413 54.5933C46.4413 54.5933 50.5206 53.7949 53.2194 53.347H53.22Z" fill="#68C4C3"/>
<path d="M25.815 35.8836C27.8942 34.8656 31.0427 33.8057 32.7102 33.3057C32.7102 33.3057 32.7102 33.3139 32.7127 33.3311C32.7325 33.5061 32.8521 34.5812 33.0595 36.1934C33.2605 37.7521 33.5443 39.8121 33.8993 42.0471V42.049L32.5092 42.4523C32.214 42.5376 32.0447 42.8461 32.13 43.1407L34.8224 52.428C34.0036 52.6576 33.0493 53.0273 32.8922 53.1494C32.3501 53.5725 31.9009 54.8856 31.4391 55.3952L31.455 55.4366C31.2915 55.5339 31.1922 55.5994 31.1814 55.6185C31.1362 55.6993 31.1273 55.7954 31.1273 55.8883C31.1286 56.4984 31.5288 57.0888 32.0944 57.3159C32.2655 57.3846 32.4506 57.424 32.6071 57.522C33.0919 57.8268 33.1479 58.5927 33.6626 58.8428C33.835 58.9261 34.0341 58.9363 34.2142 59.0025C34.8656 59.2436 35.6698 60.3747 35.6698 60.3747C35.7652 60.4403 35.874 60.4651 35.9873 60.4651L36.0941 60.5217L36.0343 62.4729V62.5366H27.5474V51.7415C25.8411 54.0999 23.617 59.5254 21.0709 60.5802C19.5001 61.2311 17.206 60.3124 16.4362 59.575C15.6664 58.8383 13.9569 52.2352 12.9988 49.0625C13.3786 49.0192 13.7603 48.9734 14.1363 48.904C14.992 48.7475 15.8165 48.4727 16.5144 47.8365C17.1354 47.2703 17.5572 46.6735 17.8778 46.0768C18.0769 45.7071 18.2366 45.3375 18.381 44.9749C18.703 45.4018 19.4689 46.6684 20.2012 48.1953L20.2814 48.1565C20.7827 45.7676 23.7366 36.9015 25.815 35.8836Z" fill="#68C4C3"/>
<path d="M55.0976 59.9304C55.0874 60.1613 54.9322 60.3706 54.6974 60.4387L39.0392 64.978C38.744 65.0632 38.4361 64.8934 38.3509 64.5988L37.7496 62.5248L37.0861 60.2376L37.0524 60.1467C38.368 59.6613 39.6754 59.1669 40.9205 58.5918C42.8755 58.7788 44.835 58.9137 46.7977 58.9952C46.7875 59.7777 46.7404 60.5526 46.6616 61.3014C46.6616 61.3014 51.5558 60.5176 55.0759 59.819L55.0976 59.9304Z" fill="#E1E7EA"/>
<path d="M48.8557 38.2918L53.22 53.3468C50.5213 53.7947 46.442 54.5931 46.442 54.5931C46.4712 54.7496 46.4992 54.9068 46.5247 55.0658C44.9628 55.0964 43.1248 55.104 41.673 55.1746C39.9482 54.2725 38.2235 53.371 36.4988 52.4689C36.3035 52.3671 36.103 52.2545 35.8836 52.2367C35.6673 52.2188 35.2645 52.3028 34.8224 52.4275L32.13 43.1402C32.0447 42.8457 32.214 42.5371 32.5092 42.4519L33.8999 42.0485L36.1342 41.4009L36.3448 42.1261C36.3938 42.2954 36.57 42.3921 36.7386 42.3431L44.5353 40.0833C44.7039 40.0343 44.8012 39.8581 44.7522 39.6895L44.5416 38.9636L46.6933 38.3401L48.1673 37.9126C48.3518 37.8591 48.5414 37.9062 48.6788 38.0214C48.7609 38.0888 48.8239 38.1817 48.8557 38.2918Z" fill="#E1E7EA"/>
<path d="M8.77891 32.3809L9.3693 34.696C9.43865 34.9683 9.27451 35.2457 9.00222 35.315L8.75919 35.3456L8.6593 35.3805C8.61095 35.2336 8.54606 35.0904 8.4818 34.9492C8.31894 34.5917 8.14971 34.2252 7.86532 33.9542C7.67574 33.7729 7.44352 33.6437 7.21385 33.5165C7.13306 33.4713 7.05162 33.4268 6.97083 33.3816C7.38308 33.4096 8.2216 32.9814 8.2216 32.5838C8.2216 32.5654 8.21905 32.5456 8.21396 32.5246L8.77891 32.3809Z" fill="#CCD8DF"/>
<path d="M7.17948 28.1633C7.45177 28.094 7.72852 28.2587 7.79787 28.531L7.88821 28.886C7.92829 29.1087 7.98682 29.3345 8.06125 29.5642L8.77889 32.3807L8.21394 32.5245C8.14523 32.2503 7.63563 31.8056 7.09804 31.4525L6.44212 28.8765C6.37214 28.6042 6.53692 28.3268 6.80921 28.2575L7.17948 28.1633Z" fill="#CCD8DF"/>
<path d="M2.53144 9.37546L1.89715 9.53705C1.66367 9.59686 1.42636 9.45562 1.36656 9.22213L1.21642 8.6311C1.11208 8.22266 1.35893 7.80722 1.76737 7.70289C1.83099 7.68698 1.89397 7.67871 1.95695 7.67871C2.29732 7.67871 2.60779 7.90902 2.69558 8.25447L2.84636 8.84487C2.90617 9.07835 2.76493 9.31629 2.53144 9.37546Z" fill="white"/>
<path d="M8.91814 37.4108C9.15862 37.8307 9.30367 38.3765 9.04665 38.7862C8.90859 38.479 8.52433 38.1825 8.28384 37.8873C7.90085 37.4165 7.28501 37.2161 6.70416 37.0386C6.52157 36.9826 6.33834 36.9273 6.15575 36.8713C6.01515 36.828 5.85101 36.7797 5.72822 36.8598C5.56345 36.9673 5.4203 37.1792 5.31088 37.426C5.01695 37.2912 4.74211 36.9705 4.58561 36.3738C4.44564 35.8413 4.82864 35.0288 5.02968 34.8322C5.05449 34.8087 5.07612 34.7934 5.09393 34.7896C5.19445 34.7667 5.29688 34.8093 5.3904 34.8507C6.44586 35.3183 7.55476 35.8336 8.34047 36.6473C8.56186 36.8764 8.75718 37.1289 8.91814 37.4108Z" fill="white"/>
<path d="M5.0374 32.5428C5.21045 32.4321 5.4363 32.5314 5.61635 32.6306C6.06741 32.8813 6.51912 33.1313 6.97018 33.382H6.97082C7.05162 33.4271 7.13305 33.4717 7.21385 33.5168C7.44352 33.6441 7.67573 33.7732 7.86532 33.9546C8.1497 34.2256 8.31893 34.592 8.4818 34.9496C8.54605 35.0908 8.61094 35.234 8.6593 35.3809C8.69747 35.4954 8.72546 35.6125 8.73564 35.7327C8.75982 36.0076 8.56323 36.4835 8.34056 36.647C7.55485 35.8333 6.44595 35.3179 5.39049 34.8503C5.29697 34.809 5.19455 34.7663 5.09403 34.7892C5.07621 34.7931 5.05458 34.8083 5.02977 34.8319L4.88153 34.6671C4.77211 34.4998 4.6894 34.3159 4.6366 34.1231C4.65823 33.6384 4.72885 33.2439 4.844 32.8641C4.8809 32.742 4.92989 32.6115 5.0374 32.5428Z" fill="white"/>
<path d="M8.21384 32.5246C8.21893 32.5456 8.22148 32.5653 8.22148 32.5838C8.22148 32.9814 7.38296 33.4095 6.9707 33.3815H6.97007C6.519 33.1309 6.0673 32.8809 5.61623 32.6302C5.54879 32.3356 5.53798 31.6536 5.61623 31.361C5.66267 31.1847 5.75811 30.9945 5.93497 30.9493C6.05012 30.9201 6.17036 30.9608 6.28043 31.0053C6.51964 31.1027 6.81356 31.2649 7.09858 31.4526C7.63617 31.8057 8.14577 32.2504 8.21448 32.5246H8.21384Z" fill="white"/>
<path d="M9.36923 34.6956L8.77883 32.3805L8.0612 29.564L7.88815 28.8858C7.81626 28.4939 7.79972 28.1116 7.84425 27.7362C7.86461 27.5632 7.90151 27.3831 8.01157 27.2476C8.12227 27.1127 8.32713 27.0402 8.47791 27.1286C8.55871 27.1757 8.61024 27.2584 8.65795 27.3386C9.25598 28.3565 9.59762 29.5214 10.2955 30.4731C11.3262 31.8632 12.3797 33.2362 13.432 34.6873C14.2279 36.4076 14.7305 38.2628 14.9124 40.1491C14.9124 40.1491 16.7294 44.3061 17.8778 46.076C17.5571 46.6727 17.1353 47.2695 16.5144 47.8357C15.8165 48.4719 14.992 48.7467 14.1363 48.9033C13.439 46.6428 11.531 42.6462 11.531 42.6462C10.3044 41.6302 8.67195 41.2994 7.17115 40.7656C6.10742 39.9888 5.28991 39.1178 5.12386 38.7361C5.01443 38.4861 5.10286 37.8925 5.3109 37.4249C5.42033 37.1781 5.56347 36.9662 5.72825 36.8587C5.85103 36.7785 6.01517 36.8269 6.15577 36.8702C6.33836 36.9261 6.52159 36.9815 6.70418 37.0375C7.28503 37.215 7.90087 37.4154 8.28387 37.8862C8.52435 38.1814 8.90862 38.4778 9.04667 38.7851C9.3037 38.3754 9.15864 37.8295 8.91816 37.4096C8.7572 37.1278 8.56189 36.8752 8.34049 36.6462C8.56316 36.4827 8.75975 36.0068 8.73557 35.732C8.72539 35.6117 8.6974 35.4947 8.65923 35.3802L8.75911 35.3452L9.00214 35.3146C9.27443 35.2453 9.43857 34.9679 9.36923 34.6956Z" fill="white"/>
<path d="M31.4551 55.4362L31.4392 55.3949C31.9011 54.8853 32.3502 53.5721 32.8923 53.1491C33.0494 53.0269 34.0037 52.6573 34.8225 52.4276C35.2647 52.3029 35.6674 52.2189 35.8837 52.2368C36.1032 52.2546 36.3036 52.3672 36.4989 52.469C38.2236 53.3711 39.9484 54.2726 41.6731 55.1747C43.1249 55.1041 44.9629 55.0965 46.5248 55.0659C46.7309 56.3345 46.8155 57.675 46.7977 58.9951C44.835 58.9137 42.8755 58.7788 40.9205 58.5918C39.6754 59.1669 38.368 59.6612 37.0524 60.1466C36.8749 60.2122 36.6974 60.2777 36.5199 60.3426C36.3513 60.4043 36.1636 60.4647 35.9874 60.4647C35.8741 60.4647 35.7653 60.4399 35.6699 60.3744C35.6699 60.3744 34.8658 59.2432 34.2143 59.0021C34.0342 58.936 33.8351 58.9258 33.6627 58.8424C33.148 58.5924 33.092 57.8264 32.6072 57.5217C32.4507 57.4237 32.2656 57.3843 32.0945 57.3155C31.5289 57.0884 31.1287 56.498 31.1274 55.8879C31.1274 55.795 31.1363 55.699 31.1815 55.6182C31.1923 55.5991 31.2916 55.5336 31.4551 55.4362Z" fill="white"/>
<path d="M37.7496 62.5246L37.7108 62.5361H36.0344V62.4724L36.0942 60.5212L35.9873 60.4646C36.1635 60.4646 36.3512 60.4041 36.5198 60.3424C36.6973 60.2775 36.8748 60.212 37.0523 60.1465L37.086 60.2375L37.7496 62.5246Z" fill="white"/>
<path d="M38.4743 39.6699L36.1585 40.3411C35.9899 40.3901 35.8926 40.5663 35.9416 40.7349L36.1343 41.4004L33.9 42.048V42.0461C33.5444 39.8111 33.2606 37.7511 33.0596 36.1924L33.3045 36.1523C33.3045 36.1523 35.8417 37.6792 39.1995 37.6792C41.4708 37.6792 43.3482 37.5329 44.3248 36.7796L44.361 36.8019C44.1365 37.1658 43.9208 37.5329 43.7427 37.9095C43.7007 37.998 43.6612 38.087 43.6237 38.1767L38.4743 39.6699Z" fill="white"/>
<path d="M31.434 22.9949L31.4455 23.1482C31.3653 23.1546 31.2814 23.1578 31.1929 23.1584H31.1554C30.962 23.1565 30.7527 23.1393 30.5395 23.1081C30.1585 23.0522 29.7627 22.9504 29.4135 22.804C29.1953 22.7131 28.9949 22.6043 28.8269 22.4796C28.7404 22.4153 28.6564 22.346 28.5756 22.2728C28.0272 21.7753 27.6079 21.0698 27.4928 20.27C27.4832 20.202 27.4756 20.1339 27.4705 20.0646C27.4527 19.8145 27.468 19.56 27.5131 19.3138C27.5322 19.2082 27.557 19.1045 27.5876 19.004C27.6054 18.9429 27.6257 18.8831 27.648 18.8246C27.7988 18.4232 28.0386 18.0739 28.358 17.8461C28.6895 17.6095 29.1711 17.6025 29.5859 17.7297C29.6349 17.7443 29.6832 17.7615 29.7303 17.78C29.8709 17.8359 30.0001 17.9066 30.1082 17.9893C30.1737 18.0389 30.231 18.093 30.2787 18.1502L30.315 18.1445C30.5688 19.6574 30.9569 21.51 31.434 22.9949Z" fill="white"/>
<path d="M47.8397 23.1081C47.6266 23.1393 47.4173 23.1565 47.2239 23.1584H47.1864C47.0973 23.1584 47.0127 23.1546 46.9319 23.1482L46.8988 23.1374C47.3969 21.6296 47.8022 19.7064 48.0643 18.1445L48.1006 18.1502C48.1483 18.093 48.2056 18.0389 48.2711 17.9893C48.3163 17.9549 48.3652 17.9225 48.4168 17.8926C48.5307 17.8258 48.6585 17.7711 48.7934 17.7297C49.2082 17.6025 49.6898 17.6095 50.0213 17.8461C50.3407 18.0739 50.5805 18.4232 50.7313 18.8246C50.7904 18.9811 50.8356 19.1452 50.8662 19.3138C50.9113 19.56 50.9266 19.8145 50.9088 20.0646C50.9037 20.1339 50.8961 20.202 50.8865 20.27C50.7714 21.0698 50.3521 21.7753 49.8037 22.2728C49.7229 22.346 49.6389 22.4153 49.5524 22.4796C49.3844 22.6043 49.184 22.7131 48.9658 22.804C48.6165 22.9504 48.2208 23.0522 47.8397 23.1081Z" fill="white"/>
<path d="M45.5233 16.0634C46.3484 16.8453 47.3186 17.4669 48.4167 17.8931C48.3652 17.923 48.3162 17.9555 48.271 17.9898C48.2055 18.0394 48.1482 18.0935 48.1005 18.1508L48.0643 18.145C47.8022 19.7069 47.3969 21.6302 46.8987 23.138C46.8612 23.2518 46.823 23.3632 46.7849 23.472C46.6258 23.9192 46.4579 24.3207 46.2829 24.654C46.2746 24.6712 46.2651 24.6884 46.2562 24.7056C46.2346 24.7463 46.2104 24.787 46.1849 24.829C46.078 25.0058 45.9394 25.1916 45.7733 25.3837C45.4698 25.7356 45.0767 26.1052 44.6224 26.4653C43.9455 27.0016 43.1337 27.5157 42.2837 27.9152C42.2831 27.9158 42.2818 27.9158 42.2812 27.9165L42.2526 27.9298C42.2443 27.9336 42.2367 27.9375 42.2284 27.9413C42.2112 27.9495 42.194 27.9572 42.1762 27.9648C42.1769 27.961 42.1762 27.9584 42.1762 27.9572C42.1762 27.9597 42.1756 27.9629 42.1756 27.9654C42.1209 28.4776 42.0814 29.012 42.1012 29.535C42.133 30.4116 42.3276 31.2559 42.8856 31.9118C43.3965 32.5117 44.1217 32.8451 44.8871 33.0811L44.9399 33.0735C45.0716 34.0043 45.0888 35.0171 44.8495 36.0172C44.6892 36.28 44.5232 36.5408 44.3609 36.8029L44.3247 36.7806C43.3481 37.5339 41.4707 37.6802 39.1994 37.6802C35.8416 37.6802 33.3044 36.1534 33.3044 36.1534L33.0595 36.1934C32.8521 34.5813 32.7325 33.5061 32.7127 33.3312L32.7458 33.3286C33.8458 33.064 34.7397 32.7739 35.4732 31.9118C36.035 31.2514 36.2284 30.4002 36.2583 29.5178V29.5152C36.2634 29.3753 36.264 29.2385 36.2608 29.1042H36.292C36.285 28.7263 36.2532 28.3478 36.2144 27.9807L36.2182 27.9718C36.1953 27.9616 36.173 27.9515 36.1508 27.9413C36.1425 27.9375 36.1349 27.9336 36.1266 27.9298L36.098 27.9165C36.098 27.9165 36.0961 27.9158 36.0954 27.9152C34.6754 27.2472 33.3617 26.2604 32.6059 25.3837C32.401 25.1464 32.2375 24.918 32.123 24.7056C32.1141 24.6884 32.1045 24.6712 32.0963 24.654C31.9213 24.3207 31.7533 23.9192 31.5943 23.472C31.5561 23.3632 31.5179 23.2518 31.4804 23.138C31.4651 23.0909 31.4492 23.0432 31.434 22.9954C30.9568 21.5106 30.5687 19.6579 30.3149 18.145L30.2786 18.1508C30.2309 18.0935 30.1737 18.0394 30.1081 17.9898C30 17.9071 29.8708 17.8365 29.7302 17.7805L29.9535 17.7608C30.5808 17.3759 31.6885 16.3058 32.3539 14.7216C32.6867 13.9302 32.9526 12.481 33.6747 11.206C34.3968 9.93169 35.575 8.8317 35.9529 8.735C36.446 7.82778 37.0262 6.97654 37.5975 6.20801C37.5161 6.48094 37.4677 6.78186 37.4537 7.10505C37.3137 10.1416 40.1181 15.0957 45.5233 16.0634ZM43.2991 18.9664C43.2991 18.5293 43.0555 18.1749 42.7552 18.1749C42.4549 18.1749 42.2112 18.5293 42.2112 18.9664C42.2112 19.4035 42.4542 19.7572 42.7552 19.7572C43.0561 19.7572 43.2991 19.4028 43.2991 18.9664ZM36.077 18.9664C36.077 18.5293 35.8333 18.1749 35.533 18.1749C35.2327 18.1749 34.9884 18.5293 34.9884 18.9664C34.9884 19.4035 35.2321 19.7572 35.533 19.7572C35.8339 19.7572 36.077 19.4028 36.077 18.9664Z" fill="white"/>
<path d="M44.7523 39.6897C44.8012 39.8583 44.7039 40.0346 44.5353 40.0836L36.7387 42.3433C36.5701 42.3923 36.3938 42.2956 36.3449 42.1264L36.1343 41.4011L35.9415 40.7357C35.8925 40.5671 35.9899 40.3908 36.1585 40.3418L38.4742 39.6707L43.6236 38.1781L43.9551 38.0821C44.1237 38.0331 44.2999 38.1298 44.3489 38.299L44.5417 38.9638L44.7523 39.6897Z" fill="#E1E7EA"/>
<path d="M42.7553 18.1738C43.0555 18.1738 43.2992 18.5282 43.2992 18.9653C43.2992 19.4023 43.0555 19.7561 42.7553 19.7561C42.455 19.7561 42.2113 19.4017 42.2113 18.9653C42.2113 18.5288 42.4543 18.1738 42.7553 18.1738Z" fill="#393C3F"/>
<path d="M35.533 18.1738C35.8333 18.1738 36.0769 18.5282 36.0769 18.9653C36.0769 19.4023 35.8333 19.7561 35.533 19.7561C35.2327 19.7561 34.9884 19.4017 34.9884 18.9653C34.9884 18.5288 35.2321 18.1738 35.533 18.1738Z" fill="#393C3F"/>
<path d="M32.5177 33.3057C30.8502 33.8057 27.7016 34.8656 25.6225 35.8836C23.5441 36.9015 20.5902 45.7676 20.0889 48.1565" stroke="#663E2A" stroke-width="0.636201" stroke-linecap="round" stroke-linejoin="round"/>
<path d="M27.353 62.5361H27.3551" stroke="#663E2A" stroke-width="0.636201" stroke-linecap="round" stroke-linejoin="round"/>
<path d="M27.355 46.6211V51.7412V62.5363" stroke="#663E2A" stroke-width="0.636201" stroke-linecap="round" stroke-linejoin="round"/>
<path d="M25.8179 41.9053L27.3549 46.4299" stroke="#663E2A" stroke-width="0.636201" stroke-linecap="round" stroke-linejoin="round"/>
<path d="M35.9017 60.5215L35.8419 62.4727" stroke="#663E2A" stroke-width="0.636201" stroke-linecap="round" stroke-linejoin="round"/>
<path d="M32.5177 33.3057C32.5177 33.3057 32.5177 33.3139 32.5202 33.3311C32.54 33.5061 32.6596 34.5812 32.867 36.1934C33.068 37.7521 33.3518 39.8121 33.7068 42.0471" stroke="#663E2A" stroke-width="0.636201" stroke-linecap="round" stroke-linejoin="round"/>
<path d="M34.6299 52.427L31.9375 43.1398C31.8522 42.8452 32.0214 42.5366 32.3166 42.4514L33.7074 42.048L35.9417 41.4004" stroke="#663E2A" stroke-width="0.636201" stroke-linecap="round" stroke-linejoin="round"/>
<path d="M54.905 59.9307C54.8949 60.1616 54.7396 60.3709 54.5049 60.439L38.8467 64.9783C38.5515 65.0635 38.2436 64.8937 38.1583 64.5991L37.5571 62.5251L36.8936 60.238" stroke="#663E2A" stroke-width="0.636201" stroke-linecap="round" stroke-linejoin="round"/>
<path d="M44.3491 38.9636L46.5008 38.3401L47.9748 37.9126C48.1593 37.8591 48.3489 37.9062 48.4863 38.0214C48.5684 38.0888 48.6314 38.1817 48.6632 38.2918L53.0275 53.3468" stroke="#663E2A" stroke-width="0.636201" stroke-linecap="round" stroke-linejoin="round"/>
<path d="M44.3492 38.9638L44.5598 39.6897C44.6087 39.8583 44.5114 40.0346 44.3428 40.0836L36.5462 42.3433C36.3776 42.3923 36.2013 42.2956 36.1524 42.1264L35.9418 41.4011L35.749 40.7357C35.7 40.5671 35.7974 40.3908 35.9659 40.3418L38.2817 39.6707L43.4311 38.1781L43.7626 38.0821C43.9312 38.0331 44.1074 38.1298 44.1564 38.299L44.3492 38.9638Z" stroke="#663E2A" stroke-width="0.636201" stroke-linecap="round" stroke-linejoin="round"/>
<path d="M58.3684 54.1429C57.8855 53.5035 57.0864 53.1632 56.2912 53.0658C55.4953 52.9691 54.6911 53.0868 53.8984 53.2077C53.6319 53.2484 53.3392 53.2955 53.0275 53.347C50.3287 53.7949 46.2494 54.5933 46.2494 54.5933C46.2787 54.7498 46.3066 54.907 46.3321 55.066C46.5382 56.3346 46.6228 57.6751 46.605 58.9952C46.5948 59.7777 46.5478 60.5526 46.4689 61.3014C46.4689 61.3014 51.3632 60.5176 54.8833 59.8191C56.5113 59.4953 57.8454 59.1905 58.2653 58.9889C59.5937 58.352 60.9997 55.6863 60.8877 53.9431C60.7758 52.2006 54.7987 37.7582 52.9747 36.2332C51.9408 35.3693 50.6201 34.8877 49.1524 34.4531" stroke="#663E2A" stroke-width="0.636201" stroke-linecap="round" stroke-linejoin="round"/>
<path d="M46.3322 55.0659C44.7703 55.0965 42.9323 55.1041 41.4805 55.1747C39.7558 54.2726 38.031 53.3711 36.3063 52.469C36.111 52.3672 35.9106 52.2546 35.6911 52.2368C35.4748 52.2189 35.0721 52.3029 34.6299 52.4276C33.8111 52.6573 32.8568 53.0269 32.6997 53.1491C32.1576 53.5721 31.7085 54.8853 31.2466 55.3949" stroke="#663E2A" stroke-width="0.636201" stroke-linecap="round" stroke-linejoin="round"/>
<path d="M34.8934 53.5713C33.871 53.9918 31.9694 55.0129 31.2626 55.4354C31.0991 55.5327 30.9998 55.5982 30.989 55.6173C30.9438 55.6981 30.9349 55.7942 30.9349 55.8871C30.9362 56.4972 31.3364 57.0876 31.902 57.3147C32.0731 57.3834 32.2582 57.4229 32.4147 57.5208C32.8995 57.8256 32.9555 58.5916 33.4702 58.8416C33.6426 58.9249 33.8417 58.9351 34.0218 59.0013C34.6733 59.2424 35.4774 60.3736 35.4774 60.3736C35.5728 60.4391 35.6816 60.4639 35.7949 60.4639C35.9711 60.4639 36.1588 60.4035 36.3274 60.3417C36.5049 60.2769 36.6824 60.2113 36.8599 60.1458C38.1755 59.6604 39.4829 59.166 40.728 58.5909C42.683 58.778 44.6425 58.9128 46.6052 58.9943C46.6109 58.9943 46.6173 58.9949 46.623 58.9949" stroke="#663E2A" stroke-width="0.636201" stroke-linecap="round" stroke-linejoin="round"/>
<path d="M27.3721 51.7171C27.3664 51.7253 27.3606 51.733 27.3549 51.7412C25.6486 54.0996 23.4245 59.5252 20.8784 60.58C19.3076 61.2308 17.0135 60.3121 16.2437 59.5748C15.4739 58.8381 13.7644 52.2349 12.8063 49.0622C13.1861 49.0189 13.5678 48.9731 13.9438 48.9038C14.7995 48.7473 15.624 48.4724 16.3219 47.8362C16.9429 47.27 17.3647 46.6733 17.6853 46.0765C17.8844 45.7069 18.0441 45.3372 18.1885 44.9746C18.5105 45.4015 19.2764 46.6682 20.0087 48.1951C20.7671 49.7767 21.4898 51.6369 21.645 53.1333" stroke="#663E2A" stroke-width="0.636201" stroke-linecap="round" stroke-linejoin="round"/>
<path d="M5.42373 32.6302C5.35629 32.3356 5.34547 31.6536 5.42373 31.361C5.47017 31.1847 5.5656 30.9945 5.74246 30.9493C5.85762 30.9201 5.97786 30.9608 6.08792 31.0053C6.32713 31.1027 6.62106 31.2649 6.90608 31.4526C7.44367 31.8057 7.95326 32.2504 8.02197 32.5246C8.02706 32.5456 8.02961 32.5653 8.02961 32.5838C8.02961 32.9814 7.19109 33.4095 6.77884 33.3815" stroke="#663E2A" stroke-width="0.636201" stroke-linecap="round" stroke-linejoin="round"/>
<path d="M8.14805 36.647C8.37072 36.4835 8.56731 36.0076 8.54313 35.7327C8.53296 35.6125 8.50496 35.4954 8.46679 35.3809C8.41844 35.234 8.35355 35.0908 8.28929 34.9496C8.12642 34.592 7.95719 34.2256 7.67281 33.9546C7.48322 33.7732 7.25101 33.6441 7.02134 33.5168C6.94054 33.4717 6.85911 33.4271 6.77831 33.382H6.77768C6.32661 33.1313 5.87491 32.8813 5.42384 32.6306C5.2438 32.5314 5.01795 32.4321 4.8449 32.5428C4.73738 32.6115 4.68839 32.742 4.65149 32.8641C4.53634 33.2439 4.46572 33.6384 4.44409 34.1231C4.4969 34.3159 4.5796 34.4998 4.68903 34.6671" stroke="#663E2A" stroke-width="0.636201" stroke-linecap="round" stroke-linejoin="round"/>
<path d="M5.11837 37.426C4.82445 37.2912 4.54961 36.9705 4.3931 36.3738C4.25314 35.8413 4.63613 35.0288 4.83717 34.8322C4.86198 34.8087 4.88361 34.7934 4.90143 34.7896C5.00195 34.7667 5.10438 34.8093 5.1979 34.8507C6.25335 35.3183 7.36225 35.8336 8.14796 36.6473C8.36936 36.8764 8.56467 37.1289 8.72563 37.4108C8.96612 37.8307 9.11117 38.3765 8.85414 38.7862C8.85287 38.7875 8.85223 38.7888 8.8516 38.7901" stroke="#663E2A" stroke-width="0.636201" stroke-linecap="round" stroke-linejoin="round"/>
<path d="M6.19548 38.7897C6.52694 39.263 8.18107 39.7504 8.42155 39.6938C8.66203 39.6378 8.93942 39.3318 8.90315 38.9615C8.89743 38.9023 8.88025 38.8438 8.85417 38.7859C8.71611 38.4786 8.33185 38.1821 8.09136 37.8869C7.70837 37.4162 7.09253 37.2158 6.51167 37.0383C6.32909 36.9823 6.14586 36.9269 5.96327 36.8709C5.82267 36.8277 5.65853 36.7793 5.53574 36.8595C5.37097 36.967 5.22782 37.1789 5.11839 37.4257C4.91036 37.8933 4.82193 38.4869 4.93135 38.7369C5.0974 39.1186 5.91492 39.9896 6.97865 40.7664C8.47944 41.3002 10.1119 41.631 11.3385 42.647C11.3385 42.647 13.2465 46.6436 13.9438 48.904" stroke="#663E2A" stroke-width="0.636201" stroke-linecap="round" stroke-linejoin="round"/>
<path d="M17.6852 46.076C16.5369 44.3061 14.7199 40.1491 14.7199 40.1491C14.538 38.2628 14.0354 36.4076 13.2395 34.6873C12.1872 33.2362 11.1336 31.8632 10.103 30.4731C9.40508 29.5214 9.06344 28.3565 8.46542 27.3386C8.4177 27.2584 8.36617 27.1757 8.28537 27.1286C8.13459 27.0402 7.92973 27.1127 7.81904 27.2476C7.70897 27.3831 7.67207 27.5632 7.65171 27.7362C7.60718 28.1116 7.62372 28.4939 7.69561 28.8858C7.73569 29.1085 7.79422 29.3343 7.86866 29.564C7.94373 29.7969 8.03662 30.0335 8.14413 30.2747C8.46414 31.3696 8.93048 32.4225 9.48715 33.4741C9.30902 34.431 9.34592 35.4272 9.5934 36.3688" stroke="#663E2A" stroke-width="0.636201" stroke-linecap="round" stroke-linejoin="round"/>
<path d="M6.90554 31.4525L6.24962 28.8765C6.17963 28.6042 6.34441 28.3268 6.6167 28.2575L6.98697 28.1633C7.25927 28.094 7.53601 28.2587 7.60536 28.531L7.6957 28.886L7.86875 29.5642L8.58638 32.3807L9.17678 34.6958C9.24612 34.9681 9.08198 35.2455 8.80969 35.3148L8.56666 35.3454" stroke="#663E2A" stroke-width="0.636201" stroke-linecap="round" stroke-linejoin="round"/>
<path d="M2.03418 9.50391L6.75352 28.0218" stroke="#663E2A" stroke-width="0.636201" stroke-linecap="round" stroke-linejoin="round"/>
<path d="M2.33894 9.37546L1.70465 9.53705C1.47116 9.59686 1.23386 9.45562 1.17405 9.22213L1.02391 8.6311C0.919574 8.22266 1.16642 7.80722 1.57486 7.70289C1.63848 7.68698 1.70147 7.67871 1.76445 7.67871C2.10482 7.67871 2.41528 7.90902 2.50308 8.25447L2.65386 8.84487C2.71366 9.07835 2.57242 9.31629 2.33894 9.37546Z" stroke="#663E2A" stroke-width="0.636201" stroke-linecap="round" stroke-linejoin="round"/>
<path d="M36.0219 27.9805C36.0607 28.3476 36.0925 28.7261 36.0995 29.1034C36.1033 29.2491 36.1027 29.3941 36.0976 29.5385V29.5411C36.0919 29.7173 36.0791 29.8923 36.0588 30.0653C36.0378 30.2377 36.0091 30.4082 35.9703 30.5743" stroke="#663E2A" stroke-width="0.636201" stroke-linecap="round" stroke-linejoin="round"/>
<path d="M42.0175 27.9639C42.0169 27.9696 42.0162 27.9747 42.0156 27.9804C41.9609 28.4951 41.9208 29.0327 41.9405 29.5582C41.9545 29.938 41.9991 30.2491 42.09 30.6041" stroke="#663E2A" stroke-width="0.636201" stroke-linecap="round" stroke-linejoin="round"/>
<path d="M35.9901 28.0205C36.0295 28.392 36.0614 28.7407 36.0684 29.104C36.0715 29.2382 36.0709 29.375 36.0658 29.5149V29.5175C36.0359 30.3999 35.8425 31.2511 35.2807 31.9115C34.5472 32.7736 33.6533 33.0637 32.5533 33.3283" stroke="#663E2A" stroke-width="0.636201" stroke-linecap="round" stroke-linejoin="round"/>
<path d="M41.9838 27.957C41.9838 27.957 41.9832 27.9628 41.9832 27.9653C41.9284 28.4774 41.889 29.0119 41.9087 29.5348C41.9405 30.4115 42.1352 31.2557 42.6932 31.9117C43.204 32.5116 43.9293 32.845 44.6946 33.081" stroke="#663E2A" stroke-width="0.636201" stroke-linecap="round" stroke-linejoin="round"/>
<path d="M41.9856 28.005C41.9849 27.9999 41.9843 27.9778 41.9836 27.9648C41.9843 27.9609 41.9836 27.9583 41.9836 27.957" stroke="#663E2A" stroke-width="0.636201" stroke-linecap="round" stroke-linejoin="round"/>
<path d="M41.9856 28.0039V28.0047" stroke="#663E2A" stroke-width="0.636201" stroke-linecap="round" stroke-linejoin="round"/>
<path d="M33.1119 36.1523C33.1119 36.1523 35.6491 37.6792 39.007 37.6792C41.2782 37.6792 43.1556 37.5329 44.1322 36.7796" stroke="#663E2A" stroke-width="0.636201" stroke-linecap="round" stroke-linejoin="round"/>
<path d="M38.5305 38.4355L38.2817 39.6704" stroke="#663E2A" stroke-width="0.636201" stroke-linecap="round" stroke-linejoin="round"/>
<path d="M39.8665 38.4355L39.9752 39.0947" stroke="#663E2A" stroke-width="0.636201" stroke-linecap="round" stroke-linejoin="round"/>
<path d="M35.3997 16.4731C35.205 16.1525 35.0434 15.8299 34.9136 15.5074C33.9682 13.17 34.6356 10.8065 35.7604 8.735C36.2534 7.82778 36.8337 6.97654 37.405 6.20801C37.3509 6.51593 37.3025 6.81494 37.2612 7.10505C36.5143 12.2977 37.767 14.6708 39.9479 16.3694" stroke="#663E2A" stroke-width="0.636201" stroke-linecap="round" stroke-linejoin="round"/>
<path d="M37.405 6.20801C37.3236 6.48094 37.2752 6.78186 37.2612 7.10505C37.1213 10.1416 39.9256 15.0957 45.3308 16.0634" stroke="#663E2A" stroke-width="0.636201" stroke-linecap="round" stroke-linejoin="round"/>
<path d="M42.0945 8.01562C42.1683 11.3124 43.323 14.1626 45.3308 16.0636C46.156 16.8455 47.1262 17.467 48.2243 17.8933" stroke="#663E2A" stroke-width="0.636201" stroke-linecap="round" stroke-linejoin="round"/>
<path d="M35.7611 8.73438H35.7605C35.3826 8.83108 34.2043 9.93107 33.4822 11.2054C32.7602 12.4803 32.4942 13.9296 32.1615 14.721C31.496 16.3052 30.3884 17.3753 29.7611 17.7602" stroke="#663E2A" stroke-width="0.636201" stroke-linecap="round" stroke-linejoin="round"/>
<path d="M28.2533 13.9492C27.5618 14.5619 27.0942 15.3336 26.8384 16.0919C26.4102 17.3567 26.5706 18.5839 27.2596 18.9727" stroke="#663E2A" stroke-width="0.636201" stroke-linecap="round" stroke-linejoin="round"/>
<path d="M29.2368 9.08789C28.3493 9.89587 27.4784 10.756 26.9109 11.8134C26.907 11.8204 26.9026 11.828 26.8988 11.8356C26.3319 12.9032 26.295 14.9448 26.755 16.0626" stroke="#663E2A" stroke-width="0.636201" stroke-linecap="round" stroke-linejoin="round"/>
<path d="M26.8664 11.7897C26.4751 10.5809 27.1858 9.31293 27.911 8.26956C28.6885 7.15176 29.5168 6.06831 30.3922 5.02494C31.6443 3.53241 33.0242 2.73398 34.7368 1.80576C36.4501 0.877545 38.5534 0.766209 41.0295 1.39478C42.8261 1.30253 44.5903 1.83057 45.9639 2.99291C47.3368 4.15589 48.3617 5.03957 49.2454 6.60653C50.1596 8.22885 50.9434 9.92432 51.5866 11.6713C52.0568 12.9488 52.2031 14.9516 51.1559 15.8219" stroke="#663E2A" stroke-width="0.636201" stroke-linecap="round" stroke-linejoin="round"/>
<path d="M45.9924 8.33887C46.5383 10.0445 47.4932 11.6172 48.7548 12.889C49.4915 13.6314 50.3421 14.2886 50.8759 15.1888C50.9968 15.3931 51.089 15.6056 51.1558 15.8212C51.5083 16.9588 51.145 18.1873 50.5387 18.8241" stroke="#663E2A" stroke-width="0.636201" stroke-linecap="round" stroke-linejoin="round"/>
<path d="M48.4208 9.46387C49.7523 11.1721 50.6328 13.7201 51.1558 15.8221" stroke="#663E2A" stroke-width="0.636201" stroke-linecap="round" stroke-linejoin="round"/>
<path d="M44.4389 26.4766C43.4846 27.6923 43.6659 29.1308 44.1099 30.4865C44.3377 31.1806 44.6075 32.0809 44.7474 33.0733C44.8791 34.0041 44.8963 35.0169 44.6571 36.017C44.6533 36.0336 44.6494 36.0508 44.645 36.0673" stroke="#663E2A" stroke-width="0.636201" stroke-linecap="round" stroke-linejoin="round"/>
<path d="M48.4871 38.0207C48.5297 37.9304 48.5736 37.8394 48.6181 37.7484C49.1379 36.6955 49.2352 35.5803 49.0934 34.4644C48.9795 33.5654 48.7097 32.6658 48.3808 31.7974C47.6435 29.8513 46.2279 26.837 45.9932 24.8291" stroke="#663E2A" stroke-width="0.636201" stroke-linecap="round" stroke-linejoin="round"/>
<path d="M47.2547 35.5977C46.4633 36.7339 46.3736 37.6093 46.5008 38.341" stroke="#663E2A" stroke-width="0.636201" stroke-linecap="round" stroke-linejoin="round"/>
<path d="M45.7818 29.4648C46.1381 31.4962 46.0191 33.5893 44.963 35.4941C44.8657 35.6697 44.7626 35.8434 44.657 36.0164C44.4967 36.2792 44.3306 36.54 44.1684 36.8022C43.9438 37.1661 43.7281 37.5331 43.55 37.9098C43.508 37.9982 43.4686 38.0873 43.431 38.177" stroke="#663E2A" stroke-width="0.636201" stroke-linecap="round" stroke-linejoin="round"/>
<path d="M47.8718 18.1445C47.6097 19.7064 47.2044 21.6296 46.7062 23.1374C46.6687 23.2513 46.6305 23.3627 46.5924 23.4714C46.4333 23.9187 46.2654 24.3201 46.0904 24.6535C46.0821 24.6707 46.0726 24.6879 46.0637 24.705C46.0421 24.7458 46.0179 24.7865 45.9924 24.8285C45.8855 25.0053 45.7469 25.1911 45.5808 25.3832C45.2773 25.735 44.8842 26.1047 44.4299 26.4648C43.753 27.0011 42.9412 27.5151 42.0912 27.9147C42.0906 27.9153 42.0893 27.9153 42.0887 27.9159L42.0601 27.9293C42.0518 27.9331 42.0442 27.9369 42.0359 27.9408C42.0187 27.949 42.0015 27.9567 41.9837 27.9643C41.9837 27.9643 41.9837 27.9649 41.9831 27.9649C41.9067 27.9999 41.8298 28.0343 41.7528 28.0674C41.4442 28.1997 41.1325 28.3161 40.822 28.4115" stroke="#663E2A" stroke-width="0.636201" stroke-linecap="round" stroke-linejoin="round"/>
<path d="M47.9081 18.1502C47.9558 18.093 48.0131 18.0389 48.0786 17.9893C48.1238 17.9549 48.1727 17.9225 48.2243 17.8926C48.3382 17.8258 48.466 17.7711 48.6009 17.7297C49.0157 17.6025 49.4973 17.6095 49.8288 17.8461C50.1481 18.0739 50.388 18.4232 50.5388 18.8246C50.5979 18.9811 50.6431 19.1452 50.6736 19.3138C50.7188 19.56 50.7341 19.8145 50.7163 20.0646C50.7112 20.1339 50.7035 20.202 50.694 20.27C50.5789 21.0698 50.1596 21.7753 49.6112 22.2728C49.5304 22.346 49.4464 22.4153 49.3599 22.4796C49.1919 22.6043 48.9915 22.7131 48.7733 22.804C48.424 22.9504 48.0283 23.0522 47.6472 23.1081C47.4341 23.1393 47.2248 23.1565 47.0314 23.1584H46.9939C46.9048 23.1584 46.8202 23.1546 46.7394 23.1482" stroke="#663E2A" stroke-width="0.636201" stroke-linecap="round" stroke-linejoin="round"/>
<path d="M30.1224 18.1445C30.3763 19.6574 30.7644 21.51 31.2415 22.9949C31.2568 23.0426 31.2727 23.0904 31.288 23.1374C31.3255 23.2513 31.3637 23.3627 31.4018 23.4714C31.5609 23.9187 31.7288 24.3201 31.9038 24.6535C31.9121 24.6707 31.9216 24.6879 31.9305 24.705C32.045 24.9175 32.2085 25.1459 32.4134 25.3832C33.1692 26.2599 34.483 27.2467 35.903 27.9147C35.903 27.9153 35.9049 27.9153 35.9055 27.9159L35.9341 27.9293C35.9424 27.9331 35.95 27.9369 35.9583 27.9408C35.9806 27.9509 36.0028 27.9611 36.0257 27.9713C36.097 28.0044 36.1695 28.0362 36.2414 28.0674C36.55 28.1997 36.8617 28.3161 37.1722 28.4115" stroke="#663E2A" stroke-width="0.636201" stroke-linecap="round" stroke-linejoin="round"/>
<path d="M30.0862 18.1502C30.0385 18.093 29.9812 18.0389 29.9157 17.9893C29.8075 17.9066 29.6784 17.8359 29.5378 17.78C29.4907 17.7615 29.4424 17.7443 29.3934 17.7297C28.9786 17.6025 28.497 17.6095 28.1655 17.8461C27.8461 18.0739 27.6063 18.4232 27.4555 18.8246C27.4332 18.8831 27.4129 18.9429 27.3951 19.004C27.3645 19.1045 27.3397 19.2082 27.3206 19.3138C27.2755 19.56 27.2602 19.8145 27.278 20.0646C27.2831 20.1339 27.2907 20.202 27.3003 20.27C27.4154 21.0698 27.8347 21.7753 28.3831 22.2728C28.4639 22.346 28.5479 22.4153 28.6344 22.4796C28.8023 22.6043 29.0028 22.7131 29.221 22.804C29.5702 22.9504 29.966 23.0522 30.347 23.1081C30.5602 23.1393 30.7695 23.1565 30.9629 23.1584H31.0004C31.0889 23.1584 31.1728 23.1546 31.253 23.1482H31.2549" stroke="#663E2A" stroke-width="0.636201" stroke-linecap="round" stroke-linejoin="round"/>
<path d="M37.1943 23.5059C37.1943 23.5059 37.7987 24.4888 39.012 24.4888C40.2252 24.4888 40.7106 23.5059 40.7106 23.5059" stroke="#663E2A" stroke-width="0.636201" stroke-linecap="round" stroke-linejoin="round"/>
<path d="M38.953 20.0898V21.6269" stroke="#663E2A" stroke-width="0.636201" stroke-linecap="round" stroke-linejoin="round"/>
<path d="M41.9913 15.6127C42.7058 15.3894 43.5068 15.4918 44.1576 15.8557C44.2568 15.9104 44.3523 15.9721 44.4433 16.0402C44.5883 16.1458 44.7219 16.2667 44.8415 16.4016" stroke="#663E2A" stroke-width="0.636201" stroke-linecap="round" stroke-linejoin="round"/>
<path d="M35.9538 15.6127C35.6179 15.5077 35.2635 15.4746 34.9136 15.5071C34.5198 15.5433 34.133 15.6629 33.7876 15.8557C33.6889 15.9104 33.5929 15.9721 33.5019 16.0402C33.3568 16.1458 33.2239 16.2667 33.1036 16.4016" stroke="#663E2A" stroke-width="0.636201" stroke-linecap="round" stroke-linejoin="round"/>
<path d="M42.7572 18.1357C43.0575 18.1357 43.3012 18.4901 43.3012 18.9272C43.3012 19.3642 43.0575 19.718 42.7572 19.718C42.4569 19.718 42.2133 19.3636 42.2133 18.9272C42.2133 18.4907 42.4563 18.1357 42.7572 18.1357Z" fill="#663E2A" stroke="#663E2A" stroke-width="0.0636201" stroke-miterlimit="10"/>
<path d="M35.5349 18.1357C35.8352 18.1357 36.0789 18.4901 36.0789 18.9272C36.0789 19.3642 35.8352 19.718 35.5349 19.718C35.2347 19.718 34.9904 19.3636 34.9904 18.9272C34.9904 18.4907 35.234 18.1357 35.5349 18.1357Z" fill="#663E2A" stroke="#663E2A" stroke-width="0.0636201" stroke-miterlimit="10"/>
<path d="M42.1858 15.5736C42.9002 15.3503 43.7012 15.4527 44.3521 15.8166C44.4513 15.8713 44.5467 15.9331 44.6377 16.0011C44.7828 16.1067 44.9164 16.2276 45.036 16.3625" stroke="#663E2A" stroke-width="0.636201" stroke-linecap="round" stroke-linejoin="round"/>
<path d="M36.1481 15.5736C35.8409 15.4776 35.5177 15.4419 35.197 15.461" stroke="#663E2A" stroke-width="0.636201" stroke-linecap="round" stroke-linejoin="round"/>
<path d="M37.4086 23.5234C37.4086 23.5234 38.013 24.5064 39.2262 24.5064C40.4394 24.5064 40.9249 23.5234 40.9249 23.5234" stroke="#663E2A" stroke-width="0.636201" stroke-linecap="round" stroke-linejoin="round"/>
<path d="M39.167 20.1074V21.6445" stroke="#663E2A" stroke-width="0.636201" stroke-linecap="round" stroke-linejoin="round"/>
</svg>
